<svg xmlns="http://www.w3.org/2000/svg" width="18" height="18" viewBox="0 0 18 18">
  <g id="Group_2286" data-name="Group 2286" transform="translate(-332.715 -71.733)">
    <path id="Path_3158" data-name="Path 3158" d="M349.742,73.673a.97.97,0,1,1,.688-1.655.97.97,0,0,1-.688,1.655Z" fill="#fff"/>
    <path id="Path_3159" data-name="Path 3159" d="M349.742,89.733a.97.97,0,0,1-.972-.97.973.973,0,1,1,.972.97Z" fill="#fff"/>
    <path id="Path_3160" data-name="Path 3160" d="M341.715,89.733a.963.963,0,0,1-.968-.956l0-.3V81.715H334.33l-.643-.012A.969.969,0,0,1,333,80.048a.954.954,0,0,1,.682-.274h7.062v-6.4h.009l-.005-.653a.97.97,0,1,1,1.94-.014v7.072h7a.994.994,0,0,1,.742.273.965.965,0,0,1-.672,1.65l-.633.01v.007h-6.438v6.86l-.005.2a.961.961,0,0,1-.967.956Z" fill="#fff"/>
    <path id="Path_3161" data-name="Path 3161" d="M333.687,73.673a.97.97,0,1,1,.688-.284A.969.969,0,0,1,333.687,73.673Z" fill="#fff"/>
    <path id="Path_3162" data-name="Path 3162" d="M333.687,89.733a.97.97,0,1,1,.687-1.655.968.968,0,0,1,0,1.371A.969.969,0,0,1,333.687,89.733Z" fill="#fff"/>
  </g>
</svg>
