<svg id="sales_network" data-name="sales network" xmlns="http://www.w3.org/2000/svg" width="23.94" height="24" viewBox="0 0 23.94 24">
  <circle id="Ellipse_67" data-name="Ellipse 67" cx="1.975" cy="1.975" r="1.975" transform="translate(19.99 19.99)" fill="#fff"/>
  <path id="Path_2561" data-name="Path 2561" d="M33.909,3.422a1.989,1.989,0,1,1,2.813,0A1.987,1.987,0,0,1,33.909,3.422Z" transform="translate(-13.38 -0.01)" fill="#fff"/>
  <path id="Path_2562" data-name="Path 2562" d="M33.909,20.122a1.989,1.989,0,1,1,2.813,0A1.987,1.987,0,0,1,33.909,20.122Z" transform="translate(-13.38 -6.715)" fill="#fff"/>
  <circle id="Ellipse_68" data-name="Ellipse 68" cx="1.975" cy="1.975" r="1.975" transform="translate(9.995 19.99)" fill="#fff"/>
  <path id="Path_2563" data-name="Path 2563" d="M17.209,3.422a1.989,1.989,0,1,1,2.813,0A1.987,1.987,0,0,1,17.209,3.422Z" transform="translate(-6.675 -0.01)" fill="#fff"/>
  <path id="Path_2564" data-name="Path 2564" d="M17.209,20.122a1.989,1.989,0,1,1,2.813,0A1.987,1.987,0,0,1,17.209,20.122Z" transform="translate(-6.675 -6.715)" fill="#fff"/>
  <circle id="Ellipse_69" data-name="Ellipse 69" cx="1.975" cy="1.975" r="1.975" transform="translate(0 19.99)" fill="#fff"/>
  <path id="Path_2565" data-name="Path 2565" d="M.609,20.122a1.989,1.989,0,1,1,2.813,0A1.987,1.987,0,0,1,.609,20.122Z" transform="translate(-0.01 -6.715)" fill="#fff"/>
  <path id="Path_2566" data-name="Path 2566" d="M.609,3.422a1.989,1.989,0,1,1,2.813,0A1.987,1.987,0,0,1,.609,3.422Z" transform="translate(-0.01 -0.01)" fill="#fff"/>
  <rect id="Rectangle_759" data-name="Rectangle 759" width="9.995" height="4.01" transform="translate(1.975 19.99)" fill="#fff"/>
  <rect id="Rectangle_760" data-name="Rectangle 760" width="4.01" height="9.995" transform="translate(0 11.97)" fill="#fff"/>
  <rect id="Rectangle_761" data-name="Rectangle 761" width="4.01" height="19.93" transform="translate(9.995 2.035)" fill="#fff"/>
  <path id="Path_2567" data-name="Path 2567" d="M3.3,16.7H23.29v4.01H3.3Z" transform="translate(-1.325 -6.705)" fill="#fff"/>
  <rect id="Rectangle_762" data-name="Rectangle 762" width="4.01" height="9.995" transform="translate(19.93 1.975)" fill="#fff"/>
  <rect id="Rectangle_763" data-name="Rectangle 763" width="9.995" height="4.01" transform="translate(11.97)" fill="#fff"/>
</svg>
