<svg id="leads" xmlns="http://www.w3.org/2000/svg" width="24.015" height="24" viewBox="0 0 24.015 24">
  <circle id="Ellipse_70" data-name="Ellipse 70" cx="1.981" cy="1.981" r="1.981" transform="translate(20.053 0)" fill="#fff"/>
  <path id="Path_2568" data-name="Path 2568" d="M33.91,33.91a2,2,0,1,0,2.822,0A1.993,1.993,0,0,0,33.91,33.91Z" transform="translate(-13.317 -13.317)" fill="#fff"/>
  <path id="Path_2569" data-name="Path 2569" d="M33.91,17.31a2,2,0,1,0,2.822,0A1.993,1.993,0,0,0,33.91,17.31Z" transform="translate(-13.317 -6.684)" fill="#fff"/>
  <circle id="Ellipse_71" data-name="Ellipse 71" cx="1.981" cy="1.981" r="1.981" transform="translate(10.026 0)" fill="#fff"/>
  <path id="Path_2570" data-name="Path 2570" d="M17.21,33.91a2,2,0,1,0,2.822,0A1.993,1.993,0,0,0,17.21,33.91Z" transform="translate(-6.644 -13.317)" fill="#fff"/>
  <path id="Path_2571" data-name="Path 2571" d="M17.21,17.31a2,2,0,1,0,2.822,0A1.993,1.993,0,0,0,17.21,17.31Z" transform="translate(-6.644 -6.684)" fill="#fff"/>
  <circle id="Ellipse_72" data-name="Ellipse 72" cx="1.981" cy="1.981" r="1.981" transform="translate(0 0)" fill="#fff"/>
  <path id="Path_2572" data-name="Path 2572" d="M.61,17.31a2,2,0,1,0,2.822,0A1.993,1.993,0,0,0,.61,17.31Z" transform="translate(-0.01 -6.684)" fill="#fff"/>
  <path id="Path_2573" data-name="Path 2573" d="M.61,33.91a2,2,0,1,0,2.822,0A1.993,1.993,0,0,0,.61,33.91Z" transform="translate(-0.01 -13.317)" fill="#fff"/>
  <rect id="Rectangle_764" data-name="Rectangle 764" width="28.278" height="4.023" transform="translate(0.568 20.621) rotate(-44.951)" fill="#fff"/>
  <rect id="Rectangle_765" data-name="Rectangle 765" width="19.992" height="4.023" transform="translate(1.981)" fill="#fff"/>
  <rect id="Rectangle_766" data-name="Rectangle 766" width="4.023" height="20.053" transform="translate(19.992 1.981)" fill="#fff"/>
</svg>
