<svg id="reports" xmlns="http://www.w3.org/2000/svg" width="24.015" height="24" viewBox="0 0 24.015 24">
  <circle id="Ellipse_73" data-name="Ellipse 73" cx="1.981" cy="1.981" r="1.981" transform="translate(20.053 0)" fill="#fff"/>
  <path id="Path_2574" data-name="Path 2574" d="M33.91,33.91a2,2,0,1,0,2.822,0A1.993,1.993,0,0,0,33.91,33.91Z" transform="translate(-13.317 -13.317)" fill="#fff"/>
  <path id="Path_2575" data-name="Path 2575" d="M33.91,17.31a2,2,0,1,0,2.822,0A1.993,1.993,0,0,0,33.91,17.31Z" transform="translate(-13.317 -6.684)" fill="#fff"/>
  <circle id="Ellipse_74" data-name="Ellipse 74" cx="1.981" cy="1.981" r="1.981" transform="translate(10.026 0)" fill="#fff"/>
  <path id="Path_2576" data-name="Path 2576" d="M17.21,33.91a2,2,0,1,0,2.822,0A1.993,1.993,0,0,0,17.21,33.91Z" transform="translate(-6.644 -13.317)" fill="#fff"/>
  <path id="Path_2577" data-name="Path 2577" d="M17.21,17.31a2,2,0,1,0,2.822,0A1.993,1.993,0,0,0,17.21,17.31Z" transform="translate(-6.644 -6.684)" fill="#fff"/>
  <circle id="Ellipse_75" data-name="Ellipse 75" cx="1.981" cy="1.981" r="1.981" transform="translate(0 0)" fill="#fff"/>
  <path id="Path_2578" data-name="Path 2578" d="M.61,17.31a2,2,0,1,0,2.822,0A1.993,1.993,0,0,0,.61,17.31Z" transform="translate(-0.01 -6.684)" fill="#fff"/>
  <path id="Path_2579" data-name="Path 2579" d="M.61,33.91a2,2,0,1,0,2.822,0A1.993,1.993,0,0,0,.61,33.91Z" transform="translate(-0.01 -13.317)" fill="#fff"/>
  <rect id="Rectangle_767" data-name="Rectangle 767" width="4.023" height="10.026" transform="translate(10.026 12.008)" fill="#fff"/>
  <rect id="Rectangle_768" data-name="Rectangle 768" width="4.023" height="19.992" transform="translate(19.992 1.981)" fill="#fff"/>
</svg>
