<svg xmlns="http://www.w3.org/2000/svg" width="18" height="18" viewBox="0 0 18 18">
  <g id="Group_2287" data-name="Group 2287" transform="translate(-396.01 -72.049)">
    <path id="Path_3164" data-name="Path 3164" d="M413.037,82.019a.973.973,0,1,1,.688-.285A.966.966,0,0,1,413.037,82.019Z" fill="#fff"/>
    <path id="Path_3165" data-name="Path 3165" d="M396.982,82.019a.971.971,0,1,1,.688-.285A.965.965,0,0,1,396.982,82.019Z" fill="#fff"/>
    <path id="Path_3163" data-name="Path 3163" d="M396.982,90.049a.971.971,0,0,1-.9-1.335.949.949,0,0,1,.213-.32l7.343-7.345-7.343-7.344a.964.964,0,0,1-.263-.616l-.005-.063-.015-.062a.946.946,0,0,1,.924-.9l.074,0,.042-.011h15.923a.808.808,0,0,0,.135.022.965.965,0,0,1,.616.262.967.967,0,0,1,0,1.372l-7.343,7.344,7.343,7.345a.97.97,0,0,1-.686,1.655Zm2.341-1.938H410.7l-5.687-5.688Zm5.686-8.436,5.685-5.686h-11.37Z" fill="#fff"/>
  </g>
</svg>
