<svg id="quotes" xmlns="http://www.w3.org/2000/svg" width="24.015" height="24" viewBox="0 0 24.015 24">
  <circle id="Ellipse_79" data-name="Ellipse 79" cx="1.981" cy="1.981" r="1.981" transform="translate(20.053 0)" fill="#fff"/>
  <path id="Path_2587" data-name="Path 2587" d="M33.91,33.91a2,2,0,1,0,2.822,0A1.993,1.993,0,0,0,33.91,33.91Z" transform="translate(-13.317 -13.317)" fill="#fff"/>
  <path id="Path_2588" data-name="Path 2588" d="M33.91,17.31a2,2,0,1,0,2.822,0A1.993,1.993,0,0,0,33.91,17.31Z" transform="translate(-13.317 -6.684)" fill="#fff"/>
  <circle id="Ellipse_80" data-name="Ellipse 80" cx="1.981" cy="1.981" r="1.981" transform="translate(10.026 0)" fill="#fff"/>
  <path id="Path_2589" data-name="Path 2589" d="M17.21,33.91a2,2,0,1,0,2.822,0A1.993,1.993,0,0,0,17.21,33.91Z" transform="translate(-6.644 -13.317)" fill="#fff"/>
  <path id="Path_2590" data-name="Path 2590" d="M17.21,17.31a2,2,0,1,0,2.822,0A1.993,1.993,0,0,0,17.21,17.31Z" transform="translate(-6.644 -6.684)" fill="#fff"/>
  <circle id="Ellipse_81" data-name="Ellipse 81" cx="1.981" cy="1.981" r="1.981" transform="translate(0 0)" fill="#fff"/>
  <path id="Path_2591" data-name="Path 2591" d="M.61,17.31a2,2,0,1,0,2.822,0A1.993,1.993,0,0,0,.61,17.31Z" transform="translate(-0.01 -6.684)" fill="#fff"/>
  <path id="Path_2592" data-name="Path 2592" d="M.61,33.91a2,2,0,1,0,2.822,0A1.993,1.993,0,0,0,.61,33.91Z" transform="translate(-0.01 -13.317)" fill="#fff"/>
  <path id="Path_2593" data-name="Path 2593" d="M23.425.61A1.993,1.993,0,0,0,20.6.61L.61,20.6a2,2,0,0,0,2.822,2.822L23.425,3.432A1.993,1.993,0,0,0,23.425.61Z" transform="translate(-0.01 -0.01)" fill="#fff"/>
  <path id="Path_2594" data-name="Path 2594" d="M30.058,17.31a1.993,1.993,0,0,0-2.822,0L17.21,27.277A2,2,0,0,0,20.032,30.1l10.026-9.966A1.993,1.993,0,0,0,30.058,17.31Z" transform="translate(-6.644 -6.684)" fill="#fff"/>
</svg>
