<svg id="digital_assets" data-name="digital assets" xmlns="http://www.w3.org/2000/svg" width="23.94" height="24" viewBox="0 0 23.94 24">
  <circle id="Ellipse_82" data-name="Ellipse 82" cx="1.975" cy="1.975" r="1.975" transform="translate(19.99 0)" fill="#fff"/>
  <path id="Path_2595" data-name="Path 2595" d="M33.909,33.909a1.989,1.989,0,1,0,2.813,0A1.987,1.987,0,0,0,33.909,33.909Z" transform="translate(-13.38 -13.38)" fill="#fff"/>
  <path id="Path_2596" data-name="Path 2596" d="M33.909,17.309a1.989,1.989,0,1,0,2.813,0A1.987,1.987,0,0,0,33.909,17.309Z" transform="translate(-13.38 -6.715)" fill="#fff"/>
  <circle id="Ellipse_83" data-name="Ellipse 83" cx="1.975" cy="1.975" r="1.975" transform="translate(9.995 0)" fill="#fff"/>
  <path id="Path_2597" data-name="Path 2597" d="M17.209,33.909a1.989,1.989,0,1,0,2.813,0A1.987,1.987,0,0,0,17.209,33.909Z" transform="translate(-6.675 -13.38)" fill="#fff"/>
  <path id="Path_2598" data-name="Path 2598" d="M17.209,17.309a1.989,1.989,0,1,0,2.813,0A1.987,1.987,0,0,0,17.209,17.309Z" transform="translate(-6.675 -6.715)" fill="#fff"/>
  <circle id="Ellipse_84" data-name="Ellipse 84" cx="1.975" cy="1.975" r="1.975" transform="translate(0 0)" fill="#fff"/>
  <path id="Path_2599" data-name="Path 2599" d="M.609,17.309a1.989,1.989,0,1,0,2.813,0A1.987,1.987,0,0,0,.609,17.309Z" transform="translate(-0.01 -6.715)" fill="#fff"/>
  <path id="Path_2600" data-name="Path 2600" d="M.609,33.909a1.989,1.989,0,1,0,2.813,0A1.987,1.987,0,0,0,.609,33.909Z" transform="translate(-0.01 -13.38)" fill="#fff"/>
  <rect id="Rectangle_769" data-name="Rectangle 769" width="4.01" height="9.995" transform="translate(0 11.97)" fill="#fff"/>
  <rect id="Rectangle_770" data-name="Rectangle 770" width="4.01" height="9.995" transform="translate(19.93 11.97)" fill="#fff"/>
  <rect id="Rectangle_771" data-name="Rectangle 771" width="4.01" height="19.99" transform="translate(9.995 1.975)" fill="#fff"/>
  <rect id="Rectangle_772" data-name="Rectangle 772" width="19.93" height="4.01" transform="translate(1.975 19.99)" fill="#fff"/>
</svg>
