<svg xmlns="http://www.w3.org/2000/svg" width="18" height="18" viewBox="0 0 18 18"><defs><style>.a{fill:#fff;}</style></defs><g transform="translate(-330.119 -132.961)"><path class="a" d="M339.119,150.961a.973.973,0,1,1,.688-.285A.968.968,0,0,1,339.119,150.961Z"/><path class="a" d="M331.092,142.931a.971.971,0,0,1-.973-.97.971.971,0,0,1,.973-.969.969.969,0,1,1,0,1.939Z"/><path class="a" d="M347.147,150.961a.971.971,0,0,1-.972-.969V136.3l-14.407,14.363-.034.057a.971.971,0,0,1-1.33-1.413l.456-.455-.014-.013,13.98-13.937H331.091a.97.97,0,1,1,0-1.94h16.056a.97.97,0,0,1,.972.97v16.06a.954.954,0,0,1-.284.685A.964.964,0,0,1,347.147,150.961Z"/></g></svg>