<svg id="agreement" xmlns="http://www.w3.org/2000/svg" width="17.664" height="10.304" viewBox="0 0 17.664 10.304">
  <path id="Path_2601" data-name="Path 2601" d="M4.269,107.476c-.589-.589-3.091-.736-3.9-.81a.27.27,0,0,0-.221.074.558.558,0,0,0-.147.294v6.624a.348.348,0,0,0,.368.368H2.576a.4.4,0,0,0,.368-.221,47.843,47.843,0,0,0,1.472-6.035A.294.294,0,0,0,4.269,107.476Z" transform="translate(0 -106.666)" fill="#4d4f5c"/>
  <path id="Path_2602" data-name="Path 2602" d="M186.959,152.5c-.736-.221-1.4-.515-1.987-.736-1.325-.589-1.914-.294-3.091.883a2.408,2.408,0,0,0-.81,1.546c0,.074,0,.074.147.147.368.147.883.221,1.4-.589a.382.382,0,0,1,.294-.147,1.364,1.364,0,0,0,.515-.147,3.587,3.587,0,0,1,.515-.221h.147c.074,0,.221.074.294.074.368.368,1.03.883,1.693,1.472a16.858,16.858,0,0,1,2.576,2.355h.074C188.21,155.662,187.327,153.159,186.959,152.5Z" transform="translate(-174.815 -149.921)" fill="#4d4f5c"/>
  <path id="Path_2603" data-name="Path 2603" d="M367.45,128a12.907,12.907,0,0,0-4.563.736l-.221.221a.443.443,0,0,0,.074.294,41.447,41.447,0,0,1,2.134,5.814.489.489,0,0,0,.368.294h2.208a.348.348,0,0,0,.368-.368v-6.624A.348.348,0,0,0,367.45,128Z" transform="translate(-350.154 -127.264)" fill="#4d4f5c"/>
  <path id="Path_2604" data-name="Path 2604" d="M120.428,176.408a11.016,11.016,0,0,0-2.65-2.5c-.589-.515-1.178-.957-1.619-1.325-.074.074-.221.074-.221.147a1.387,1.387,0,0,1-.589.147,1.818,1.818,0,0,1-2.134.736.87.87,0,0,1-.662-.662,3.137,3.137,0,0,1,1.03-2.282h-1.472a37.53,37.53,0,0,1-1.178,4.416,8.321,8.321,0,0,0,.81.81c1.4,1.178,3.018,2.355,3.312,2.576a2.092,2.092,0,0,0,.883.294h.221l-1.178-1.178a.364.364,0,0,1,.515-.515l1.472,1.472c.147.147.294.074.442.074.221-.074.294-.221.368-.442l-1.693-1.693a.364.364,0,1,1,.515-.515l1.84,1.84a.787.787,0,0,0,.589,0c.074-.074.221-.147.294-.294l-2.061-2.061a.364.364,0,1,1,.515-.515l2.134,2.134a.487.487,0,0,0,.442-.074A.5.5,0,0,0,120.428,176.408Z" transform="translate(-107.107 -168.459)" fill="#4d4f5c"/>
</svg>
