<?xml version="1.0" encoding="utf-8"?>
<!-- Generator: Adobe Illustrator 24.1.1, SVG Export Plug-In . SVG Version: 6.00 Build 0)  -->
<svg version="1.1" id="Layer_1" xmlns="http://www.w3.org/2000/svg" xmlns:xlink="http://www.w3.org/1999/xlink" x="0px" y="0px"
	 viewBox="0 0 22 16" style="enable-background:new 0 0 22 16;" xml:space="preserve">
<style type="text/css">
	.st0{fill:#FFFFFF;stroke:#808495;stroke-width:1.5;}
</style>
<g id="all-tasks" transform="translate(-161.024 -109.444)">
	<circle id="Ellipse_114" class="st0" cx="164.5" cy="112.8" r="2.6"/>
	<path id="Rectangle_843" class="st0" d="M172.2,110.2h7.4c1.4,0,2.6,1.2,2.6,2.6l0,0c0,1.4-1.2,2.6-2.6,2.6h-7.4
		c-1.4,0-2.6-1.2-2.6-2.6l0,0C169.6,111.4,170.7,110.2,172.2,110.2z"/>
	<circle id="Ellipse_115" class="st0" cx="164.5" cy="122.1" r="2.6"/>
	<path id="Rectangle_844" class="st0" d="M172.2,119.5h3.5c1.4,0,2.6,1.2,2.6,2.6l0,0c0,1.4-1.2,2.6-2.6,2.6h-3.5
		c-1.4,0-2.6-1.2-2.6-2.6l0,0C169.6,120.6,170.7,119.5,172.2,119.5z"/>
</g>
</svg>
