<svg xmlns="http://www.w3.org/2000/svg" width="19.43" height="19.43" viewBox="0 0 19.43 19.43">
  <path id="attach-icon" d="M18.4,7.36a.618.618,0,0,0-.617.617v7.694a3.192,3.192,0,0,1-.871,2.181,3.132,3.132,0,0,1-2.2.938h-.538a3.076,3.076,0,0,1-2.169-.974,3.178,3.178,0,0,1-.946-2.185V5.705a2.151,2.151,0,0,1,.685-1.563A2.355,2.355,0,0,1,13.371,3.5a2.2,2.2,0,0,1,2.224,2.208v9.269a1.251,1.251,0,0,1-1.148,1.274,1.216,1.216,0,0,1-1.116-1.274V6.687a.617.617,0,0,0-1.235,0v8.288a2.374,2.374,0,0,0,4.041,1.781,2.5,2.5,0,0,0,.693-1.781V5.705A3.459,3.459,0,0,0,13.359,2.25,3.473,3.473,0,0,0,10.9,3.259a3.415,3.415,0,0,0-1.025,2.45v9.926a4.423,4.423,0,0,0,1.29,3.087,4.278,4.278,0,0,0,3.012,1.263h.538a4.323,4.323,0,0,0,3-1.27,4.446,4.446,0,0,0,.946-1.369,4.144,4.144,0,0,0,.352-1.666v-7.7A.612.612,0,0,0,18.4,7.36Z" transform="translate(7.363 -8.359) rotate(45)" fill="#808495" stroke="#808495" stroke-width="0.3"/>
</svg>
