<?xml version="1.0" encoding="utf-8"?>
<!-- Generator: Adobe Illustrator 24.1.2, SVG Export Plug-In . SVG Version: 6.00 Build 0)  -->
<svg version="1.1" id="Capa_1" xmlns="http://www.w3.org/2000/svg" xmlns:xlink="http://www.w3.org/1999/xlink" x="0px" y="0px"
	 width="30px" height="30px" viewBox="0 0 30 30" style="enable-background:new 0 0 30 30;" xml:space="preserve">
<style type="text/css">
	.st0{fill:#FFFFFF;}
</style>
<g>
	<g>
		<g>
			<polygon class="st0" points="13.3,15.7 13.3,17.2 19.2,16 19.2,14.5 			"/>
		</g>
	</g>
	<g>
		<g>
			<circle class="st0" cx="10.8" cy="23.5" r="1"/>
		</g>
	</g>
	<g>
		<g>
			<path class="st0" d="M19.2,1.5V7c0,0.2,0.1,0.4,0.3,0.4c0,0,0,0,0.1,0h5.5L19.2,1.5z"/>
		</g>
	</g>
	<g>
		<g>
			<circle class="st0" cx="18.4" cy="22" r="1"/>
		</g>
	</g>
	<g>
		<g>
			<path class="st0" d="M19.6,9.1c-1.2,0-2.1-0.9-2.1-2.1V0.3H6.2c-1.4,0-2.5,1.1-2.5,2.5v24.4c0,1.4,1.1,2.5,2.5,2.5h17.7
				c1.4,0,2.5-1.1,2.5-2.5V9.1H19.6z M18.4,24.6c-1.4,0-2.6-1.2-2.6-2.6c0-1.4,1.1-2.6,2.6-2.6c0.3,0,0.9,0.1,0.9,0.2v-1.8L13.3,19
				v4.5c0,1.4-1.2,2.6-2.6,2.6s-2.6-1.2-2.6-2.6c0-1.4,1.2-2.6,2.6-2.6c0.3,0,0.6,0,0.9,0.2v-6c0-0.4,0.3-0.8,0.7-0.8l7.7-1.6
				c0.2,0,0.5,0,0.6,0.2c0.2,0.2,0.3,0.4,0.3,0.6l0.2,8.3v0.1l0,0C21.1,23.3,19.9,24.5,18.4,24.6z"/>
		</g>
	</g>
</g>
</svg>
