<svg xmlns="http://www.w3.org/2000/svg" width="15.62" height="18.6" viewBox="0 0 15.62 18.6">
  <g id="bin" transform="translate(0.313 0.77)">
    <path id="Path_2288" data-name="Path 2288" d="M222.831,154.7a.422.422,0,0,0-.433.411v7.761a.433.433,0,0,0,.865,0v-7.761A.422.422,0,0,0,222.831,154.7Zm0,0" transform="translate(-212.782 -148.354)" fill="#4d4f5c" stroke="#4d4f5c" stroke-width="0.6"/>
    <path id="Path_2289" data-name="Path 2289" d="M104.831,154.7a.422.422,0,0,0-.433.411v7.761a.433.433,0,0,0,.865,0v-7.761A.422.422,0,0,0,104.831,154.7Zm0,0" transform="translate(-99.886 -148.354)" fill="#4d4f5c" stroke="#4d4f5c" stroke-width="0.6"/>
    <path id="Path_2290" data-name="Path 2290" d="M1.225,5.216V15.333a2.166,2.166,0,0,0,2.18,2.2h8.183a2.166,2.166,0,0,0,2.18-2.2V5.216A1.573,1.573,0,0,0,14.983,3.5a1.626,1.626,0,0,0-1.638-1.366H11.13v-.98A1.573,1.573,0,0,0,10.631,0,1.747,1.747,0,0,0,9.417-.47H5.576A1.747,1.747,0,0,0,4.363,0a1.573,1.573,0,0,0-.5,1.151v.98H1.649A1.626,1.626,0,0,0,.011,3.5,1.573,1.573,0,0,0,1.225,5.216ZM11.588,16.709H3.405A1.33,1.33,0,0,1,2.09,15.333V5.252H12.9V15.333a1.33,1.33,0,0,1-1.315,1.376ZM4.729,1.152A.77.77,0,0,1,4.974.581a.857.857,0,0,1,.6-.23H9.417a.857.857,0,0,1,.6.23.77.77,0,0,1,.245.571v.98H4.729Zm-3.08,1.8h11.7a.76.76,0,0,1,.779.739.76.76,0,0,1-.779.739H1.649a.76.76,0,0,1-.779-.739A.76.76,0,0,1,1.649,2.953Zm0,0" transform="translate(0 0)" fill="#4d4f5c" stroke="#4d4f5c" stroke-width="0.6"/>
    <path id="Path_2291" data-name="Path 2291" d="M163.831,154.7a.422.422,0,0,0-.433.411v7.761a.433.433,0,0,0,.865,0v-7.761A.422.422,0,0,0,163.831,154.7Zm0,0" transform="translate(-156.334 -148.354)" fill="#4d4f5c" stroke="#4d4f5c" stroke-width="0.6"/>
  </g>
</svg>
