<svg xmlns="http://www.w3.org/2000/svg" width="12.166" height="15.133" viewBox="0 0 12.166 15.133">
  <g id="client" transform="translate(105.37 -76.993)">
    <g id="Icon_feather-user" data-name="Icon feather-user">
      <path id="Path_2732" data-name="Path 2732" d="M-93.954,91.376V88.408a2.667,2.667,0,0,0-2.666-2.666h-5.334a2.666,2.666,0,0,0-2.666,2.666h0v2.968" fill="none" stroke="#4d4f5c" stroke-linecap="round" stroke-linejoin="round" stroke-width="1.5"/>
      <path id="Path_2733" data-name="Path 2733" d="M-96.621,80.409a2.667,2.667,0,0,1-2.666,2.666,2.666,2.666,0,0,1-2.666-2.666,2.666,2.666,0,0,1,2.665-2.666,2.667,2.667,0,0,1,2.667,2.665Z" fill="none" stroke="#4d4f5c" stroke-linecap="round" stroke-linejoin="round" stroke-width="1.5"/>
    </g>
    <path id="Path_2739" data-name="Path 2739" d="M-97.536,86.252-99.287,89l-1.751-2.751" fill="none" stroke="#4d4f5c" stroke-linecap="round" stroke-linejoin="round" stroke-width="1.5"/>
  </g>
</svg>
