<?xml version="1.0" encoding="utf-8"?>
<!-- Generator: Adobe Illustrator 24.1.1, SVG Export Plug-In . SVG Version: 6.00 Build 0)  -->
<svg version="1.1" id="Icon_Access_Time_Rounded" xmlns="http://www.w3.org/2000/svg" xmlns:xlink="http://www.w3.org/1999/xlink"
	 x="0px" y="0px" viewBox="0 0 24 24" style="enable-background:new 0 0 24 24;" xml:space="preserve">
<style type="text/css">
	.st0{fill:none;}
	.st1{fill:#808495;}
</style>
<rect id="Box" class="st0" width="24" height="24"/>
<path id="Path_2027" class="st1" d="M11.7,7L11.7,7c-0.4,0-0.7,0.2-0.8,0.6c0,0,0,0.1,0,0.1v4.7c0,0.4,0.2,0.7,0.5,0.9l4.2,2.5
	c0.3,0.2,0.8,0.1,1-0.2c0.2-0.3,0.1-0.8-0.2-1l-3.9-2.3V7.8C12.4,7.3,12.1,7,11.7,7z M11.9,20c-4.4,0-8-3.6-8-8s3.6-8,8-8s8,3.6,8,8
	C19.9,16.4,16.3,20,11.9,20L11.9,20z M11.9,2c-5.5,0-10,4.5-10,10s4.5,10,10,10s10-4.5,10-10C21.9,6.5,17.4,2,11.9,2L11.9,2z"/>
</svg>
