<?xml version="1.0" encoding="utf-8"?>
<!-- Generator: Adobe Illustrator 24.1.1, SVG Export Plug-In . SVG Version: 6.00 Build 0)  -->
<svg version="1.1" id="Layer_1" xmlns="http://www.w3.org/2000/svg" xmlns:xlink="http://www.w3.org/1999/xlink" x="0px" y="0px"
	 viewBox="0 0 18 18" style="enable-background:new 0 0 18 18;" xml:space="preserve">
<style type="text/css">
	.st0{fill:#FFFFFF;}
	.st1{fill:#1EBF5F;}
</style>
<g id="complete-tasks" transform="translate(422.202 87.935)">
	<g id="Ellipse_98">
		<circle class="st0" cx="-413.2" cy="-78.9" r="8"/>
		<path class="st1" d="M-413.2-70.2c-4.8,0-8.8-3.9-8.8-8.8c0-4.8,3.9-8.8,8.8-8.8c4.8,0,8.8,3.9,8.8,8.8
			C-404.5-74.1-408.4-70.2-413.2-70.2z M-413.2-86.2c-4,0-7.3,3.3-7.3,7.3s3.3,7.3,7.3,7.3s7.3-3.3,7.3-7.3
			C-406-82.9-409.2-86.2-413.2-86.2z"/>
	</g>
	<g id="Path_2644">
		<path class="st0" d="M-409.8-81.2l-4.6,4.6l-2.3-2.3"/>
		<polygon class="st1" points="-414.3,-75.6 -417.1,-78.4 -416.1,-79.5 -414.3,-77.7 -410.3,-81.7 -409.3,-80.7 		"/>
	</g>
</g>
</svg>
