<?xml version="1.0" encoding="utf-8"?>
<!-- Generator: Adobe Illustrator 24.1.2, SVG Export Plug-In . SVG Version: 6.00 Build 0)  -->
<svg version="1.1" id="Capa_1" xmlns="http://www.w3.org/2000/svg" xmlns:xlink="http://www.w3.org/1999/xlink" x="0px" y="0px"
	 width="30px" height="30px" viewBox="0 0 30 30" style="enable-background:new 0 0 30 30;" xml:space="preserve">
<style type="text/css">
	.st0{fill:#FFFFFF;}
</style>
<g>
	<g>
		<g>
			<path class="st0" d="M26.9,5.9l-5.6-5.6c-0.2-0.2-0.4-0.3-0.7-0.3H5.7c-1.5,0-2.8,1.3-2.8,2.8v24.3c0,1.5,1.3,2.8,2.8,2.8h18.7
				c1.5,0,2.8-1.3,2.8-2.8V6.6C27.1,6.4,27,6.1,26.9,5.9z M25.3,27.1c0,0.5-0.4,0.9-0.9,0.9H5.7c-0.5,0-0.9-0.4-0.9-0.9V2.9
				c0-0.5,0.4-0.9,0.9-0.9h14v3.7c0,1,0.8,1.9,1.9,1.9h3.7V27.1z"/>
			<path class="st0" d="M10.3,10.3c-1.5,0-2.8,1.3-2.8,2.8s1.3,2.8,2.8,2.8s2.8-1.3,2.8-2.8C13.1,11.6,11.9,10.3,10.3,10.3z
				 M10.3,14.1c-0.5,0-0.9-0.4-0.9-0.9c0-0.5,0.4-0.9,0.9-0.9c0.5,0,0.9,0.4,0.9,0.9C11.3,13.6,10.9,14.1,10.3,14.1z"/>
			<path class="st0" d="M10.3,19.7c-1.5,0-2.8,1.3-2.8,2.8s1.3,2.8,2.8,2.8s2.8-1.3,2.8-2.8C13.1,20.9,11.9,19.7,10.3,19.7z
				 M10.3,23.4c-0.5,0-0.9-0.4-0.9-0.9s0.4-0.9,0.9-0.9c0.5,0,0.9,0.4,0.9,0.9S10.9,23.4,10.3,23.4z"/>
			<rect x="15" y="10.3" class="st0" width="7.5" height="1.9"/>
			<rect x="15" y="14.1" class="st0" width="3.7" height="1.9"/>
			<rect x="15" y="19.7" class="st0" width="7.5" height="1.9"/>
			<rect x="15" y="23.4" class="st0" width="3.7" height="1.9"/>
		</g>
	</g>
</g>
</svg>
