<?xml version="1.0" encoding="utf-8"?>
<!-- Generator: Adobe Illustrator 24.1.1, SVG Export Plug-In . SVG Version: 6.00 Build 0)  -->
<svg version="1.1" id="Layer_1" focusable="false" xmlns="http://www.w3.org/2000/svg" xmlns:xlink="http://www.w3.org/1999/xlink"
	 x="0px" y="0px" viewBox="0 0 50 50" style="enable-background:new 0 0 50 50;" xml:space="preserve">
<style type="text/css">
	.st0{fill:#808495;}
</style>
<path class="st0" d="M25,26c-4.4,0-8-3.6-8-8s3.6-8,8-8s8,3.6,8,8S29.4,26,25,26z M25,12c-3.3,0-6,2.7-6,6s2.7,6,6,6s6-2.7,6-6
	S28.3,12,25,12z M38,40c-0.6,0-1-0.4-1-1v-4.2c0-2.6-2.2-4.8-4.8-4.8H17.8c-2.6,0-4.8,2.2-4.8,4.8V39c0,0.6-0.4,1-1,1s-1-0.4-1-1
	v-4.2c0-3.8,3-6.8,6.8-6.8h14.4c3.7,0,6.8,3,6.8,6.8V39C39,39.6,38.6,40,38,40z"/>
<g>
	<path class="st0" d="M25,49.9C11.2,49.9,0.1,38.8,0.1,25S11.2,0.1,25,0.1S49.9,11.2,49.9,25S38.8,49.9,25,49.9z M25,2.1
		C12.3,2.1,2.1,12.3,2.1,25c0,12.7,10.3,22.9,22.9,22.9c12.7,0,22.9-10.3,22.9-22.9C47.9,12.3,37.7,2.1,25,2.1z"/>
</g>
</svg>
