<svg id="drag-img" xmlns="http://www.w3.org/2000/svg" width="67.327" height="67.327" viewBox="0 0 67.327 67.327">
  <path id="drag" d="M46.55,7.89A7.9,7.9,0,0,0,38.66,0H7.89A7.9,7.9,0,0,0,0,7.89V38.66a7.9,7.9,0,0,0,7.89,7.89H20.514v5.26h5.26V46.55H38.66a7.9,7.9,0,0,0,7.89-7.89V26.037h5.128v-5.26H46.55ZM41.29,38.66a2.633,2.633,0,0,1-2.63,2.63H7.89a2.633,2.633,0,0,1-2.63-2.63V7.89A2.633,2.633,0,0,1,7.89,5.26H38.66a2.633,2.633,0,0,1,2.63,2.63ZM62.067,56.807h5.26v5.26a5.26,5.26,0,0,1-5.26,5.26H56.938v-5.26h5.128ZM35.9,62.067h5.26v5.26H35.9Zm10.52,0h5.26v5.26h-5.26Zm20.908-36.03V31.3h-5.26v-5.26H56.938v-5.26h5.128A5.26,5.26,0,0,1,67.327,26.037Zm-5.26,10.257h5.26v5.26h-5.26Zm0,10.257h5.26v5.26h-5.26ZM25.774,62.067H30.9v5.26H25.774a5.26,5.26,0,0,1-5.26-5.26v-5.26h5.26Z" transform="translate(0 67.327) rotate(-90)" fill="#d1edff"/>
  <path id="drag-2" data-name="drag" d="M13.1,2.583h5.26v15.78H2.583V13.1h6.8L0,3.719,3.719,0,13.1,9.383Zm0,0" transform="translate(17.668 49.791) rotate(-90)" fill="#2180bc"/>
</svg>
