<svg xmlns="http://www.w3.org/2000/svg" width="18.522" height="18.344" viewBox="0 0 18.522 18.344">
  <g id="edit" transform="translate(-17.752 -0.011)">
    <path id="Path_2285" data-name="Path 2285" d="M124.513,1.062a2.736,2.736,0,0,0-3.87,0L109.795,11.911a.608.608,0,0,0-.156.268l-1.427,5.15a.608.608,0,0,0,.748.748l5.15-1.427a.608.608,0,0,0,.268-.156L125.227,5.646a2.739,2.739,0,0,0,0-3.87ZM111.12,12.306,120,3.427l2.863,2.863-8.879,8.879Zm-.572,1.148,2.288,2.288-3.164.877Zm13.819-8.668-.645.645-2.864-2.864.645-.645a1.52,1.52,0,0,1,2.15,0l.714.714A1.522,1.522,0,0,1,124.367,4.786Zm0,0" transform="translate(-90.183)" fill="#4d4f5c" stroke="#4d4f5c" stroke-width="0.5"/>
  </g>
</svg>
