<?xml version="1.0" encoding="utf-8"?>
<!-- Generator: Adobe Illustrator 24.1.1, SVG Export Plug-In . SVG Version: 6.00 Build 0)  -->
<svg version="1.1" id="Layer_1" xmlns="http://www.w3.org/2000/svg" xmlns:xlink="http://www.w3.org/1999/xlink" x="0px" y="0px"
	 viewBox="0 0 18 18" style="enable-background:new 0 0 18 18;" xml:space="preserve">
<style type="text/css">
	.st0{fill:#FFFFFF;}
	.st1{fill:#808495;}
</style>
<g id="fields" transform="translate(-435.671 -136.474)">
	<g id="Rectangle_798">
		<path class="st0" d="M439,140.7h11.2c1.4,0,2.6,1.2,2.6,2.6v4.3c0,1.4-1.2,2.6-2.6,2.6H439c-1.4,0-2.6-1.2-2.6-2.6v-4.3
			C436.5,141.9,437.6,140.7,439,140.7z"/>
		<path class="st1" d="M450.3,151H439c-1.8,0-3.3-1.5-3.3-3.3v-4.3c0-1.8,1.5-3.3,3.3-3.3h11.2c1.8,0,3.3,1.5,3.3,3.3v4.3
			C453.6,149.5,452.1,151,450.3,151z M439,141.5c-1,0-1.8,0.8-1.8,1.8v4.3c0,1,0.8,1.8,1.8,1.8h11.2c1,0,1.8-0.8,1.8-1.8v-4.3
			c0-1-0.8-1.8-1.8-1.8H439z"/>
	</g>
	<g id="Line_38">
		<rect x="444.4" y="140.9" class="st1" width="1.5" height="9.1"/>
	</g>
	<g id="Line_39">
		<rect x="447.5" y="144.7" class="st1" width="3" height="1.5"/>
	</g>
</g>
</svg>
