<svg xmlns="http://www.w3.org/2000/svg" width="18" height="20" viewBox="0 0 18 20"><defs><style>.a{fill:#333;}</style></defs><path class="a" d="M21.651,8.9A17.865,17.865,0,0,0,19.9,6.955a18.079,18.079,0,0,0-2-1.7,3.252,3.252,0,0,0-1.827-.824H8.677A1.587,1.587,0,0,0,7.07,5.991V20.366a1.587,1.587,0,0,0,1.607,1.563H20.892A1.587,1.587,0,0,0,22.5,20.366V10.678c0-.28-.088-.769-.848-1.776Zm-2.66-1.063a17.214,17.214,0,0,1,1.458,1.589H17.356V6.421a17.373,17.373,0,0,1,1.635,1.417Zm2.222,12.527a.321.321,0,0,1-.321.312H8.677a.321.321,0,0,1-.321-.312V5.991a.321.321,0,0,1,.321-.312H16.07v4.375a.634.634,0,0,0,.643.625h4.5ZM15.325,2.752A3.252,3.252,0,0,0,13.5,1.928H6.106A1.587,1.587,0,0,0,4.5,3.491V17.866A1.577,1.577,0,0,0,5.784,19.4V3.491a.321.321,0,0,1,.321-.312h9.781c-.194-.155-.382-.3-.562-.426Z" transform="translate(-4.499 -1.928)"/></svg>