<?xml version="1.0" encoding="utf-8"?>
<!-- Generator: Adobe Illustrator 24.1.1, SVG Export Plug-In . SVG Version: 6.00 Build 0)  -->
<svg version="1.1" id="Layer_1" xmlns="http://www.w3.org/2000/svg" xmlns:xlink="http://www.w3.org/1999/xlink" x="0px" y="0px"
	 viewBox="0 0 18 18" style="enable-background:new 0 0 18 18;" xml:space="preserve">
<style type="text/css">
	.st0{fill:#808495;}
</style>
<g id="filter-icon" transform="translate(-464.75 -136.75)">
	<g id="Line_33">
		<path class="st0" d="M482,141.1h-16.4c-0.4,0-0.8-0.3-0.8-0.8s0.3-0.8,0.8-0.8H482c0.4,0,0.8,0.3,0.8,0.8S482.4,141.1,482,141.1z"
			/>
	</g>
	<g id="Line_34">
		<path class="st0" d="M480.9,146.5h-13.1c-0.4,0-0.8-0.3-0.8-0.8s0.3-0.8,0.8-0.8h13.1c0.4,0,0.8,0.3,0.8,0.8
			S481.3,146.5,480.9,146.5z"/>
	</g>
	<g id="Line_35">
		<path class="st0" d="M478.7,152h-9.8c-0.4,0-0.8-0.3-0.8-0.8s0.3-0.8,0.8-0.8h9.8c0.4,0,0.8,0.3,0.8,0.8S479.1,152,478.7,152z"/>
	</g>
</g>
</svg>
