<?xml version="1.0" encoding="utf-8"?>
<!-- Generator: Adobe Illustrator 24.1.2, SVG Export Plug-In . SVG Version: 6.00 Build 0)  -->
<svg version="1.1" id="Layer_1" xmlns="http://www.w3.org/2000/svg" xmlns:xlink="http://www.w3.org/1999/xlink" x="0px" y="0px"
	 width="49.8px" height="37.3px" viewBox="0 0 49.8 37.3" style="enable-background:new 0 0 49.8 37.3;" xml:space="preserve">
<style type="text/css">
	.st0{enable-background:new    ;}
	.st1{fill:#707070;}
</style>
<g class="st0">
	<path class="st1" d="M49.5,11v21.5c0,2.5-2.1,4.6-4.6,4.6h-40c-2.5,0-4.6-2.1-4.6-4.6V4.8c0-2.5,2.1-4.6,4.6-4.6h15.4l6.2,6.2h18.5
		C47.4,6.3,49.5,8.4,49.5,11z M34.8,21c0-0.8-0.7-1.5-1.5-1.5h-6.2v-6.2c0-0.8-0.7-1.5-1.5-1.5h-1.5c-0.8,0-1.5,0.7-1.5,1.5v6.2
		h-6.2c-0.8,0-1.5,0.7-1.5,1.5v1.5c0,0.8,0.7,1.5,1.5,1.5h6.2v6.2c0,0.8,0.7,1.5,1.5,1.5h1.5c0.8,0,1.5-0.7,1.5-1.5V24h6.2
		c0.8,0,1.5-0.7,1.5-1.5V21z"/>
</g>
</svg>
