<?xml version="1.0" encoding="utf-8"?>
<!-- Generator: Adobe Illustrator 24.1.1, SVG Export Plug-In . SVG Version: 6.00 Build 0)  -->
<svg version="1.1" id="Layer_1" xmlns="http://www.w3.org/2000/svg" xmlns:xlink="http://www.w3.org/1999/xlink" x="0px" y="0px"
	 viewBox="0 0 47 50" style="enable-background:new 0 0 47 50;" xml:space="preserve">
<style type="text/css">
	.st0{fill:#FFFFFF;}
	.st1{fill:#E94335;}
	.st2{fill:#34A753;}
	.st3{fill:#4284F3;}
	.st4{fill:#FABB05;}
</style>
<g id="Group_870" transform="translate(-3 -3)">
	<path id="Rectangle_706" class="st0" d="M6,3h41c1.7,0,3,1.3,3,3v44c0,1.7-1.3,3-3,3H6c-1.7,0-3-1.3-3-3V6C3,4.3,4.3,3,6,3z"/>
	<g>
		<path class="st1" d="M12.4,20.7c0.6-1.3,1.5-2.5,2.5-3.6c2.6-2.9,5.9-4.6,9.7-5.1c4.9-0.7,9.2,0.6,12.9,3.8c0.2,0.2,0.2,0.3,0,0.5
			c-1.4,1.4-2.8,2.8-4.2,4.2c-0.1,0.2-0.2,0.1-0.4,0c-1.7-1.6-3.8-2.4-6.1-2.3c-4.1,0.1-7,2.2-8.8,5.9c-0.1,0.3-0.2,0.5-0.3,0.8
			c-0.1,0-0.2-0.1-0.3-0.1c-1.6-1.2-3.2-2.5-4.8-3.7C12.5,20.9,12.4,20.9,12.4,20.7z"/>
		<path class="st2" d="M17.7,31.2c0.5,1.4,1.2,2.7,2.3,3.7c2.4,2.4,5.2,3.3,8.5,2.9c1.5-0.2,2.8-0.7,4-1.5c0.2,0,0.3,0.1,0.4,0.2
			c1.5,1.2,3,2.4,4.5,3.5c0.1,0.1,0.2,0.1,0.2,0.3c-1.4,1.3-3,2.3-4.8,2.9c-6,2-11.6,1.2-16.5-2.9c-1.6-1.3-2.8-2.9-3.8-4.8
			c0-0.1-0.1-0.2-0.1-0.3c0.1-0.2,0.4-0.4,0.6-0.5c1.4-1.1,2.9-2.2,4.3-3.3C17.3,31.3,17.5,31.2,17.7,31.2z"/>
		<path class="st3" d="M37.6,40.3c-1.7-1.3-3.4-2.7-5.1-4c1-0.7,1.8-1.6,2.4-2.7c0.3-0.6,0.6-1.3,0.8-2c0.1-0.3,0-0.3-0.3-0.3
			c-2.7,0-5.4,0-8.1,0c-0.4,0-0.4-0.1-0.4-0.4c0-1.9,0-3.7,0-5.6c0-0.2,0.1-0.3,0.3-0.3c4.9,0,9.8,0,14.7,0c0.2,0,0.3,0,0.3,0.3
			c0.7,5,0,9.7-3.3,13.8C38.5,39.5,38.1,40,37.6,40.3z"/>
		<path class="st4" d="M17.7,31.2c-1.4,1.1-2.8,2.2-4.2,3.2c-0.4,0.3-0.7,0.6-1.1,0.8c-0.7-1.3-1.2-2.7-1.4-4.1
			c-0.7-3.5-0.3-6.9,1.3-10.2c0-0.1,0.1-0.2,0.2-0.3c1.8,1.4,3.5,2.7,5.3,4.1c-0.2,0.9-0.5,1.7-0.5,2.6c-0.1,1.2,0.1,2.4,0.4,3.6
			C17.6,31.1,17.6,31.1,17.7,31.2z"/>
	</g>
</g>
</svg>
