<svg xmlns="http://www.w3.org/2000/svg" width="13.275" height="16.601" viewBox="0 0 13.275 16.601">
  <g id="bin" transform="translate(0.312 0.771)">
    <path id="Path_2288" data-name="Path 2288" d="M222.763,154.7a.365.365,0,0,0-.365.365v6.9a.365.365,0,1,0,.73,0v-6.9A.365.365,0,0,0,222.763,154.7Zm0,0" transform="translate(-214.284 -149.112)" fill="#4d4f5c" stroke="#4d4f5c" stroke-width="0.6"/>
    <path id="Path_2289" data-name="Path 2289" d="M104.763,154.7a.365.365,0,0,0-.365.365v6.9a.365.365,0,1,0,.73,0v-6.9A.365.365,0,0,0,104.763,154.7Zm0,0" transform="translate(-100.591 -149.112)" fill="#4d4f5c" stroke="#4d4f5c" stroke-width="0.6"/>
    <path id="Path_2290" data-name="Path 2290" d="M1.033,4.584v8.993a2.014,2.014,0,0,0,.535,1.389,1.8,1.8,0,0,0,1.3.564H9.779a1.8,1.8,0,0,0,1.3-.564,2.014,2.014,0,0,0,.535-1.389V4.584a1.394,1.394,0,0,0-.358-2.742H9.392V.972A1.434,1.434,0,0,0,7.946-.47H4.705A1.434,1.434,0,0,0,3.26.972v.871H1.391a1.394,1.394,0,0,0-.358,2.742ZM9.779,14.8H2.873a1.156,1.156,0,0,1-1.11-1.223V4.616h9.125v8.961A1.156,1.156,0,0,1,9.779,14.8ZM3.99.972A.7.7,0,0,1,4.705.26H7.946a.7.7,0,0,1,.715.712v.871H3.99Zm-2.6,1.6h9.869a.657.657,0,1,1,0,1.314H1.391a.657.657,0,1,1,0-1.314Zm0,0" transform="translate(0 0)" fill="#4d4f5c" stroke="#4d4f5c" stroke-width="0.6"/>
    <path id="Path_2291" data-name="Path 2291" d="M163.763,154.7a.365.365,0,0,0-.365.365v6.9a.365.365,0,1,0,.73,0v-6.9A.365.365,0,0,0,163.763,154.7Zm0,0" transform="translate(-157.437 -149.112)" fill="#4d4f5c" stroke="#4d4f5c" stroke-width="0.6"/>
  </g>
</svg>
