<svg xmlns="http://www.w3.org/2000/svg" width="14.407" height="14.399" viewBox="0 0 14.407 14.399">
  <g id="Icon_ionic-ios-link" data-name="Icon ionic-ios-link" transform="translate(-3.175 -3.175)">
    <path id="Path_3102" data-name="Path 3102" d="M11.183,18.265l-.04,0a.557.557,0,0,0-.323.151L8.645,20.594a2.451,2.451,0,0,1-3.466-3.466l2.309-2.309a2.436,2.436,0,0,1,.384-.313,2.474,2.474,0,0,1,.5-.252,2.356,2.356,0,0,1,.5-.125,2.386,2.386,0,0,1,.343-.024c.047,0,.094,0,.155.007a2.444,2.444,0,0,1,1.575.707,2.413,2.413,0,0,1,.575.919.53.53,0,0,0,.65.34s.007,0,.01,0,.007,0,.007,0a.526.526,0,0,0,.353-.643,3.05,3.05,0,0,0-.828-1.38,3.543,3.543,0,0,0-1.938-.986c-.064-.01-.128-.02-.192-.027a3.473,3.473,0,0,0-.374-.02c-.088,0-.175,0-.259.01a3.394,3.394,0,0,0-.545.084c-.037.007-.071.017-.108.027a3.5,3.5,0,0,0-.656.246,3.457,3.457,0,0,0-.932.67L4.4,16.36a3.55,3.55,0,0,0-1.026,2.507,3.539,3.539,0,0,0,6.038,2.5l2.2-2.2A.533.533,0,0,0,11.183,18.265Z" transform="translate(0 -5.026)" fill="#4d4f5c" stroke="#4d4f5c" stroke-width="0.4"/>
    <path id="Path_3103" data-name="Path 3103" d="M21.6,4.408a3.546,3.546,0,0,0-5,0L14.456,6.552a.541.541,0,0,0,.34.922.547.547,0,0,0,.427-.155l2.147-2.14a2.451,2.451,0,0,1,3.466,3.466l-2.309,2.309a2.436,2.436,0,0,1-.384.313,2.474,2.474,0,0,1-.5.252,2.356,2.356,0,0,1-.5.125,2.386,2.386,0,0,1-.343.024c-.047,0-.1,0-.155-.007A2.419,2.419,0,0,1,14.516,10.1a.538.538,0,0,0-.643-.33.544.544,0,0,0-.38.69,3.074,3.074,0,0,0,.8,1.262h0l.007.007a3.543,3.543,0,0,0,2.13,1.013,3.473,3.473,0,0,0,.374.02q.131,0,.263-.01a3.847,3.847,0,0,0,.65-.108,3.5,3.5,0,0,0,.656-.246,3.457,3.457,0,0,0,.932-.67l2.309-2.309A3.542,3.542,0,0,0,21.6,4.408Z" transform="translate(-5.262)" fill="#4d4f5c" stroke="#4d4f5c" stroke-width="0.4"/>
  </g>
</svg>
