<?xml version="1.0" encoding="utf-8"?>
<!-- Generator: Adobe Illustrator 24.1.2, SVG Export Plug-In . SVG Version: 6.00 Build 0)  -->
<svg version="1.1" id="Capa_1" xmlns="http://www.w3.org/2000/svg" xmlns:xlink="http://www.w3.org/1999/xlink" x="0px" y="0px"
	 width="30px" height="30px" viewBox="0 0 30 30" style="enable-background:new 0 0 30 30;" xml:space="preserve">
<style type="text/css">
	.st0{fill:#FFFFFF;}
</style>
<g>
	<path class="st0" d="M26.4,1.2H3.6c-1.8,0-3.3,1.5-3.3,3.3v20.9c0,1.8,1.5,3.3,3.3,3.3h22.8c1.8,0,3.3-1.5,3.3-3.3V4.5
		C29.7,2.7,28.2,1.2,26.4,1.2z M19.3,6.2c1.8,0,3.2,1.4,3.2,3.2s-1.4,3.2-3.2,3.2c-1.8,0-3.2-1.4-3.2-3.2S17.5,6.2,19.3,6.2z
		 M25.3,25.7H15H5.1c-0.9,0-1.3-0.6-0.9-1.4l5.5-10.9c0.4-0.8,1.2-0.9,1.7-0.2l5.6,7.3c0.5,0.7,1.5,0.8,2.1,0.1l1.4-1.4
		c0.6-0.6,1.5-0.6,2.1,0.2l3.5,5C26.5,25.1,26.2,25.7,25.3,25.7z"/>
</g>
</svg>
