<svg xmlns="http://www.w3.org/2000/svg" width="24" height="20" viewBox="0 0 24 20"><defs><style>.a{fill:#333;}</style></defs><path class="a" d="M25.051,8.469l-4.42-.208-.257-2.8a1.1,1.1,0,0,0-1.227-.953L3.3,5.771A1.074,1.074,0,0,0,2.256,6.9L3.392,19.183a1.1,1.1,0,0,0,1.227.953l.8-.063-.129,2.385a1.2,1.2,0,0,0,1.2,1.224l17.684.818a1.218,1.218,0,0,0,1.329-1.1l.745-13.714A1.193,1.193,0,0,0,25.051,8.469ZM6.038,8.745l-.38,7.021L4.72,17.053,3.858,7.782V7.73a.573.573,0,0,1,.514-.49L18.354,6.126a.515.515,0,0,1,.563.411c0,.01.016.01.016.021s.016.01.016.021l.145,1.6L7.361,7.636A1.225,1.225,0,0,0,6.038,8.745ZM23.931,21.084,19.388,15.9l-2,1.786L13.678,13.48,7.1,20.287l.557-10.37V9.9A.61.61,0,0,1,8.3,9.428l15.6.729a.562.562,0,0,1,.557.531c0,.01.016.016.016.026Z" transform="translate(-2.252 -4.502)"/></svg>