<svg xmlns="http://www.w3.org/2000/svg" width="16.827" height="15.329" viewBox="0 0 16.827 15.329">
  <g id="like" transform="translate(-218.609 -221.125)">
    <path id="Path_2662" data-name="Path 2662" d="M238.938,235.7h7.927a1.975,1.975,0,0,0,1.8-1.173l1.585-3.565a.479.479,0,0,0,.043-.2v-1.976a1.978,1.978,0,0,0-1.976-1.976h-3.951v-2.963a1.977,1.977,0,0,0-1.976-1.976h-1.482a.494.494,0,0,0-.494.494v2.338l-1.472,3.1" transform="translate(-15.612)" fill="none" stroke="#808495" stroke-width="1.5"/>
    <path id="Path_2663" data-name="Path 2663" d="M219.853,259.027h3.483v-7.9h-3.483a.494.494,0,0,0-.494.494v6.914A.494.494,0,0,0,219.853,259.027Z" transform="translate(0 -23.323)" fill="none" stroke="#808495" stroke-width="1.5"/>
  </g>
</svg>
