<svg xmlns="http://www.w3.org/2000/svg" width="28.578" height="31.436" viewBox="0 0 28.578 31.436">
  <g id="list-icon" transform="translate(-1353 -303)">
    <path id="Path_2665" data-name="Path 2665" d="M50.857,32A2.858,2.858,0,0,0,48,34.858v25.72a2.858,2.858,0,0,0,2.858,2.858H73.72a2.858,2.858,0,0,0,2.858-2.858c0-8.116,0-15.888,0-25.72A2.858,2.858,0,0,0,73.72,32ZM73.72,33.429a1.43,1.43,0,0,1,1.429,1.429c0,4.085,0,23.243,0,25.72a1.431,1.431,0,0,1-1.429,1.429H50.857a1.431,1.431,0,0,1-1.429-1.429V34.858a1.431,1.431,0,0,1,1.429-1.429Z" transform="translate(1305.001 271)" fill="#fff"/>
    <rect id="Rectangle_819" data-name="Rectangle 819" width="12.86" height="1.429" rx="0.714" transform="translate(1363.002 311.573)" fill="#fff"/>
    <rect id="Rectangle_820" data-name="Rectangle 820" width="12.86" height="1.429" rx="0.714" transform="translate(1363.002 315.86)" fill="#fff"/>
    <rect id="Rectangle_821" data-name="Rectangle 821" width="12.86" height="1.429" rx="0.714" transform="translate(1363.002 320.147)" fill="#fff"/>
    <rect id="Rectangle_822" data-name="Rectangle 822" width="12.86" height="1.429" rx="0.714" transform="translate(1363.002 324.434)" fill="#fff"/>
    <circle id="Ellipse_110" data-name="Ellipse 110" cx="1.072" cy="1.072" r="1.072" transform="translate(1358.358 311.216)" fill="#fff"/>
    <circle id="Ellipse_111" data-name="Ellipse 111" cx="1.072" cy="1.072" r="1.072" transform="translate(1358.358 315.503)" fill="#fff"/>
    <circle id="Ellipse_112" data-name="Ellipse 112" cx="1.072" cy="1.072" r="1.072" transform="translate(1358.358 319.79)" fill="#fff"/>
    <circle id="Ellipse_113" data-name="Ellipse 113" cx="1.072" cy="1.072" r="1.072" transform="translate(1358.358 324.076)" fill="#fff"/>
  </g>
</svg>
