<svg xmlns="http://www.w3.org/2000/svg" width="791.673" height="551.58" viewBox="0 0 791.673 551.58">
  <g id="Analytics" transform="translate(-96.714 68.719)">
    <g id="Analytics-2" data-name="Analytics" transform="translate(96.714 -68.719)">
      <g id="Group_44" data-name="Group 44">
        <g id="Background" transform="translate(588.355)">
          <g id="Element">
            <path id="Shape" d="M1095.582-22.968a64.229,64.229,0,1,1-49.292-23.049,63.933,63.933,0,0,1,37.056,11.761" transform="translate(-979.588 61.167)" fill="#dfd7e4"/>
            <path id="Path_509" data-name="Path 509" d="M1095.582-22.968a64.229,64.229,0,1,1-49.292-23.049,63.933,63.933,0,0,1,37.056,11.761" transform="translate(-979.588 61.167)" fill="rgba(255,255,255,0.3)"/>
            <path id="Path_510" data-name="Path 510" d="M1095.582-22.968a64.229,64.229,0,1,1-49.292-23.049,63.933,63.933,0,0,1,37.056,11.761" transform="translate(-979.588 61.167)" fill="rgba(255,255,255,0.3)"/>
            <path id="Path_511" data-name="Path 511" d="M1045.549-49.35A67.064,67.064,0,0,1,1083.3-37.36s1.473,1.12,1.131,2.523c-.445,1.823-2.627,1.813-4.882.3-19.908-13.2-47.527-13.566-67.754-.6-21.218,13.6-32.855,40.866-27,66.241,5.542,24.006,26.515,43.706,51.356,47.342a63.029,63.029,0,0,0,52.107-16.722c17.268-16.662,23.573-43.677,15.006-66.451A62.612,62.612,0,0,0,1092.8-22.654s-1.165-2.814,1.011-3.534c2.151-.713,3.862,2.373,5.635,4.873,15.021,21.166,16,51.427,2.182,73.56-15.05,24.11-46.354,37-74.994,28.675-23.851-6.933-43.053-28.263-47.037-53.288-4.686-29.424,12.5-61.239,41.633-72.519A67.1,67.1,0,0,1,1045.549-49.35Z" transform="translate(-978.511 62.276)" fill="#dfd7e4"/>
            <path id="Path_512" data-name="Path 512" d="M1104.454,24.323a51.966,51.966,0,1,1-51.965-51.966,51.965,51.965,0,0,1,51.965,51.966" transform="translate(-985.729 55.055)" fill="#fff"/>
            <path id="Path_513" data-name="Path 513" d="M1074.047.118a2.334,2.334,0,0,1,2.019,2.214c0,11.472-.178,22.945,0,34.413l20.687,13.317a2.3,2.3,0,0,1-.633,4.02,1.95,1.95,0,0,1-1.775-.279L1073.63,40.468a4.553,4.553,0,0,1-2.013-3.69V2.332A2.294,2.294,0,0,1,1074.047.118Z" transform="translate(-1009.379 45.821)" fill="#dfd7e4"/>
            <path id="Path_514" data-name="Path 514" d="M1130.973,159.594c1.324.093,1.734,1.937,0,2.791a87.925,87.925,0,0,1-8.24,3.523s-2.891-.477-1.472-2.124a3.793,3.793,0,0,1,1.641-.789q3.78-1.454,7.412-3.263A1.064,1.064,0,0,1,1130.973,159.594Z" transform="translate(-1025.765 -7.231)" fill="#dfd7e4"/>
            <path id="Path_515" data-name="Path 515" d="M1167.4,123.768c2.068.252,1.4,1.514.949,2.148a86.453,86.453,0,0,1-22.94,20.639c-1.066.656-2.838.288-2.4-1.25.2-.694,1-1.02,1.609-1.4a83.842,83.842,0,0,0,21.618-19.621A1.423,1.423,0,0,1,1167.4,123.768Z" transform="translate(-1033.105 4.687)" fill="#dfd7e4"/>
            <path id="Path_516" data-name="Path 516" d="M1031.654-68.718c1.446.113,1.816,2.037-.7,2.994s-4.994,2.058-7.413,3.262c0,0-2.927-.158-1.7-1.95a2.48,2.48,0,0,1,1.036-.7,87.57,87.57,0,0,1,8.239-3.524A1.107,1.107,0,0,1,1031.654-68.718Z" transform="translate(-992.722 68.719)" fill="#dfd7e4"/>
            <path id="Path_517" data-name="Path 517" d="M1011.615-58.132c1.383.054,1.715,1.818-.242,3.036q-1.206.757-2.388,1.551c-.775.523-1.487,1.222-2.173,1.253-1.241.055-1.965-1.635-.228-2.845q1.512-1.043,3.062-2.027C1010.354-57.61,1010.9-58.133,1011.615-58.132Z" transform="translate(-987.402 65.197)" fill="#dfd7e4"/>
            <path id="Path_518" data-name="Path 518" d="M997.759-53.377a1.062,1.062,0,0,1,1.006.523c1.051,1.373-1.891,3.005-4.023,4.7s-4.174,3.482-6.126,5.371a84.591,84.591,0,0,0-8.017,8.962s-.949.813-1.752.32c-1.54-.944.868-3.576,2.685-5.676a86.713,86.713,0,0,1,15.4-13.951A1.927,1.927,0,0,1,997.759-53.377Z" transform="translate(-978.355 63.615)" fill="#dfd7e4"/>
          </g>
        </g>
        <g id="Group_39" data-name="Group 39" transform="translate(209.895 134.974)">
          <path id="Path_519" data-name="Path 519" d="M502.012,215.549v208.21h-61.4V217.168c0-.549.031-1.084.083-1.619Z" transform="translate(-421.011 -160.819)" fill="#7f77bf" fill-rule="evenodd"/>
          <path id="Path_520" data-name="Path 520" d="M501.419,212.549l.512.068c1.481.411,1.585.723,1.71,2.154v207.77c-.157,1.8-.573,2.078-2.222,2.222H440.025c-1.8-.158-2.078-.573-2.222-2.222,0-68.8-.708-137.6,0-206.39.029-1.666-.1-3.379,2.3-3.6Zm-2.449,208.21V217.22H442.246V420.759Z" transform="translate(-419.971 -159.821)" fill="#41146c"/>
          <path id="Path_521" data-name="Path 521" d="M713.642,708.642l-110.833.031a6.679,6.679,0,0,1-6.587-7.794l14.268-84.331h95.474l14.261,84.3A6.68,6.68,0,0,1,713.642,708.642Z" transform="translate(-472.743 -294.215)" fill="#d6d5eb"/>
          <path id="Path_522" data-name="Path 522" d="M704.9,612.549l.411.044c1.323.292,1.472.531,1.782,1.809,4.769,28.2,9.73,56.358,14.308,84.583a9.169,9.169,0,0,1-8.681,10.275q-55.647.419-111.3.031a9.161,9.161,0,0,1-8.665-10.395l14.3-84.5c.372-1.536.719-1.75,2.194-1.853Zm-93.771,4.671c-4.667,27.588-9.915,55.083-14,82.763a4.631,4.631,0,0,0,4.294,5.081q55.636,1.176,111.3-.031a4.6,4.6,0,0,0,4.272-5.217l-13.973-82.6Z" transform="translate(-471.585 -292.885)" fill="#41146c"/>
          <path id="Path_523" data-name="Path 523" d="M780.987,527.549v25.724a33.022,33.022,0,0,1-33.05,33H447.667a33.022,33.022,0,0,1-33.05-33V527.549Z" transform="translate(-412.362 -264.609)" fill="#d6d5eb"/>
          <path id="Path_524" data-name="Path 524" d="M780.284,524.549l.912.282a2.764,2.764,0,0,1,1.036,1.091l.169.852c0,8.662.025,17.326,0,25.988-.177,18.419-16.018,34.865-35.042,35.043q-150.348.458-300.7,0c-18.169-.171-34.981-15.676-35.043-35.268V526.773l.169-.852.482-.721a2.943,2.943,0,0,1,1.574-.651ZM416.1,529.22c0,7.911-.025,15.823,0,23.734.15,15.807,13.737,30.465,30.621,30.623q150.32.459,300.642,0c15.983-.15,30.57-13.892,30.622-30.826V529.22Z" transform="translate(-411.364 -263.611)" fill="#41146c"/>
          <path id="Path_525" data-name="Path 525" d="M780.987,296.35V406.461H414.617V195.112c0-17.432,13.85-31.563,30.936-31.563h307.5c15.425,0,27.93,12.758,27.93,28.5V277" transform="translate(-412.362 -143.521)" fill="#fff"/>
          <path id="Path_526" data-name="Path 526" d="M752.165,160.593c15.781.152,30.368,12.08,30.368,30.7v84.976a2.584,2.584,0,0,1-1.375,2.055l-.853.17-.854-.17-.723-.482a2.934,2.934,0,0,1-.653-1.574c0-28.369.083-56.738,0-85.106-.126-13.378-11.317-25.855-25.418-26.082-102.857-.99-205.724-.322-308.585,0-15.013.146-28.526,13.469-28.577,29.322v209H777.861V295.721c-.074-.578-.042-1.236,1.184-2.055l.852-.169.852.169.722.482c.478.717.483.728,1.062,1.573V405.584l-.581.852-.482.721-.722.483-.852.428H413.562l-.852-.428a2.947,2.947,0,0,1-1.2-1.2l-.169-.852c0-70.48-.224-140.961,0-211.441.158-17.253,14.69-33.371,32.941-33.55Q598.222,160.112,752.165,160.593Z" transform="translate(-411.238 -142.457)" fill="#41146c"/>
          <path id="Path_527" data-name="Path 527" d="M413.623,524.495c2.111,0,3.293,4.424.014,4.448a2.3,2.3,0,0,1-1.941-3.356A3.185,3.185,0,0,1,413.623,524.495Z" transform="translate(-411.296 -263.593)" fill="#41146c"/>
          <path id="Path_528" data-name="Path 528" d="M772.62,201.746v4.823h-333v-4.823a15.2,15.2,0,0,1,15.2-15.2H757.423A15.2,15.2,0,0,1,772.62,201.746Z" transform="translate(-420.679 -151.172)" fill="rgba(255,255,255,0.3)"/>
          <path id="Path_529" data-name="Path 529" d="M756.436,183.018a17.837,17.837,0,0,1,17.188,17.414v4.581a2.586,2.586,0,0,1-1.372,2.055l-.851.169H438.841l-.852-.169a2.957,2.957,0,0,1-1.2-1.2l-.169-.852v-4.581a13.762,13.762,0,0,1,.139-2.209,17.867,17.867,0,0,1,17.04-15.2Q605.114,182.055,756.436,183.018ZM454.26,187.243a13.292,13.292,0,0,0-12.972,12.98v2.342h328.3c0-3.963-.677-7.967-3.164-10.837a13.183,13.183,0,0,0-9.641-4.485C655.942,186.6,555.1,187.243,454.26,187.243Z" transform="translate(-419.681 -149.837)" fill="#41146c"/>
          <rect id="Rectangle_631" data-name="Rectangle 631" width="333.003" height="208.21" transform="translate(18.938 54.73)" fill="#fff"/>
          <path id="Path_530" data-name="Path 530" d="M772.356,212.786a2.538,2.538,0,0,1,1.269,1.985v207.77l-.169.851-.482.721-.721.482-.851.169H438.841l-.852-.169a2.954,2.954,0,0,1-1.2-1.2l-.169-.851V214.771l.169-.851a2.954,2.954,0,0,1,1.2-1.2l.852-.169H771.567ZM441.288,217.22V420.759H769.62V217.22Z" transform="translate(-419.681 -159.821)" fill="#41146c"/>
          <path id="Path_531" data-name="Path 531" d="M459.617,402.549h24.692" transform="translate(-427.332 -223.026)" fill="#7f77bf" fill-rule="evenodd"/>
          <path id="Path_532" data-name="Path 532" d="M483.248,399.554c2.036.214,2.679,3.9-.139,4h-24.75a1.745,1.745,0,0,1-1.177-.382,2.029,2.029,0,0,1,1.177-3.622h24.75Z" transform="translate(-426.267 -222.028)" fill="#d6d5eb"/>
          <path id="Path_533" data-name="Path 533" d="M459.617,421.549h35.369" transform="translate(-427.332 -229.347)" fill="#7f77bf" fill-rule="evenodd"/>
          <path id="Path_534" data-name="Path 534" d="M494.149,418.556c1.683.21,1.762,1.014,1.829,1.829a1.947,1.947,0,0,1-1.995,2.168H458.51c-2.045-.085-2.879-3.885,0-4h35.473Z" transform="translate(-426.345 -228.349)" fill="#d6d5eb"/>
          <path id="Path_535" data-name="Path 535" d="M502.617,440.549h6.673" transform="translate(-441.636 -235.667)" fill="#7f77bf" fill-rule="evenodd"/>
          <path id="Path_536" data-name="Path 536" d="M508.153,437.413c1.959.1,2.714,3.857,0,4-3.171.056-6.876.571-8-.637a2.088,2.088,0,0,1,1.394-3.365Q504.849,437.354,508.153,437.413Z" transform="translate(-440.663 -234.614)" fill="#d6d5eb"/>
          <path id="Path_537" data-name="Path 537" d="M458.617,440.549h21.355" transform="translate(-426.999 -235.667)" fill="#7f77bf" fill-rule="evenodd"/>
          <path id="Path_538" data-name="Path 538" d="M479.409,437.5c2.044.2,2.651,3.911-.128,4H458.112c-1.846-.059-1.809-.646-1.977-1.682a2.073,2.073,0,0,1,1.977-2.322C465.211,437.5,472.314,437.277,479.409,437.5Z" transform="translate(-426.166 -234.62)" fill="#d6d5eb"/>
          <path id="Path_539" data-name="Path 539" d="M459.617,459.549h35.369" transform="translate(-427.332 -241.988)" fill="#7f77bf" fill-rule="evenodd"/>
          <path id="Path_540" data-name="Path 540" d="M493.813,456.556c1.441.18,1.4.589,1.668,1.191a2,2,0,0,1-1.833,2.806H458.285c-1.563-.065-1.543-.535-1.833-1.2a2.082,2.082,0,0,1,1.833-2.806h35.362Z" transform="translate(-426.229 -240.99)" fill="#d6d5eb"/>
          <path id="Path_541" data-name="Path 541" d="M634.29,246.714V305.48a3.464,3.464,0,0,1-2.676,3.446,3.379,3.379,0,0,1-4-3.407V246.543a3.637,3.637,0,0,1,2.769-3.463,3.256,3.256,0,0,1,2.926.969,3.54,3.54,0,0,1,.978,2.457" transform="translate(-483.219 -169.961)" fill="#00bcff" fill-rule="evenodd"/>
          <path id="Path_542" data-name="Path 542" d="M654.29,246.714v58.76a3.472,3.472,0,0,1-2.662,3.449,3.381,3.381,0,0,1-4.011-3.4V246.544a3.638,3.638,0,0,1,2.765-3.462,3.253,3.253,0,0,1,2.93.968,3.54,3.54,0,0,1,.978,2.457" transform="translate(-489.872 -169.961)" fill="#00bcff" fill-rule="evenodd"/>
          <path id="Path_543" data-name="Path 543" d="M674.29,246.714v58.8a1.017,1.017,0,0,1,0,.118,3.372,3.372,0,0,1-4.059,3.276,3.444,3.444,0,0,1-2.609-3.405V246.525a3.6,3.6,0,0,1,2.815-3.453,3.267,3.267,0,0,1,2.882.978,3.542,3.542,0,0,1,.976,2.457" transform="translate(-496.525 -169.961)" fill="#00bcff" fill-rule="evenodd"/>
          <path id="Path_544" data-name="Path 544" d="M695.29,246.714v58.767a3.464,3.464,0,0,1-2.668,3.444,3.383,3.383,0,0,1-4.005-3.407V246.552a3.647,3.647,0,0,1,2.761-3.468,3.248,3.248,0,0,1,2.934.966,3.537,3.537,0,0,1,.978,2.457" transform="translate(-503.511 -169.961)" fill="#00bcff" fill-rule="evenodd"/>
          <path id="Path_545" data-name="Path 545" d="M715.29,246.714v58.76a3.472,3.472,0,0,1-2.662,3.449,3.381,3.381,0,0,1-4.011-3.4V246.543a3.637,3.637,0,0,1,2.769-3.463,3.256,3.256,0,0,1,2.926.969,3.537,3.537,0,0,1,.978,2.457" transform="translate(-510.164 -169.961)" fill="#00bcff" fill-rule="evenodd"/>
          <path id="Path_546" data-name="Path 546" d="M634.29,246.714V305.48a3.464,3.464,0,0,1-2.676,3.446,3.379,3.379,0,0,1-4-3.407V246.543a3.637,3.637,0,0,1,2.769-3.463,3.256,3.256,0,0,1,2.926.969,3.54,3.54,0,0,1,.978,2.457" transform="translate(-483.219 -169.961)" fill="rgba(255,255,255,0.3)"/>
          <path id="Path_547" data-name="Path 547" d="M654.29,246.714v58.76a3.472,3.472,0,0,1-2.662,3.449,3.381,3.381,0,0,1-4.011-3.4V246.544a3.638,3.638,0,0,1,2.765-3.462,3.253,3.253,0,0,1,2.93.968,3.54,3.54,0,0,1,.978,2.457" transform="translate(-489.872 -169.961)" fill="rgba(255,255,255,0.3)"/>
          <path id="Path_548" data-name="Path 548" d="M674.29,246.714v58.8a1.017,1.017,0,0,1,0,.118,3.372,3.372,0,0,1-4.059,3.276,3.444,3.444,0,0,1-2.609-3.405V246.525a3.6,3.6,0,0,1,2.815-3.453,3.267,3.267,0,0,1,2.882.978,3.542,3.542,0,0,1,.976,2.457" transform="translate(-496.525 -169.961)" fill="rgba(255,255,255,0.3)"/>
          <path id="Path_549" data-name="Path 549" d="M695.29,246.714v58.767a3.464,3.464,0,0,1-2.668,3.444,3.383,3.383,0,0,1-4.005-3.407V246.552a3.647,3.647,0,0,1,2.761-3.468,3.248,3.248,0,0,1,2.934.966,3.537,3.537,0,0,1,.978,2.457" transform="translate(-503.511 -169.961)" fill="rgba(255,255,255,0.3)"/>
          <path id="Path_550" data-name="Path 550" d="M715.29,246.714v58.76a3.472,3.472,0,0,1-2.662,3.449,3.381,3.381,0,0,1-4.011-3.4V246.543a3.637,3.637,0,0,1,2.769-3.463,3.256,3.256,0,0,1,2.926.969,3.537,3.537,0,0,1,.978,2.457" transform="translate(-510.164 -169.961)" fill="rgba(255,255,255,0.3)"/>
          <path id="Path_551" data-name="Path 551" d="M634.29,261.908v48.757a3.464,3.464,0,0,1-2.676,3.447,3.38,3.38,0,0,1-4-3.409V262.129a3.636,3.636,0,0,1,2.769-3.463,3.254,3.254,0,0,1,2.926.969,3.555,3.555,0,0,1,.978,2.462" transform="translate(-483.219 -175.146)" fill="rgba(255,255,255,0.3)"/>
          <path id="Path_552" data-name="Path 552" d="M654.29,290.005v29.33a3.455,3.455,0,0,1-3.036,3.5,3.338,3.338,0,0,1-3.637-3.323V290.437a3.479,3.479,0,0,1,3.481-3.526,3.339,3.339,0,0,1,3.193,3.334" transform="translate(-489.872 -184.557)" fill="rgba(255,255,255,0.3)"/>
          <path id="Path_553" data-name="Path 553" d="M674.29,275.939V314.7a3.336,3.336,0,0,1-3.68,3.206,3.445,3.445,0,0,1-2.994-3.48V276.237a3.48,3.48,0,0,1,3.477-3.526,3.339,3.339,0,0,1,3.2,3.333" transform="translate(-496.525 -179.833)" fill="rgba(255,255,255,0.3)"/>
          <path id="Path_554" data-name="Path 554" d="M695.29,319.874v9.707a3.45,3.45,0,0,1-3.042,3.493,3.338,3.338,0,0,1-3.632-3.321v-9.708a3.483,3.483,0,0,1,3.478-3.529,3.337,3.337,0,0,1,3.2,3.337" transform="translate(-503.511 -194.406)" fill="rgba(255,255,255,0.3)"/>
          <path id="Path_555" data-name="Path 555" d="M715.29,291.93v28.019a3.454,3.454,0,0,1-3.036,3.5,3.338,3.338,0,0,1-3.637-3.323V292.209a3.477,3.477,0,0,1,3.484-3.525,3.338,3.338,0,0,1,3.189,3.339" transform="translate(-510.164 -185.147)" fill="rgba(255,255,255,0.3)"/>
          <path id="Path_556" data-name="Path 556" d="M634.29,261.908v48.757a3.464,3.464,0,0,1-2.676,3.447,3.38,3.38,0,0,1-4-3.409V262.129a3.636,3.636,0,0,1,2.769-3.463,3.254,3.254,0,0,1,2.926.969,3.555,3.555,0,0,1,.978,2.462" transform="translate(-483.219 -175.146)" fill="rgba(255,255,255,0.3)"/>
          <path id="Path_557" data-name="Path 557" d="M654.29,290.005v29.33a3.455,3.455,0,0,1-3.036,3.5,3.338,3.338,0,0,1-3.637-3.323V290.437a3.479,3.479,0,0,1,3.481-3.526,3.339,3.339,0,0,1,3.193,3.334" transform="translate(-489.872 -184.557)" fill="rgba(255,255,255,0.3)"/>
          <path id="Path_558" data-name="Path 558" d="M674.29,275.939V314.7a3.336,3.336,0,0,1-3.68,3.206,3.445,3.445,0,0,1-2.994-3.48V276.237a3.48,3.48,0,0,1,3.477-3.526,3.339,3.339,0,0,1,3.2,3.333" transform="translate(-496.525 -179.833)" fill="rgba(255,255,255,0.3)"/>
          <path id="Path_559" data-name="Path 559" d="M695.29,319.874v9.707a3.45,3.45,0,0,1-3.042,3.493,3.338,3.338,0,0,1-3.632-3.321v-9.708a3.483,3.483,0,0,1,3.478-3.529,3.337,3.337,0,0,1,3.2,3.337" transform="translate(-503.511 -194.406)" fill="rgba(255,255,255,0.3)"/>
          <path id="Path_560" data-name="Path 560" d="M715.29,291.93v28.019a3.454,3.454,0,0,1-3.036,3.5,3.338,3.338,0,0,1-3.637-3.323V292.209a3.477,3.477,0,0,1,3.484-3.525,3.338,3.338,0,0,1,3.189,3.339" transform="translate(-510.164 -185.147)" fill="rgba(255,255,255,0.3)"/>
          <path id="Path_561" data-name="Path 561" d="M877.07,297.053A22.455,22.455,0,0,1,855.286,319.5a.655.655,0,0,1-.669-.657v-5.965a.666.666,0,0,1,.642-.655,15.181,15.181,0,0,0,.126-30.329.8.8,0,0,1-.768-.787v-5.7a.786.786,0,0,1,.805-.791,22.455,22.455,0,0,1,21.648,22.439" transform="translate(-558.732 -180.467)" fill="rgba(255,255,255,0.3)"/>
          <path id="Path_562" data-name="Path 562" d="M801.328,296.822a22.445,22.445,0,0,1-43.977,6.566.794.794,0,0,1,.5-.965l5.407-1.843a.786.786,0,0,1,1.01.542,15.172,15.172,0,1,0,6.8-17.071,1.136,1.136,0,0,1-1.3-.082l-4.081-3.3a1.132,1.132,0,0,1,.042-1.794,22.444,22.444,0,0,1,35.6,17.943" transform="translate(-526.365 -180.468)" fill="rgba(255,255,255,0.3)"/>
          <path id="Path_563" data-name="Path 563" d="M729.729,402.7v61.962H619.617V447.31l13.907-8.865,8.5,4.432L665.2,422.634l14.3,3.474,19.316-6,8.112,2.914Z" transform="translate(-480.557 -223.076)" fill="#00bcff" fill-rule="evenodd"/>
          <path id="Path_564" data-name="Path 564" d="M729.729,402.7v61.962H619.617V447.31l13.907-8.865,8.5,4.432L665.2,422.634l14.3,3.474,19.316-6,8.112,2.914Z" transform="translate(-480.557 -223.076)" fill="rgba(255,255,255,0.3)"/>
          <path id="Path_565" data-name="Path 565" d="M729.729,402.7v61.962H619.617V447.31l13.907-8.865,8.5,4.432L665.2,422.634l14.3,3.474,19.316-6,8.112,2.914Z" transform="translate(-480.557 -223.076)" fill="rgba(255,255,255,0.3)"/>
          <path id="Path_566" data-name="Path 566" d="M729.252,399.6a2.088,2.088,0,0,1,1.079,3.479l-22.748,20.323c-.9.7-1.012.676-2.011.39l-7.466-2.687-18.637,5.8a2.094,2.094,0,0,1-1.068.034l-13.257-3.225-22.352,19.558a2.194,2.194,0,0,1-2.246.268l-7.454-3.9-12.9,8.244s-1.657.707-2.594-.38a2.108,2.108,0,0,1,.438-2.994l13.881-8.869c.976-.537,1.076-.5,2-.087l7.269,3.8,22.1-19.34a2.051,2.051,0,0,1,1.793-.438l13.727,3.338,18.749-5.834s.187-.286,1.273.027l6.976,2.511L727.664,400.1S727.744,399.521,729.252,399.6Z" transform="translate(-479.737 -222.044)" fill="#41146c"/>
          <path id="Path_567" data-name="Path 567" d="M618.9,400.7c1.415.308,1.621.632,1.717,1.981v59.3H728.508a2.738,2.738,0,0,1,1.513.691,2.08,2.08,0,0,1-1.513,3.313H618.619c-.825-.059-.85-.169-1.082-.318a1.764,1.764,0,0,1-.92-1.684V402.678C616.768,400.572,617.585,400.6,618.9,400.7Z" transform="translate(-479.559 -222.399)" fill="#41146c"/>
          <path id="Path_568" data-name="Path 568" d="M818.617,438.549h24.692" transform="translate(-546.757 -235.002)" fill="#7f77bf" fill-rule="evenodd"/>
          <path id="Path_569" data-name="Path 569" d="M842.093,435.554c2.081.219,2.617,3.9-.14,4H817.2a1.656,1.656,0,0,1-1.659-.883,2.015,2.015,0,0,1,1.659-3.121h24.75Z" transform="translate(-545.624 -234.004)" fill="#41146c"/>
          <path id="Path_570" data-name="Path 570" d="M818.617,457.549h35.369" transform="translate(-546.757 -241.322)" fill="#7f77bf" fill-rule="evenodd"/>
          <path id="Path_571" data-name="Path 571" d="M852.978,454.556c1.6.2,1.692.964,1.809,1.666a1.956,1.956,0,0,1-1.974,2.331H817.34c-1.086-.045-1.176-.323-1.473-.646a2.073,2.073,0,0,1,1.473-3.358h35.473Z" transform="translate(-545.687 -240.324)" fill="#41146c"/>
          <path id="Path_572" data-name="Path 572" d="M861.617,476.549h6.673" transform="translate(-561.061 -247.643)" fill="#7f77bf" fill-rule="evenodd"/>
          <path id="Path_573" data-name="Path 573" d="M866.972,473.287c2.007.107,2.512,3.867,0,4-4.081.072-9.215.9-8.492-2.426C858.974,472.592,863.415,473.224,866.972,473.287Z" transform="translate(-559.994 -246.515)" fill="#41146c"/>
          <path id="Path_574" data-name="Path 574" d="M817.617,476.549h21.355" transform="translate(-546.424 -247.643)" fill="#7f77bf" fill-rule="evenodd"/>
          <path id="Path_575" data-name="Path 575" d="M838.289,473.5c1.9.183,1.837.813,1.873,1.933a2.065,2.065,0,0,1-2,2.066H816.992c-1.459-.047-1.467-.486-1.775-1.076a2.074,2.074,0,0,1,1.775-2.928C824.09,473.5,831.194,473.277,838.289,473.5Z" transform="translate(-545.559 -246.596)" fill="#41146c"/>
          <path id="Path_576" data-name="Path 576" d="M818.617,495.549h46.714" transform="translate(-546.757 -253.963)" fill="#7f77bf" fill-rule="evenodd"/>
          <path id="Path_577" data-name="Path 577" d="M864.043,492.558c1.248.18,1.422.7,1.631,1.161a2.1,2.1,0,0,1-1.821,2.834H817.009c-3.911-.186-1.982-3.91,0-4h46.844Z" transform="translate(-545.468 -252.965)" fill="#41146c"/>
          <path id="Path_578" data-name="Path 578" d="M735.45,618.549h14.916l14.06,82.854A4.485,4.485,0,0,1,760,706.638H740.731s3.946-2.049,3.718-10.926c-.146-5.694-9.333-77.163-9.333-77.163" transform="translate(-518.979 -294.881)" fill="rgba(0,0,0,0.25)" style="mix-blend-mode: overlay;isolation: isolate"/>
          <path id="Path_579" data-name="Path 579" d="M900.705,585.357s12.626.776,20.442-2.405a34.585,34.585,0,0,0,14.88-12.418c2.189-3.164,3.474-7.906,4.121-10.96a25.087,25.087,0,0,0,.538-5.218V530.549H924v22.264c.153,10.691-2.188,22.021-11.506,28.533-2.037,1.424-5.629,2.818-11.792,4.011" transform="translate(-574.064 -265.607)" fill="rgba(0,0,0,0.25)" style="mix-blend-mode: overlay;isolation: isolate"/>
          <path id="Path_580" data-name="Path 580" d="M679.254,664.489a1.215,1.215,0,0,1,.885.464L694.546,681.9c.652.825.388,1.057.166,1.484a1.343,1.343,0,0,1-2.2.245l-14.407-16.945a1.031,1.031,0,0,1-.315-.949C677.836,665.009,678.155,664.42,679.254,664.489Z" transform="translate(-499.904 -310.161)" fill="#41146c"/>
          <path id="Path_581" data-name="Path 581" d="M694.076,665.367c1.431.053,2.993,2.758,4.573,4.684.788,1.034-.766,3.068-2.033,1.729-2.094-2.377-5.212-5.032-3.259-6.219A1.374,1.374,0,0,1,694.076,665.367Z" transform="translate(-504.882 -310.455)" fill="#41146c"/>
          <path id="Path_582" data-name="Path 582" d="M674.784,675.951a1.412,1.412,0,0,1,.915.417c2.657,2.968,5.161,6.069,7.742,9.105.842,1.044-.711,3.066-1.988,1.78-2.658-2.968-5.161-6.07-7.742-9.105A1.341,1.341,0,0,1,674.784,675.951Z" transform="translate(-498.452 -313.976)" fill="#41146c"/>
          <path id="Path_583" data-name="Path 583" d="M693.225,566.462a9.818,9.818,0,1,1-9.817-9.818,9.818,9.818,0,0,1,9.817,9.818" transform="translate(-498.512 -274.287)" fill="#fff"/>
          <path id="Path_584" data-name="Path 584" d="M439.326,564.915c1.706.187,1.5,3.194,2.375,5.441a21.208,21.208,0,0,0,8.342,10.149s.825.753.546,1.562c-.608,1.757-3.72-.3-5.813-2.333a23.9,23.9,0,0,1-6.87-13.279S437.814,564.85,439.326,564.915Z" transform="translate(-420.109 -277.038)" fill="#41146c"/>
          <path id="Path_585" data-name="Path 585" d="M990.773,229.041a1.386,1.386,0,0,1,1.268,1.268c.067,2.733,0,5.469,0,8.2-.031,1.3-2.528,1.951-2.667.065-.067-2.733,0-5.469,0-8.2A1.294,1.294,0,0,1,990.773,229.041Z" transform="translate(-603.55 -165.307)" fill="#41146c"/>
          <path id="Path_586" data-name="Path 586" d="M940.355,133.546c15.249.149,29.021,13.75,29.071,29.81v27.767c-.175,2.782-2.589,1.267-2.669,0,0-9.313.029-18.627,0-27.942-.129-13.924-11.7-26.919-26.592-26.967H922.216c-.926-.058-1.033-.4-1.207-.766a1.4,1.4,0,0,1,1.207-1.9C928.262,133.545,934.308,133.526,940.355,133.546Z" transform="translate(-580.781 -133.537)" fill="#41146c"/>
        </g>
        <g id="Elements" transform="translate(86.022 65.619)">
          <g id="Group_40" data-name="Group 40" transform="translate(6.752 347.234)">
            <path id="Path_587" data-name="Path 587" d="M303.912,643.871c-6.4-49.172-34.379-67.561-34.379-67.561s1.4,29.582,21.986,67.561Z" transform="translate(-246.978 -558.709)" fill="#00d4ae" fill-rule="evenodd"/>
            <path id="Path_588" data-name="Path 588" d="M268.57,572.65c1.386.164,2.5,1.369,3.7,2.361,18.956,15.715,29.127,40.937,32.587,65.969.23,1.664-.082,3.571-2.05,3.676H290.412c-1.2-.065-1.359-.189-1.957-1.167-10.771-19.925-19.164-41.9-21.885-64.6-.189-1.576-.366-3.895-.366-3.895A2.3,2.3,0,0,1,268.57,572.65Zm2.643,7.719c2.92,21,10.49,41.224,20.447,59.95l8.59.154c-3.309-22.283-12.1-44.811-29.055-60.237Z" transform="translate(-245.871 -557.491)" fill="#41146c"/>
            <path id="Path_589" data-name="Path 589" d="M342.213,665.294s3.8-18.589,35.38-24.586c0,0-4.2,16.39-19.789,24.586Z" transform="translate(-271.156 -580.131)" fill="#00d4ae" fill-rule="evenodd"/>
            <path id="Path_590" data-name="Path 590" d="M376.6,637.044a1.91,1.91,0,0,1,.988.28c2.368,1.323.195,5.678-1.653,9.4a43.2,43.2,0,0,1-17.993,19,3.724,3.724,0,0,1-1.228.358h-15.59c-1.273-.05-1.069.26-1.886-1.044-.579-.926-.214-2.133.2-3.3,4.138-11.5,16.822-19.132,28.244-22.6a79.657,79.657,0,0,1,8.024-1.978A5.3,5.3,0,0,1,376.6,637.044Zm-3.828,5.241c-11.385,2.815-23.071,8.234-28.393,19.12l11.777.157a39.229,39.229,0,0,0,16.922-19.351Z" transform="translate(-270.066 -578.912)" fill="#41146c"/>
            <path id="Path_591" data-name="Path 591" d="M272.458,664.3c-12.793-24.586-33.581-26.585-33.581-26.585s5.6,15.191,17.99,26.585Z" transform="translate(-236.78 -579.135)" fill="#00d4ae" fill-rule="evenodd"/>
            <path id="Path_592" data-name="Path 592" d="M238.071,634.061c14.629,1.586,27.717,13.507,35,27.177.88,1.652.451,3.763-1.662,3.843H255.821c-1.258-.047-1.47-.549-2.1-1.145A73.487,73.487,0,0,1,235.767,637.1S235.282,633.864,238.071,634.061Zm3.616,5.929A72.262,72.262,0,0,0,256.7,661.077H267.62c-5.871-9.753-14.74-17.773-25.7-21.166C241.924,639.911,241.487,639.57,241.687,639.99Z" transform="translate(-235.735 -577.917)" fill="#41146c"/>
            <path id="Path_593" data-name="Path 593" d="M339.043,728.267H247.617V685.878a8.329,8.329,0,0,1,8.33-8.329h74.767a8.329,8.329,0,0,1,8.329,8.329Z" transform="translate(-239.687 -592.387)" fill="#ffcf91" fill-rule="evenodd"/>
            <path id="Path_594" data-name="Path 594" d="M329.528,674.448a10.823,10.823,0,0,1,10.417,10.546v42.648a2.351,2.351,0,0,1-2.224,2.224H246.574a2.352,2.352,0,0,1-2.225-2.224c0-14.259-.089-28.518,0-42.776a10.867,10.867,0,0,1,10.417-10.418Q292.148,674.213,329.528,674.448ZM255.3,678.673a6.3,6.3,0,0,0-6.113,6.112v40.409h86.7c0-13.5.086-27,0-40.495a6.32,6.32,0,0,0-6.025-6.025C305.005,678.518,280.152,678.673,255.3,678.673Z" transform="translate(-238.588 -591.316)" fill="#41146c"/>
            <path id="Path_595" data-name="Path 595" d="M318.228,636.314c13.228-29.5-3.526-82.72-3.526-82.72-27.53,57.563-11.67,82.72-11.67,82.72Z" transform="translate(-256.61 -551.152)" fill="#00d4ae" fill-rule="evenodd"/>
            <path id="Path_596" data-name="Path 596" d="M313.633,549.935c1.642.218,1.748.823,2.257,2.524,6.707,22.708,11.029,46.956,7.166,69.558a57.649,57.649,0,0,1-3.786,13.219A2.731,2.731,0,0,1,317,637.1H301.8c-1.826-.1-2.662-2.336-3.446-4.35-6.2-15.931-3.4-34.566,1.524-51.667a192.7,192.7,0,0,1,11.262-29.207A2.578,2.578,0,0,1,313.633,549.935Zm-.872,9.58c-9.147,20.686-16.429,43.235-12.213,65.138a36.772,36.772,0,0,0,2.571,8.443l12.411.061c6.386-15.589,4.944-33.476,2.406-50.261a225.918,225.918,0,0,0-4.932-23.723A1.579,1.579,0,0,0,312.762,559.515Z" transform="translate(-255.381 -549.935)" fill="#41146c"/>
            <path id="Path_597" data-name="Path 597" d="M341.429,648.454c21.987-16.79,28.783-58.366,28.783-58.366-43.375,26.784-43.575,58.366-43.575,58.366Z" transform="translate(-265.974 -563.292)" fill="#00d4ae" fill-rule="evenodd"/>
            <path id="Path_598" data-name="Path 598" d="M341.429,648.454c21.987-16.79,28.783-58.366,28.783-58.366-43.375,26.784-43.575,58.366-43.575,58.366Z" transform="translate(-265.974 -563.292)" fill="rgba(255,255,255,0.3)"/>
            <path id="Path_599" data-name="Path 599" d="M341.429,648.454c21.987-16.79,28.783-58.366,28.783-58.366-43.375,26.784-43.575,58.366-43.575,58.366Z" transform="translate(-265.974 -563.292)" fill="rgba(255,255,255,0.3)"/>
            <path id="Path_600" data-name="Path 600" d="M369.488,586.449c2.725.531,1.491,4.887.709,8.327-3.484,15.313-8.845,30.5-17.977,43.034a53.3,53.3,0,0,1-10.21,10.767,3.115,3.115,0,0,1-1.621.665H325.6c-3.329-.166-2.033-6.609-.5-11.951,6.254-21.778,24.124-38.83,42.391-50.213A3.1,3.1,0,0,1,369.488,586.449Zm-3.958,7.737c-15.677,10.653-29.539,24.875-35.472,42.663a47.451,47.451,0,0,0-2.021,8.389l11.588.088q1.282-1.021,2.478-2.142c8.947-8.366,14.53-19.873,18.724-31.571a150.921,150.921,0,0,0,5.112-17.644A3.589,3.589,0,0,0,365.53,594.186Z" transform="translate(-264.935 -562.078)" fill="#41146c"/>
            <path id="Path_601" data-name="Path 601" d="M287.34,654.732c-12.393-34.98-39.178-45.774-39.178-45.774s5.2,25.585,24.385,45.774Z" transform="translate(-239.869 -569.569)" fill="#00d4ae" fill-rule="evenodd"/>
            <path id="Path_602" data-name="Path 602" d="M287.34,654.732c-12.393-34.98-39.178-45.774-39.178-45.774s5.2,25.585,24.385,45.774Z" transform="translate(-239.869 -569.569)" fill="rgba(255,255,255,0.3)"/>
            <path id="Path_603" data-name="Path 603" d="M287.34,654.732c-12.393-34.98-39.178-45.774-39.178-45.774s5.2,25.585,24.385,45.774Z" transform="translate(-239.869 -569.569)" fill="rgba(255,255,255,0.3)"/>
            <path id="Path_604" data-name="Path 604" d="M247.356,605.313c.686.115.148-.062,1.331.482,18.6,8.555,32.421,26.577,39.523,46.338.175.486.352,3.286-1.947,3.385H271.471c-1.256-.057-1.426-.486-2.3-1.423a99.827,99.827,0,0,1-24.246-46.036S245.128,605.143,247.356,605.313Zm3.206,7.12a99.992,99.992,0,0,0,21.87,39.081h10.625c-6.393-16.26-17.7-30.591-32.457-39.245C250.6,612.27,250.417,611.947,250.562,612.433Z" transform="translate(-238.792 -568.355)" fill="#41146c"/>
            <path id="Path_605" data-name="Path 605" d="M331,650.049c11.394-20.989,10.395-55.168,10.395-55.168-27.984,27.383-24.985,55.168-24.985,55.168Z" transform="translate(-262.54 -564.886)" fill="#00d4ae" fill-rule="evenodd"/>
            <path id="Path_606" data-name="Path 606" d="M331,650.049c11.394-20.989,10.395-55.168,10.395-55.168-27.984,27.383-24.985,55.168-24.985,55.168Z" transform="translate(-262.54 -564.886)" fill="rgba(255,255,255,0.3)"/>
            <path id="Path_607" data-name="Path 607" d="M340.473,591.228c2.752.394,2.085,5.264,1.953,9.343-.544,16.922-2.77,34.385-10.463,48.843a2.583,2.583,0,0,1-2.093,1.421H315.279c-2.857-.141-2.483-5.117-2.089-9.37,1.713-18.455,11.769-35.926,24.854-48.956A3.153,3.153,0,0,1,340.473,591.228Zm-2.593,8.431c-11.815,13.023-20.477,29.584-20.471,47.172l11.117.1C335.8,632.7,337.61,616,338.018,599.6,338.018,599.6,338.182,599.328,337.88,599.658Z" transform="translate(-261.411 -563.67)" fill="#41146c"/>
            <path id="Path_608" data-name="Path 608" d="M324.536,599.266c2.028.115,2,4.543,2.011,7.036a1.357,1.357,0,0,1-2.7-.239q-.058-.533-.119-1.064-.166-1.408-.36-2.812C323.161,600.7,323.091,599.243,324.536,599.266Z" transform="translate(-264.849 -566.345)" fill="#41146c"/>
            <path id="Path_609" data-name="Path 609" d="M306.5,625c2.105.14,1.074,4.652.511,7.316-.373,1.471-2.839,1.418-2.508-1.53q.186-1.62.41-3.233C305.076,626.35,305.278,624.964,306.5,625Z" transform="translate(-258.6 -574.904)" fill="#41146c"/>
            <path id="Path_610" data-name="Path 610" d="M377.078,611.2c2.222.133.257,4.771-1.225,7.277a1.356,1.356,0,0,1-2.193-1.591c.15-.324.3-.649.446-.974q.583-1.291,1.141-2.6C375.686,612.287,375.963,611.177,377.078,611.2Z" transform="translate(-281.552 -570.315)" fill="#41146c"/>
            <path id="Path_611" data-name="Path 611" d="M280.316,599.468c2.037.09,2.47,3.865,3.142,6.431.268,1.219-1.809,2.459-2.529.827C279.705,603.621,277.506,599.455,280.316,599.468Z" transform="translate(-250.11 -566.412)" fill="#41146c"/>
            <path id="Path_612" data-name="Path 612" d="M337.857,642.15c2.235.178.468,4.917-.7,7.362-.616,1.171-3.1.777-2.329-1.385q.179-.5.354-1.01.462-1.34.9-2.69C336.437,643.319,336.664,642.1,337.857,642.15Z" transform="translate(-268.652 -580.611)" fill="#41146c"/>
            <path id="Path_613" data-name="Path 613" d="M270.48,638.645c1.895.113,3.106,3.188,4.406,5.341.643,1.16-1.236,2.66-2.2,1.5-1.974-2.568-5.022-5.671-2.838-6.715A1.1,1.1,0,0,1,270.48,638.645Z" transform="translate(-246.832 -579.445)" fill="#41146c"/>
            <path id="Path_614" data-name="Path 614" d="M377.455,654.122c1.2.044,1.843,1.3.214,3.026q-1.121,1.179-2.267,2.334c-.551.553-1.049,1.261-1.728,1.387a1.378,1.378,0,0,1-1.179-2.264q1.4-1.373,2.75-2.784C375.934,655.1,376.442,654.12,377.455,654.122Z" transform="translate(-281.112 -584.594)" fill="#41146c"/>
            <rect id="Rectangle_632" data-name="Rectangle 632" width="86.754" height="14.014" transform="translate(10.599 100.511)" fill="rgba(255,255,255,0.3)"/>
            <rect id="Rectangle_633" data-name="Rectangle 633" width="86.754" height="14.014" transform="translate(10.599 100.511)" fill="rgba(255,255,255,0.3)"/>
          </g>
          <g id="Group_41" data-name="Group 41" transform="translate(456.076 309.796)">
            <path id="Path_615" data-name="Path 615" d="M994.448,668.056l-66.82.029a14.982,14.982,0,0,1-15.011-14.955V512.065s6.629-14.98,14.9-15.516l7.934.667,58.92-.026a14.983,14.983,0,0,1,15.01,14.956l.063,140.94A14.983,14.983,0,0,1,994.448,668.056Z" transform="translate(-910.23 -494.737)" fill="#fff"/>
            <path id="Path_616" data-name="Path 616" d="M993.251,493.925a17.734,17.734,0,0,1,16.985,16.97c.31,47.1.043,94.2.065,141.307a17.713,17.713,0,0,1-16.973,17.2c-22.309.154-44.62.021-66.929.031a17.707,17.707,0,0,1-17.2-16.972c-.326-47.1-.044-94.2-.065-141.306a17.7,17.7,0,0,1,16.973-17.2C948.573,493.8,970.882,493.795,993.251,493.925ZM934.263,498.4c-3.977,0-7.809-.939-12.464.833A13.019,13.019,0,0,0,913.583,511q-.415,70.7.063,141.408a13.06,13.06,0,0,0,12.592,12.58q33.516.185,67.032-.029a13.083,13.083,0,0,0,12.581-12.592q.415-70.7-.063-141.409a13.061,13.061,0,0,0-12.591-12.58C973.552,498.259,953.908,498.39,934.263,498.4Z" transform="translate(-909.04 -493.834)" fill="#41146c"/>
            <path id="Path_617" data-name="Path 617" d="M934.774,665.05a9.184,9.184,0,0,1-9.186-9.181L925.529,524a10.461,10.461,0,0,1,10.453-10.467l58.558-.026A10.459,10.459,0,0,1,1005,523.967l.059,131.866a9.184,9.184,0,0,1-9.178,9.19Z" transform="translate(-914.525 -500.379)" fill="rgba(255,255,255,0.3)"/>
            <path id="Path_618" data-name="Path 618" d="M954.585,501.935l-4.286-4.4,48.765-.022L995,501.846a7.506,7.506,0,0,1-5.464,2.365l-29.513.013A7.585,7.585,0,0,1,954.585,501.935Z" transform="translate(-922.765 -495.059)" fill="#fff"/>
            <path id="Path_619" data-name="Path 619" d="M998.432,494.525a2.08,2.08,0,0,1,1.266,3.364c-3.257,3.468-6.294,7.305-10.971,7.4q-15.056.1-30.115.013a9.8,9.8,0,0,1-6.743-2.889l-4.362-4.474a2.068,2.068,0,0,1,1.433-3.4l49.3-.022ZM953.687,498.4c1.336,1.37,2.875,2.692,4.9,2.755q15.075.279,30.156-.013a5.72,5.72,0,0,0,3.926-1.762l.938-1Z" transform="translate(-921.674 -494.061)" fill="#41146c"/>
            <path id="Path_620" data-name="Path 620" d="M989.561,738.524c.99.091.967.386,1.147.812a1.378,1.378,0,0,1-1.228,1.856L976.8,741.2c-.7-.021-.756-.2-.958-.4a1.374,1.374,0,0,1,.957-2.265C981.055,738.525,985.31,738.395,989.561,738.524Z" transform="translate(-931.152 -575.213)" fill="#41146c"/>
            <path id="Path_621" data-name="Path 621" d="M982.621,591.839v-4.833a2.09,2.09,0,0,0-1.912-2.131,2,2,0,0,0-2.092,2v4.852a2.08,2.08,0,0,0,1.643,2.084A2,2,0,0,0,982.621,591.839Z" transform="translate(-932.185 -524.119)" fill="#00bcff" fill-rule="evenodd"/>
            <path id="Path_622" data-name="Path 622" d="M970.621,583.193v-21.2a2.09,2.09,0,0,0-1.912-2.131,2,2,0,0,0-2.092,2V583.08a2.08,2.08,0,0,0,1.643,2.084A2,2,0,0,0,970.621,583.193Z" transform="translate(-928.194 -515.799)" fill="#00bcff" fill-rule="evenodd"/>
            <path id="Path_623" data-name="Path 623" d="M957.621,578.116V547.292a2.081,2.081,0,0,0-1.642-2.085,2,2,0,0,0-2.362,1.97V578a2.079,2.079,0,0,0,1.643,2.083A2,2,0,0,0,957.621,578.116Z" transform="translate(-923.869 -510.913)" fill="#00bcff" fill-rule="evenodd"/>
            <path id="Path_624" data-name="Path 624" d="M944.62,591.375a2,2,0,0,0,2-2v-9.518a2.08,2.08,0,0,0-1.643-2.084,2,2,0,0,0-2.361,1.971v9.631a2,2,0,0,0,2,2" transform="translate(-920.21 -521.746)" fill="#00bcff" fill-rule="evenodd"/>
            <path id="Path_625" data-name="Path 625" d="M964.641,630.89H942.753a2.136,2.136,0,0,1-2.135-2.135v-3.07a2.136,2.136,0,0,1,2.135-2.135h21.755a2.135,2.135,0,0,1,2.135,2.135v3.122a2.11,2.11,0,0,1-2.136,2.083" transform="translate(-919.544 -536.985)" fill="#00bcff" fill-rule="evenodd"/>
            <path id="Path_626" data-name="Path 626" d="M989.666,653.89H943.753a2.136,2.136,0,0,1-2.135-2.135v-3.07a2.136,2.136,0,0,1,2.135-2.135h45.78a2.135,2.135,0,0,1,2.135,2.135v3.122a2.1,2.1,0,0,1-2.125,2.083" transform="translate(-919.877 -544.636)" fill="#00bcff" fill-rule="evenodd"/>
            <path id="Path_627" data-name="Path 627" d="M982.621,591.839v-4.833a2.09,2.09,0,0,0-1.912-2.131,2,2,0,0,0-2.092,2v4.852a2.08,2.08,0,0,0,1.643,2.084A2,2,0,0,0,982.621,591.839Z" transform="translate(-932.185 -524.119)" fill="rgba(255,255,255,0.3)"/>
            <path id="Path_628" data-name="Path 628" d="M970.621,583.193v-21.2a2.09,2.09,0,0,0-1.912-2.131,2,2,0,0,0-2.092,2V583.08a2.08,2.08,0,0,0,1.643,2.084A2,2,0,0,0,970.621,583.193Z" transform="translate(-928.194 -515.799)" fill="rgba(255,255,255,0.3)"/>
            <path id="Path_629" data-name="Path 629" d="M957.621,578.116V547.292a2.081,2.081,0,0,0-1.642-2.085,2,2,0,0,0-2.362,1.97V578a2.079,2.079,0,0,0,1.643,2.083A2,2,0,0,0,957.621,578.116Z" transform="translate(-923.869 -510.913)" fill="rgba(255,255,255,0.3)"/>
            <path id="Path_630" data-name="Path 630" d="M944.62,591.375a2,2,0,0,0,2-2v-9.518a2.08,2.08,0,0,0-1.643-2.084,2,2,0,0,0-2.361,1.971v9.631a2,2,0,0,0,2,2" transform="translate(-920.21 -521.746)" fill="rgba(255,255,255,0.3)"/>
            <path id="Path_631" data-name="Path 631" d="M964.641,630.89H942.753a2.136,2.136,0,0,1-2.135-2.135v-3.07a2.136,2.136,0,0,1,2.135-2.135h21.755a2.135,2.135,0,0,1,2.135,2.135v3.122a2.11,2.11,0,0,1-2.136,2.083" transform="translate(-919.544 -536.985)" fill="rgba(255,255,255,0.3)"/>
            <path id="Path_632" data-name="Path 632" d="M989.666,653.89H943.753a2.136,2.136,0,0,1-2.135-2.135v-3.07a2.136,2.136,0,0,1,2.135-2.135h45.78a2.135,2.135,0,0,1,2.135,2.135v3.122a2.1,2.1,0,0,1-2.125,2.083" transform="translate(-919.877 -544.636)" fill="rgba(255,255,255,0.3)"/>
            <path id="Path_633" data-name="Path 633" d="M982.621,591.839v-4.833a2.09,2.09,0,0,0-1.912-2.131,2,2,0,0,0-2.092,2v4.852a2.08,2.08,0,0,0,1.643,2.084A2,2,0,0,0,982.621,591.839Z" transform="translate(-932.185 -524.119)" fill="rgba(255,255,255,0.3)"/>
            <path id="Path_634" data-name="Path 634" d="M970.621,583.193v-21.2a2.09,2.09,0,0,0-1.912-2.131,2,2,0,0,0-2.092,2V583.08a2.08,2.08,0,0,0,1.643,2.084A2,2,0,0,0,970.621,583.193Z" transform="translate(-928.194 -515.799)" fill="rgba(255,255,255,0.3)"/>
            <path id="Path_635" data-name="Path 635" d="M957.621,578.116V547.292a2.081,2.081,0,0,0-1.642-2.085,2,2,0,0,0-2.362,1.97V578a2.079,2.079,0,0,0,1.643,2.083A2,2,0,0,0,957.621,578.116Z" transform="translate(-923.869 -510.913)" fill="rgba(255,255,255,0.3)"/>
            <path id="Path_636" data-name="Path 636" d="M944.62,591.375a2,2,0,0,0,2-2v-9.518a2.08,2.08,0,0,0-1.643-2.084,2,2,0,0,0-2.361,1.971v9.631a2,2,0,0,0,2,2" transform="translate(-920.21 -521.746)" fill="rgba(255,255,255,0.3)"/>
            <path id="Path_637" data-name="Path 637" d="M964.641,630.89H942.753a2.136,2.136,0,0,1-2.135-2.135v-3.07a2.136,2.136,0,0,1,2.135-2.135h21.755a2.135,2.135,0,0,1,2.135,2.135v3.122a2.11,2.11,0,0,1-2.136,2.083" transform="translate(-919.544 -536.985)" fill="rgba(255,255,255,0.3)"/>
            <path id="Path_638" data-name="Path 638" d="M989.666,653.89H943.753a2.136,2.136,0,0,1-2.135-2.135v-3.07a2.136,2.136,0,0,1,2.135-2.135h45.78a2.135,2.135,0,0,1,2.135,2.135v3.122a2.1,2.1,0,0,1-2.125,2.083" transform="translate(-919.877 -544.636)" fill="rgba(255,255,255,0.3)"/>
            <path id="Path_639" data-name="Path 639" d="M982.621,591.839v-4.833a2.09,2.09,0,0,0-1.912-2.131,2,2,0,0,0-2.092,2v4.852a2.08,2.08,0,0,0,1.643,2.084A2,2,0,0,0,982.621,591.839Z" transform="translate(-932.185 -524.119)" fill="rgba(255,255,255,0.3)"/>
            <path id="Path_640" data-name="Path 640" d="M970.621,583.193v-21.2a2.09,2.09,0,0,0-1.912-2.131,2,2,0,0,0-2.092,2V583.08a2.08,2.08,0,0,0,1.643,2.084A2,2,0,0,0,970.621,583.193Z" transform="translate(-928.194 -515.799)" fill="rgba(255,255,255,0.3)"/>
            <path id="Path_641" data-name="Path 641" d="M957.621,578.116V547.292a2.081,2.081,0,0,0-1.642-2.085,2,2,0,0,0-2.362,1.97V578a2.079,2.079,0,0,0,1.643,2.083A2,2,0,0,0,957.621,578.116Z" transform="translate(-923.869 -510.913)" fill="rgba(255,255,255,0.3)"/>
            <path id="Path_642" data-name="Path 642" d="M944.62,591.375a2,2,0,0,0,2-2v-9.518a2.08,2.08,0,0,0-1.643-2.084,2,2,0,0,0-2.361,1.971v9.631a2,2,0,0,0,2,2" transform="translate(-920.21 -521.746)" fill="rgba(255,255,255,0.3)"/>
            <path id="Path_643" data-name="Path 643" d="M964.641,630.89H942.753a2.136,2.136,0,0,1-2.135-2.135v-3.07a2.136,2.136,0,0,1,2.135-2.135h21.755a2.135,2.135,0,0,1,2.135,2.135v3.122a2.11,2.11,0,0,1-2.136,2.083" transform="translate(-919.544 -536.985)" fill="rgba(255,255,255,0.3)"/>
            <path id="Path_644" data-name="Path 644" d="M989.666,653.89H943.753a2.136,2.136,0,0,1-2.135-2.135v-3.07a2.136,2.136,0,0,1,2.135-2.135h45.78a2.135,2.135,0,0,1,2.135,2.135v3.122a2.1,2.1,0,0,1-2.125,2.083" transform="translate(-919.877 -544.636)" fill="rgba(255,255,255,0.3)"/>
            <path id="Path_645" data-name="Path 645" d="M982.621,591.839v-4.833a2.09,2.09,0,0,0-1.912-2.131,2,2,0,0,0-2.092,2v4.852a2.08,2.08,0,0,0,1.643,2.084A2,2,0,0,0,982.621,591.839Z" transform="translate(-932.185 -524.119)" fill="rgba(255,255,255,0.3)"/>
            <path id="Path_646" data-name="Path 646" d="M970.621,583.193v-21.2a2.09,2.09,0,0,0-1.912-2.131,2,2,0,0,0-2.092,2V583.08a2.08,2.08,0,0,0,1.643,2.084A2,2,0,0,0,970.621,583.193Z" transform="translate(-928.194 -515.799)" fill="rgba(255,255,255,0.3)"/>
            <path id="Path_647" data-name="Path 647" d="M957.621,578.116V547.292a2.081,2.081,0,0,0-1.642-2.085,2,2,0,0,0-2.362,1.97V578a2.079,2.079,0,0,0,1.643,2.083A2,2,0,0,0,957.621,578.116Z" transform="translate(-923.869 -510.913)" fill="rgba(255,255,255,0.3)"/>
            <path id="Path_648" data-name="Path 648" d="M944.62,591.375a2,2,0,0,0,2-2v-9.518a2.08,2.08,0,0,0-1.643-2.084,2,2,0,0,0-2.361,1.971v9.631a2,2,0,0,0,2,2" transform="translate(-920.21 -521.746)" fill="rgba(255,255,255,0.3)"/>
            <path id="Path_649" data-name="Path 649" d="M964.641,630.89H942.753a2.136,2.136,0,0,1-2.135-2.135v-3.07a2.136,2.136,0,0,1,2.135-2.135h21.755a2.135,2.135,0,0,1,2.135,2.135v3.122a2.11,2.11,0,0,1-2.136,2.083" transform="translate(-919.544 -536.985)" fill="rgba(255,255,255,0.3)"/>
            <path id="Path_650" data-name="Path 650" d="M989.666,653.89H943.753a2.136,2.136,0,0,1-2.135-2.135v-3.07a2.136,2.136,0,0,1,2.135-2.135h45.78a2.135,2.135,0,0,1,2.135,2.135v3.122a2.1,2.1,0,0,1-2.125,2.083" transform="translate(-919.877 -544.636)" fill="rgba(255,255,255,0.3)"/>
          </g>
          <g id="Group_42" data-name="Group 42" transform="translate(515.498 354.951)">
            <path id="Path_651" data-name="Path 651" d="M1092.154,652.971h-76.3a14.235,14.235,0,0,1-14.235-14.235V579.785a14.236,14.236,0,0,1,14.236-14.236h76.3a14.235,14.235,0,0,1,14.234,14.235v58.951A14.236,14.236,0,0,1,1092.154,652.971Z" transform="translate(-999.258 -562.845)" fill="#fff"/>
            <path id="Path_652" data-name="Path 652" d="M1090.822,561.62a16.856,16.856,0,0,1,16.246,16.248c.133,19.823,0,39.647,0,59.471a16.933,16.933,0,0,1-16.248,16.452c-25.41.158-50.821,0-76.232,0a16.947,16.947,0,0,1-16.451-16.248c-.127-19.823,0-39.647,0-59.471a16.888,16.888,0,0,1,16.248-16.453Q1052.6,561.375,1090.822,561.62Zm-76.217,4.448a12.342,12.342,0,0,0-12.017,11.855q-.191,29.781,0,59.563a12.315,12.315,0,0,0,11.854,11.855q38.161.236,76.324,0a12.357,12.357,0,0,0,11.854-11.855q.2-29.781,0-59.563a12.356,12.356,0,0,0-11.854-11.855C1065.379,565.906,1039.992,566.068,1014.6,566.068Z" transform="translate(-998.082 -561.497)" fill="#41146c"/>
            <path id="Path_653" data-name="Path 653" d="M1061.875,590.549v26.116l-24.8,14.628a28.289,28.289,0,0,1,24.8-40.492" transform="translate(-1010.133 -571.162)" fill="#ffcf91" fill-rule="evenodd"/>
            <path id="Path_654" data-name="Path 654" d="M1095.885,634.55a28.09,28.09,0,0,1-52.078,14.613l23.99-14.613Z" transform="translate(-1013.293 -585.799)" fill="#7f77bf" fill-rule="evenodd"/>
            <path id="Path_655" data-name="Path 655" d="M1110.645,612.548h-28.028V584.461a28.087,28.087,0,0,1,28.089,28.087" transform="translate(-1026.203 -569.136)" fill="#ff9591" fill-rule="evenodd"/>
          </g>
          <g id="Group_43" data-name="Group 43" transform="translate(0 0)">
            <path id="Path_656" data-name="Path 656" d="M630.9,55.954c1.215.061,1.824,2.107.367,2.606-2.545.739-5.124,1.359-7.686,2.038-1.307.313-2.363-2.007-.744-2.563C625.535,57.253,628.257,55.946,630.9,55.954Z" transform="translate(-357.484 -38.373)" fill="#41146c"/>
            <path id="Path_657" data-name="Path 657" d="M605.639,29.61a1.382,1.382,0,0,1,1.261,1.516c-.4,2.448-.9,4.877-1.359,7.316-.282,1.344-2.814,1.138-2.634-.427.4-2.448.906-4.878,1.359-7.316A1.369,1.369,0,0,1,605.639,29.61Z" transform="translate(-351.123 -29.609)" fill="#41146c"/>
            <path id="Path_658" data-name="Path 658" d="M619.944,39.455a1.389,1.389,0,0,1,.972,2.211c-1.821,2-3.724,3.932-5.587,5.9-.964.976-2.987-.583-1.975-1.8,1.822-2,3.724-3.932,5.587-5.9A1.2,1.2,0,0,1,619.944,39.455Z" transform="translate(-354.509 -32.885)" fill="#41146c"/>
            <path id="Path_659" data-name="Path 659" d="M477.2,101.549V273.377a17.029,17.029,0,0,1-17.029,17.03H246.647a17.03,17.03,0,0,1-17.03-17.03V101.549Z" transform="translate(-226.948 -53.541)" fill="#fff"/>
            <path id="Path_660" data-name="Path 660" d="M475.358,98.549l.912.282a2.763,2.763,0,0,1,1.036,1.091l.17.852c0,57.359.551,114.719,0,172.075-.156,9.827-8.636,18.84-19,19q-106.919,1-213.847,0A19.706,19.706,0,0,1,225.617,272.6V100.773a2.943,2.943,0,0,1,.651-1.573l.722-.482.852-.169Zm-245.118,4c0,56.6-.537,113.2,0,169.794A15.184,15.184,0,0,0,244.95,286.96c71.212.228,142.428.667,213.638,0A15.2,15.2,0,0,0,473.2,272.151v-169.6Z" transform="translate(-225.617 -52.543)" fill="#41146c"/>
            <path id="Path_661" data-name="Path 661" d="M477.2,82.892v7.347H229.617V82.893a15.344,15.344,0,0,1,15.344-15.344h216.9A15.342,15.342,0,0,1,477.2,82.892Z" transform="translate(-226.948 -42.23)" fill="#7f77bf" fill-rule="evenodd"/>
            <path id="Path_662" data-name="Path 662" d="M460.883,64.069A18.045,18.045,0,0,1,478.2,81.628v7.116l-.169.852-.482.721a2.935,2.935,0,0,1-1.572.651H228.839a2.939,2.939,0,0,1-1.572-.651l-.482-.721-.169-.852V81.628a18.069,18.069,0,0,1,17.328-17.559Q352.412,63.377,460.883,64.069Zm-217.13,4.892a13.455,13.455,0,0,0-13.132,13.126v4.877h242.96c0-3.235.272-6.479-.8-9.4a13.4,13.4,0,0,0-12.152-8.606C388.342,68.5,316.046,68.961,243.753,68.961Z" transform="translate(-225.95 -40.958)" fill="#41146c"/>
            <path id="Path_663" data-name="Path 663" d="M265.507,85.042a3.366,3.366,0,1,1-3.366-3.366,3.366,3.366,0,0,1,3.366,3.366" transform="translate(-236.647 -46.93)" fill="#fff"/>
            <path id="Path_664" data-name="Path 664" d="M317.63,85.042a3.366,3.366,0,1,1-3.366-3.366,3.367,3.367,0,0,1,3.366,3.366" transform="translate(-253.986 -46.93)" fill="#fff"/>
            <path id="Path_665" data-name="Path 665" d="M291.569,85.042a3.366,3.366,0,1,1-3.366-3.366,3.367,3.367,0,0,1,3.366,3.366" transform="translate(-245.317 -46.93)" fill="#fff"/>
            <path id="Path_666" data-name="Path 666" d="M576.078,79.035a6.469,6.469,0,0,1,6.222,6.221,1.341,1.341,0,0,1-2.677-.153c-.134-1.917-1.963-3.151-3.839-3.415C574.539,81.461,574.191,79.022,576.078,79.035Z" transform="translate(-341.761 -46.051)" fill="#41146c"/>
            <path id="Path_667" data-name="Path 667" d="M344.807,212.587h-5.7a1.486,1.486,0,0,1-1.486-1.486V176.036a1.487,1.487,0,0,1,1.487-1.487h5.7a1.486,1.486,0,0,1,1.485,1.486V211.1A1.486,1.486,0,0,1,344.807,212.587Z" transform="translate(-262.875 -77.825)" fill="#ffcf91" fill-rule="evenodd"/>
            <path id="Path_668" data-name="Path 668" d="M344.041,171.27a3.382,3.382,0,0,1,3.181,3.182q.22,17.7,0,35.4a3.382,3.382,0,0,1-3.182,3.181c-4,.049-8.679.361-8.814-3.181q-.226-17.7,0-35.4a3.386,3.386,0,0,1,3.181-3.182Q341.224,171.235,344.041,171.27Zm-5.255,3.517v34.7h4.671v-34.7Z" transform="translate(-262.042 -76.728)" fill="#41146c"/>
            <path id="Path_669" data-name="Path 669" d="M369.476,221.235h-5.042a1.816,1.816,0,0,1-1.816-1.816V204.365a1.816,1.816,0,0,1,1.816-1.816h5.042a1.817,1.817,0,0,1,1.817,1.817v15.051A1.817,1.817,0,0,1,369.476,221.235Z" transform="translate(-271.191 -87.139)" fill="#fff"/>
            <path id="Path_670" data-name="Path 670" d="M369.052,200.2a3.694,3.694,0,0,1,3.5,3.5c.066,5.125,0,10.25,0,15.376a3.717,3.717,0,0,1-3.5,3.584c-3.762.047-8.337.556-8.492-3.5-.064-5.125,0-10.25,0-15.375a3.714,3.714,0,0,1,3.5-3.583Q366.557,200.169,369.052,200.2Zm-4.62,3.564c-.027,0-.045.011-.048.03-.452,5.071,0,10.18,0,15.271a.048.048,0,0,0,.048.048h4.784a.049.049,0,0,0,.049-.049V203.813a.048.048,0,0,0-.048-.048Z" transform="translate(-270.497 -86.353)" fill="#41146c"/>
            <path id="Path_671" data-name="Path 671" d="M395.695,207.93h-5.479a1.6,1.6,0,0,1-1.6-1.6V162.148a1.6,1.6,0,0,1,1.6-1.6h5.479a1.6,1.6,0,0,1,1.6,1.6v44.185A1.6,1.6,0,0,1,395.695,207.93Z" transform="translate(-279.84 -73.168)" fill="#ff88b3" fill-rule="evenodd"/>
            <path id="Path_672" data-name="Path 672" d="M394.5,157.433a3.5,3.5,0,0,1,3.29,3.291q.279,22.208,0,44.42a3.5,3.5,0,0,1-3.29,3.291c-2.332.029-4.934.41-6.567-.234a3.461,3.461,0,0,1-2.138-3.057q-.279-22.208,0-44.42a3.5,3.5,0,0,1,3.29-3.291Q391.792,157.4,394.5,157.433Zm-4.866,3.409v44.044h4.671V160.842Z" transform="translate(-278.855 -72.126)" fill="#41146c"/>
            <path id="Path_673" data-name="Path 673" d="M420.591,197.285h-5.274a1.7,1.7,0,0,1-1.7-1.7V130.249a1.7,1.7,0,0,1,1.7-1.7h5.274a1.7,1.7,0,0,1,1.7,1.7v65.334A1.7,1.7,0,0,1,420.591,197.285Z" transform="translate(-288.157 -62.523)" fill="#00bcff" fill-rule="evenodd"/>
            <path id="Path_674" data-name="Path 674" d="M419.655,125.4a3.6,3.6,0,0,1,3.391,3.39q.422,32.8,0,65.6a3.6,3.6,0,0,1-3.391,3.391c-2.237.028-4.723.374-6.323-.211a3.574,3.574,0,0,1-2.282-3.181q-.421-32.8,0-65.6a3.605,3.605,0,0,1,3.39-3.39Q417.049,125.365,419.655,125.4Zm-4.96,3.433v65.4h4.671v-65.4Z" transform="translate(-287.233 -61.469)" fill="#41146c"/>
            <path id="Path_675" data-name="Path 675" d="M443.729,217.245h-3.547a2.565,2.565,0,0,1-2.565-2.565V191.114a2.565,2.565,0,0,1,2.565-2.565h3.547a2.564,2.564,0,0,1,2.564,2.565V214.68A2.564,2.564,0,0,1,443.729,217.245Z" transform="translate(-296.141 -82.482)" fill="#ff9591" fill-rule="evenodd"/>
            <path id="Path_676" data-name="Path 676" d="M442.5,185.464a4.486,4.486,0,0,1,4.232,4.232c.1,7.91,0,15.823,0,23.734a4.49,4.49,0,0,1-4.233,4.332c-3.556.044-7.621-.46-7.764-4.232-.1-7.91,0-15.823,0-23.734a4.491,4.491,0,0,1,4.233-4.332Q440.736,185.443,442.5,185.464Zm-3.409,3.558a.814.814,0,0,0-.8.763c-.1,7.9-.5,15.813,0,23.7.109,1.231,3.867.871,4.379.668a.8.8,0,0,0,.5-.689,235.039,235.039,0,0,0,0-23.715C443.079,188.682,440.827,189.022,439.093,189.022Z" transform="translate(-295.168 -81.452)" fill="#41146c"/>
            <path id="Path_677" data-name="Path 677" d="M471.668,202.608h-5.427a1.624,1.624,0,0,1-1.624-1.624V146.173a1.624,1.624,0,0,1,1.624-1.624h5.427a1.625,1.625,0,0,1,1.624,1.625v54.809A1.625,1.625,0,0,1,471.668,202.608Z" transform="translate(-305.122 -67.845)" fill="#00d4ae" fill-rule="evenodd"/>
            <path id="Path_678" data-name="Path 678" d="M470.331,141.415a3.529,3.529,0,0,1,3.317,3.315q.357,27.528,0,55.059a3.5,3.5,0,0,1-3.317,3.317c-2.224.027-4.7.482-6.525-.236a3.489,3.489,0,0,1-2.154-3.08q-.343-27.528,0-55.059a3.525,3.525,0,0,1,3.315-3.315Q467.65,141.38,470.331,141.415Zm-4.755,3.42v54.722h4.671V144.835Z" transform="translate(-304.079 -66.797)" fill="#41146c"/>
            <path id="Path_679" data-name="Path 679" d="M515.887,242.179c1.677.079,2.547,3.437,0,3.558-2.974.047-6.9.533-6.19-2.221C510.156,241.726,513.316,242.139,515.887,242.179Z" transform="translate(-320.091 -100.3)" fill="#41146c"/>
            <path id="Path_680" data-name="Path 680" d="M437.423,242.572c1.678.4,2.211,3.12-.293,3.314H308.179c-1.886-.147-2.44-3.147,0-3.337H437.13Z" transform="translate(-252.54 -100.446)" fill="#41146c"/>
            <path id="Path_681" data-name="Path 681" d="M466.511,258.549H471.4a1.894,1.894,0,0,1,1.894,1.893v24.909a1.894,1.894,0,0,1-1.894,1.893h-4.888a1.894,1.894,0,0,1-1.894-1.893V260.442A1.894,1.894,0,0,1,466.511,258.549Z" transform="translate(-305.122 -105.768)" fill="#00bcff" fill-rule="evenodd"/>
            <path id="Path_682" data-name="Path 682" d="M470.2,255.884a3.773,3.773,0,0,1,3.578,3.578c.1,8.407,0,16.814,0,25.221a3.794,3.794,0,0,1-3.578,3.661c-3.756.047-8.269.308-8.418-3.578-.1-8.406,0-16.814,0-25.221a3.8,3.8,0,0,1,3.579-3.662Q467.781,255.853,470.2,255.884Zm-4.734,3.558a.121.121,0,0,0-.125.11c-.1,8.368,0,16.739,0,25.109a.122.122,0,0,0,.107.124c1.548.059,3.1,0,4.647,0a.121.121,0,0,0,.125-.107c.318-8.364,0-16.741,0-25.112a.122.122,0,0,0-.107-.125C468.567,259.384,467.017,259.443,465.467,259.443Z" transform="translate(-304.164 -104.877)" fill="#41146c"/>
            <path id="Path_683" data-name="Path 683" d="M440.793,258.549h4.324a2.175,2.175,0,0,1,2.176,2.176v14.335a2.175,2.175,0,0,1-2.176,2.176h-4.324a2.176,2.176,0,0,1-2.176-2.176V260.725A2.176,2.176,0,0,1,440.793,258.549Z" transform="translate(-296.473 -105.768)" fill="#fff"/>
            <path id="Path_684" data-name="Path 684" d="M444.646,255.885a4.086,4.086,0,0,1,3.853,3.853c.061,4.889,0,9.777,0,14.667a4.091,4.091,0,0,1-3.854,3.943c-3.654.046-7.995.084-8.143-3.853-.064-4.888,0-9.778,0-14.666a4.087,4.087,0,0,1,3.854-3.943Q442.5,255.858,444.646,255.885Zm-4.178,3.558a.409.409,0,0,0-.406.374c-.182,4.851,0,9.709,0,14.564,0,.783,2.716.566,4.526.405a.407.407,0,0,0,.354-.383c.061-4.85,0-9.7,0-14.552C444.94,259.072,442.35,259.444,440.468,259.444Z" transform="translate(-295.76 -104.878)" fill="#41146c"/>
            <path id="Path_685" data-name="Path 685" d="M415.728,258.549h4.453a2.111,2.111,0,0,1,2.111,2.111v49.164a2.111,2.111,0,0,1-2.111,2.111h-4.453a2.112,2.112,0,0,1-2.111-2.111V260.66A2.112,2.112,0,0,1,415.728,258.549Z" transform="translate(-288.157 -105.768)" fill="#ffcf91" fill-rule="evenodd"/>
            <path id="Path_686" data-name="Path 686" d="M419.386,255.885a4.018,4.018,0,0,1,3.79,3.79c.208,16.428,0,32.859,0,49.289a4.024,4.024,0,0,1-3.791,3.879c-3.682.044-8.059.085-8.206-3.791-.208-16.429,0-32.859,0-49.289a4.019,4.019,0,0,1,3.791-3.879Q417.178,255.857,419.386,255.885Zm-4.3,3.558a.345.345,0,0,0-.344.322c-.206,16.391,0,32.784,0,49.176,0,.744,2.753.551,4.592.341a.337.337,0,0,0,.288-.32c.206-16.391,0-32.784,0-49.176C419.618,259.056,416.977,259.443,415.082,259.443Z" transform="translate(-287.315 -104.877)" fill="#41146c"/>
            <path id="Path_687" data-name="Path 687" d="M390.61,258.549H395.3a1.993,1.993,0,0,1,1.993,1.993v62.081a1.992,1.992,0,0,1-1.992,1.992h-4.69a1.993,1.993,0,0,1-1.993-1.993v-62.08A1.993,1.993,0,0,1,390.61,258.549Z" transform="translate(-279.84 -105.768)" fill="#ff9591" fill-rule="evenodd"/>
            <path id="Path_688" data-name="Path 688" d="M394.195,255.885a3.9,3.9,0,0,1,3.676,3.675c.269,20.686,0,41.375,0,62.063a3.9,3.9,0,0,1-3.676,3.759c-3.726.048-8.174.195-8.321-3.674-.27-20.686,0-41.375,0-62.063a3.9,3.9,0,0,1,3.676-3.76Q391.872,255.856,394.195,255.885Zm-4.537,3.558a.222.222,0,0,0-.224.2c-.78,20.637,0,41.3,0,61.955,0,.571,2.775.491,4.7.222a.217.217,0,0,0,.179-.2c.269-20.648,0-41.3,0-61.949C394.312,259.106,391.575,259.443,389.657,259.443Z" transform="translate(-278.888 -104.877)" fill="#41146c"/>
            <path id="Path_689" data-name="Path 689" d="M366.309,258.549H371.6a1.692,1.692,0,0,1,1.691,1.692v25.312a1.692,1.692,0,0,1-1.691,1.692h-5.293a1.692,1.692,0,0,1-1.692-1.692V260.241A1.692,1.692,0,0,1,366.309,258.549Z" transform="translate(-271.857 -105.768)" fill="#ff88b3" fill-rule="evenodd"/>
            <path id="Path_690" data-name="Path 690" d="M370.9,255.884a3.6,3.6,0,0,1,3.381,3.381q.164,12.766,0,25.535a3.564,3.564,0,0,1-3.381,3.381c-2.206.027-4.692.44-6.418-.24a3.557,3.557,0,0,1-2.2-3.141q-.164-12.767,0-25.535a3.594,3.594,0,0,1,3.381-3.381Q368.286,255.851,370.9,255.884Zm-5.086,3.775v25.359h4.671V259.659Z" transform="translate(-271.055 -104.876)" fill="#41146c"/>
            <path id="Path_691" data-name="Path 691" d="M340.9,258.549H345a2.288,2.288,0,0,1,2.288,2.288v14.778A2.288,2.288,0,0,1,345,277.9h-4.1a2.288,2.288,0,0,1-2.288-2.288V260.837A2.288,2.288,0,0,1,340.9,258.549Z" transform="translate(-263.207 -105.768)" fill="#00d4ae" fill-rule="evenodd"/>
            <path id="Path_692" data-name="Path 692" d="M343.758,255.885a4.2,4.2,0,0,1,3.961,3.962c.061,4.882,0,9.764,0,14.646a4.206,4.206,0,0,1-3.962,4.055c-3.79.048-8.264.089-8.419-3.962-.061-4.882,0-9.764,0-14.646a4.2,4.2,0,0,1,3.963-4.055Q341.531,255.857,343.758,255.885Zm-4.342,3.558a.526.526,0,0,0-.519.48c-.185,4.845,0,9.7,0,14.546,0,.936,2.833.693,4.811.517a.524.524,0,0,0,.453-.491c.06-4.844,0-9.689,0-14.533C344.161,259.045,341.429,259.443,339.417,259.443Z" transform="translate(-262.108 -104.877)" fill="#41146c"/>
            <path id="Path_693" data-name="Path 693" d="M245.469,357.9c1.137.059,1.13,1.618,1.544,2.667.8,2.023,3.742,1.894,4.449,2.833a1.412,1.412,0,0,1-1.469,2.124,6.457,6.457,0,0,1-5.9-6.208A1.386,1.386,0,0,1,245.469,357.9Z" transform="translate(-231.763 -138.817)" fill="#41146c"/>
            <path id="Path_694" data-name="Path 694" d="M271.631,155.9h-10.4a3.616,3.616,0,0,1-3.616-3.616V142.165a3.616,3.616,0,0,1,3.616-3.616h10.119a3.616,3.616,0,0,1,3.616,3.616v10.078a3.657,3.657,0,0,1-3.657,3.657" transform="translate(-236.262 -65.849)" fill="#d6d5eb"/>
            <path id="Path_695" data-name="Path 695" d="M271.631,193.9h-10.4a3.616,3.616,0,0,1-3.616-3.616V180.165a3.616,3.616,0,0,1,3.616-3.616h10.119a3.616,3.616,0,0,1,3.616,3.616v10.078a3.657,3.657,0,0,1-3.657,3.657" transform="translate(-236.262 -78.49)" fill="#d6d5eb"/>
            <path id="Path_696" data-name="Path 696" d="M271.631,231.9h-10.4a3.617,3.617,0,0,1-3.617-3.617V218.166a3.617,3.617,0,0,1,3.617-3.617h10.118a3.616,3.616,0,0,1,3.616,3.616v10.078a3.657,3.657,0,0,1-3.657,3.657" transform="translate(-236.262 -91.131)" fill="#d6d5eb"/>
          </g>
        </g>
        <g id="Line" transform="translate(0 546.72)">
          <path id="Path_697" data-name="Path 697" d="M1235.617,753.545l28.7-.008" transform="translate(-475.58 -751.532)" fill="#ebe9f2"/>
          <path id="Path_698" data-name="Path 698" d="M1263.765,750.543c1.273.136,1.383.5,1.706.931a2.425,2.425,0,0,1-1.705,3.737c-.055,0-.111,0-.167.005l-29.96.009c-2.4-.085-3.3-4.561,0-4.68l29.96-.009C1263.654,750.539,1263.71,750.541,1263.765,750.543Z" transform="translate(-474.208 -750.533)" fill="#41146c"/>
          <path id="Path_699" data-name="Path 699" d="M872.344,751.442a2.87,2.87,0,0,1,1.2,1.131l.169.8-.169.8-.482.678-.721.454-.852.159-691.77.177-.852-.159-.722-.453-.482-.678a2.6,2.6,0,0,1,0-1.6l.482-.678.721-.454.852-.159,691.77-.177Z" transform="translate(-123.602 -750.782)" fill="#41146c"/>
          <path id="Path_700" data-name="Path 700" d="M99.617,754.544l34.7-.01" transform="translate(-97.68 -751.863)" fill="#ebe9f2"/>
          <path id="Path_701" data-name="Path 701" d="M133.468,750.539c1.149.143,1.219.446,1.518.813a2.442,2.442,0,0,1-1.69,3.862l-34.532.011c-2.264-.093-3.164-4.551,0-4.683l34.532-.011C133.352,750.535,133.411,750.538,133.468,750.539Z" transform="translate(-96.714 -750.532)" fill="#41146c"/>
        </g>
      </g>
    </g>
  </g>
</svg>
