<svg xmlns="http://www.w3.org/2000/svg" width="20" height="20" viewBox="0 0 20 20"><defs><style>.a{fill:#333;}</style></defs><path class="a" d="M1505.115,1511.167a.668.668,0,0,1-.666-.666v-.667h-9.334v.667a.668.668,0,0,1-.666.666h-4a.668.668,0,0,1-.667-.666v-4a.668.668,0,0,1,.667-.667h.666V1496.5h-.666a.667.667,0,0,1-.667-.667v-4a.667.667,0,0,1,.667-.666h4a.667.667,0,0,1,.666.666v.667h9.334v-.667a.667.667,0,0,1,.666-.666h4a.667.667,0,0,1,.666.666v4a.667.667,0,0,1-.666.667h-.666v9.333h.666a.668.668,0,0,1,.666.667v4a.668.668,0,0,1-.666.666Zm.666-1.334h2.667v-2.666h-2.667Zm-14.666,0h2.666v-2.666h-2.666Zm1.334-4h2a.668.668,0,0,1,.666.667v2h9.334v-2a.668.668,0,0,1,.666-.667h2V1496.5h-2a.667.667,0,0,1-.666-.667v-2h-9.334v2a.667.667,0,0,1-.666.667h-2Zm13.333-10.666h2.667V1492.5h-2.667Zm-14.666,0h2.666V1492.5h-2.666Z" transform="translate(-1489.781 -1491.167)"/></svg>