<?xml version="1.0" encoding="utf-8"?>
<!-- Generator: Adobe Illustrator 24.1.1, SVG Export Plug-In . SVG Version: 6.00 Build 0)  -->
<svg version="1.1" id="Layer_1" xmlns="http://www.w3.org/2000/svg" xmlns:xlink="http://www.w3.org/1999/xlink" x="0px" y="0px"
	 width="100px" height="100px" viewBox="0 0 100 100" style="enable-background:new 0 0 100 100;" xml:space="preserve">
<style type="text/css">
	.st0{fill:#ED703D;}
	.st1{fill:#2180BC;}
</style>
<g id="Group_3">
	<path id="Path_14" class="st0" d="M96.4,44.2c-3.2-3.2-8.4-3.3-11.6-0.1c0,0,0,0-0.1,0.1L44.2,84.9c-3.2,3.3-3.1,8.5,0.2,11.7
		c3.2,3.1,8.3,3.1,11.5,0l40.7-40.7C99.7,52.5,99.6,47.3,96.4,44.2z"/>
	<path id="Path_15" class="st0" d="M96.4,3.5C93.2,0.2,88,0.2,84.8,3.4c0,0,0,0-0.1,0.1L3.5,84.9C0.2,88,0.2,93.2,3.3,96.5
		c3.2,3.3,8.4,3.4,11.7,0.2c0.1-0.1,0.1-0.1,0.2-0.2l81.2-81.6c3.2-3.1,3.2-8.1,0.2-11.3C96.5,3.6,96.5,3.5,96.4,3.5z"/>
	<path id="Path_16" class="st0" d="M55.7,3.5c-3.2-3.2-8.4-3.3-11.6-0.1c0,0,0,0-0.1,0.1L3.5,44.2c-3.2,3.3-3.1,8.5,0.2,11.7
		c3.2,3.1,8.3,3.1,11.5,0l40.5-40.9c3.2-3.1,3.3-8.1,0.2-11.3C55.8,3.6,55.8,3.5,55.7,3.5z"/>
	<path id="Path_17" class="st1" d="M84.9,84.9c-3.2,3.2-3.2,8.4,0,11.7c3.2,3.2,8.4,3.2,11.7,0c3.2-3.2,3.2-8.4,0-11.7c0,0,0,0,0,0
		C93.3,81.8,88.2,81.8,84.9,84.9z"/>
	<circle id="Ellipse_10" class="st1" cx="9.2" cy="9.2" r="8.2"/>
</g>
</svg>
