<svg xmlns="http://www.w3.org/2000/svg" width="316.913" height="41.026" viewBox="0 0 316.913 41.026">
  <g id="Group_5" data-name="Group 5" transform="translate(-1262 -245)">
    <g id="logo" transform="translate(1262 245)">
      <g id="Group_4" data-name="Group 4" transform="translate(0 0)">
        <g id="Group_3" data-name="Group 3">
          <path id="Path_14" data-name="Path 14" d="M43.74,22.325a3.362,3.362,0,0,0-4.785,0L22.325,39.034a3.384,3.384,0,0,0,4.785,4.785L43.819,27.11A3.435,3.435,0,0,0,43.74,22.325Z" transform="translate(-4.597 -4.597)" fill="#ed703d"/>
          <path id="Path_15" data-name="Path 15" d="M39.149,1.025a3.362,3.362,0,0,0-4.785,0L1.025,34.442A3.384,3.384,0,1,0,5.81,39.227l33.339-33.5A3.268,3.268,0,0,0,39.149,1.025Z" transform="translate(-0.005 -0.005)" fill="#ed703d"/>
          <path id="Path_16" data-name="Path 16" d="M22.44,1.025a3.362,3.362,0,0,0-4.785,0L1.025,17.734A3.384,3.384,0,0,0,5.81,22.519L22.44,5.732A3.268,3.268,0,0,0,22.44,1.025Z" transform="translate(-0.005 -0.005)" fill="#ed703d"/>
          <path id="Path_17" data-name="Path 17" d="M43.625,43.641a3.384,3.384,0,1,0,4.785,0A3.51,3.51,0,0,0,43.625,43.641Z" transform="translate(-9.188 -9.205)" fill="#2180bc"/>
          <circle id="Ellipse_10" data-name="Ellipse 10" cx="3.373" cy="3.373" r="3.373" fill="#2180bc"/>
        </g>
        <path id="Path_18" data-name="Path 18" d="M115.791,18.38V35.638h-5.648V18.929c0-4.393-2.2-7.217-5.883-7.217-3.765,0-6.432,2.9-6.432,7.217V35.638H92.18V18.929c0-4.393-2.2-7.217-5.883-7.217-3.765,0-6.354,2.9-6.354,7.217V35.638H74.216V14.223c0-1.569-.235-2.51-1.177-2.51a1.428,1.428,0,0,0-.863.314l-.392-.157L71,7.634l.235-.392A5.148,5.148,0,0,1,74.373,6.3,4.641,4.641,0,0,1,79.08,9.908,11.227,11.227,0,0,1,87.395,6.3,9.641,9.641,0,0,1,96.1,11.164,11.152,11.152,0,0,1,105.437,6.3C111.791,6.3,115.791,11.242,115.791,18.38Z" transform="translate(-15.305 -1.358)" fill="#2180bc"/>
        <path id="Path_19" data-name="Path 19" d="M160.236,35.98l-.235.314a5.455,5.455,0,0,1-3.059.863,4.425,4.425,0,0,1-4.55-3.295,12.656,12.656,0,0,1-8.629,3.295c-5.177,0-9.962-2.9-9.962-8.315,0-5.57,5.02-8.158,11.217-8.158a17.815,17.815,0,0,1,6.668,1.177V20.449c0-3.608-3.295-5.413-6.746-5.413a9.319,9.319,0,0,0-6.825,2.9h-.392l-2.746-2.589v-.392A14.817,14.817,0,0,1,145.488,10.8c5.413,0,11.61,2.432,11.61,9.649v9.727c0,1.334.235,2.2,1.177,2.2a1.046,1.046,0,0,0,.784-.314l.392.157Zm-8.472-10.355a17.676,17.676,0,0,0-5.962-1.177c-4,0-6.432,1.726-6.432,4.393,0,2.9,2.746,4.314,5.57,4.314,3.452,0,6.825-2.2,6.825-5.726Z" transform="translate(-28.842 -2.328)" fill="#2180bc"/>
        <path id="Path_20" data-name="Path 20" d="M253.355,23.979c0,7.531-5.726,13.179-13.728,13.179S225.9,31.431,225.9,23.979c0-7.531,5.726-13.179,13.728-13.179S253.355,16.526,253.355,23.979Zm-5.569,0c0-4.864-3.295-8.393-8.08-8.393-4.707,0-8.08,3.608-8.08,8.393s3.373,8.393,8.08,8.393C244.413,32.45,247.786,28.842,247.786,23.979Z" transform="translate(-48.696 -2.328)" fill="#2180bc"/>
        <path id="Path_21" data-name="Path 21" d="M306.815,21.468v15.14h-5.491V21.861c0-3.844-2.2-6.354-5.726-6.354a5.991,5.991,0,0,0-6.275,6.354V36.53h-5.57V21.861c0-3.844-2.118-6.354-5.726-6.354a5.972,5.972,0,0,0-6.2,6.354V36.53h-5.57V17.781c0-1.334-.235-2.2-1.177-2.2a1.2,1.2,0,0,0-.784.314l-.314-.157-.784-3.765.235-.314a5.455,5.455,0,0,1,3.059-.863,4.346,4.346,0,0,1,4.55,3.138,11.586,11.586,0,0,1,8.08-3.138,9.63,9.63,0,0,1,8.472,4.314,11.1,11.1,0,0,1,9.1-4.314C302.893,10.8,306.815,15.114,306.815,21.468Z" transform="translate(-56.736 -2.328)" fill="#2180bc"/>
        <path id="Path_22" data-name="Path 22" d="M351.494,6.4V35.66h-5.02V23.03H331.02V35.66H326V6.4h5.02V18.794h15.453V6.4Z" transform="translate(-70.273 -1.38)" fill="#ed703d"/>
        <path id="Path_23" data-name="Path 23" d="M395.248,40.315l-.157.392a6.645,6.645,0,0,1-4.393,1.569,9.429,9.429,0,0,1-6.04-2.589c-2.04-1.647-3.765-3.608-5.57-3.608-8.943,0-15.689-6.511-15.689-15.14S370.225,5.8,379.089,5.8c8.943,0,15.689,6.511,15.689,15.14a14.807,14.807,0,0,1-9.1,13.885l.706.549c1.412,1.177,2.667,2.589,4.471,2.589a3.623,3.623,0,0,0,2.275-.784l.392.157ZM379.167,31.53a10.373,10.373,0,0,0,10.59-10.668,10.59,10.59,0,1,0-21.18,0A10.373,10.373,0,0,0,379.167,31.53Z" transform="translate(-78.335 -1.25)" fill="#ed703d"/>
        <path id="Path_24" data-name="Path 24" d="M185.159,15.664a14.2,14.2,0,0,1,2.04-4.079,8.68,8.68,0,0,0-10.355,2.432,4.323,4.323,0,0,0-4.393-3.216,5.848,5.848,0,0,0-2.9.706.287.287,0,0,0-.157.392l.784,3.216a.836.836,0,0,0,.863.471c.941,0,1.177.863,1.177,2.2V36.53h5.491V22.174c0-4.158,2.2-6.668,5.413-6.668a10.678,10.678,0,0,1,1.647.157C185,15.742,185.08,15.742,185.159,15.664Z" transform="translate(-36.508 -2.328)" fill="#2180bc"/>
        <path id="Path_25" data-name="Path 25" d="M214.529,29.049a9.777,9.777,0,0,1-6.04,1.961c-5.8,0-9.649-3.922-9.649-9.805,0-5.726,4-9.884,9.492-9.884a10.263,10.263,0,0,1,7.374,3.059,17.546,17.546,0,0,1,2.746-3.608,1.641,1.641,0,0,0,.314-.471,15.222,15.222,0,0,0-10.668-4c-8.707,0-15.3,6.432-15.3,14.9s6.589,14.9,15.3,14.9a16.254,16.254,0,0,0,8.786-2.51A16.721,16.721,0,0,1,214.529,29.049Z" transform="translate(-41.56 -1.358)" fill="#2180bc"/>
      </g>
    </g>
  </g>
</svg>
