<svg id="marcom-white-logo" xmlns="http://www.w3.org/2000/svg" width="115.19" height="18.033" viewBox="0 0 115.19 18.033">
  <g id="Group_11" data-name="Group 11">
    <path id="Path_14" data-name="Path 14" d="M31.375,21.773a1.507,1.507,0,0,0-2.145,0l-7.456,7.491a1.517,1.517,0,1,0,2.145,2.145l7.491-7.491A1.54,1.54,0,0,0,31.375,21.773Z" transform="translate(-13.825 -13.825)" fill="#fff"/>
    <path id="Path_15" data-name="Path 15" d="M17.566.473a1.507,1.507,0,0,0-2.145,0L.473,15.456A1.517,1.517,0,1,0,2.619,17.6L17.566,2.584A1.465,1.465,0,0,0,17.566.473Z" transform="translate(-0.016 -0.016)" fill="#fff"/>
    <path id="Path_16" data-name="Path 16" d="M10.075.473a1.507,1.507,0,0,0-2.145,0L.473,7.965A1.517,1.517,0,1,0,2.619,10.11l7.456-7.526A1.465,1.465,0,0,0,10.075.473Z" transform="translate(-0.016 -0.016)" fill="#fff"/>
    <path id="Path_17" data-name="Path 17" d="M43.073,43.122a1.517,1.517,0,1,0,2.145,0A1.574,1.574,0,0,0,43.073,43.122Z" transform="translate(-27.634 -27.682)" fill="#fff"/>
    <circle id="Ellipse_10" data-name="Ellipse 10" cx="1.512" cy="1.512" r="1.512" fill="#fff"/>
  </g>
  <g id="Group_4" data-name="Group 4" transform="translate(24.924 3.007)">
    <path id="Path_18" data-name="Path 18" d="M86.478,10.474v5.963H84.526V10.664c0-1.518-.759-2.494-2.033-2.494a2.259,2.259,0,0,0-2.223,2.494v5.774H78.319V10.664c0-1.518-.759-2.494-2.033-2.494a2.239,2.239,0,0,0-2.2,2.494v5.774H72.111v-7.4c0-.542-.081-.867-.407-.867a.493.493,0,0,0-.3.108l-.136-.054L71,6.761l.081-.136A1.779,1.779,0,0,1,72.166,6.3a1.6,1.6,0,0,1,1.626,1.247A3.88,3.88,0,0,1,76.665,6.3a3.332,3.332,0,0,1,3.009,1.681A3.853,3.853,0,0,1,82.9,6.3C85.1,6.3,86.478,8.008,86.478,10.474Z" transform="translate(-71 -6.164)" fill="#fff"/>
    <path id="Path_19" data-name="Path 19" d="M142.935,19.5l-.081.108a1.885,1.885,0,0,1-1.057.3,1.529,1.529,0,0,1-1.572-1.138,4.373,4.373,0,0,1-2.982,1.138c-1.789,0-3.443-1-3.443-2.873,0-1.925,1.735-2.819,3.876-2.819a6.156,6.156,0,0,1,2.3.407v-.488c0-1.247-1.138-1.87-2.331-1.87a3.22,3.22,0,0,0-2.358,1h-.136l-.949-.895v-.136a5.12,5.12,0,0,1,3.632-1.437c1.87,0,4.012.84,4.012,3.334V17.5c0,.461.081.759.407.759a.361.361,0,0,0,.271-.108l.136.054Zm-2.928-3.578a6.108,6.108,0,0,0-2.06-.407c-1.382,0-2.223.6-2.223,1.518,0,1,.949,1.491,1.925,1.491a2.175,2.175,0,0,0,2.358-1.979Z" transform="translate(-116.777 -9.445)" fill="#fff"/>
    <path id="Path_20" data-name="Path 20" d="M235.387,15.354a4.748,4.748,0,1,1-4.744-4.554A4.511,4.511,0,0,1,235.387,15.354Zm-1.925,0a2.734,2.734,0,0,0-2.792-2.9,2.765,2.765,0,0,0-2.792,2.9,2.765,2.765,0,0,0,2.792,2.9A2.734,2.734,0,0,0,233.463,15.354Z" transform="translate(-183.912 -9.445)" fill="#fff"/>
    <path id="Path_21" data-name="Path 21" d="M278.271,14.487v5.232h-1.9v-5.1a1.957,1.957,0,0,0-1.979-2.2,2.07,2.07,0,0,0-2.169,2.2v5.069H270.3V14.622a1.943,1.943,0,0,0-1.979-2.2,2.064,2.064,0,0,0-2.141,2.2v5.069h-1.925V13.213c0-.461-.081-.759-.407-.759a.414.414,0,0,0-.271.108l-.108-.054-.271-1.3.081-.108a1.885,1.885,0,0,1,1.057-.3,1.5,1.5,0,0,1,1.572,1.084A4,4,0,0,1,268.7,10.8a3.328,3.328,0,0,1,2.928,1.491,3.834,3.834,0,0,1,3.144-1.491A3.382,3.382,0,0,1,278.271,14.487Z" transform="translate(-211.101 -9.445)" fill="#fff"/>
    <path id="Path_22" data-name="Path 22" d="M334.81,6.4V16.511h-1.735V12.147h-5.34v4.364H326V6.4h1.735v4.283h5.34V6.4Z" transform="translate(-256.878 -6.237)" fill="#fff"/>
    <path id="Path_23" data-name="Path 23" d="M374.405,17.727l-.054.136a2.3,2.3,0,0,1-1.518.542,3.258,3.258,0,0,1-2.087-.895c-.7-.569-1.3-1.247-1.925-1.247a5.235,5.235,0,1,1,5.421-5.232,5.117,5.117,0,0,1-3.144,4.8l.244.19c.488.407.922.895,1.545.895a1.252,1.252,0,0,0,.786-.271l.136.054Zm-5.557-3.036A3.584,3.584,0,0,0,372.508,11a3.66,3.66,0,1,0-7.319,0A3.584,3.584,0,0,0,368.848,14.691Z" transform="translate(-284.14 -5.8)" fill="#fff"/>
    <path id="Path_24" data-name="Path 24" d="M174.82,12.481a4.908,4.908,0,0,1,.7-1.41,3,3,0,0,0-3.578.84,1.494,1.494,0,0,0-1.518-1.111,2.021,2.021,0,0,0-1,.244.1.1,0,0,0-.054.136l.271,1.111a.289.289,0,0,0,.3.163c.325,0,.407.3.407.759v6.479h1.9V14.73c0-1.437.759-2.3,1.87-2.3a3.69,3.69,0,0,1,.569.054C174.766,12.508,174.793,12.508,174.82,12.481Z" transform="translate(-142.698 -9.445)" fill="#fff"/>
    <path id="Path_25" data-name="Path 25" d="M200.309,14.161a3.378,3.378,0,0,1-2.087.678,3.173,3.173,0,0,1-3.334-3.388,3.242,3.242,0,0,1,3.28-3.415,3.547,3.547,0,0,1,2.548,1.057,6.064,6.064,0,0,1,.949-1.247.566.566,0,0,0,.108-.163A5.26,5.26,0,0,0,198.086,6.3a5.152,5.152,0,1,0,0,10.3,5.617,5.617,0,0,0,3.036-.867A5.778,5.778,0,0,1,200.309,14.161Z" transform="translate(-159.784 -6.164)" fill="#fff"/>
  </g>
</svg>
