<svg id="marcom-light-gray" xmlns="http://www.w3.org/2000/svg" width="40" height="40" viewBox="0 0 40 40">
  <path id="Path_14" data-name="Path 14" d="M43.617,22.32a3.343,3.343,0,0,0-4.759,0L22.32,38.936a3.365,3.365,0,1,0,4.759,4.759L43.695,27.078A3.416,3.416,0,0,0,43.617,22.32Z" transform="translate(-4.689 -4.689)" fill="#d8d8d8"/>
  <path id="Path_15" data-name="Path 15" d="M38.933,1.02a3.343,3.343,0,0,0-4.759,0L1.02,34.252a3.365,3.365,0,0,0,4.759,4.759L38.933,5.7A3.25,3.25,0,0,0,38.933,1.02Z" transform="translate(-0.005 -0.005)" fill="#d8d8d8"/>
  <path id="Path_16" data-name="Path 16" d="M22.317,1.02a3.343,3.343,0,0,0-4.759,0L1.02,17.636a3.365,3.365,0,0,0,4.759,4.759L22.317,5.7A3.25,3.25,0,0,0,22.317,1.02Z" transform="translate(-0.005 -0.005)" fill="#d8d8d8"/>
  <path id="Path_17" data-name="Path 17" d="M43.62,43.636a3.365,3.365,0,1,0,4.759,0A3.49,3.49,0,0,0,43.62,43.636Z" transform="translate(-9.373 -9.389)" fill="#d8d8d8"/>
  <circle id="Ellipse_10" data-name="Ellipse 10" cx="3.354" cy="3.354" r="3.354" fill="#d8d8d8"/>
</svg>
