<svg xmlns="http://www.w3.org/2000/svg" width="60" height="60" viewBox="0 0 60 60">
  <g id="Group_1029" data-name="Group 1029" opacity="0.1">
    <path id="Path_14" data-name="Path 14" d="M54.762,22.817a5.015,5.015,0,0,0-7.138,0L22.817,47.741a5.047,5.047,0,0,0,7.138,7.138L54.879,29.955A5.124,5.124,0,0,0,54.762,22.817Z" transform="translate(3.629 3.629)" fill="#fff"/>
    <path id="Path_15" data-name="Path 15" d="M58.387,1.517a5.015,5.015,0,0,0-7.138,0L1.517,51.366A5.047,5.047,0,0,0,8.655,58.5L58.387,8.538A4.876,4.876,0,0,0,58.387,1.517Z" transform="translate(0.004 0.004)" fill="#fff"/>
    <path id="Path_16" data-name="Path 16" d="M33.462,1.517a5.015,5.015,0,0,0-7.138,0L1.517,26.441a5.047,5.047,0,0,0,7.138,7.138L33.462,8.538A4.876,4.876,0,0,0,33.462,1.517Z" transform="translate(0.004 0.004)" fill="#fff"/>
    <path id="Path_17" data-name="Path 17" d="M44.117,44.1a5.047,5.047,0,1,0,7.138,0A5.236,5.236,0,0,0,44.117,44.1Z" transform="translate(7.253 7.266)" fill="#fff"/>
    <circle id="Ellipse_10" data-name="Ellipse 10" cx="5.032" cy="5.032" r="5.032" fill="#fff"/>
  </g>
</svg>
