<?xml version="1.0" encoding="utf-8"?>
<!-- Generator: Adobe Illustrator 24.1.1, SVG Export Plug-In . SVG Version: 6.00 Build 0)  -->
<svg version="1.1" id="Capa_1" xmlns="http://www.w3.org/2000/svg" xmlns:xlink="http://www.w3.org/1999/xlink" x="0px" y="0px"
	 viewBox="0 0 512 512" style="enable-background:new 0 0 512 512;" xml:space="preserve">
<style type="text/css">
	.st0{fill:#F15E5E;}
</style>
<g>
	<g>
		<path class="st0" d="M437.1,74.9c-99.8-99.8-262.3-99.8-362.1,0C26.6,123.3,0,187.6,0,256s26.6,132.7,75,181
			c49.9,49.9,115.5,74.9,181.1,74.9s131.1-25,181.1-74.9C537,337.2,537,174.8,437.1,74.9z M409.1,409c-84.4,84.4-221.7,84.4-306,0
			c-40.9-40.9-63.4-95.2-63.4-153S62.2,143.9,103,103c84.4-84.4,221.7-84.4,306,0C493.4,187.4,493.4,324.7,409.1,409z"/>
	</g>
</g>
<g>
	<g>
		<path class="st0" d="M341.5,310.8l-56.2-56.1l56.2-56.1c7.7-7.7,7.7-20.3,0-28c-7.8-7.8-20.3-7.8-28.1,0l-56.2,56.1l-56.2-56.1
			c-7.8-7.7-20.3-7.8-28.1,0c-7.7,7.8-7.7,20.3,0,28l56.2,56.1l-56.2,56.1c-7.8,7.7-7.8,20.3,0,28c3.9,3.9,9,5.8,14,5.8
			s10.2-1.9,14-5.8l56.2-56.1l56.2,56.1c3.9,3.9,8.9,5.8,14,5.8s10.2-1.9,14-5.8C349.3,331.1,349.3,318.6,341.5,310.8z"/>
	</g>
</g>
</svg>
