<?xml version="1.0" encoding="utf-8"?>
<!-- Generator: Adobe Illustrator 24.1.1, SVG Export Plug-In . SVG Version: 6.00 Build 0)  -->
<svg version="1.1" id="Capa_1" xmlns="http://www.w3.org/2000/svg" xmlns:xlink="http://www.w3.org/1999/xlink" x="0px" y="0px"
	 viewBox="0 0 512 512" style="enable-background:new 0 0 512 512;" xml:space="preserve">
<style type="text/css">
	.st0{fill:#1A1D25;}
	.st1{fill:#ED703D;}
</style>
<g>
	<g>
		<path class="st0" d="M273.3,355.5c8-5.6,12.7-14.8,12.7-24.5c0-16.5-13.5-30-30-30s-30,13.5-30,30c0,9.7,4.8,18.9,12.7,24.5
			c5.2,3.7,7.5,10.2,5.8,16.3L230.8,421h50.4l-13.8-49.2C265.7,365.7,268.1,359.2,273.3,355.5z"/>
	</g>
</g>
<g>
	<g>
		<path class="st1" d="M406,211H106c-24.8,0-45,20.2-45,45v210c0,24.8,20.2,46,45,46h300c24.8,0,45-21.2,45-46V256
			C451,231.2,430.8,211,406,211z M315.4,432c1.3,4.5,0.4,9.4-2.5,13.1s-7.3,5.9-12,5.9h-90c-4.7,0-9.1-2.2-12-5.9
			c-2.8-3.7-3.8-8.6-2.5-13.1l16.5-59C202.2,361.8,196,346.8,196,331c0-33.1,26.9-60,60-60s60,26.9,60,60c0,15.8-6.2,30.8-17.1,41.9
			L315.4,432z"/>
	</g>
</g>
<g>
	<g>
		<path class="st0" d="M256,0c-74.6,0-135,60.4-135,135v46h60v-46c0-41.4,33.6-75,75-75s75,33.6,75,75v46h60v-46
			C391,60.4,330.6,0,256,0z"/>
	</g>
</g>
</svg>
