<svg xmlns="http://www.w3.org/2000/svg" width="14.676" height="19.568" viewBox="0 0 14.676 19.568">
  <path id="pdf-icon-red" d="M6.952,9.788A3.687,3.687,0,0,1,6.876,8C7.2,8,7.166,9.406,6.952,9.788Zm-.065,1.8a17.635,17.635,0,0,1-1.085,2.4,14.073,14.073,0,0,1,2.4-.837A4.951,4.951,0,0,1,6.887,11.592Zm-3.6,4.77c0,.031.5-.206,1.334-1.536A5.282,5.282,0,0,0,3.291,16.361ZM9.478,6.115h5.2V18.651a.915.915,0,0,1-.917.917H.917A.915.915,0,0,1,0,18.651V.917A.915.915,0,0,1,.917,0H8.561V5.2A.92.92,0,0,0,9.478,6.115Zm-.306,6.566a3.836,3.836,0,0,1-1.632-2.056,5.493,5.493,0,0,0,.237-2.454.957.957,0,0,0-1.827-.26,6.355,6.355,0,0,0,.31,2.943A35.888,35.888,0,0,1,4.7,14.133s0,0-.008,0c-1.036.531-2.813,1.7-2.083,2.6a1.188,1.188,0,0,0,.822.382c.684,0,1.364-.688,2.335-2.362a21.785,21.785,0,0,1,3.019-.887,5.792,5.792,0,0,0,2.446.745.989.989,0,0,0,.753-1.659c-.531-.52-2.075-.371-2.813-.275Zm5.236-8.668L10.663.268A.917.917,0,0,0,10.013,0H9.784V4.892h4.892V4.659A.914.914,0,0,0,14.408,4.013ZM11.576,13.77c.157-.1-.1-.455-1.636-.344C11.359,14.03,11.576,13.77,11.576,13.77Z" fill="#f55656"/>
</svg>
