<svg xmlns="http://www.w3.org/2000/svg" width="15.824" height="15.802" viewBox="0 0 15.824 15.802">
  <g id="pin" transform="translate(-77.451 -95.943)">
    <path id="Path_2705" data-name="Path 2705" d="M85.607,106.429l-3.394-3.394a.627.627,0,0,1,.37-1.068,8.332,8.332,0,0,1,3.806.563.315.315,0,0,0,.333-.047L91.7,98.248a.316.316,0,0,0,.111-.24.28.28,0,0,0,0-.048,3.284,3.284,0,0,1-.015-.67.628.628,0,0,1,1.07-.4l2.752,2.752a.627.627,0,0,1-.38,1.069,2.844,2.844,0,0,1-.711-.025.323.323,0,0,0-.3.1L90,105.759a.317.317,0,0,0-.04.348,7.247,7.247,0,0,1,.576,3.817.629.629,0,0,1-1.068.363Z" transform="translate(-3.287)" fill="rgba(0,0,0,0)" stroke="#ed703d" stroke-linecap="round" stroke-width="1.5"/>
    <path id="Path_2706" data-name="Path 2706" d="M5.446,0,1.414,4.032" transform="translate(77.097 106.652)" fill="none" stroke="#ed703d" stroke-linecap="round" stroke-width="1.5"/>
  </g>
</svg>
