<?xml version="1.0" encoding="utf-8"?>
<!-- Generator: Adobe Illustrator 24.1.1, SVG Export Plug-In . SVG Version: 6.00 Build 0)  -->
<svg version="1.1" id="Layer_1" xmlns="http://www.w3.org/2000/svg" xmlns:xlink="http://www.w3.org/1999/xlink" x="0px" y="0px"
	 width="100px" height="100px" viewBox="0 0 100 100" style="enable-background:new 0 0 100 100;" xml:space="preserve">
<style type="text/css">
	.st0{fill:#C3A681;}
</style>
<rect x="-0.1" y="-0.1" width="100.1" height="100.1"/>
<g>
	<path class="st0" d="M56.2,86.3c-1.1-2.2-1.6-4.6-1.6-7V38.6c0-9.6,3.7-18.6,10.5-25.4l0.7-0.7h27.9L81.8,24.4
		c-5.9,5.9-9.2,13.8-9.2,22.3v19c0,2.4-0.5,4.8-1.6,7l-0.5,1.1l-0.5-1.1c-1.1-2.2-1.6-4.6-1.6-7v-19c0-9.6,3.7-18.6,10.5-25.4
		l4.4-4.4H67.7c-5.6,5.9-8.6,13.5-8.6,21.6v40.8c0,2.4-0.5,4.8-1.6,7L57,87.4L56.2,86.3z"/>
	<path class="st0" d="M42.7,86.3c-1.1-2.2-1.6-4.6-1.6-7V38.6c0-8.1-3-15.7-8.6-21.6H17.1l4.4,4.4c6.8,6.8,10.5,15.8,10.5,25.4v19
		c0,2.4-0.5,4.8-1.6,7l-0.5,1.1l-0.5-1.1c-1.1-2.2-1.6-4.6-1.6-7V46.7c0-8.4-3.3-16.3-9.2-22.3L6.3,12.5h27.9l0.7,0.7
		c6.8,6.8,10.5,15.8,10.5,25.4v40.8c0,2.4-0.5,4.8-1.6,7l-0.5,1.1L42.7,86.3z"/>
</g>
</svg>
