<svg xmlns="http://www.w3.org/2000/svg" width="60" height="51.485" viewBox="0 0 60 51.485">
  <g id="rivulet-icon" transform="translate(-1151.19 -497.26)">
    <path id="Path_2717" data-name="Path 2717" d="M1236.594,547.968a10.852,10.852,0,0,1-1.14-4.829V515.146a24.5,24.5,0,0,1,7.223-17.438l.447-.448h19.2l-8.194,8.193a21.464,21.464,0,0,0-6.327,15.276v13.1a10.852,10.852,0,0,1-1.14,4.829l-.389.778-.389-.778a10.849,10.849,0,0,1-1.14-4.829v-13.1a24.5,24.5,0,0,1,7.223-17.438l2.973-2.974H1244.4a21.486,21.486,0,0,0-5.892,14.828v27.993a10.855,10.855,0,0,1-1.14,4.829l-.389.777Z" transform="translate(-51.136)" fill="#c3a781"/>
    <path id="Path_2718" data-name="Path 2718" d="M1176.144,547.968a10.855,10.855,0,0,1-1.14-4.829V515.146a21.488,21.488,0,0,0-5.892-14.828h-10.541l2.973,2.973a24.5,24.5,0,0,1,7.223,17.439v13.1a10.852,10.852,0,0,1-1.14,4.829l-.389.778-.389-.778a10.851,10.851,0,0,1-1.14-4.829v-13.1a21.463,21.463,0,0,0-6.328-15.277l-8.193-8.193h19.2l.448.448a24.5,24.5,0,0,1,7.223,17.438v27.993a10.855,10.855,0,0,1-1.14,4.829l-.389.777Z" fill="#c3a781"/>
  </g>
</svg>
