<svg id="Icon_feather-search" data-name="Icon feather-search" xmlns="http://www.w3.org/2000/svg" width="20.53" height="20.53" viewBox="0 0 20.53 20.53">
  <g id="Path_6" data-name="Path 6" transform="translate(-4.5 -4.5)" fill="none">
    <path d="M22.278,13.389A8.889,8.889,0,1,1,13.389,4.5a8.889,8.889,0,0,1,8.889,8.889Z" stroke="none"/>
    <path d="M 13.38889026641846 6 C 9.314640045166016 6 6 9.314640045166016 6 13.38888931274414 C 6 17.46313858032227 9.314640045166016 20.77777862548828 13.38889026641846 20.77777862548828 C 17.4631404876709 20.77777862548828 20.77778053283691 17.46313858032227 20.77778053283691 13.38888931274414 C 20.77778053283691 9.314640045166016 17.4631404876709 6 13.38889026641846 6 M 13.38889026641846 4.5 C 18.2980899810791 4.5 22.27778053283691 8.47968864440918 22.27778053283691 13.38888931274414 C 22.27778053283691 18.29808807373047 18.2980899810791 22.27777862548828 13.38889026641846 22.27777862548828 C 8.479690551757813 22.27777862548828 4.5 18.29808807373047 4.5 13.38888931274414 C 4.5 8.47968864440918 8.479690551757813 4.5 13.38889026641846 4.5 Z" stroke="none" fill="#777"/>
  </g>
  <path id="Path_7" data-name="Path 7" d="M29.808,29.808l-4.833-4.833" transform="translate(-9.808 -9.808)" fill="none" stroke="#777" stroke-width="1.5"/>
</svg>
