<svg xmlns="http://www.w3.org/2000/svg" width="16.305" height="16.305" viewBox="0 0 16.305 16.305">
  <g id="settings" transform="translate(-0.75 -0.75)">
    <path id="Path_2734" data-name="Path 2734" d="M17.538,15.519A2.019,2.019,0,1,1,15.519,13.5,2.019,2.019,0,0,1,17.538,15.519Z" transform="translate(-6.616 -6.616)" fill="none" stroke="#4d4f5c" stroke-linecap="round" stroke-linejoin="round" stroke-width="1.5"/>
    <path id="Path_2735" data-name="Path 2735" d="M13.882,10.921a1.11,1.11,0,0,0,.222,1.225l.04.04a1.347,1.347,0,1,1-1.9,1.9l-.04-.04a1.119,1.119,0,0,0-1.9.794v.114a1.346,1.346,0,0,1-2.692,0V14.9a1.11,1.11,0,0,0-.727-1.016,1.11,1.11,0,0,0-1.225.222l-.04.04a1.347,1.347,0,1,1-1.9-1.9l.04-.04a1.119,1.119,0,0,0-.794-1.9H2.846a1.346,1.346,0,1,1,0-2.692h.061a1.11,1.11,0,0,0,1.016-.727A1.11,1.11,0,0,0,3.7,5.659l-.04-.04a1.347,1.347,0,1,1,1.9-1.9l.04.04a1.11,1.11,0,0,0,1.225.222h.054A1.11,1.11,0,0,0,7.556,2.96V2.846a1.346,1.346,0,1,1,2.692,0v.061a1.119,1.119,0,0,0,1.9.794l.04-.04a1.347,1.347,0,1,1,1.9,1.9l-.04.04a1.11,1.11,0,0,0-.222,1.225v.054a1.11,1.11,0,0,0,1.016.673h.114a1.346,1.346,0,1,1,0,2.692H14.9a1.11,1.11,0,0,0-1.016.673Z" fill="none" stroke="#4d4f5c" stroke-linecap="round" stroke-linejoin="round" stroke-width="1.5"/>
  </g>
</svg>
