<svg xmlns="http://www.w3.org/2000/svg" width="884.774" height="612.976" viewBox="0 0 884.774 612.976">
  <g id="Customize" transform="translate(-96.779 64.091)">
    <g id="Customize-2" data-name="Customize" transform="translate(96.779 -64.091)">
      <g id="Group_51" data-name="Group 51">
        <g id="Background" transform="translate(36.385 157.416)">
          <g id="Element" transform="translate(676.585 208.507)">
            <path id="Shape" d="M1110.413,474.417c0,.058,0,.11,0,.165.183,6.289-4.2,11.405-4.2,11.405s-4.09,5.353-10.281,6.485l-.162.029c-7.339,1.246-37.459-14.224-39.9-20a.027.027,0,0,1-.007-.012c-4.09-9.779,5.433-21.6,6.055-22.372s10.206-12.543,20.622-10.577a.026.026,0,0,1,.014,0C1088.706,440.739,1110.106,466.978,1110.413,474.417Z" transform="translate(-1048.978 -427.536)" fill="#fff"/>
            <path id="Path_702" data-name="Path 702" d="M1079.766,437.408a22.969,22.969,0,0,1,2.531.24c1.116.223,6.137,3.57,10.226,7.841,6.868,7.174,13.457,15.043,17.5,23.857,4.6,10.038-5.629,25.179-16.735,24.13-7.081-.669-13.806-4.182-20.432-7.54-6.291-3.187-12.957-6.445-17.477-11.429-3.451-3.806-2.829-10.624-.775-15.926a36.818,36.818,0,0,1,14.559-17.743A20.142,20.142,0,0,1,1079.766,437.408Zm-.232,2.874c-8.349.136-15.554,7.594-19.292,13.537-3.358,5.341-5.967,11.807-3.545,17.616,1.212,2.9,5.115,4.842,8.657,7.033,8.563,5.3,17.706,10.531,27.405,12.047,8.7,1.36,17.969-10.426,15.371-18.186-3.715-11.1-13.072-20.829-20.922-28.043C1085.054,442.3,1082.858,440.257,1079.535,440.282Z" transform="translate(-1048.5 -427.058)" fill="#dfd7e4"/>
            <path id="Path_703" data-name="Path 703" d="M1094.468,503.924a17.846,17.846,0,0,1-1.542,8.214,8.581,8.581,0,0,1-4.788,4.394,8.71,8.71,0,0,1-3.177.547l-30.017-.457a5.549,5.549,0,0,1-5.411-4.8c-.918-6.723-1.483-19.183,4.87-27.863,2.447,5.773,32.565,21.242,39.9,20C1094.362,503.944,1094.413,503.936,1094.468,503.924Z" transform="translate(-1047.513 -438.681)" fill="#fff"/>
            <path id="Path_704" data-name="Path 704" d="M1054.146,481.653c.866.191.872.536,1.25,1.152,2.5,3.931,7.473,6.23,12.138,8.863,7.17,4.048,14.656,7.894,22.442,9.64a19.6,19.6,0,0,0,3.877.3c1.662-.059,1.668,2.477,1.451,4.5-.615,5.741-4.339,11.507-10.731,11.525-10.1-.09-20.21-.123-30.308-.463a7.443,7.443,0,0,1-6.729-6.7c-1.162-9.451-.614-19.518,4.609-27.367C1052.693,482.274,1053.134,481.545,1054.146,481.653Zm-.234,4.033c-4.31,7.384-4.63,16.785-3.432,25.127a4.232,4.232,0,0,0,3.949,3.486c10.079.223,20.159.487,30.24.459,4.544-.066,7.592-4.886,7.862-10.05,0,0,.587-.069-.715-.185-11.531-1.147-22.82-8.013-32.159-14.314a32.345,32.345,0,0,1-5.663-4.56S1054.005,485.53,1053.912,485.685Z" transform="translate(-1047.026 -438.103)" fill="#dfd7e4"/>
            <path id="Path_705" data-name="Path 705" d="M1111.063,426.46a60.565,60.565,0,0,1,6.948-.918,5.546,5.546,0,0,1,4.98,2.381,5.488,5.488,0,0,1,.842,1.912l6.693,29.265a8.71,8.71,0,0,1,.125,3.221,8.578,8.578,0,0,1-3.3,5.6,17.837,17.837,0,0,1-7.713,3.217c0-.055,0-.108-.005-.165-.306-7.438-21.707-33.678-27.862-34.87a28.628,28.628,0,0,1,11.121-7.331" transform="translate(-1058.199 -424.091)" fill="#fff"/>
            <path id="Path_706" data-name="Path 706" d="M1118.013,423.613a7.2,7.2,0,0,1,6.72,5.343q3.453,14.714,6.739,29.466c1.343,6.424-4.589,12.213-11.888,13.619a1.9,1.9,0,0,1-1.9-1.808c-.935-6.421-6.186-12.074-10.822-17.9-4.522-5.688-8.983-12.213-15.212-15.071-1.343-.617-1.568-.577-1.75-1.264-.314-1.176.765-1.887,1.9-2.946a31.382,31.382,0,0,1,9.884-6.018c1.15-.454,3.657,1.6.5,2.9a28.806,28.806,0,0,0-8.285,5.092s-.813-.376.708.648c9.752,6.672,17.335,17.089,23.118,27.315a25.026,25.026,0,0,1,2.6,5.884s9.79-2.833,8.324-9.839c-2.179-9.848-4.208-19.735-6.748-29.5-.977-3.581-6.309-3.045-11.064-2.138a1.853,1.853,0,0,1-1.512-.691C1108.016,424.42,1114.079,423.61,1118.013,423.613Z" transform="translate(-1057.719 -423.613)" fill="#dfd7e4"/>
            <path id="Path_707" data-name="Path 707" d="M1089.44,526.869c.3,10.833-.53,17.872-1.6,22.405a8.241,8.241,0,0,1-10.873,5.854c-21.142-7.717-22.78-28.587-22.78-28.587l.01-.008a5.491,5.491,0,0,0,2.046.426l30.017.457A8.711,8.711,0,0,0,1089.44,526.869Z" transform="translate(-1048.815 -449.312)" fill="#fff"/>
            <path id="Path_708" data-name="Path 708" d="M1053.865,524.6a2.015,2.015,0,0,1,.684.207,4.219,4.219,0,0,0,1.194.212c10.079.221,20.159.486,30.24.459a11.251,11.251,0,0,0,2.618-.5c1.306-.277,1.805,1.319,1.836,2.862.128,7.585.66,15.456-2.064,22.541-1.942,5.048-8.166,7.315-13.632,5.112-11.89-4.793-21.169-16.234-22.451-29.259l.527-1.316A1.2,1.2,0,0,1,1053.865,524.6Zm1.581,3.3a33.915,33.915,0,0,0,21.066,25.2c4.094,1.555,8.715-.886,9.74-5.956a88.5,88.5,0,0,0,1.319-18.769s1.237-.033-1.685-.025c-10.1-.086-20.21-.125-30.308-.463C1055.481,527.889,1055.441,527.884,1055.446,527.907Z" transform="translate(-1048.341 -448.828)" fill="#dfd7e4"/>
            <path id="Path_709" data-name="Path 709" d="M1166.09,444.992a8.244,8.244,0,0,1-3.464,11.855c-4.212,1.988-10.924,4.258-21.583,6.224a8.709,8.709,0,0,0-.125-3.221l-6.694-29.265a5.486,5.486,0,0,0-.841-1.912l.007-.014s20.754-2.739,32.7,16.334" transform="translate(-1068.59 -424.839)" fill="#fff"/>
            <path id="Path_710" data-name="Path 710" d="M1135.964,426.608a37.321,37.321,0,0,1,30.87,17.145,7.957,7.957,0,0,1,.684,1.3c2.089,4.8-.446,10.707-5.6,13.006-6.66,2.97-13.856,4.6-21.086,5.948a1.84,1.84,0,0,1-1.634-2.039,7.6,7.6,0,0,0-.136-2.192c-2.177-9.848-4.21-19.735-6.749-29.5-.426-1.565-1.141-1.7-.69-2.729a2.451,2.451,0,0,1,1.529-.84c.807-.071,1.618-.1,2.429-.1Zm-.377,2.873c-.251,0-.569-.225-.458.223q3.46,14.712,6.74,29.466a16.3,16.3,0,0,1,.218,1.671c6.507-1.27,13-2.811,19.063-5.591,4.114-1.887,5.266-7.074,2.425-11.231A34.344,34.344,0,0,0,1135.587,429.481Z" transform="translate(-1068.114 -424.361)" fill="#dfd7e4"/>
            <path id="Path_711" data-name="Path 711" d="M1079.925,451.344a8.6,8.6,0,0,1,5.9.425l.01,0a11.669,11.669,0,0,1,2.283.946" transform="translate(-1055.241 -430.456)" fill="#fff"/>
            <path id="Path_712" data-name="Path 712" d="M1082.05,449.1a9.511,9.511,0,0,1,3.812.837,10.494,10.494,0,0,1,2.459,1.029,1.684,1.684,0,0,1,.713.878c.329,1.159-.96,2.2-2.448,1.461a10.728,10.728,0,0,0-1.13-.479c-.121-.042-.242-.083-.363-.119-.416-.126,1.258-.041-1.922-.624a7.23,7.23,0,0,0-2.094-.064c-1.249.137-2.238.622-2.858-.425C1077.426,450.259,1079.429,449.086,1082.05,449.1Z" transform="translate(-1054.771 -429.978)" fill="#dfd7e4"/>
            <path id="Path_713" data-name="Path 713" d="M1205.986,538.21c-.052.024-.1.048-.149.07-5.69,2.686-12.135.713-12.135.713s-6.543-1.6-10.056-6.827c-.031-.044-.062-.089-.093-.137-4.079-6.225-1.954-40.019,2.357-44.571,0,0,0-.007.008-.011,7.324-7.661,21.972-3.666,22.925-3.4s15.58,4.335,17.947,14.666c0,.006,0,.009,0,.014C1228.162,504.84,1212.68,534.953,1205.986,538.21Z" transform="translate(-1080.572 -438.384)" fill="#fff"/>
            <path id="Path_714" data-name="Path 714" d="M1198.9,480.856a37.306,37.306,0,0,1,20.839,6.543c3.614,2.538,6.75,6.088,7.782,10.476a29.388,29.388,0,0,1-1.281,7.756,97.325,97.325,0,0,1-15.044,28.379c-1.895,2.447-4,4.726-7.043,5.749-9.216,3.092-21.518-1.079-23.814-10.977-2.883-12.422-1.634-26.576,1.683-38.138a11.705,11.705,0,0,1,2.186-4.656C1187.3,482.469,1193.222,480.825,1198.9,480.856Zm-.45,2.873c-4.28.037-8.7.934-11.767,3.846-2.219,2.105-2.456,5.627-3.047,9.159-1.739,10.386-2.854,21.242-.5,31.4,1.467,6.319,9.226,9.621,15.215,9.644,4.743.02,8.854-2.865,12.5-8.183,5.874-8.57,11.186-17.861,13.561-27.953,1.455-6.188-5.025-11.76-11.013-14.577A35.515,35.515,0,0,0,1198.453,483.729Z" transform="translate(-1079.913 -437.907)" fill="#dfd7e4"/>
            <path id="Path_715" data-name="Path 715" d="M1175.123,533.538a17.847,17.847,0,0,1-8.145,1.874,8.573,8.573,0,0,1-5.942-2.629,8.728,8.728,0,0,1-1.774-2.694L1147.669,502.4a5.472,5.472,0,0,1-.428-2.045,5.542,5.542,0,0,1,2.664-4.834c5.793-3.532,16.986-9.037,27.482-6.69-4.31,4.551-6.434,38.345-2.356,44.571C1175.062,533.449,1175.092,533.493,1175.123,533.538Z" transform="translate(-1072.05 -439.757)" fill="#fff"/>
            <path id="Path_716" data-name="Path 716" d="M1172,486.351c3.208.057,7.873.236,5.766,3.25-2.6,3.867-2.718,9.342-3.264,14.671-.836,8.16-1.38,16.534.147,24.423a19.486,19.486,0,0,0,1.281,3.681c.693,1.471-1.531,2.474-3.4,3.076a18.783,18.783,0,0,1-4.5.885,10.605,10.605,0,0,1-10.507-6.059c-3.975-9.289-7.97-18.574-11.705-27.962-1.426-3.709.938-7.479,5.011-9.749,6.359-3.544,13.388-6.143,20.644-6.218C1171.739,486.349,1171.738,486.349,1172,486.351Zm-.5,2.873c-7.6.077-14.98,3.131-21.362,7.082a4.22,4.22,0,0,0-1.615,5.013q5.737,13.943,11.645,27.815c1.825,4.132,7.336,5.126,12.261,3.315,0,0,.365.191.145-.4-1.744-4.879-1.655-10.294-1.612-15.664.074-9.124.084-18.685,3.641-26.927,0,0-1.583-.212-2.636-.23C1171.727,489.223,1171.729,489.223,1171.494,489.223Z" transform="translate(-1071.592 -439.278)" fill="#dfd7e4"/>
            <path id="Path_717" data-name="Path 717" d="M1251.49,517.852a60.321,60.321,0,0,1,3.621,6,5.544,5.544,0,0,1-.188,5.516,5.476,5.476,0,0,1-1.417,1.537l-24.141,17.846a8.708,8.708,0,0,1-2.9,1.4,8.581,8.581,0,0,1-6.45-.786,17.841,17.841,0,0,1-6.035-5.782c.05-.022.1-.046.149-.07,6.694-3.259,22.177-33.37,20.806-39.488a28.625,28.625,0,0,1,11.169,7.255" transform="translate(-1088.715 -443.693)" fill="#fff"/>
            <path id="Path_718" data-name="Path 718" d="M1234.667,502.125a11.33,11.33,0,0,1,3.642,1.443,32.342,32.342,0,0,1,8.1,5.928s1.163,1.262.407,2.21c-1.744,2.185-4.979-3.414-10.692-5.994,0,0,.019-.894-.31.908-2.21,11.607-8.722,22.725-15.78,32.117a24.98,24.98,0,0,1-4.349,4.743s6.515,7.835,12.348,3.691c8.152-5.939,16.394-11.765,24.331-17.989,2.741-2.207.5-6.575-2.2-10.593a1.9,1.9,0,0,1-.521-1.317c.1-1.358,1.775-1.987,3.181.125,1.576,2.389,3.554,4.4,3.917,7.839a7.126,7.126,0,0,1-2.726,6.3q-12.11,9.044-24.307,17.968c-5.359,3.808-13.063.627-17.237-5.445a1.945,1.945,0,0,1,.9-2.463c5.5-3.421,8.588-10.5,12.076-17.082,3.407-6.429,7.6-13.119,7.723-19.971a10.84,10.84,0,0,1-.045-1.321A1.479,1.479,0,0,1,1234.667,502.125Z" transform="translate(-1088.302 -443.217)" fill="#dfd7e4"/>
            <path id="Path_719" data-name="Path 719" d="M1155.323,536.8c-9.809,4.607-16.591,6.667-21.172,7.5a8.242,8.242,0,0,1-9.717-7.622c-1.389-22.464,17.082-32.316,17.082-32.316l.011.006a5.474,5.474,0,0,0,.428,2.044l11.594,27.692A8.728,8.728,0,0,0,1155.323,536.8Z" transform="translate(-1066.337 -443.778)" fill="#fff"/>
            <path id="Path_720" data-name="Path 720" d="M1141.15,502.46c.647.081.57.139.782.3.62.48.5,1.693.854,2.578q5.741,13.942,11.646,27.815a11.309,11.309,0,0,0,1.552,2.293c1.488,2.15-3.731,3.722-7.788,5.367-5.067,2.054-10.261,4.415-15.725,4.583-5.174.161-9.734-4.249-9.989-9.914-.5-13.054,6.068-26.252,17.81-32.82A1.365,1.365,0,0,1,1141.15,502.46Zm-1.124,3.765a34.383,34.383,0,0,0-14.648,29.642c.239,4.347,4.533,7.325,9.343,6.29a88.447,88.447,0,0,0,17.727-6.3s.527,1.119-.651-1.552c-3.978-9.288-7.971-18.574-11.705-27.962C1140.056,506.249,1140.045,506.211,1140.026,506.225Z" transform="translate(-1065.861 -443.301)" fill="#dfd7e4"/>
            <path id="Path_721" data-name="Path 721" d="M1257.211,574.308a8.244,8.244,0,0,1-12.25,1.57c-3.507-3.065-8.273-8.307-14.342-17.288a8.7,8.7,0,0,0,2.9-1.4l24.142-17.846a5.5,5.5,0,0,0,1.416-1.537l.015,0s10.817,17.922-1.882,36.5" transform="translate(-1092.87 -452.126)" fill="#fff"/>
            <path id="Path_722" data-name="Path 722" d="M1258.837,535.9a10.662,10.662,0,0,1,2.27,3.072,37.224,37.224,0,0,1-2.976,35.444,10.015,10.015,0,0,1-14.879,1.762c-5.534-4.944-10.024-11.039-14.241-17.26a1.918,1.918,0,0,1,1.452-2.4,7.614,7.614,0,0,0,1.717-.918c8.154-5.936,16.4-11.753,24.33-17.988a6.272,6.272,0,0,0,1.016-1.173C1258.006,535.883,1258.054,535.839,1258.837,535.9Zm-.538,3.962-.134.1q-12.107,9.045-24.307,17.968a16.421,16.421,0,0,1-1.444.868c3.917,5.67,7.979,11.429,13.295,15.7a6.779,6.779,0,0,0,.611.439c3.057,1.954,7.422.867,9.57-2.342a34.31,34.31,0,0,0,2.461-32.751S1258.383,539.79,1258.3,539.859Z" transform="translate(-1092.45 -451.646)" fill="#dfd7e4"/>
            <path id="Path_723" data-name="Path 723" d="M1226.324,497.907a8.613,8.613,0,0,1,1.974,5.581s0,.006,0,.01a11.7,11.7,0,0,1,.047,2.471" transform="translate(-1091.797 -442.164)" fill="#fff"/>
            <path id="Path_724" data-name="Path 724" d="M1225.943,496c1.152.1,1.845,1.54,2.429,2.811a9.488,9.488,0,0,1,.888,4.124s.069-.577-.01.255c.177-1.506.951,3.861-1.452,3.74-1.847-.092-1.348-3.415-1.427-4.6-.171-2.158-2.157-3.968-1.936-5.162A1.372,1.372,0,0,1,1225.943,496Z" transform="translate(-1091.321 -441.686)" fill="#dfd7e4"/>
          </g>
          <g id="Group_45" data-name="Group 45">
            <path id="Path_725" data-name="Path 725" d="M194.465,286.211a6.163,6.163,0,0,1,1.943.419c11.835,5,23.541,10.3,35.311,15.451l96.094,42.05a5.892,5.892,0,0,1,2.992,7.384c-14.032,33.219-28.911,66.073-43.368,99.108a5.9,5.9,0,0,1-7.511,2.939L200.483,418.8c-1.31-.759-.745-3.22,1.152-2.632,26.5,11.6,52.853,23.54,79.5,34.789a2.944,2.944,0,0,0,3.642-1.424q22.319-49.266,43.365-99.1a2.939,2.939,0,0,0-1.424-3.642c-31.874-14.432-64.116-28.057-96.152-42.076-11.749-5.141-23.432-10.432-35.245-15.422a2.939,2.939,0,0,0-3.641,1.425q-22.313,49.27-43.366,99.1a2.944,2.944,0,0,0,1.5,3.675L184.5,408.67c1.311.759.746,3.22-1.151,2.632l-34.7-15.187a5.893,5.893,0,0,1-2.992-7.384c14.034-33.217,28.911-66.073,43.368-99.108A5.571,5.571,0,0,1,194.465,286.211Z" transform="translate(-145.273 -180.796)" fill="#dfd7e4"/>
            <path id="Path_726" data-name="Path 726" d="M341.914,145.715a11.825,11.825,0,0,1,10.506,7.081l9.6,22.822c.485,1.371-1.689,3.071-2.649,1.115-3.214-7.642-6.381-15.3-9.644-22.922a8.955,8.955,0,0,0-11.35-4.539l-26.794,11.272c-1.423.5-2.988-1.729-1.115-2.649,8.979-3.777,17.934-7.612,26.936-11.33A11.9,11.9,0,0,1,341.914,145.715Z" transform="translate(-186.308 -145.714)" fill="#dfd7e4"/>
            <path id="Path_727" data-name="Path 727" d="M296.287,166.7a1.471,1.471,0,0,1,.53,2.728c-3.214,1.451-6.5,2.736-9.75,4.1-1.375.537-2.795-1.788-1.182-2.619,3.214-1.45,6.5-2.736,9.75-4.1A1.15,1.15,0,0,1,296.287,166.7Z" transform="translate(-180.205 -150.953)" fill="#dfd7e4"/>
          </g>
        </g>
        <g id="Group_46" data-name="Group 46" transform="translate(232.831)">
          <path id="Path_728" data-name="Path 728" d="M787.468,476.934H469.732a18.953,18.953,0,0,1-18.953-18.953V283.417A14.317,14.317,0,0,1,465.1,269.1H792.1a14.316,14.316,0,0,1,14.316,14.316V457.981A18.953,18.953,0,0,1,787.468,476.934Z" transform="translate(-418.004 -19.108)" fill="#d6d5eb"/>
          <path id="Path_729" data-name="Path 729" d="M791.458,266.314a17.1,17.1,0,0,1,16.494,16.494c.368,58.312.556,116.628,0,174.937-.172,10.96-9.589,20.89-21.07,21.071q-159.091,1.521-318.2,0c-11-.173-20.964-9.62-21.072-21.207-.194-58.2,0-116.4,0-174.593a17.2,17.2,0,0,1,16.5-16.7Q627.78,265.281,791.458,266.314ZM464.331,271.1A12.252,12.252,0,0,0,452.4,282.868c-.368,58.272-.542,116.548,0,174.817a17,17,0,0,0,16.45,16.343c105.989.3,211.984,1.011,317.968,0a16.993,16.993,0,0,0,16.344-16.45c.194-58.236.367-116.474,0-174.71A12.207,12.207,0,0,0,791.4,271.1C682.378,270.414,573.353,271.1,464.331,271.1Z" transform="translate(-417.192 -18.283)" fill="#41146c"/>
          <path id="Path_730" data-name="Path 730" d="M515.288,297.6v15.356a4.151,4.151,0,0,1-4.151,4.151H496.929a4.15,4.15,0,0,1-4.15-4.151V297.251a4.15,4.15,0,0,1,4.15-4.15h14.238a4.138,4.138,0,0,1,4.121,4.155" transform="translate(-428.491 -25.101)" fill="#fff"/>
          <path id="Path_731" data-name="Path 731" d="M551.288,297.6v15.356a4.151,4.151,0,0,1-4.151,4.151H532.929a4.15,4.15,0,0,1-4.15-4.151V297.251a4.15,4.15,0,0,1,4.15-4.15h14.2a4.155,4.155,0,0,1,4.154,4.155" transform="translate(-437.481 -25.101)" fill="#fff"/>
          <path id="Path_732" data-name="Path 732" d="M587.288,297.6v15.356a4.151,4.151,0,0,1-4.151,4.151H568.929a4.15,4.15,0,0,1-4.15-4.151V297.251a4.15,4.15,0,0,1,4.15-4.15h14.16a4.177,4.177,0,0,1,4.2,4.155" transform="translate(-446.47 -25.101)" fill="#fff"/>
          <path id="Path_733" data-name="Path 733" d="M623.288,297.6v15.356a4.151,4.151,0,0,1-4.151,4.151H604.929a4.15,4.15,0,0,1-4.15-4.151V297.251a4.15,4.15,0,0,1,4.15-4.15h14.2a4.155,4.155,0,0,1,4.154,4.155" transform="translate(-455.459 -25.101)" fill="#fff"/>
          <path id="Path_734" data-name="Path 734" d="M658.288,297.6v15.356a4.151,4.151,0,0,1-4.151,4.151H639.929a4.15,4.15,0,0,1-4.15-4.151V297.251a4.15,4.15,0,0,1,4.15-4.15h14.207a4.154,4.154,0,0,1,4.152,4.155" transform="translate(-464.199 -25.101)" fill="#fff"/>
          <path id="Path_735" data-name="Path 735" d="M694.288,297.6v15.356a4.151,4.151,0,0,1-4.151,4.151H675.929a4.15,4.15,0,0,1-4.15-4.151V297.251a4.15,4.15,0,0,1,4.15-4.15h14.2a4.155,4.155,0,0,1,4.154,4.155" transform="translate(-473.188 -25.101)" fill="#fff"/>
          <path id="Path_736" data-name="Path 736" d="M731.789,297.6v15.356a4.151,4.151,0,0,1-4.151,4.151H711.929a4.15,4.15,0,0,1-4.15-4.151V297.251a4.15,4.15,0,0,1,4.15-4.15h15.646a4.185,4.185,0,0,1,4.214,4.155" transform="translate(-482.177 -25.101)" fill="#fff"/>
          <path id="Path_737" data-name="Path 737" d="M767.288,297.6v15.356a4.151,4.151,0,0,1-4.151,4.151H748.929a4.15,4.15,0,0,1-4.15-4.151V297.251a4.15,4.15,0,0,1,4.15-4.15h14.207a4.153,4.153,0,0,1,4.152,4.155" transform="translate(-491.416 -25.101)" fill="#fff"/>
          <path id="Path_738" data-name="Path 738" d="M803.288,297.6v15.356a4.151,4.151,0,0,1-4.151,4.151H784.929a4.15,4.15,0,0,1-4.15-4.151V297.251a4.15,4.15,0,0,1,4.15-4.15h14.2a4.155,4.155,0,0,1,4.154,4.155" transform="translate(-500.405 -25.101)" fill="#fff"/>
          <path id="Path_739" data-name="Path 739" d="M839.288,297.6v15.356a4.151,4.151,0,0,1-4.151,4.151H820.929a4.15,4.15,0,0,1-4.15-4.151V297.251a4.15,4.15,0,0,1,4.15-4.15h14.207a4.153,4.153,0,0,1,4.152,4.155" transform="translate(-509.395 -25.101)" fill="#fff"/>
          <path id="Path_740" data-name="Path 740" d="M875.288,297.6v15.356a4.151,4.151,0,0,1-4.151,4.151H856.929a4.15,4.15,0,0,1-4.15-4.151V297.251a4.15,4.15,0,0,1,4.15-4.15h14.2a4.154,4.154,0,0,1,4.154,4.155" transform="translate(-518.384 -25.101)" fill="#fff"/>
          <path id="Path_741" data-name="Path 741" d="M515.288,338.6v15.345a4.163,4.163,0,0,1-4.163,4.163H496.942a4.164,4.164,0,0,1-4.163-4.164V338.264a4.163,4.163,0,0,1,4.163-4.163h14.211a4.151,4.151,0,0,1,4.134,4.169" transform="translate(-428.491 -35.338)" fill="#fff"/>
          <path id="Path_742" data-name="Path 742" d="M551.288,338.6v15.345a4.163,4.163,0,0,1-4.163,4.163H532.942a4.163,4.163,0,0,1-4.163-4.163V338.264a4.163,4.163,0,0,1,4.163-4.163H547.12a4.168,4.168,0,0,1,4.168,4.169" transform="translate(-437.481 -35.338)" fill="#fff"/>
          <path id="Path_743" data-name="Path 743" d="M587.288,338.6v15.345a4.163,4.163,0,0,1-4.163,4.163H568.942a4.163,4.163,0,0,1-4.163-4.163V338.264a4.163,4.163,0,0,1,4.163-4.163h14.133a4.19,4.19,0,0,1,4.212,4.169" transform="translate(-446.47 -35.338)" fill="#fff"/>
          <path id="Path_744" data-name="Path 744" d="M623.288,338.6v15.345a4.163,4.163,0,0,1-4.163,4.163H604.942a4.164,4.164,0,0,1-4.163-4.164V338.264a4.163,4.163,0,0,1,4.163-4.163H619.12a4.168,4.168,0,0,1,4.168,4.169" transform="translate(-455.459 -35.338)" fill="#fff"/>
          <path id="Path_745" data-name="Path 745" d="M658.288,338.6v15.345a4.163,4.163,0,0,1-4.163,4.163H639.942a4.164,4.164,0,0,1-4.163-4.164V338.264a4.163,4.163,0,0,1,4.163-4.163h14.181a4.166,4.166,0,0,1,4.165,4.169" transform="translate(-464.199 -35.338)" fill="#fff"/>
          <path id="Path_746" data-name="Path 746" d="M694.288,338.6v15.345a4.163,4.163,0,0,1-4.163,4.163H675.942a4.164,4.164,0,0,1-4.163-4.164V338.264a4.163,4.163,0,0,1,4.163-4.163H690.12a4.168,4.168,0,0,1,4.168,4.169" transform="translate(-473.188 -35.338)" fill="#fff"/>
          <path id="Path_747" data-name="Path 747" d="M731.789,338.6v15.345a4.163,4.163,0,0,1-4.163,4.163H711.942a4.163,4.163,0,0,1-4.163-4.163V338.264a4.163,4.163,0,0,1,4.163-4.163h15.619a4.2,4.2,0,0,1,4.227,4.169" transform="translate(-482.177 -35.338)" fill="#fff"/>
          <path id="Path_748" data-name="Path 748" d="M767.288,338.6v15.345a4.163,4.163,0,0,1-4.163,4.163H748.942a4.163,4.163,0,0,1-4.163-4.163V338.264a4.163,4.163,0,0,1,4.163-4.163h14.18a4.166,4.166,0,0,1,4.166,4.169" transform="translate(-491.416 -35.338)" fill="#fff"/>
          <path id="Path_749" data-name="Path 749" d="M803.288,338.6v15.345a4.163,4.163,0,0,1-4.163,4.163H784.942a4.164,4.164,0,0,1-4.163-4.164V338.264a4.163,4.163,0,0,1,4.163-4.163h14.177a4.168,4.168,0,0,1,4.169,4.169" transform="translate(-500.405 -35.338)" fill="#fff"/>
          <path id="Path_750" data-name="Path 750" d="M839.288,338.6v15.345a4.163,4.163,0,0,1-4.163,4.163H820.942a4.163,4.163,0,0,1-4.163-4.163V338.264a4.163,4.163,0,0,1,4.163-4.163h14.18a4.167,4.167,0,0,1,4.166,4.169" transform="translate(-509.395 -35.338)" fill="#fff"/>
          <path id="Path_751" data-name="Path 751" d="M875.288,338.6v15.345a4.163,4.163,0,0,1-4.163,4.163H856.943a4.164,4.164,0,0,1-4.164-4.165V338.264a4.163,4.163,0,0,1,4.163-4.163H871.12a4.167,4.167,0,0,1,4.168,4.169" transform="translate(-518.384 -35.338)" fill="#fff"/>
          <path id="Path_752" data-name="Path 752" d="M515.288,379.6v15.146a4.361,4.361,0,0,1-4.361,4.362H497.14a4.361,4.361,0,0,1-4.361-4.362V379.463a4.362,4.362,0,0,1,4.362-4.362h13.818a4.349,4.349,0,0,1,4.33,4.367" transform="translate(-428.491 -45.576)" fill="#fff"/>
          <path id="Path_753" data-name="Path 753" d="M551.288,379.6v15.146a4.361,4.361,0,0,1-4.361,4.362H533.141a4.362,4.362,0,0,1-4.361-4.362V379.463a4.362,4.362,0,0,1,4.361-4.362h13.781a4.367,4.367,0,0,1,4.366,4.367" transform="translate(-437.481 -45.576)" fill="#fff"/>
          <path id="Path_754" data-name="Path 754" d="M587.288,379.6v15.146a4.361,4.361,0,0,1-4.361,4.362H569.14a4.361,4.361,0,0,1-4.361-4.362V379.463a4.362,4.362,0,0,1,4.362-4.362h13.734a4.391,4.391,0,0,1,4.413,4.367" transform="translate(-446.47 -45.576)" fill="#fff"/>
          <path id="Path_755" data-name="Path 755" d="M623.288,379.6v15.146a4.361,4.361,0,0,1-4.361,4.362H605.141a4.362,4.362,0,0,1-4.362-4.362V379.463a4.362,4.362,0,0,1,4.362-4.362h13.781a4.367,4.367,0,0,1,4.366,4.367" transform="translate(-455.459 -45.576)" fill="#fff"/>
          <path id="Path_756" data-name="Path 756" d="M658.288,379.6v15.146a4.361,4.361,0,0,1-4.361,4.362H640.141a4.362,4.362,0,0,1-4.361-4.362V379.463a4.362,4.362,0,0,1,4.361-4.362h13.784a4.366,4.366,0,0,1,4.364,4.367" transform="translate(-464.199 -45.576)" fill="#fff"/>
          <path id="Path_757" data-name="Path 757" d="M694.288,379.6v15.146a4.361,4.361,0,0,1-4.362,4.362H676.141a4.362,4.362,0,0,1-4.362-4.362V379.463a4.362,4.362,0,0,1,4.362-4.362h13.781a4.367,4.367,0,0,1,4.366,4.367" transform="translate(-473.188 -45.576)" fill="#fff"/>
          <path id="Path_758" data-name="Path 758" d="M731.789,379.6v15.146a4.361,4.361,0,0,1-4.362,4.362H712.14a4.361,4.361,0,0,1-4.361-4.362V379.463a4.362,4.362,0,0,1,4.362-4.362H727.36a4.4,4.4,0,0,1,4.429,4.367" transform="translate(-482.177 -45.576)" fill="#fff"/>
          <path id="Path_759" data-name="Path 759" d="M767.288,379.6v15.146a4.361,4.361,0,0,1-4.362,4.362H749.141a4.362,4.362,0,0,1-4.362-4.362V379.463a4.362,4.362,0,0,1,4.362-4.362h13.784a4.365,4.365,0,0,1,4.364,4.367" transform="translate(-491.416 -45.576)" fill="#fff"/>
          <path id="Path_760" data-name="Path 760" d="M803.288,379.6v15.146a4.361,4.361,0,0,1-4.361,4.362H785.14a4.361,4.361,0,0,1-4.361-4.362V379.463a4.362,4.362,0,0,1,4.362-4.362h13.781a4.367,4.367,0,0,1,4.366,4.367" transform="translate(-500.405 -45.576)" fill="#fff"/>
          <path id="Path_761" data-name="Path 761" d="M839.288,379.6v15.146a4.361,4.361,0,0,1-4.361,4.362H821.141a4.362,4.362,0,0,1-4.362-4.362V379.463a4.362,4.362,0,0,1,4.362-4.362h13.784a4.365,4.365,0,0,1,4.364,4.367" transform="translate(-509.395 -45.576)" fill="#fff"/>
          <path id="Path_762" data-name="Path 762" d="M875.288,379.6v15.146a4.361,4.361,0,0,1-4.361,4.362H857.141a4.362,4.362,0,0,1-4.361-4.362V379.463a4.362,4.362,0,0,1,4.361-4.362h13.782a4.366,4.366,0,0,1,4.365,4.367" transform="translate(-518.384 -45.576)" fill="#fff"/>
          <path id="Path_763" data-name="Path 763" d="M515.288,419.853V436a4.111,4.111,0,0,1-4.11,4.11H496.89A4.111,4.111,0,0,1,492.779,436V420.212a4.111,4.111,0,0,1,4.111-4.111h14.316a4.1,4.1,0,0,1,4.082,4.116" transform="translate(-428.491 -55.814)" fill="#fff"/>
          <path id="Path_764" data-name="Path 764" d="M551.288,419.853V436a4.111,4.111,0,0,1-4.11,4.11H532.89A4.111,4.111,0,0,1,528.779,436V420.212a4.111,4.111,0,0,1,4.111-4.111h14.283a4.116,4.116,0,0,1,4.115,4.116" transform="translate(-437.481 -55.814)" fill="#fff"/>
          <path id="Path_765" data-name="Path 765" d="M587.288,419.853V436a4.111,4.111,0,0,1-4.111,4.111H568.889a4.11,4.11,0,0,1-4.11-4.11V420.212a4.111,4.111,0,0,1,4.111-4.111h14.239a4.138,4.138,0,0,1,4.159,4.116" transform="translate(-446.47 -55.814)" fill="#fff"/>
          <path id="Path_766" data-name="Path 766" d="M803.288,419.853V436a4.111,4.111,0,0,1-4.111,4.111H784.889a4.11,4.11,0,0,1-4.11-4.11V420.212a4.111,4.111,0,0,1,4.111-4.111h14.283a4.116,4.116,0,0,1,4.115,4.116" transform="translate(-500.405 -55.814)" fill="#fff"/>
          <path id="Path_767" data-name="Path 767" d="M767.288,419.853V436a4.111,4.111,0,0,1-4.11,4.11H748.89A4.111,4.111,0,0,1,744.779,436V420.212a4.111,4.111,0,0,1,4.111-4.111h14.286a4.114,4.114,0,0,1,4.112,4.116" transform="translate(-491.416 -55.814)" fill="#fff"/>
          <path id="Path_768" data-name="Path 768" d="M705.071,419.853V436a4.111,4.111,0,0,1-4.11,4.11H604.889a4.11,4.11,0,0,1-4.11-4.11V420.212a4.111,4.111,0,0,1,4.111-4.111H700.96a4.114,4.114,0,0,1,4.11,4.116" transform="translate(-455.459 -55.814)" fill="#fff"/>
          <path id="Path_769" data-name="Path 769" d="M839.288,419.853V436a4.111,4.111,0,0,1-4.11,4.11H820.89A4.111,4.111,0,0,1,816.779,436V420.212a4.111,4.111,0,0,1,4.111-4.111h14.286a4.114,4.114,0,0,1,4.112,4.116" transform="translate(-509.395 -55.814)" fill="#fff"/>
          <path id="Path_770" data-name="Path 770" d="M875.288,419.853V436a4.111,4.111,0,0,1-4.11,4.11H856.89A4.111,4.111,0,0,1,852.779,436V420.212a4.111,4.111,0,0,1,4.111-4.111h14.284a4.115,4.115,0,0,1,4.114,4.116" transform="translate(-518.384 -55.814)" fill="#fff"/>
          <path id="Path_771" data-name="Path 771" d="M709.809,508.119H639.183a4.4,4.4,0,0,1-4.4-4.4V467.505a4.4,4.4,0,0,1,4.4-4.4h70.722a4.4,4.4,0,0,1,4.405,4.4v36.182a4.413,4.413,0,0,1-4.4,4.431" transform="translate(-463.949 -67.55)" fill="#d6d5eb"/>
          <path id="Path_772" data-name="Path 772" d="M709.809,508.119H639.183a4.4,4.4,0,0,1-4.4-4.4V467.505a4.4,4.4,0,0,1,4.4-4.4h70.722a4.4,4.4,0,0,1,4.405,4.4v36.182a4.413,4.413,0,0,1-4.4,4.431" transform="translate(-463.949 -67.55)" fill="rgba(255,255,255,0.3)"/>
          <path id="Path_773" data-name="Path 773" d="M740.126-22.9H804.89c13.234,0,23.359,10.2,21.361,21.526L793.3,185.309c-1.107,6.275-6.894,10.879-13.676,10.879h-322.1c-6.783,0-12.57-4.6-13.677-10.879L410.895-1.373C408.9-12.7,419.021-22.9,432.256-22.9H723.619" transform="translate(-407.982 53.805)" fill="#fff"/>
          <path id="Path_774" data-name="Path 774" d="M804.615-25.966c12.544.188,25.755,10.067,23.437,24.214C817.275,60.716,806.38,123.167,795,185.529c-1.4,7.172-8.325,12.578-15.839,12.7q-161.468.861-322.941,0c-7.4-.116-14.4-5.324-15.84-12.7Q423.286,91.989,407.323-1.752c-2.015-12.262,9.67-24.091,23.607-24.186H722.546l.916.152a2.78,2.78,0,0,1,1.478,2.212l-.182.917a3.172,3.172,0,0,1-1.3,1.3l-.916.182c-97.242,0-194.489-.879-291.728,0-9.75.146-20.587,7-18.79,18.517,10.278,62.559,21.66,124.934,33.057,187.3.975,4.993,5.886,8.714,11.183,8.8q161.417.861,322.841,0c5.185-.082,10.171-3.622,11.182-8.8C801.674,122.272,813.1,59.9,823.348-2.66a14.925,14.925,0,0,0-3.958-12.286c-3.821-4.115-9.516-6.216-15.119-6.49H739.367l-.916.074-.777-.519a3.165,3.165,0,0,1-.7-1.693l.182-.916a3.176,3.176,0,0,1,1.3-1.3l.916-.182C761.116-25.969,782.867-26.164,804.615-25.966Z" transform="translate(-407.096 54.593)" fill="#41146c"/>
          <path id="Path_775" data-name="Path 775" d="M813.384,6l-1.513,8.268L781.539,180.3a8.029,8.029,0,0,1-8.047,6.373H476.077a8.029,8.029,0,0,1-8.047-6.373L436.185,6C435.227.79,440.05-3.9,446.347-3.9H803.222C809.518-3.9,814.341.79,813.384,6Z" transform="translate(-414.329 49.061)" fill="#00d4ae" fill-rule="evenodd"/>
          <path id="Path_776" data-name="Path 776" d="M802.721-7.023c6.6.115,13.559,5.129,12.38,12.57-10.284,58.645-21,116.568-31.925,174.748a10.674,10.674,0,0,1-10.27,8.23q-148.969.795-297.941,0a10.635,10.635,0,0,1-10.271-8.229c-10.917-58.148-21.267-116.4-31.9-174.6-1.139-6.5,5.14-12.592,12.354-12.719Q623.932-8.06,802.721-7.023ZM445.33-2.234c-4.052.024-8.519,2.7-7.838,6.993,10.209,58.3,20.275,116.647,31.913,174.682a5.8,5.8,0,0,0,5.609,4.3c99.3.528,198.618,1.558,297.908,0a5.763,5.763,0,0,0,5.551-4.352C789.393,121.22,800.183,62.9,810.377,4.759c.627-3.953-4.031-6.928-7.712-6.992C683.555-2.924,564.442-2.234,445.33-2.234Z" transform="translate(-413.48 49.97)" fill="#41146c"/>
          <path id="Path_777" data-name="Path 777" d="M543.643,185.175h-67.5a5.1,5.1,0,0,1-5.016-4.182L439.016,6.275c-.688-3.737,2.657-6.941,7.83-7.174l66.273.113Z" transform="translate(-415.044 48.312)" fill="#7f77bf" fill-rule="evenodd"/>
          <path id="Path_778" data-name="Path 778" d="M551.722,81.121c1.554.315,1.723.563,2.056,2L573.439,207.89c.208,2.445-3.928,4.213-4.731.746L549.047,83.867C548.78,80.72,550.88,81.071,551.722,81.121Z" transform="translate(-442.536 27.84)" fill="#41146c"/>
          <path id="Path_779" data-name="Path 779" d="M537.808-6.834a2.52,2.52,0,0,1,2.112,2.008l7.451,47.286a2.057,2.057,0,0,1-1.027,2.358,2.379,2.379,0,0,1-3.7-1.613L535.19-4.08A2.482,2.482,0,0,1,537.808-6.834Z" transform="translate(-439.078 49.795)" fill="#41146c"/>
          <path id="Path_780" data-name="Path 780" d="M721.824,36.852H618.792a1.976,1.976,0,0,1-1.9-1.284A1.908,1.908,0,0,1,618.8,33.1H721.627a1.974,1.974,0,0,1,1.9,1.285,1.909,1.909,0,0,1-1.916,2.466" transform="translate(-459.457 39.822)" fill="#fff"/>
          <path id="Path_781" data-name="Path 781" d="M666.074,59.1H690.5a1.966,1.966,0,0,1,2,1.708,1.876,1.876,0,0,1-1.868,2.043H665.97a1.973,1.973,0,0,1-2.01-1.732,1.858,1.858,0,0,1,1.865-2.02" transform="translate(-471.234 33.329)" fill="rgba(255,255,255,0.3)"/>
          <path id="Path_782" data-name="Path 782" d="M817.471,60.866a1.644,1.644,0,0,1-.738,1.434,2.968,2.968,0,0,1-1.772.553H722.423c-1.393,0-2.521-.84-2.521-1.876s1.128-1.876,2.521-1.876h92.4c1.357,0,2.577.756,2.65,1.765" transform="translate(-485.204 33.329)" fill="rgba(255,255,255,0.3)"/>
          <path id="Path_783" data-name="Path 783" d="M666.074,59.1H690.5a1.966,1.966,0,0,1,2,1.708,1.876,1.876,0,0,1-1.868,2.043H665.97a1.973,1.973,0,0,1-2.01-1.732,1.858,1.858,0,0,1,1.865-2.02" transform="translate(-471.234 33.329)" fill="rgba(255,255,255,0.3)"/>
          <path id="Path_784" data-name="Path 784" d="M817.471,60.866a1.644,1.644,0,0,1-.738,1.434,2.968,2.968,0,0,1-1.772.553H722.423c-1.393,0-2.521-.84-2.521-1.876s1.128-1.876,2.521-1.876h92.4c1.357,0,2.577.756,2.65,1.765" transform="translate(-485.204 33.329)" fill="rgba(255,255,255,0.3)"/>
          <path id="Path_785" data-name="Path 785" d="M717.854,87.852h-75.9a1.976,1.976,0,0,1-1.9-1.284,1.908,1.908,0,0,1,1.915-2.468h75.55a1.973,1.973,0,0,1,1.9,1.285,1.908,1.908,0,0,1-1.916,2.466" transform="translate(-465.241 27.087)" fill="#fff"/>
          <path id="Path_786" data-name="Path 786" d="M816.251,112.852H687.457a1.974,1.974,0,0,1-1.9-1.284,1.907,1.907,0,0,1,1.915-2.468H816.535a1.972,1.972,0,0,1,1.9,1.285,1.908,1.908,0,0,1-1.915,2.466" transform="translate(-476.603 20.844)" fill="rgba(255,255,255,0.3)"/>
          <path id="Path_787" data-name="Path 787" d="M694.929,137.852H619.255a1.975,1.975,0,0,1-1.9-1.284,1.907,1.907,0,0,1,1.915-2.468h75.548a1.976,1.976,0,0,1,1.9,1.283,1.908,1.908,0,0,1-1.915,2.468" transform="translate(-459.573 14.602)" fill="#fff"/>
          <path id="Path_788" data-name="Path 788" d="M789.46,162.853H676.321a1.975,1.975,0,0,1-1.9-1.284,1.908,1.908,0,0,1,1.915-2.468H789.276a1.975,1.975,0,0,1,1.9,1.285,1.909,1.909,0,0,1-1.917,2.466" transform="translate(-473.823 8.359)" fill="rgba(255,255,255,0.3)"/>
          <path id="Path_789" data-name="Path 789" d="M789.46,162.853H676.321a1.975,1.975,0,0,1-1.9-1.284,1.908,1.908,0,0,1,1.915-2.468H789.276a1.975,1.975,0,0,1,1.9,1.285,1.909,1.909,0,0,1-1.917,2.466" transform="translate(-473.823 8.359)" fill="rgba(255,255,255,0.3)"/>
          <path id="Path_790" data-name="Path 790" d="M789.46,162.853H676.321a1.975,1.975,0,0,1-1.9-1.284,1.908,1.908,0,0,1,1.915-2.468H789.276a1.975,1.975,0,0,1,1.9,1.285,1.909,1.909,0,0,1-1.917,2.466" transform="translate(-473.823 8.359)" fill="rgba(255,255,255,0.3)"/>
          <path id="Path_791" data-name="Path 791" d="M718.452,186.852h-71.1a1.976,1.976,0,0,1-1.9-1.284,1.908,1.908,0,0,1,1.915-2.468h71.44a1.976,1.976,0,0,1,1.9,1.283,1.908,1.908,0,0,1-1.916,2.468" transform="translate(-466.59 2.366)" fill="#fff"/>
          <path id="Path_792" data-name="Path 792" d="M711.075,207.1h70.033a1.973,1.973,0,0,1,1.9,1.285,1.908,1.908,0,0,1-1.915,2.467H710.989a2.01,2.01,0,0,1-1.91-1.235,1.8,1.8,0,0,1,.476-1.972,2.066,2.066,0,0,1,1.417-.545" transform="translate(-482.472 -3.626)" fill="rgba(255,255,255,0.3)"/>
          <path id="Path_793" data-name="Path 793" d="M853.4,208.545a1.883,1.883,0,0,1-.5,1.762,1.856,1.856,0,0,1-1.322.545h-26a1.966,1.966,0,0,1-2-1.708,1.875,1.875,0,0,1,1.867-2.043h26a1.977,1.977,0,0,1,1.963,1.444" transform="translate(-511.089 -3.626)" fill="rgba(255,255,255,0.3)"/>
          <path id="Path_794" data-name="Path 794" d="M711.075,207.1h70.033a1.973,1.973,0,0,1,1.9,1.285,1.908,1.908,0,0,1-1.915,2.467H710.989a2.01,2.01,0,0,1-1.91-1.235,1.8,1.8,0,0,1,.476-1.972,2.066,2.066,0,0,1,1.417-.545" transform="translate(-482.472 -3.626)" fill="rgba(255,255,255,0.3)"/>
          <path id="Path_795" data-name="Path 795" d="M853.4,208.545a1.883,1.883,0,0,1-.5,1.762,1.856,1.856,0,0,1-1.322.545h-26a1.966,1.966,0,0,1-2-1.708,1.875,1.875,0,0,1,1.867-2.043h26a1.977,1.977,0,0,1,1.963,1.444" transform="translate(-511.089 -3.626)" fill="rgba(255,255,255,0.3)"/>
          <path id="Path_796" data-name="Path 796" d="M468.306,59.1h24.035a1.878,1.878,0,0,1,0,3.751H468.779a1.894,1.894,0,0,1-1.888-1.707,1.933,1.933,0,0,1,.512-1.5,1.748,1.748,0,0,1,1.267-.543" transform="translate(-422.025 33.329)" fill="#00bcff" fill-rule="evenodd"/>
          <path id="Path_797" data-name="Path 797" d="M509.335,85.977a1.949,1.949,0,0,1-2.016,1.876H471.74a1.977,1.977,0,0,1-1.9-1.285,1.909,1.909,0,0,1,1.919-2.466h35.564a1.949,1.949,0,0,1,2.016,1.876" transform="translate(-422.738 27.087)" fill="#ffcf91" fill-rule="evenodd"/>
          <path id="Path_798" data-name="Path 798" d="M511.388,110.968h0a1.876,1.876,0,0,1-1.873,1.88c-4.779,0-17.054,0-17.138,0H482.107c-.131,0-3.658,0-5.97-.016a1.963,1.963,0,0,1-1.883-1.276,1.9,1.9,0,0,1,1.9-2.45c1.874-.006,4.4-.009,4.486-.009h18.83c.079,0,6.549,0,9.922,0a1.935,1.935,0,0,1,2,1.864" transform="translate(-423.842 20.844)" fill="#fff"/>
          <path id="Path_799" data-name="Path 799" d="M481.308,134.1H505.35a1.878,1.878,0,0,1,0,3.751H481.789a1.894,1.894,0,0,1-1.889-1.707,1.933,1.933,0,0,1,.512-1.5,1.748,1.748,0,0,1,1.267-.543" transform="translate(-425.274 14.602)" fill="#00bcff" fill-rule="evenodd"/>
          <path id="Path_800" data-name="Path 800" d="M500.533,34.977a1.949,1.949,0,0,1-2.016,1.876H462.938a1.976,1.976,0,0,1-1.9-1.285,1.909,1.909,0,0,1,1.919-2.466h35.564a1.949,1.949,0,0,1,2.016,1.876" transform="translate(-420.54 39.822)" fill="#ff88b3" fill-rule="evenodd"/>
          <path id="Path_801" data-name="Path 801" d="M903.108,514.646c3.588.356-1.221,9.505-8.465,12.6a1.846,1.846,0,0,1-1.575-.3c-.747-.74-.4-1.946.9-2.542a14.619,14.619,0,0,0,7.666-8.754A1.514,1.514,0,0,1,903.108,514.646Z" transform="translate(-528.347 -80.42)" fill="#41146c"/>
          <path id="Path_802" data-name="Path 802" d="M991.1-38.867c1.332.068,1.916,2.285.4,2.805-2.739.8-5.515,1.463-8.273,2.194-1.362.326-2.742-2.094-.8-2.758C985.324-37.468,988.232-38.875,991.1-38.867Z" transform="translate(-550.517 57.792)" fill="#41146c"/>
          <path id="Path_803" data-name="Path 803" d="M966.208-64.09a1.487,1.487,0,0,1,1.358,1.632c-.427,2.636-.975,5.25-1.462,7.875-.3,1.426-3.045,1.351-2.835-.46.427-2.636.974-5.25,1.462-7.875A1.468,1.468,0,0,1,966.208-64.09Z" transform="translate(-545.97 64.091)" fill="#41146c"/>
          <path id="Path_804" data-name="Path 804" d="M980.4-54.663a1.5,1.5,0,0,1,1.046,2.38c-1.961,2.157-4.009,4.232-6.014,6.348-1.038,1.05-3.216-.628-2.126-1.932,1.961-2.158,4.01-4.232,6.015-6.348A1.293,1.293,0,0,1,980.4-54.663Z" transform="translate(-548.405 61.736)" fill="#41146c"/>
        </g>
        <g id="Hand" transform="translate(244.441 309.512)">
          <path id="Path_805" data-name="Path 805" d="M424.787,585.084c24.31-34.179,53.964-82.659,61.841-97.1a15.794,15.794,0,0,0,1.928-7.567V453.787c0-13.165,1.437-33.272,1.437-46.2a47.778,47.778,0,0,1,4.983-20.287,3.147,3.147,0,0,1,5.728.135c.82,1.968,1.3,5.105.777,10.1a106.555,106.555,0,0,0,1.2,27.466s4.069-21.721,7.9-27.944,29.682-33.033,33.033-31.835,4.069,6.7,2.632,11.489c0,0,12.208-20.347,19.389-20.107,0,0,4.548-5.745,7.659-5.026s3.83,8.857-1.435,19.628-8.617,17.474-11.489,22.979c0,0-5.745,20.585-5.745,23.458s-1.436,31.118.479,38.3c0,0,2.633,1.436,11.25-8.617s13.066-20.629,19.96-24.267c5.624-2.967,8.141-2.112,8.942.671a6.036,6.036,0,0,1-.3,3.966c-1.7,4.087-5.448,13.707-7.061,18.673-1.132,3.481-11.729,24.653-15.32,29.92-3.036,4.452-13.937,17.111-27.936,24.393a29.814,29.814,0,0,0-12.861,13.157l-51.9,103.793" transform="translate(-423.124 -349.199)" fill="#ffd1c3" fill-rule="evenodd"/>
          <path id="Path_806" data-name="Path 806" d="M572.073,348.428c3.768.11,5.332,5.113,5.278,8.331-.01.567-.044,1.134-.1,1.7-.619,6.517-3.742,12.493-6.742,18.6-2.763,5.61-5.542,11.212-8.424,16.763l-.155.3c-2.008,7.25-4.361,14.475-5.487,21.831-.478,3.129-.29,7.263-.405,11.391-.218,8.128-.586,16.35.312,24.253a53.433,53.433,0,0,0,6.363-5.773c8.806-9.835,13.781-24.159,25.623-27.651,2.183-.642,4.77-.694,6.552.844,2.331,2.015,2.471,5.685,1.48,8.276-2.5,6.189-4.91,12.471-7.108,18.8-7.879,21.921-22.159,42.773-42.087,54.057-5.6,3.174-10.742,7.147-13.77,13.133l-51.6,103.2a2.789,2.789,0,0,1-3.194,1.065s-1.9-.154-1.065-3.194l51.606-103.21c3.24-6.406,8.606-11.26,15.061-14.793A73.281,73.281,0,0,0,573.2,467.87c4.139-7.541,8.387-15.066,11.475-23.114,2.471-6.438,4.691-12.862,7.259-19.211.515-1.342.943-3.49-1.614-2.968-7.58,1.547-12.081,10.393-16.645,16.929-4.38,6.23-8.87,12.835-15.32,16.492-1.57.891-3.47,1.5-4.936.786l-.8-.63a34.045,34.045,0,0,1-1.265-6.963c-.711-10.873.088-21.773.251-32.764.206-5.059,2.106-10.092,3.467-15.233q1.107-4.187,2.267-8.362s.852-1.852,1.619-3.346c3.578-6.974,7.129-13.9,10.476-21.091,2.121-4.63,4.515-9.918,2.775-14.659-.119-.322.156-.847-.974-.311a13.623,13.623,0,0,0-4.4,3.884s-.056.7-1.952.943c-3.251-.071-5.956,3.643-8.739,6.954a97.386,97.386,0,0,0-8.319,11.674l-.795.928-.894.389-.975,0-.892-.394-.659-.717-.317-.923.08-.972c.882-2.978,1-6.844-.709-8.263a59.892,59.892,0,0,0-5.5,4.1c-8.872,7.676-17.447,16.021-24.24,25.289-2.255,3.077-3.224,6.973-4.278,10.763-1.534,5.518-2.777,11.109-3.869,16.72l-.453,1.4-.659.665-.864.359h-.936l-.863-.362-.657-.666a87.586,87.586,0,0,1-1.465-9.081,127.777,127.777,0,0,1,.022-21.258c.162-2.511.233-5.152-.736-7.42-.319-.708-1.227-.266-1.714.772-4.8,10.363-4.288,22.284-4.743,33.679-.4,9.992-.987,19.992-1.035,30.016-.015,9.076.032,18.153,0,27.23-.065,5.515-3.222,10.437-6.138,15.457-17.589,30.271-36.462,59.809-56.569,88.249a5.7,5.7,0,0,1-2.682,2.576,2.472,2.472,0,0,1-1.777-.407,2.79,2.79,0,0,1-.942-2.471s1.795-2.836,3.8-5.7c20.2-28.948,39.665-58.976,56.694-89.25,1.477-2.628,2.792-5.342,2.85-8.386.226-19.1.251-38.029,1.042-57.5.258-6.565-.08-13.169.647-19.709a43.449,43.449,0,0,1,5.139-17,5.667,5.667,0,0,1,10.15,1.492c1.732,5.245.376,10.952.24,16.56-.048,1.97-.029,3.941.041,5.908,0,0,1.339-5.132,2.728-9.026,1.966-5.512,5.987-10.054,9.956-14.419,6.931-7.621,13.82-15.29,22.321-21.377,2.826-2.023,6.82-2.6,8.982.813a9.589,9.589,0,0,1,1.134,2.665c4.423-6.163,9.85-13.1,15.47-14.017.522-.585,1.063-1.152,1.632-1.693C567.31,350.066,569.249,348.428,572.073,348.428Z" transform="translate(-422.571 -348.428)" fill="#41146c"/>
          <path id="Path_807" data-name="Path 807" d="M600.286,355.116a2.476,2.476,0,0,1,1.728,3.815c-7.493,10.089-15.318,19.987-21.84,30.72-2.1,3.463-3,7.459-4.42,11.3-2.67,7.186-4.787,14.731-8.731,21.209a9.035,9.035,0,0,1-1.164,1.411c-1.141.768-1.522.543-2.072.391a2.475,2.475,0,0,1-1.152-3.9,2.227,2.227,0,0,0,.248-.314c2.006-3.238,3.226-7,4.65-10.631,2.549-6.508,4.89-13.081,7.34-19.671a26.516,26.516,0,0,1,2.9-4.923c6.382-9.623,13.292-18.861,20.157-28.123A2.642,2.642,0,0,1,600.286,355.116Z" transform="translate(-457.407 -350.098)" fill="#41146c"/>
          <path id="Path_808" data-name="Path 808" d="M576.347,381.915a2.408,2.408,0,0,1,1.5,4.074c-6.584,6.619-13.488,13.282-18.241,21.245-4.249,7.12-5.482,15.888-10.75,23.541-1.264,1.836-4.312,2.824-4.961.024-.425-1.84,1.543-3.421,2.676-5.655,2.982-5.891,5.222-12.214,7.826-18.266,1.621-3.682,4.31-6.836,6.924-9.971,4.088-4.9,8.452-9.567,12.94-14.1A2.607,2.607,0,0,1,576.347,381.915Z" transform="translate(-452.85 -356.789)" fill="#41146c"/>
          <path id="Path_809" data-name="Path 809" d="M490.711,651.251l16.715-33.519s29.508-58.937,31.547-63.176,2.853-7.01,6.6-12.065a35.827,35.827,0,0,1,9.538-8.4c3.017-1.387,10.353-6.522,10.353-6.522s2.2-.652,9.538-7.907a75.171,75.171,0,0,0,11.984-15.978l6.521-12.635c-2.24,4.293-22.193,21.5-32.63,28.88C546.934,529.8,535.286,537.6,512.4,577.951l-36.651,64.466Z" transform="translate(-435.849 -384.042)" fill="rgba(0,0,0,0.25)" style="mix-blend-mode: overlay;isolation: isolate"/>
          <path id="Path_810" data-name="Path 810" d="M578.386,547.133c2.129.136,3.262,3.53.819,4.608A92.513,92.513,0,0,1,561.7,557.2a2.957,2.957,0,0,1-2.117-.63c-1.354-1.309-.771-3.675,1.942-4.217a90.052,90.052,0,0,0,15.867-5.041S577.456,547.123,578.386,547.133Z" transform="translate(-456.607 -398.045)" fill="#41146c"/>
        </g>
        <g id="Group_47" data-name="Group 47" transform="translate(478.031 395.137)">
          <path id="Path_811" data-name="Path 811" d="M932.658,645.729c-16.47-19.756-50.371-55.8-57.524-64.632-12.008-14.824-17.039-26.018-24.867-41.9s-12.893-26.479-15.886-35.458-6.678-14.506-13.125-23.715-5.526-14.046-10.361-14.276c-2.15-.1-3.116,1.888-3.527,4.13A14.593,14.593,0,0,0,808.735,479c2.2,4.406,8.606,13.448,10.449,24.04,0,0-8.748-12.2-13.355-16.347S788.1,476.1,777.97,471.268c-4.234-2.02-7.141-2.715-9.09-2.837a3.736,3.736,0,0,0-3.941,4.4c.428,2.2,2.128,5.072,7.274,7.646,3.58,1.79,6.42,4.792,8.289,5.987,0,0-21.183-8.058-23.486-7.369s-3.223,2.763-1.612,4.835c0,0-15.425-10.822-17.728-5.065s2.643,13.93,16.577,24.406c15.428,11.6,16.117,14.046,21.874,23.256s11.282,26.939,11.282,26.939-5.756.69-15.2-6.908-19.744-11.159-23.744-8.1c-5.248,4.013-1.663,8.265,1.622,11.5L768.666,566.8c5.329,4.9,12.6,11.616,18.743,17.058,7.79,6.9,19.106,11,27.183,13.218a34.536,34.536,0,0,1,17.422,11.3l53.913,70.437" transform="translate(-734.707 -463.345)" fill="#ffd1c3" fill-rule="evenodd"/>
          <path id="Path_812" data-name="Path 812" d="M740.031,473.992c4.164.139,8.034,2.345,11.807,4.552,0,0,2.6-3.106,5.991-2.566a46.549,46.549,0,0,1,6.542,1.746s.566.427-.194-.45c-2.765-3.289-3.563-8.686.419-11.131,4.355-2.673,10.693.767,16.523,3.571,9.553,4.612,19.972,8.432,27.285,16.161.942,1,1.843,2.033,2.73,3.08-2.066-4.03-4.885-7.82-6.27-11.877-1.638-4.8-1.447-10.949,2.038-13.543,2.462-1.833,6.354-.993,8.37,1.556,3.319,4.2,4.9,9.547,8.319,14.447,9.623,13.854,14.7,30.143,21.48,44.372,9.854,20.665,19.132,41.458,35.532,60.024,17.478,19.786,35.77,38.8,52.7,59a3.291,3.291,0,0,1,.885,2.544,2.506,2.506,0,0,1-4.17.994c-19.406-23.236-41.417-43.809-59.749-67.438-10.334-13.32-17.657-28.777-25.082-43.912-5.1-10.423-10.321-20.851-14.016-31.828-4.137-12.062-13.073-21.819-18.437-33.078-.638-1.327-1.209-2.777-2.681-2.87-2.135-.136-1.721,6.6.446,10.6,4.094,7.558,8.584,15.056,10.146,23.363.427,2.269-2.255,4.591-4.207,2.336-5.07-7.045-9.853-14.419-17.544-19.19-9.221-5.718-18.861-11.887-29.092-14.149-.2-.045-.407-.086-.612-.122q-.44-.08-.883-.127c-1.514-.156-2.15,1.977-.712,3.827a15.375,15.375,0,0,0,5.266,3.853c.9.482,1,.556,1.444.834,2.357,1.477,4.349,3.526,6.621,5.041,0,0,1.675,1.63.909,3.14-.8,1.575-3.009,1.143-4.941.424-6.231-2.313-12.432-4.822-18.9-6.285-.942-.213-2.51-.6-1.542.726a3.087,3.087,0,0,1,.539,1.649,2.471,2.471,0,0,1-3.919,1.727c-.789-.54-.873-.585-1.212-.806-3.8-2.447-7.87-5.507-12.144-5.406-.958.022-.833.675-.93,1.329-.729,4.869,3.426,9.174,7.329,13.021,8.427,8.307,19.443,13.928,26.324,23.621,7.51,10.581,12.436,22.6,16.385,35a3.093,3.093,0,0,1-.217,2.239c-1.57,2.391-6.163.884-10-.849-8.652-3.911-14.891-12.491-25.4-14.045-3.843-.568-8.346,1.456-3.926,6.589.651.756,1.651,1.742,1.651,1.742l18.543,16.813c9.217,8.479,17.861,18.1,28.556,23.552,9.345,4.768,19.933,5.858,28.228,11.888a37.684,37.684,0,0,1,6.679,6.243l.141.17,53.942,70.476s1,2.46-.627,3.483a2.525,2.525,0,0,1-3.175-.572l-53.883-70.4c-8.029-9.641-21.95-11.085-33.712-17.141-11.1-5.714-19.915-15.459-29.379-24.164L747.637,550.9c-.341-.337-.679-.675-1.01-1.022q-.416-.436-.817-.888c-2.456-2.8-4.321-6.963-2.162-10.494,5.4-8.835,21.56-.4,30.5,6.368a30.125,30.125,0,0,0,8.857,4.839l.107.034c-5-14.624-11.362-29.175-22.994-38.965-8.589-7.231-19-13.051-24.28-23.013-1.838-3.465-2.8-7.733-.922-11.158A5.6,5.6,0,0,1,740.031,473.992Z" transform="translate(-733.9 -462.549)" fill="#41146c"/>
          <path id="Path_813" data-name="Path 813" d="M760.916,486.8c1.618.2,3.084,1.5,4.776,2.315,6.018,2.88,12.331,5.539,16.743,10.559,3.833,4.455,7.633,8.953,11.451,13.431l7.456,8.752c.69,1.035.5,1.294.426,1.783a2.477,2.477,0,0,1-4.187,1.177c-6.249-7.327-12.444-14.662-18.76-22-4.877-5.548-12.9-7.643-19.228-11.512C757.713,490.158,758.07,486.684,760.916,486.8Z" transform="translate(-740.024 -468.605)" fill="#41146c"/>
          <path id="Path_814" data-name="Path 814" d="M794.327,490.179c.643.074-.079-.212,1.417.494,9.909,4.74,17.324,12.994,26.783,21.055a8.769,8.769,0,0,0,2.174,1.406c1.9,1.256.436,5.508-2.727,4.038-4.563-2.12-7.953-6.851-12.056-10.749a61.805,61.805,0,0,0-16.777-11.679,2.829,2.829,0,0,1-1.289-1.46,2.4,2.4,0,0,1,2.307-3.113Z" transform="translate(-748.343 -469.446)" fill="#41146c"/>
          <path id="Path_815" data-name="Path 815" d="M839.822,637.606a3.6,3.6,0,0,1,1.151.287,46.12,46.12,0,0,0,17.877,1.684,3.037,3.037,0,0,1,2.148.867c1.177,1.452.289,3.692-2.29,3.969a44.57,44.57,0,0,1-19.913-2.179C836.8,641.488,836.841,637.456,839.822,637.606Z" transform="translate(-759.75 -506.26)" fill="#41146c"/>
          <path id="Path_816" data-name="Path 816" d="M954.224,678.48l12.408-8.768L951.037,651.74s-20.779-23.21-27.209-30.111-18.82-21.8-23.367-28.385-12.546-22.661-12.546-22.661l-7.137-14.193s-1.472,24.527,19.407,55.751c21.66,32.392,54.039,66.338,54.039,66.338" transform="translate(-770.57 -485.982)" fill="rgba(0,0,0,0.25)" style="mix-blend-mode: overlay;isolation: isolate"/>
        </g>
        <g id="Elements" transform="translate(0 166.137)">
          <g id="Group_48" data-name="Group 48" transform="translate(664.636 46.047)">
            <path id="Path_817" data-name="Path 817" d="M1104.775,291.573a59.508,59.508,0,1,1-59.513-59.5,59.167,59.167,0,0,1,59.513,59.5" transform="translate(-983.395 -222.045)" fill="#fff"/>
            <path id="Path_818" data-name="Path 818" d="M1044.876,229.1a62.8,62.8,0,0,1,43.639,18.392c19.664,19.9,23.708,53.37,7.588,77.686-15.544,23.448-48.285,34.269-75.374,23.007A61.912,61.912,0,0,1,1044.076,229.1Zm-.771,4.623a57.115,57.115,0,0,0-51.258,81.559c10.794,22.756,37.706,36.816,63.36,31.462a57.119,57.119,0,0,0-10.993-113.016C1044.845,233.724,1044.475,233.724,1044.106,233.724Z" transform="translate(-982.608 -221.304)" fill="#41146c"/>
            <path id="Path_819" data-name="Path 819" d="M1143.61,366.719a8.61,8.61,0,0,1-12,2.06l-9.631-6.805a58.984,58.984,0,0,0,10.086-13.949l9.484,6.7a8.612,8.612,0,0,1,2.06,12" transform="translate(-1017.41 -250.999)" fill="#fff"/>
            <path id="Path_820" data-name="Path 820" d="M1131.434,344.841a2.156,2.156,0,0,1,1.221.433c4.434,3.13,9.835,5.825,12.339,9.65,3.858,5.9.349,15.278-6.955,16.8-6.305,1.315-12.216-4.34-18.232-8.59-.886-.669-.8-.882-.92-1.3-.481-1.684,1.487-3.217,2.859-4.8a56.959,56.959,0,0,0,7.407-10.91A3.339,3.339,0,0,1,1131.434,344.841Zm.608,5.965a62.857,62.857,0,0,1-7.229,9.992l-.005.007c5.068,3.581,10.494,8.529,14.881,4.992a6.427,6.427,0,0,0-.318-9.919l-7.287-5.145C1132.07,350.757,1132.056,350.781,1132.042,350.805Z" transform="translate(-1016.619 -250.204)" fill="#41146c"/>
            <path id="Path_821" data-name="Path 821" d="M1097.94,294.988a49.264,49.264,0,1,1-49.265-49.265,49.264,49.264,0,0,1,49.265,49.265" transform="translate(-986.804 -225.454)" fill="#ff9591" fill-rule="evenodd"/>
            <path id="Path_822" data-name="Path 822" d="M1048.221,242.1c23.667.226,45.9,18.41,50.4,41.886a52.655,52.655,0,0,1-14.875,46.944c-14.305,13.8-36.955,18.332-55.67,10.545a51.666,51.666,0,0,1,19.478-99.375Zm-.637,5.113c-21.516.2-41.651,16.74-45.727,38a46.875,46.875,0,1,0,92.522,14.838c2.537-19.925-9.258-40.839-27.734-48.928A47.222,47.222,0,0,0,1047.584,247.214Z" transform="translate(-986.015 -224.55)" fill="#41146c"/>
            <path id="Path_823" data-name="Path 823" d="M1106.222,295.821a46.775,46.775,0,0,1-46.268,46.776,46.8,46.8,0,0,0-16.86-90.444c-.173,0-.344,0-.516.009a46.8,46.8,0,0,1,63.644,43.659" transform="translate(-997.583 -226.279)" fill="rgba(0,0,0,0.25)" style="mix-blend-mode: overlay;isolation: isolate"/>
            <path id="Path_824" data-name="Path 824" d="M1056.54,294.425a1.159,1.159,0,0,1,.954.5l15.445,18.168c.743.939.422,1.209.129,1.684a1.442,1.442,0,0,1-2.318.177L1055.3,296.785a1.107,1.107,0,0,1-.339-1.022C1055.015,294.984,1055.359,294.349,1056.54,294.425Z" transform="translate(-1000.672 -237.614)" fill="#41146c"/>
            <path id="Path_825" data-name="Path 825" d="M1070.647,295.261c1.547.056,3.214,2.958,4.908,5.025.885,1.16-1.033,3.081-2.188,1.861-1.819-2.065-4.228-4.295-4.184-5.5A1.473,1.473,0,0,1,1070.647,295.261Z" transform="translate(-1004.226 -237.824)" fill="#41146c"/>
            <path id="Path_826" data-name="Path 826" d="M1052.264,305.353a1.516,1.516,0,0,1,.984.449c2.85,3.182,5.534,6.507,8.3,9.761.915,1.133-.8,3.269-2.14,1.916-2.849-3.183-5.534-6.507-8.3-9.761A1.444,1.444,0,0,1,1052.264,305.353Z" transform="translate(-999.632 -240.344)" fill="#41146c"/>
            <path id="Path_827" data-name="Path 827" d="M1164.332,275.929c1.6.221,1.712,2.621,2.18,4.647a66.932,66.932,0,0,1,1.688,14.587s-.034,1.354-.99,1.666c-1.76.576-1.849-2.818-2.009-5.369a63.569,63.569,0,0,0-2.4-13.7S1162.63,275.815,1164.332,275.929Z" transform="translate(-1027.603 -232.996)" fill="#dfd7e4"/>
            <path id="Path_828" data-name="Path 828" d="M1109.615,218.721a3.847,3.847,0,0,1,1,.317,66.8,66.8,0,0,1,35.066,29.157c1.507,2.6-.766,4.468-2.306,1.756a64.007,64.007,0,0,0-34.418-28.447,1.7,1.7,0,0,1-.879-.858,1.421,1.421,0,0,1,1.4-1.936Z" transform="translate(-1013.914 -218.709)" fill="#dfd7e4"/>
          </g>
          <g id="Group_49" data-name="Group 49" transform="translate(0 0)">
            <path id="Path_829" data-name="Path 829" d="M184.392,410.464,149.7,395.28a4.277,4.277,0,0,1-2.2-5.631L190.8,290.685a4.276,4.276,0,0,1,5.632-2.2l35.176,15.393,20.953,9.168,75.133,32.878a4.276,4.276,0,0,1,2.2,5.632L286.59,450.517a4.277,4.277,0,0,1-5.632,2.2l-79.435-34.761" transform="translate(-109.353 -189.994)" fill="#fff"/>
            <path id="Path_830" data-name="Path 830" d="M333.966,243.558l31.8,75.595a4.277,4.277,0,0,1-2.285,5.6l-99.572,41.888a4.275,4.275,0,0,1-5.6-2.282l-55.56-132.069a4.276,4.276,0,0,1,2.285-5.6L304.608,184.8a4.275,4.275,0,0,1,5.6,2.283l14.89,35.393" transform="translate(-123.157 -164.111)" fill="#ffcf91" fill-rule="evenodd"/>
            <path id="Path_831" data-name="Path 831" d="M305.662,181.275a6.859,6.859,0,0,1,5.968,4.07l14.895,35.407c.587,1.8-1.133,3.86-3.018,3.181a2.621,2.621,0,0,1-1.4-1.324c-4.97-11.813-9.793-23.688-14.91-35.438a1.945,1.945,0,0,0-2.4-.978q-50.095,20.33-99.664,41.927a1.949,1.949,0,0,0-.979,2.4q26.958,66.427,55.6,132.16a1.945,1.945,0,0,0,2.4.977q50.091-20.337,99.664-41.926a1.948,1.948,0,0,0,.954-2.459L330.98,243.689c-.792-2.42,2.889-4.779,4.413-1.856L367.2,317.441a6.894,6.894,0,0,1-3.413,8.654c-33.072,14.4-66.494,27.975-99.742,41.961a6.893,6.893,0,0,1-8.652-3.409c-19.1-43.842-37.09-88.16-55.635-132.24a6.9,6.9,0,0,1,3.412-8.653c33.07-14.4,66.5-27.976,99.742-41.963A5.837,5.837,0,0,1,305.662,181.275Z" transform="translate(-122.377 -163.314)" fill="#41146c"/>
            <path id="Path_832" data-name="Path 832" d="M285.745,267.783l-76.21,77.982a3.769,3.769,0,0,1-5.33.062l-103.2-100.851a3.77,3.77,0,0,1-.062-5.331l76.211-77.982a3.771,3.771,0,0,1,5.332-.062l103.2,100.852A3.767,3.767,0,0,1,285.745,267.783Z" transform="translate(-97.552 -158.134)" fill="#ffcf91" fill-rule="evenodd"/>
            <path id="Path_833" data-name="Path 833" d="M285.745,267.783l-76.21,77.982a3.769,3.769,0,0,1-5.33.062l-103.2-100.851a3.77,3.77,0,0,1-.062-5.331l76.211-77.982a3.771,3.771,0,0,1,5.332-.062l103.2,100.852A3.767,3.767,0,0,1,285.745,267.783Z" transform="translate(-97.552 -158.134)" fill="rgba(255,255,255,0.3)"/>
            <path id="Path_834" data-name="Path 834" d="M285.745,267.783l-76.21,77.982a3.769,3.769,0,0,1-5.33.062l-103.2-100.851a3.77,3.77,0,0,1-.062-5.331l76.211-77.982a3.771,3.771,0,0,1,5.332-.062l103.2,100.852A3.767,3.767,0,0,1,285.745,267.783Z" transform="translate(-97.552 -158.134)" fill="rgba(255,255,255,0.3)"/>
            <path id="Path_835" data-name="Path 835" d="M179.158,157.337a6.376,6.376,0,0,1,4.118,1.645C218.137,192.2,252.157,226.3,286.6,259.954a6.36,6.36,0,0,1,.2,8.592c-25.112,26.356-50.886,52.072-76.33,78.108a6.362,6.362,0,0,1-8.592.2c-34.861-33.221-68.881-67.315-103.321-100.971a6.359,6.359,0,0,1-.2-8.592c25.113-26.355,50.887-52.072,76.33-78.108A5.832,5.832,0,0,1,179.158,157.337Zm-.125,4.789a1.428,1.428,0,0,0-.884.363q-39.625,37.551-76.311,78.086a1.421,1.421,0,0,0,.047,1.865c34,34.076,67.6,68.618,103.275,100.927a1.421,1.421,0,0,0,1.865-.047c25.762-25.689,51.861-51.1,76.286-78.061a1.421,1.421,0,0,0-.046-1.864c-34-34.077-67.6-68.61-103.275-100.929A1.423,1.423,0,0,0,179.033,162.126Z" transform="translate(-96.779 -157.337)" fill="#41146c"/>
            <path id="Path_836" data-name="Path 836" d="M192.7,213.721a1.494,1.494,0,0,1,.927,2.438l-42.957,43.956c-1.125,1.033-3.433-.436-2.055-2.009l42.957-43.956A1.213,1.213,0,0,1,192.7,213.721Z" transform="translate(-109.616 -171.416)" fill="#41146c"/>
            <path id="Path_837" data-name="Path 837" d="M217.325,227.476a1.45,1.45,0,0,1,1.019,2.381c-3.655,3.956-7.527,7.706-11.291,11.557-.977.945-1.322.587-1.91.129a1.483,1.483,0,0,1-.2-2.078c3.655-3.956,7.527-7.7,11.291-11.557A1.245,1.245,0,0,1,217.325,227.476Z" transform="translate(-123.704 -174.851)" fill="#41146c"/>
            <path id="Path_838" data-name="Path 838" d="M188.339,252.729a1.141,1.141,0,0,1,.924.486,1.376,1.376,0,0,1-.059,1.946l-24.447,25.015c-1.107,1.042-3.465-.441-2.055-2.009l24.447-25.015A1.268,1.268,0,0,1,188.339,252.729Z" transform="translate(-113.131 -181.155)" fill="#41146c"/>
            <path id="Path_839" data-name="Path 839" d="M220.9,241.234a1.494,1.494,0,0,1,.927,2.438l-42.957,43.956c-.956.878-1.362.516-1.852.173a1.512,1.512,0,0,1-.2-2.182l42.957-43.956A1.213,1.213,0,0,1,220.9,241.234Z" transform="translate(-116.672 -178.286)" fill="#41146c"/>
            <path id="Path_840" data-name="Path 840" d="M234.878,255.31a1.486,1.486,0,0,1,.929,2.438L192.849,301.7c-1.1,1.01-3.5-.362-2.055-2.009l42.958-43.956A1.21,1.21,0,0,1,234.878,255.31Z" transform="translate(-120.142 -181.801)" fill="#41146c"/>
            <path id="Path_841" data-name="Path 841" d="M254.39,268.765c2.453.233,1.587,1.732.953,2.44l-26.466,27.082c-2.14,2.01-3.089-.858-2.055-2.009L253.287,269.2A1.082,1.082,0,0,1,254.39,268.765Z" transform="translate(-129.146 -185.16)" fill="#41146c"/>
            <path id="Path_842" data-name="Path 842" d="M215.333,314.505a1.5,1.5,0,0,1,1.038,2.387c-3.072,3.31-6.312,6.461-9.468,9.691-1.044,1.015-3.329-.491-2.105-1.954,3.072-3.31,6.312-6.462,9.467-9.692A1.257,1.257,0,0,1,215.333,314.505Z" transform="translate(-123.664 -196.582)" fill="#41146c"/>
            <path id="Path_843" data-name="Path 843" d="M256.655,291.482a1.5,1.5,0,0,1,.863,2.432l-36.624,37.475c-1.087,1-3.48-.4-2.055-2.008l36.624-37.475C255.952,291.453,255.964,291.437,256.655,291.482Z" transform="translate(-127.147 -190.829)" fill="#41146c"/>
            <path id="Path_844" data-name="Path 844" d="M269.416,216.072l59.541,58.123a6.14,6.14,0,0,1,.049,8.737l-2.492,2.489-59.988,61.26,1.982,5.409,68.884-70.261a5.626,5.626,0,0,0-.135-8.011L274.5,213.991Z" transform="translate(-139.165 -171.484)" fill="rgba(0,0,0,0.25)" style="mix-blend-mode: overlay;isolation: isolate"/>
            <path id="Path_845" data-name="Path 845" d="M404.939,357.037c2.694.178,2.262,7.324-1.989,8.426a1.459,1.459,0,0,1-.719-2.808C404.657,361.37,402.119,356.961,404.939,357.037Z" transform="translate(-172.816 -207.202)" fill="#41146c"/>
          </g>
          <g id="Group_50" data-name="Group 50" transform="translate(103.491 319.964)">
            <path id="Path_846" data-name="Path 846" d="M352.456,602.6l-5.522-11.227c8.741-2.492,14.612-2.934,15.693-.761C363.69,592.783,359.749,597.187,352.456,602.6Z" transform="translate(-262.734 -585.14)" fill="#fff"/>
            <path id="Path_847" data-name="Path 847" d="M358.015,586.338c.255,0,.509.009.764.023,2.592.146,6.022,1.627,5.362,5.168-.91,4.893-6.158,8.376-11.129,12.078,0,0-2.311.955-3.221-.778L344.27,591.6a1.557,1.557,0,0,1-.187-1.337c.434-2.379,4.845-2.681,8.379-3.336A30.213,30.213,0,0,1,358.015,586.338Zm-.224,4.31a36.469,36.469,0,0,0-8.3,1.35l-.2.05,3.21,6.526c2.928-2.306,6.454-4.916,7.361-7.676A13.837,13.837,0,0,0,357.791,590.648Z" transform="translate(-262.004 -584.423)" fill="#41146c"/>
            <path id="Path_848" data-name="Path 848" d="M329.712,603.314c-7.985,5.956-19.969,13.111-33.829,19.931a239.645,239.645,0,0,1-34.127,14.031l-5.906-11.95a241.2,241.2,0,0,1,31.919-18.52c13.859-6.838,26.855-12,36.421-14.718Z" transform="translate(-239.99 -585.859)" fill="#ff88b3" fill-rule="evenodd"/>
            <path id="Path_849" data-name="Path 849" d="M323.643,589.221c1.152.147,1.25.253,1.786,1.2l5.521,11.227c.482,1.141.086,2.144-1.42,3.252-15.7,11.448-33.286,20.271-51.354,27.717-5.264,2.171-10.6,4.172-16.04,5.867,0,0-2.117.611-3.007-.968l-5.906-11.95c-.583-1.361.529-2.61,1.84-3.524a237.215,237.215,0,0,1,65.975-32.195A11.6,11.6,0,0,1,323.643,589.221Zm-1.357,4.752a236.8,236.8,0,0,0-63.994,31.077l-.385.264,4.269,8.638c17.262-5.516,34.026-13.627,49.96-22.937,4.816-2.813,9.544-5.786,14.078-9.035l-3.852-8.03Z" transform="translate(-239.294 -585.143)" fill="#41146c"/>
            <path id="Path_850" data-name="Path 850" d="M242.491,652.062l-4.984,2.457" transform="translate(-235.41 -600.835)" fill="#fff"/>
            <path id="Path_851" data-name="Path 851" d="M241.849,649.19c1.882.077,2.75,3.071.955,4.058-2.855,1.462-5.849,3.637-7.465,2.13a2.248,2.248,0,0,1,.459-3.479C237.793,650.877,239.741,649.169,241.849,649.19Z" transform="translate(-234.712 -600.117)" fill="#41146c"/>
            <path id="Path_852" data-name="Path 852" d="M252.861,636.385l-8.394,9.295a2.165,2.165,0,0,0,1.8,3.66l12.485-1Z" transform="translate(-236.995 -596.92)" fill="#fff"/>
            <path id="Path_853" data-name="Path 853" d="M252.242,633.513a2.245,2.245,0,0,1,1.856,1.2l5.9,11.957a1.579,1.579,0,0,1,.175,1.4,2.088,2.088,0,0,1-1.936,1.7c-4.19.335-8.379.705-12.572,1.005-3.3.173-6.221-4.063-3.547-7.194,2.79-3.144,5.634-6.24,8.451-9.361A1.9,1.9,0,0,1,252.242,633.513ZM245.377,646.4c-.062.07.035.073.035.073l9.31-.745-3.087-6.26Z" transform="translate(-236.3 -596.203)" fill="#41146c"/>
            <path id="Path_854" data-name="Path 854" d="M325.554,583.786a15.4,15.4,0,0,1,11.456,5.766,2.586,2.586,0,0,1,.41,1.955c-.47,1.669-2.668,1.9-4.181.279-3.46-3.64-8.772-4.651-14.153-1.554-3.955,2.276-7.223,5.559-10.341,8.842-2.836,2.955-8.411,4.692-9.807.329-.731-2.285.852-5.478,2.982-5.184a2.253,2.253,0,0,1,1.393,3.486c2.853-.563,4.669-4.405,7.909-7.169C315.457,586.922,320.156,583.779,325.554,583.786Z" transform="translate(-250.704 -583.786)" fill="#41146c"/>
          </g>
        </g>
      </g>
    </g>
  </g>
</svg>
