<svg xmlns="http://www.w3.org/2000/svg" width="20" height="20" viewBox="0 0 20 20"><defs><style>.a{fill:#333;}</style></defs><path class="a" d="M651.5,286a.8.8,0,0,1,.8-.8h3.663V283.31a.8.8,0,1,1,1.6,0v5.38a.8.8,0,1,1-1.6,0V286.8H652.3A.8.8,0,0,1,651.5,286Zm19.2-.8H659.343a.8.8,0,0,0,0,1.606H670.7a.8.8,0,0,0,0-1.606ZM652.3,280.3h10.168a.8.8,0,0,0,0-1.606H652.3a.8.8,0,0,0,0,1.606ZM670.7,278.69h-4.849V276.8a.8.8,0,1,0-1.605,0v5.38a.8.8,0,1,0,1.605,0V280.3H670.7a.8.8,0,0,0,0-1.606Zm0,13.014h-8.456a.8.8,0,1,0,0,1.606H670.7a.8.8,0,0,0,0-1.606Zm-11.032-2.69a.8.8,0,0,0-.8.8V291.7H652.3a.8.8,0,0,0,0,1.606h6.56V295.2a.8.8,0,1,0,1.605,0v-5.38A.8.8,0,0,0,659.665,289.014Z" transform="translate(-651.5 -276)"/></svg>