<svg xmlns="http://www.w3.org/2000/svg" width="16.165" height="13.575" viewBox="0 0 16.165 13.575">
  <g id="user" transform="translate(0.75 0.826)">
    <path id="Path_2728" data-name="Path 2728" d="M12.166,26.5V25.166A2.666,2.666,0,0,0,9.5,22.5H4.166A2.666,2.666,0,0,0,1.5,25.166V26.5" transform="translate(-1.5 -14.501)" fill="none" stroke="#4d4f5c" stroke-linecap="round" stroke-linejoin="round" stroke-width="1.5"/>
    <path id="Path_2729" data-name="Path 2729" d="M12.833,7.166A2.666,2.666,0,1,1,10.166,4.5,2.666,2.666,0,0,1,12.833,7.166Z" transform="translate(-4.834 -4.5)" fill="none" stroke="#4d4f5c" stroke-linecap="round" stroke-linejoin="round" stroke-width="1.5"/>
    <path id="Path_2730" data-name="Path 2730" d="M32,26.608V25.275a2.666,2.666,0,0,0-2-2.58" transform="translate(-17.334 -14.609)" fill="none" stroke="#4d4f5c" stroke-linecap="round" stroke-linejoin="round" stroke-width="1.5"/>
    <path id="Path_2731" data-name="Path 2731" d="M24,4.7a2.666,2.666,0,0,1,0,5.166" transform="translate(-14.001 -4.608)" fill="none" stroke="#4d4f5c" stroke-linecap="round" stroke-linejoin="round" stroke-width="1.5"/>
  </g>
</svg>
