<?xml version="1.0" encoding="utf-8"?>
<!-- Generator: Adobe Illustrator 24.1.2, SVG Export Plug-In . SVG Version: 6.00 Build 0)  -->
<svg version="1.1" id="Capa_1" xmlns="http://www.w3.org/2000/svg" xmlns:xlink="http://www.w3.org/1999/xlink" x="0px" y="0px"
	 width="30px" height="30px" viewBox="0 0 30 30" style="enable-background:new 0 0 30 30;" xml:space="preserve">
<style type="text/css">
	.st0{fill:#FFFFFF;}
</style>
<g>
	<g>
		<path class="st0" d="M15,0.4C6.9,0.4,0.4,6.9,0.4,15S6.9,29.6,15,29.6S29.6,23.1,29.6,15C29.6,6.9,23.1,0.4,15,0.4z M21.2,15.5
			c-0.1,0.2-0.3,0.4-0.5,0.5v0l-8.4,4.2c-0.5,0.3-1.1,0-1.4-0.5c-0.1-0.1-0.1-0.3-0.1-0.5v-8.4c0-0.6,0.5-1,1-1c0.2,0,0.3,0,0.5,0.1
			l8.4,4.2C21.2,14.3,21.4,14.9,21.2,15.5z"/>
	</g>
</g>
</svg>
