<svg id="visibility" xmlns="http://www.w3.org/2000/svg" width="15.992" height="15.992" viewBox="0 0 15.992 15.992">
  <path id="Path_2605" data-name="Path 2605" d="M3.249,159.124a4.728,4.728,0,0,1,1.158-3.1,13.011,13.011,0,0,0-4.295,2.833.381.381,0,0,0,0,.541,12.985,12.985,0,0,0,4.295,2.833,4.726,4.726,0,0,1-1.158-3.1Z" transform="translate(0 -151.128)" fill="#4d4f5c"/>
  <path id="Path_2606" data-name="Path 2606" d="M369.45,156.04a4.738,4.738,0,0,1,0,6.207,13.011,13.011,0,0,0,4.295-2.833.381.381,0,0,0,0-.541A12.985,12.985,0,0,0,369.45,156.04Z" transform="translate(-357.865 -151.147)" fill="#4d4f5c"/>
  <path id="Path_2607" data-name="Path 2607" d="M137.426,133.62a3.806,3.806,0,1,0,3.806,3.806A3.81,3.81,0,0,0,137.426,133.62Zm0,5.594a1.787,1.787,0,1,1,1.787-1.787A1.789,1.789,0,0,1,137.426,139.214Z" transform="translate(-129.43 -129.43)" fill="#4d4f5c"/>
  <circle id="Ellipse_87" data-name="Ellipse 87" cx="1" cy="1" r="1" transform="translate(7 6.992)" fill="#4d4f5c"/>
  <path id="Path_2608" data-name="Path 2608" d="M240.47,2.037a.47.47,0,0,0,.47-.47V.47a.47.47,0,0,0-.941,0v1.1A.47.47,0,0,0,240.47,2.037Z" transform="translate(-232.474)" fill="#4d4f5c"/>
  <path id="Path_2609" data-name="Path 2609" d="M337.052,23.979a.47.47,0,0,0,.642-.176l.625-1.1a.47.47,0,1,0-.817-.466l-.625,1.1A.47.47,0,0,0,337.052,23.979Z" transform="translate(-326.253 -21.314)" fill="#4d4f5c"/>
  <path id="Path_2610" data-name="Path 2610" d="M123.93,23.8a.47.47,0,1,0,.817-.466l-.625-1.1a.47.47,0,0,0-.817.466Z" transform="translate(-119.379 -21.314)" fill="#4d4f5c"/>
  <path id="Path_2611" data-name="Path 2611" d="M240.47,445.042a.47.47,0,0,0-.47.47v1.1a.47.47,0,1,0,.941,0v-1.1A.47.47,0,0,0,240.47,445.042Z" transform="translate(-232.474 -431.087)" fill="#4d4f5c"/>
  <path id="Path_2612" data-name="Path 2612" d="M124.573,423.1a.47.47,0,0,0-.642.176l-.625,1.1a.47.47,0,1,0,.817.466l.625-1.1A.47.47,0,0,0,124.573,423.1Z" transform="translate(-119.38 -409.768)" fill="#4d4f5c"/>
  <path id="Path_2613" data-name="Path 2613" d="M337.693,423.27a.47.47,0,0,0-.817.466l.625,1.1a.47.47,0,1,0,.817-.466Z" transform="translate(-326.253 -409.768)" fill="#4d4f5c"/>
</svg>
