<svg xmlns="http://www.w3.org/2000/svg" width="60" height="49.581" viewBox="0 0 60 49.581">
  <g id="whitelabel-icon" transform="translate(-290.965 -37.638)">
    <path id="Path_2721" data-name="Path 2721" d="M290.965,37.638V87.219h36.372V74.754h12V37.638Zm15.814,31.721h-3.442V52.894h3.442Zm20.651,0h-9.488c-4.837,0-8.465-3.163-8.465-8.465a8.373,8.373,0,1,1,16.744,0c0,2.326-.93,4.651-3.07,5.581h4.372l-.093,2.884Zm-9.581-13.488a5.131,5.131,0,1,0,4.744,5.116A4.914,4.914,0,0,0,317.849,55.871Z" transform="translate(0)"/>
    <g id="Group_1026" data-name="Group 1026" transform="translate(341.756 37.638)">
      <path id="Path_2722" data-name="Path 2722" d="M346.867,38.475h-1.3v-.837H349.1v.837h-1.3V42.01h-.93V38.475Z" transform="translate(-345.565 -37.638)"/>
      <path id="Path_2723" data-name="Path 2723" d="M350.065,37.638h1.488l1.023,2.884h0l1.023-2.884h1.488V42.1h-.93V38.661h0l-1.209,3.349H352.2l-1.116-3.349h0V42.01h-.93l-.093-4.372Z" transform="translate(-345.879 -37.638)"/>
    </g>
    <path id="Path_2724" data-name="Path 2724" d="M331.965,89.02l9.488-9.581h-9.488Z" transform="translate(-2.86 -2.916)"/>
  </g>
</svg>
