<svg xmlns="http://www.w3.org/2000/svg" width="11.615" height="14.6" viewBox="0 0 11.615 14.6">
  <g id="bin" transform="translate(0.311 0.77)">
    <path id="Path_2288" data-name="Path 2288" d="M222.715,154.7c-.175,0-.317.107-.317.239v4.521c0,.132.142.239.317.239s.317-.107.317-.239v-4.521C223.032,154.81,222.89,154.7,222.715,154.7Zm0,0" transform="translate(-215.347 -148.87)" fill="#fff" stroke="#fff" stroke-width="0.6"/>
    <path id="Path_2289" data-name="Path 2289" d="M104.715,154.7c-.175,0-.317.107-.317.239v4.521c0,.132.142.239.317.239s.317-.107.317-.239v-4.521C105.032,154.81,104.89,154.7,104.715,154.7Zm0,0" transform="translate(-101.09 -148.87)" fill="#fff" stroke="#fff" stroke-width="0.6"/>
    <path id="Path_2290" data-name="Path 2290" d="M.9,3.952v7.869a1.769,1.769,0,0,0,.465,1.215A1.557,1.557,0,0,0,2.5,13.53h6a1.557,1.557,0,0,0,1.133-.493,1.769,1.769,0,0,0,.465-1.215V3.952a1.221,1.221,0,0,0-.311-2.4H8.161V.791A1.259,1.259,0,0,0,7.8-.1,1.242,1.242,0,0,0,6.9-.47H4.088A1.242,1.242,0,0,0,3.2-.1a1.259,1.259,0,0,0-.366.9v.762H1.208A1.221,1.221,0,0,0,.9,3.952Zm7.6,8.939h-6a1.009,1.009,0,0,1-.964-1.07V3.98h7.93v7.841a1.009,1.009,0,0,1-.964,1.07ZM3.467.791a.617.617,0,0,1,.18-.444A.609.609,0,0,1,4.088.169H6.9a.609.609,0,0,1,.442.179.617.617,0,0,1,.18.444v.762H3.467Zm-2.258,1.4H9.785a.575.575,0,0,1,0,1.15H1.208a.575.575,0,0,1,0-1.15Zm0,0" transform="translate(0 0)" fill="#fff" stroke="#fff" stroke-width="0.6"/>
    <path id="Path_2291" data-name="Path 2291" d="M163.715,154.7c-.175,0-.317.107-.317.239v4.521c0,.132.142.239.317.239s.317-.107.317-.239v-4.521C164.032,154.81,163.89,154.7,163.715,154.7Zm0,0" transform="translate(-158.218 -148.87)" fill="#fff" stroke="#fff" stroke-width="0.6"/>
  </g>
</svg>
