<svg xmlns="http://www.w3.org/2000/svg" width="772.355" height="635.238" viewBox="0 0 772.355 635.238">
  <g id="Data" transform="translate(-107.777 132.654)">
    <g id="Data-2" data-name="Data" transform="translate(107.777 -132.654)">
      <g id="Elements">
        <g id="Group_70" data-name="Group 70">
          <g id="Element" transform="translate(0 30.79)">
            <g id="Shape" transform="translate(50.454)">
              <path id="Path_981" data-name="Path 981" d="M566.047-29.418A191,191,0,0,0,463.191-58.962c-107.547.28-194.395,90.053-191.272,197.556a191.139,191.139,0,0,0,4.281,35.14,121.2,121.2,0,0,0-89.059,112.079c-2.678,68.966,53.57,125.925,122.587,125.925H802.275c54.936,0,99.686-45.529,97.131-100.407a95.886,95.886,0,0,0-95.769-91.344c-.326,0-.652,0-.977.016A132.76,132.76,0,0,0,646.206,73.511,192.014,192.014,0,0,0,593.142-8.728" transform="translate(-184.74 77.222)" fill="#fff"/>
              <path id="Path_982" data-name="Path 982" d="M462.922-62.476A194.958,194.958,0,0,1,565.6-32.967a4.6,4.6,0,0,1,1.883,2.107l.028,1.038-.372.97-.714.753-.949.423A24.713,24.713,0,0,1,560-30.155C510.6-59.832,447.9-65.208,394.445-44.413c-60.727,23.624-107.455,80.1-118.464,145.052a190.186,190.186,0,0,0,1.661,71.679s1.008,2.263-4.179,3.779c-43.591,12.976-78.1,52.293-83.968,98.623-5.667,44.778,16.692,91.764,56.33,115.921a121.283,121.283,0,0,0,61.952,17.581q246.979,1.192,493.965,0c38.068-.308,74.728-25.222,88.177-61.243a93.693,93.693,0,0,0-5.53-76.49c-15.548-28.544-46.674-47.752-79.281-48.655-1.422-.039-3.491-.022-3.491-.022l-1.128-.2-.942-.654-.578-.988-.111-1.139A130.009,130.009,0,0,0,645.536,75.276s-2.077.817-4.258-5.461a192.428,192.428,0,0,0-51.1-77.433l-.614-.838a3.513,3.513,0,0,1-.086-2.037l.538-.888a3.523,3.523,0,0,1,1.848-.859,18.405,18.405,0,0,1,4.193,2.815,196.137,196.137,0,0,1,50.764,78.993s3.739-.562,7.031-.95a137.295,137.295,0,0,1,105.437,32.867c32.021,28.24,49.339,72.286,45.189,114.942,0,0,3.556.154,6.572.415,29.488,2.544,57.552,19.332,73.855,44.167,20.18,30.74,21.267,73.118,1.6,104.987-17.764,28.782-50.5,47.385-85.059,47.553q-246.645.4-493.29,0c-46.921-.226-92.884-28.64-113.247-71.738-19.436-41.135-13.542-93,15.218-129.117A125.39,125.39,0,0,1,271.921,171q-.137-.675-.27-1.349c-10.272-52.644,2.364-109.139,34.092-152.339C340.155-29.542,395.9-59.873,454.393-62.308,457.233-62.426,460.069-62.476,462.922-62.476Z" transform="translate(-183.58 78.397)" fill="#41146c"/>
              <path id="Path_983" data-name="Path 983" d="M566.047-29.418A191,191,0,0,0,463.191-58.962c-107.547.28-194.395,90.053-191.272,197.556a191.139,191.139,0,0,0,4.281,35.14,121.2,121.2,0,0,0-89.059,112.079c-2.678,68.966,53.57,125.925,122.587,125.925H802.275c54.936,0,99.686-45.529,97.131-100.407a95.886,95.886,0,0,0-95.769-91.344c-.326,0-.652,0-.977.016A132.76,132.76,0,0,0,646.206,73.511,192.014,192.014,0,0,0,593.142-8.728" transform="translate(-184.74 77.222)" fill="#fff"/>
              <path id="Path_984" data-name="Path 984" d="M462.922-62.476A194.958,194.958,0,0,1,565.6-32.967a4.6,4.6,0,0,1,1.883,2.107l.028,1.038-.372.97-.714.753-.949.423A24.713,24.713,0,0,1,560-30.155C510.6-59.832,447.9-65.208,394.445-44.413c-60.727,23.624-107.455,80.1-118.464,145.052a190.186,190.186,0,0,0,1.661,71.679s1.008,2.263-4.179,3.779c-43.591,12.976-78.1,52.293-83.968,98.623-5.667,44.778,16.692,91.764,56.33,115.921a121.283,121.283,0,0,0,61.952,17.581q246.979,1.192,493.965,0c38.068-.308,74.728-25.222,88.177-61.243a93.693,93.693,0,0,0-5.53-76.49c-15.548-28.544-46.674-47.752-79.281-48.655-1.422-.039-3.491-.022-3.491-.022l-1.128-.2-.942-.654-.578-.988-.111-1.139A130.009,130.009,0,0,0,645.536,75.276s-2.077.817-4.258-5.461a192.428,192.428,0,0,0-51.1-77.433l-.614-.838a3.513,3.513,0,0,1-.086-2.037l.538-.888a3.523,3.523,0,0,1,1.848-.859,18.405,18.405,0,0,1,4.193,2.815,196.137,196.137,0,0,1,50.764,78.993s3.739-.562,7.031-.95a137.295,137.295,0,0,1,105.437,32.867c32.021,28.24,49.339,72.286,45.189,114.942,0,0,3.556.154,6.572.415,29.488,2.544,57.552,19.332,73.855,44.167,20.18,30.74,21.267,73.118,1.6,104.987-17.764,28.782-50.5,47.385-85.059,47.553q-246.645.4-493.29,0c-46.921-.226-92.884-28.64-113.247-71.738-19.436-41.135-13.542-93,15.218-129.117A125.39,125.39,0,0,1,271.921,171q-.137-.675-.27-1.349c-10.272-52.644,2.364-109.139,34.092-152.339C340.155-29.542,395.9-59.873,454.393-62.308,457.233-62.426,460.069-62.476,462.922-62.476Z" transform="translate(-183.58 78.397)" fill="#41146c"/>
              <path id="Path_985" data-name="Path 985" d="M819.875,37.462a2.2,2.2,0,0,1,1.589.889A195.108,195.108,0,0,1,865.79,131.7q.148.848.289,1.7c.97,5.857-4.417,4.853-5.118,1.7q-.136-.829-.275-1.656a190.183,190.183,0,0,0-42.992-91.31,3.515,3.515,0,0,1-.895-2.318A2.758,2.758,0,0,1,819.875,37.462Z" transform="translate(-395.324 44.983)" fill="#41146c"/>
              <path id="Path_986" data-name="Path 986" d="M343.153,283.271a121.686,121.686,0,0,1,63.737,18.562,5.4,5.4,0,0,1,2.32,2.015c1.01,2.293-1.5,4.834-4.737,2.758a117.5,117.5,0,0,0-87.638-15.124,3.3,3.3,0,0,1-2.739-1.028c-1.195-1.639-.077-3.81,2.78-4.436A123.85,123.85,0,0,1,343.153,283.271Z" transform="translate(-227.066 -37.22)" fill="#41146c"/>
              <path id="Path_987" data-name="Path 987" d="M421.8-86.386c1.617.339,1.844,2.33-.653,3.568a193.966,193.966,0,0,0-61.372,48.263,2.193,2.193,0,0,1-1.183.566c-1.415.032-2.25-1.464-.436-3.6A198.28,198.28,0,0,1,420.863-86.24,1.683,1.683,0,0,1,421.8-86.386Z" transform="translate(-241.611 86.395)" fill="#41146c"/>
            </g>
            <g id="Group_60" data-name="Group 60" transform="translate(95.475 359.964)">
              <path id="Path_988" data-name="Path 988" d="M296.181,520.107a20.729,20.729,0,1,1,20.729-20.729,20.73,20.73,0,0,1-20.729,20.729m42.424-24.2a2.537,2.537,0,0,0-1.912-2.256L330.084,492a.66.66,0,0,1-.485-.493q-.24-1.02-.538-2.016a.663.663,0,0,1,.172-.671l4.9-4.743a2.535,2.535,0,0,0,.528-2.911,42.6,42.6,0,0,0-3.477-6.007,2.539,2.539,0,0,0-2.783-.994l-6.749,1.93a.337.337,0,0,1-.339-.095c-.562-.606-1.149-1.189-1.752-1.752a.341.341,0,0,1-.1-.344l1.932-6.748a2.538,2.538,0,0,0-1-2.783,43.04,43.04,0,0,0-6.006-3.474,2.541,2.541,0,0,0-2.912.528l-4.741,4.9a.662.662,0,0,1-.669.173q-1-.3-2.017-.541a.661.661,0,0,1-.494-.484l-1.656-6.607a2.539,2.539,0,0,0-2.255-1.912c-1.143-.093-2.3-.142-3.47-.142s-2.327.049-3.47.142a2.539,2.539,0,0,0-2.255,1.912l-1.656,6.607a.663.663,0,0,1-.494.484q-1.022.241-2.017.541a.662.662,0,0,1-.669-.173l-4.741-4.9a2.542,2.542,0,0,0-2.913-.528,42.754,42.754,0,0,0-6.006,3.477,2.536,2.536,0,0,0-1,2.782l1.876,6.559a.661.661,0,0,1-.185.666q-.761.714-1.472,1.47a.663.663,0,0,1-.668.186l-6.558-1.874a2.539,2.539,0,0,0-2.783.994,42.525,42.525,0,0,0-3.477,6.007,2.535,2.535,0,0,0,.529,2.911l4.9,4.743a.663.663,0,0,1,.172.671q-.3.994-.539,2.016a.656.656,0,0,1-.483.493l-6.609,1.654a2.537,2.537,0,0,0-1.912,2.256q-.139,1.717-.14,3.468t.14,3.471a2.536,2.536,0,0,0,1.912,2.256l6.607,1.652a.667.667,0,0,1,.485.5q.239,1.017.537,2.013a.67.67,0,0,1-.172.671l-4.9,4.743a2.54,2.54,0,0,0-.526,2.911,42.494,42.494,0,0,0,3.479,6.006,2.538,2.538,0,0,0,2.781,1l6.56-1.874a.667.667,0,0,1,.666.186q.712.757,1.47,1.47a.664.664,0,0,1,.185.668l-1.874,6.558a2.539,2.539,0,0,0,1,2.783,42.735,42.735,0,0,0,6.006,3.474,2.538,2.538,0,0,0,2.913-.526l4.741-4.9a.662.662,0,0,1,.669-.172q1,.3,2.017.54a.664.664,0,0,1,.494.484l1.656,6.607a2.538,2.538,0,0,0,2.255,1.912c1.143.093,2.3.142,3.47.142s2.327-.049,3.47-.142a2.538,2.538,0,0,0,2.255-1.912l1.656-6.607a.662.662,0,0,1,.494-.484q1.022-.24,2.017-.54a.662.662,0,0,1,.669.172l4.741,4.9a2.543,2.543,0,0,0,2.913.528,42.71,42.71,0,0,0,6.006-3.477,2.537,2.537,0,0,0,.994-2.781l-1.874-6.558a.667.667,0,0,1,.187-.67c.5-.473,1-.963,1.468-1.468a.665.665,0,0,1,.669-.188l6.559,1.874a2.538,2.538,0,0,0,2.781-1,42.559,42.559,0,0,0,3.479-6.006,2.536,2.536,0,0,0-.528-2.911l-4.9-4.743a.662.662,0,0,1-.17-.669c.2-.662.376-1.337.536-2.017a.663.663,0,0,1,.485-.494l6.609-1.654a2.536,2.536,0,0,0,1.912-2.256q.142-1.716.14-3.471t-.14-3.468" transform="translate(-252.02 -455.216)" fill="#fff"/>
              <path id="Path_989" data-name="Path 989" d="M328.448,471.667c3.619.168,6.187,5.288,7.112,8.7.481,1.775-1.111,4.048-1.111,4.048l-4.5,4.356c.132.475.269,1.012.269,1.012,4.28,1.07,8.922,1.47,9.227,5.862.265,4.153.577,9.226-3.158,10.2l-6.07,1.519c-.121.48-.268,1.012-.268,1.012,3.178,3.077,7.025,5.7,5.059,9.707a45.347,45.347,0,0,1-2.562,4.5c-1.217,1.874-3.131,3.333-5.277,2.742l-6.022-1.721c-.727.745-.737.737-.737.737,1.231,4.307,3.2,8.456-.455,10.928-3.486,2.328-7.7,5.124-10.415,2.374l-4.354-4.5c-1.008.283-1.013.272-1.013.272-1.082,4.317-1.468,8.92-5.863,9.223a45.178,45.178,0,0,1-5.19.039c-2.238-.114-4.452-1.042-5.013-3.2l-1.521-6.065c-1.016-.26-1.013-.272-1.013-.272-3.1,3.2-5.7,7.018-9.705,5.057-3.739-1.858-8.265-4.116-7.242-7.836l1.721-6.024c-.349-.343-.733-.735-.733-.735-4.251,1.215-8.457,3.2-10.928-.458-2.327-3.482-5.13-7.7-2.377-10.415l4.5-4.356c-.282-1.011-.27-1.014-.27-1.014-4.313-1.078-8.922-1.464-9.223-5.86a45.261,45.261,0,0,1-.039-5.188c.114-2.238,1.039-4.454,3.2-5.016l6.068-1.519c.121-.479.269-1.012.269-1.012-3.183-3.082-7.017-5.711-5.061-9.706,1.858-3.743,4.119-8.265,7.839-7.243l6.024,1.721c.343-.35.736-.735.736-.735-1.219-4.257-3.207-8.46.455-10.93a45.3,45.3,0,0,1,4.458-2.626c2-1.026,4.39-1.336,5.957.253l4.354,4.5c.479-.134,1.013-.272,1.013-.272,1.074-4.283,1.466-8.922,5.863-9.224a45.006,45.006,0,0,1,5.19-.039c2.238.114,4.452,1.042,5.013,3.2l1.521,6.066c.477.122,1.013.272,1.013.272,3.076-3.18,5.686-7.033,9.705-5.06,3.738,1.86,8.267,4.116,7.242,7.837l-1.724,6.022c.747.728.739.738.739.738C323.757,472.8,326.7,471.621,328.448,471.667Zm-58.241,48.649c1.542.266,2.849,2.2,2.849,2.2,1.54,1.779-.666,5.445-1.374,8.791-.36,1.883,4.15,3.839,6.361,4.37a.952.952,0,0,0,.872-.247c2.4-2.428,4.682-5.968,6.881-5.547,2.718.716,3.382.994,3.731,2.13.605,2.242.98,4.549,1.7,6.757.755,2.167,7.822,1.729,8.325-.053.921-3.537.964-7.688,3.824-8.4,2.925-.749,2.685-.769,3.66.138,1.644,1.643,3.124,3.456,4.852,5.009,1.441,1.246,5.347-1.631,6.959-3.337a.954.954,0,0,0,.219-.877c-.948-3.448-3-7.181-1.07-9.02,1.78-1.7.8-1.157,1.83-1.691,1.81-.937,5.192,1.07,8.291,1.727,1.883.359,3.849-4.177,4.373-6.361a.956.956,0,0,0-.248-.871c-2.43-2.39-5.965-4.705-5.546-6.883.721-2.753.988-3.391,2.137-3.735,2.244-.587,4.544-.972,6.747-1.693,1.8-.625,1.273-5.417.6-7.7a.953.953,0,0,0-.651-.629c-3.293-.859-7.5-1.074-8.238-3.184-.737-2.7-.837-3.419-.016-4.3,1.624-1.624,3.3-3.195,4.95-4.792,1.39-1.345-1.57-5.4-3.279-7.019a.954.954,0,0,0-.879-.218c-3.6.987-7.2,2.973-9.121.962-1.358-1.393-2.091-2.053-1.819-3.165.654-2.284,1.467-4.526,1.958-6.85.36-1.877-4.162-3.844-6.36-4.369a.957.957,0,0,0-.873.248c-2.412,2.443-4.727,6.166-7.018,5.51q-.364-.108-.731-.21c-2.556-.7-2.553-.877-2.863-1.882-.6-2.243-.98-4.55-1.7-6.757-.756-2.173-7.822-1.732-8.325.053-.861,3.307-.984,7.686-3.323,8.273-2.664.639-3.3.784-4.161-.018-1.643-1.643-3.124-3.455-4.851-5.007-1.746-1.508-7.636,2.416-7.179,4.216.905,3.3,2.77,7.112,1.365,8.735-1.957,1.972-2.535,2.435-3.715,2.158-2.24-.612-4.428-1.432-6.7-1.911-2.268-.434-5.419,5.9-4.123,7.23,2.429,2.392,5.962,4.712,5.548,6.884-.69,2.643-.976,3.387-2.139,3.735-2.243.587-4.543.976-6.748,1.693-2.2.765-1.6,7.859.055,8.328,3.449.9,7.712,1,8.335,3.582.582,2.407.6,1.274.548,2.438-.1,2.036-3.526,3.962-5.639,6.313-1.251,1.45,1.691,5.463,3.355,6.973a.956.956,0,0,0,.863.208c2.49-.688,4.75-2.053,7.354-1.962Zm25.316-44.067a22.33,22.33,0,0,1,8.3,43c-11.366,4.644-26.15-1.888-29.842-14.3-3.873-13.018,6.409-28.466,21.114-28.7C295.235,476.249,295.379,476.249,295.523,476.249Zm-.268,3.195a19.134,19.134,0,0,0-7.322,36.761c9.789,4.139,22.6-1.46,25.787-12.165,3.292-11.066-5.27-24.232-17.847-24.59C295.668,479.446,295.461,479.444,295.255,479.444Z" transform="translate(-251.218 -454.415)" fill="#dfd7e4"/>
            </g>
            <path id="Path_990" data-name="Path 990" d="M922.14,16.374V-36.48a3.4,3.4,0,0,1,5.376-2.762l38.921,27.9a1.589,1.589,0,0,1,0,2.584l-38.921,27.9A3.4,3.4,0,0,1,922.14,16.374Z" transform="translate(-380.099 70.842)" fill="#fff"/>
            <path id="Path_991" data-name="Path 991" d="M924.766-42.283a5.121,5.121,0,0,1,2.726.888c13.083,9.2,26,18.638,39.007,27.956a3.293,3.293,0,0,1,.07,5.115c-12.885,9.53-25.966,18.795-39.078,28.01-2.945,1.993-7.721.016-7.827-4.022q-.23-26.52,0-53.039A5.155,5.155,0,0,1,924.766-42.283Zm-.121,3.194a1.875,1.875,0,0,0-1.786,1.769c-.152,17.666-.785,35.35,0,53a1.871,1.871,0,0,0,2.816,1.376c13.065-9.183,26.1-18.413,38.942-27.911-12.861-9.509-25.606-19.213-39-27.951a1.832,1.832,0,0,0-.883-.281Z" transform="translate(-379.233 71.644)" fill="#dfd7e4"/>
            <path id="Path_992" data-name="Path 992" d="M719.424,244.191l-56.1,43.894a30.086,30.086,0,0,1-42.238-5.15l-43.9-56.113a30.093,30.093,0,0,1,5.166-42.236l56.1-43.894a30.1,30.1,0,0,1,42.24,5.149l43.9,56.113A30.088,30.088,0,0,1,719.424,244.191Z" transform="translate(-262.609 12.596)" fill="#fff"/>
            <path id="Path_993" data-name="Path 993" d="M656.59,131.9a32.216,32.216,0,0,1,24.462,11.834c14.936,18.727,29.578,37.684,44.28,56.595,9.949,12.97,8.122,33.4-5.4,44.191q-28.144,22.164-56.426,44.146c-12.966,9.948-33.381,8.168-44.194-5.389q-22.163-28.149-44.152-56.434c-10-13.031-7.962-33.53,5.4-44.191q28.143-22.162,56.424-44.146A32.141,32.141,0,0,1,656.59,131.9Zm-.367,3.194a28.912,28.912,0,0,0-17.284,5.94c-18.892,14.687-37.832,29.313-56.538,44.236-11.337,9.164-14.1,27.231-4.828,39.473q21.906,28.557,44.356,56.693c9.155,11.331,27.236,14.077,39.475,4.813q28.549-21.906,56.685-44.348c11.311-9.143,14.105-27.222,4.829-39.475q-21.9-28.557-44.355-56.693A29.023,29.023,0,0,0,656.736,135.1C656.564,135.094,656.393,135.094,656.222,135.094Z" transform="translate(-261.967 13.398)" fill="#dfd7e4"/>
            <g id="Group_61" data-name="Group 61" transform="translate(0 59.19)">
              <path id="Path_994" data-name="Path 994" d="M245.476,16.38,262.84,78.606a15.667,15.667,0,0,1-10.868,19.281L147.3,127.093a15.658,15.658,0,0,1-19.28-10.868L110.66,54a15.668,15.668,0,0,1,10.868-19.281L226.2,5.512a15.661,15.661,0,0,1,19.28,10.868Z" transform="translate(-108.548 -3.335)" fill="#fff"/>
              <path id="Path_995" data-name="Path 995" d="M229.757,2.534a17.613,17.613,0,0,1,16.432,12.423Q255.1,46.219,263.663,77.58a17.724,17.724,0,0,1-11.81,20.98c-34.9,9.995-69.929,19.515-104.9,29.271a17.7,17.7,0,0,1-21.183-11.77Q116.846,84.8,108.3,53.431a17.719,17.719,0,0,1,11.8-20.986C155,22.445,190.032,12.927,225,3.17A15.319,15.319,0,0,1,229.757,2.534Zm-.408,3.2a14.938,14.938,0,0,0-3.3.465c-35.019,9.511-69.905,19.5-104.857,29.257a14.464,14.464,0,0,0-9.807,17.156q8.546,31.327,17.457,62.557a14.443,14.443,0,0,0,17.083,9.636q52.609-14.314,105.03-29.308A14.457,14.457,0,0,0,260.576,78.4q-8.538-31.326-17.455-62.549A14.2,14.2,0,0,0,229.349,5.731Z" transform="translate(-107.777 -2.533)" fill="#dfd7e4"/>
              <path id="Path_996" data-name="Path 996" d="M274.241,117.849a15.585,15.585,0,0,1-9.661,7.834L159.913,154.891a15.6,15.6,0,0,1-12.126-1.579l35.764-46.592,0-.007,14.32-18.653Z" transform="translate(-121.156 -31.132)" fill="#fff"/>
              <path id="Path_997" data-name="Path 997" d="M197.383,85.7l.246.075L274,115.561c.7.342.672.463.8.687.6,1.028-.35,2.361-1.2,3.56a17.5,17.5,0,0,1-9.191,6.55c-34.9,9.985-69.929,19.515-104.894,29.272a17.492,17.492,0,0,1-13.176-1.635,1.552,1.552,0,0,1-.642-2.456l35.761-46.6,14.32-18.653A1.4,1.4,0,0,1,197.383,85.7Zm-13.347,21.136-34.627,45.122a14.217,14.217,0,0,0,9.075.645q52.61-14.31,105.029-29.308a14.293,14.293,0,0,0,7.561-5.443L197.585,89.183Z" transform="translate(-120.337 -30.332)" fill="#dfd7e4"/>
              <path id="Path_998" data-name="Path 998" d="M239.976,7.65,203.013,72.775a18.42,18.42,0,0,1-25.023,6.983L112.4,43.04a15.591,15.591,0,0,1,9.9-8.321L226.97,5.512A15.605,15.605,0,0,1,239.976,7.65Z" transform="translate(-109.323 -3.335)" fill="#fff"/>
              <path id="Path_999" data-name="Path 999" d="M230.4,2.532a17.515,17.515,0,0,1,9.189,2.742c.8.514,1.46,1.094.875,2.362L203.5,72.764c-5.21,9.052-17.64,12.855-27.186,7.587l-65.6-36.72c-2.128-1.438-.438-2.78.686-4.416a17.518,17.518,0,0,1,9.338-6.771c34.9-9.995,69.936-19.517,104.9-29.274A15.319,15.319,0,0,1,230.4,2.532Zm-.408,3.2a14.961,14.961,0,0,0-3.3.465c-35.018,9.511-69.9,19.5-104.856,29.257a14.345,14.345,0,0,0-8.183,6.161l64.212,35.946a17.311,17.311,0,0,0,22.861-6.379L236.917,7.406A12.973,12.973,0,0,0,229.99,5.73Z" transform="translate(-108.418 -2.532)" fill="#dfd7e4"/>
            </g>
            <g id="Group_62" data-name="Group 62" transform="translate(609.572 158.821)">
              <path id="Path_1000" data-name="Path 1000" d="M1174.2,264.813l-56.1,43.894a30.087,30.087,0,0,1-42.24-5.15l-43.9-56.113a30.092,30.092,0,0,1,5.165-42.236l56.1-43.893a30.1,30.1,0,0,1,42.24,5.149l43.9,56.113A30.086,30.086,0,0,1,1174.2,264.813Z" transform="translate(-1024.258 -153.122)" fill="#fff"/>
              <path id="Path_1001" data-name="Path 1001" d="M1111.35,152.218a32.2,32.2,0,0,1,24.462,11.835c14.936,18.725,29.578,37.685,44.279,56.594,10.005,13.045,7.98,33.516-5.4,44.192q-28.139,22.167-56.426,44.146c-13,9.975-33.378,8.166-44.194-5.389q-22.164-28.149-44.152-56.434c-9.945-12.964-8.154-33.376,5.4-44.191q28.142-22.165,56.427-44.146a32.187,32.187,0,0,1,19.224-6.607Zm-.369,3.4a28.914,28.914,0,0,0-17.283,5.94c-18.894,14.682-37.833,29.313-56.539,44.235-11.345,9.169-14.086,27.246-4.828,39.474q21.906,28.555,44.354,56.693c9.164,11.341,27.222,14.089,39.477,4.812q28.55-21.906,56.685-44.348c11.328-9.153,14.117-27.2,4.827-39.473q-21.9-28.558-44.353-56.693a29.062,29.062,0,0,0-21.826-10.638C1111.325,155.615,1111.153,155.615,1110.981,155.615Z" transform="translate(-1023.598 -152.218)" fill="#dfd7e4"/>
              <path id="Path_1002" data-name="Path 1002" d="M1148.453,307.753,1118.1,331.5a30.087,30.087,0,0,1-42.24-5.15l-43.9-56.113A30.093,30.093,0,0,1,1037.126,228l6.285-4.917,66.9,5.087a5.748,5.748,0,0,1,5.228,6.72l-9.427,53.96a10.116,10.116,0,0,0,7.872,11.628Z" transform="translate(-1024.258 -175.915)" fill="#fff"/>
              <path id="Path_1003" data-name="Path 1003" d="M1042.895,220.691c22.332,1.7,44.671,3.286,66.994,5.095a7.535,7.535,0,0,1,6.614,8.381c-2.808,18.145-6.452,36.152-9.478,54.262a8.739,8.739,0,0,0,6.652,9.687l34.47,7.274a1.655,1.655,0,0,1,.654,2.821c-10.171,7.959-20.317,15.95-30.515,23.873-13,9.976-33.329,8.05-44.066-5.229-14.934-18.727-29.578-37.684-44.28-56.594-10.051-13.1-7.9-33.719,5.563-44.316l6.288-4.917C1042.1,220.821,1042.075,220.691,1042.895,220.691Zm-5.421,7.766c-11.594,9.129-14.61,27.332-5.007,39.85,14.689,18.894,29.322,37.836,44.243,56.547,9.241,11.429,27.573,14.063,39.771,4.585l27.65-21.633c-10.422-2.2-20.859-4.33-31.265-6.6a12.01,12.01,0,0,1-9-13.287c3.024-18.1,6.665-36.09,9.471-54.222a4.3,4.3,0,0,0-3.733-4.732l-66.338-5.044Z" transform="translate(-1023.621 -175.115)" fill="#dfd7e4"/>
              <path id="Path_1004" data-name="Path 1004" d="M1204.494,289.586a13.282,13.282,0,1,1,2.276-18.645,13.283,13.283,0,0,1-2.276,18.645" transform="translate(-1076.911 -190.214)" fill="#fff"/>
              <path id="Path_1005" data-name="Path 1005" d="M1195.826,263.448c8.774.176,16.286,9.192,14.326,18.086-2.133,9.681-15.541,15.106-23.877,8.368-6.264-5.063-7.182-15.57-1.622-21.631A14.638,14.638,0,0,1,1195.826,263.448Zm-.326,3.195c-9.276.146-15.9,13.936-7.1,20.866,5.192,4.087,13.856,2.609,17.3-3.259,4.064-6.92-1.036-17.429-9.917-17.607C1195.64,266.641,1195.642,266.641,1195.5,266.643Z" transform="translate(-1076.226 -189.413)" fill="#dfd7e4"/>
            </g>
          </g>
          <g id="Group_63" data-name="Group 63" transform="translate(341.671 211.295)">
            <path id="Path_1006" data-name="Path 1006" d="M728.038,320.341H653.367a28.227,28.227,0,0,1-28.227-28.227v-74.67a28.226,28.226,0,0,1,28.225-28.226h74.672a28.226,28.226,0,0,1,28.225,28.226v74.672A28.226,28.226,0,0,1,728.038,320.341Z" transform="translate(-622.453 -186.275)" fill="#fff"/>
            <path id="Path_1007" data-name="Path 1007" d="M727.211,184.855c15.95.152,30.527,13.791,30.688,30.688q.117,37.681,0,75.361c-.152,16.006-14.006,30.528-30.688,30.688q-37.681.117-75.361,0c-15.891-.151-30.527-13.791-30.689-30.688q-.117-37.681,0-75.361c.152-15.976,13.792-30.527,30.689-30.688Q689.531,184.738,727.211,184.855Zm-75.158,5.324c-13.233.04-25.434,11.387-25.568,25.4-.078,25.154-.238,50.308,0,75.461.207,13.1,11.438,25.011,25.231,25.23q37.812.362,75.626,0c13.105-.206,25.013-11.454,25.23-25.23q.362-37.812,0-75.626c-.206-13.091-11.417-25.011-25.23-25.23C702.248,189.94,677.151,190.179,652.054,190.179Z" transform="translate(-621.103 -184.796)" fill="#41146c"/>
            <path id="Path_1008" data-name="Path 1008" d="M704.58,221.708q-1.345-.093-2.737-.093t-2.738.093a43.912,43.912,0,0,0,0,87.654q1.346.093,2.738.093t2.737-.093a43.912,43.912,0,0,0,0-87.654" transform="translate(-633.416 -197.108)" fill="#00bcff" fill-rule="evenodd"/>
            <path id="Path_1009" data-name="Path 1009" d="M704.58,221.708q-1.345-.093-2.737-.093t-2.738.093a43.912,43.912,0,0,0,0,87.654q1.346.093,2.738.093t2.737-.093a43.912,43.912,0,0,0,0-87.654" transform="translate(-633.416 -197.108)" fill="rgba(255,255,255,0.3)"/>
            <path id="Path_1010" data-name="Path 1010" d="M701.019,218.218c17.742.225,34.9,11.442,42.045,27.671,7.855,17.853,2.841,40.49-11.789,53.392a47.1,47.1,0,0,1-48.293,8.072c-18.307-7.563-30.451-27.877-28.4-47.655,2.3-22.172,22.079-41.181,45.7-41.48Zm-.694,4.658c-18.779.237-36.581,14.566-40.367,33.215a41.531,41.531,0,1,0,81.775,14.4c3.385-23.035-15.387-47.08-40.428-47.607C700.978,222.876,700.651,222.876,700.325,222.876Z" transform="translate(-632.224 -195.972)" fill="#41146c"/>
            <path id="Path_1011" data-name="Path 1011" d="M722.75,218.038a2.144,2.144,0,0,1,2.049,2.379v87.841c-.129,2.205-1.169,2.268-2.049,2.379a2.472,2.472,0,0,1-2.61-2.379V220.417A2.44,2.44,0,0,1,722.75,218.038Z" transform="translate(-654.221 -195.911)" fill="#41146c"/>
            <path id="Path_1012" data-name="Path 1012" d="M744.9,284.235c2.4.428,3.126,4.442-.288,4.643H656.766c-2.418-.142-3.659-4.444,0-4.659h87.841Z" transform="translate(-632.259 -218.043)" fill="#41146c"/>
            <path id="Path_1013" data-name="Path 1013" d="M680.2,233.865c2.446.468,4.486,3.825,7.726,5.827,14.571,9,35.341,7.282,47.2-5.055a2.9,2.9,0,0,1,2.52-.6c1.676.588,1.991,2.861.434,4.434-15.453,15.408-44.362,15.493-59.787-.407a2.994,2.994,0,0,1-.73-2.5A2.478,2.478,0,0,1,680.2,233.865Z" transform="translate(-639.958 -201.201)" fill="#41146c"/>
            <path id="Path_1014" data-name="Path 1014" d="M708.719,316.972c11.11.1,22.059,4.024,29.807,12.012,0,0,2,4.049-1.452,4.218-2.98.147-5.288-4.467-10.516-7.167-14.489-7.482-33.8-5.27-44.983,6.5,0,0-1.954,1.328-3.3.162-2.066-1.782,1.192-5.068,4.017-7.237C689.779,319.71,699.475,316.945,708.719,316.972Z" transform="translate(-640.003 -228.996)" fill="#41146c"/>
            <path id="Path_1015" data-name="Path 1015" d="M711.626,217.623c7.734.194,13.719,7.293,16.877,13.322q.859,1.638,1.585,3.341c9.728,22.659,8.154,52.834-5.728,69.48-4.35,5.216-11.4,8.995-18.651,5.756-7.479-3.339-11.607-11.279-14.233-18.611-8.047-22.472-6.761-50.845,7.565-66.947C702.259,220.345,706.149,217.578,711.626,217.623Zm-.349,4.791c-6.155.155-10.351,6.193-12.8,10.913-11.753,22.688-9.033,56.084,5.6,69.406,2.557,2.328,6.05,3.924,9.682,2.919,6.021-1.667,9.45-7.792,11.772-13.078,9.136-20.809,8.476-48.681-4.759-64.756-.278-.336-.564-.666-.862-.987C717.685,224.425,714.714,222.386,711.277,222.414Z" transform="translate(-642.984 -195.773)" fill="#41146c"/>
            <path id="Path_1016" data-name="Path 1016" d="M657.821,204.873c1.574.144,2.129,2.539-.156,3.28a13.731,13.731,0,0,0-8.522,8.4s-.6,1.082-1.528,1.072a1.707,1.707,0,0,1-1.364-2.475A16.9,16.9,0,0,1,657.031,205,1.664,1.664,0,0,1,657.821,204.873Z" transform="translate(-629.465 -191.509)" fill="#41146c"/>
          </g>
          <g id="Group_64" data-name="Group 64" transform="translate(576.47 214.238)">
            <path id="Path_1017" data-name="Path 1017" d="M1127.593,258.717l-24.9,66.74a30.086,30.086,0,0,1-38.7,17.68l-66.75-24.907a30.091,30.091,0,0,1-17.664-38.711l24.9-66.74a30.094,30.094,0,0,1,38.7-17.68L1109.928,220A30.087,30.087,0,0,1,1127.593,258.717Z" transform="translate(-975.136 -190.548)" fill="#00bcff" fill-rule="evenodd"/>
            <path id="Path_1018" data-name="Path 1018" d="M1127.593,258.717l-24.9,66.74a30.086,30.086,0,0,1-38.7,17.68l-66.75-24.907a30.091,30.091,0,0,1-17.664-38.711l24.9-66.74a30.094,30.094,0,0,1,38.7-17.68L1109.928,220A30.087,30.087,0,0,1,1127.593,258.717Z" transform="translate(-975.136 -190.548)" fill="rgba(255,255,255,0.3)"/>
            <path id="Path_1019" data-name="Path 1019" d="M1127.593,258.717l-24.9,66.74a30.086,30.086,0,0,1-38.7,17.68l-66.75-24.907a30.091,30.091,0,0,1-17.664-38.711l24.9-66.74a30.094,30.094,0,0,1,38.7-17.68L1109.928,220A30.087,30.087,0,0,1,1127.593,258.717Z" transform="translate(-975.136 -190.548)" fill="rgba(255,255,255,0.3)"/>
            <path id="Path_1020" data-name="Path 1020" d="M1127.593,258.717l-24.9,66.74a30.086,30.086,0,0,1-38.7,17.68l-66.75-24.907a30.091,30.091,0,0,1-17.664-38.711l24.9-66.74a30.094,30.094,0,0,1,38.7-17.68L1109.928,220A30.087,30.087,0,0,1,1127.593,258.717Z" transform="translate(-975.136 -190.548)" fill="rgba(255,255,255,0.3)"/>
            <path id="Path_1021" data-name="Path 1021" d="M1031.605,189.218a33.4,33.4,0,0,1,11.044,2q33.613,12.418,67.147,25.053c15.776,6.054,25.206,25.019,19.1,41.864q-12.417,33.607-25.051,67.137c-6.057,15.781-25.008,25.222-41.857,19.118q-33.612-12.422-67.146-25.055c-15.853-6.085-25.121-25.254-19.1-41.864q12.427-33.6,25.049-67.136a33.574,33.574,0,0,1,30.413-21.118Zm-.366,5.31a27.955,27.955,0,0,0-25.407,17.519q-12.9,33.58-25.149,67.406c-4.7,13.217,2.1,29.432,15.89,34.826q33.588,12.892,67.415,25.154c13.239,4.7,29.427-2.123,34.82-15.905q12.891-33.583,25.15-67.406c4.688-13.2-2.109-29.434-15.89-34.827q-33.59-12.891-67.417-25.154A27.929,27.929,0,0,0,1031.239,194.528Z" transform="translate(-973.875 -189.218)" fill="#41146c"/>
            <path id="Path_1022" data-name="Path 1022" d="M1116.163,313.259l-13.473,36.109a30.087,30.087,0,0,1-38.7,17.68l-66.751-24.907a30.092,30.092,0,0,1-17.664-38.711l2.789-7.477,59.7-30.616a5.749,5.749,0,0,1,7.97,3l20.156,50.934a10.115,10.115,0,0,0,12.787,5.8Z" transform="translate(-975.136 -214.459)" fill="#00d4ae" fill-rule="evenodd"/>
            <path id="Path_1023" data-name="Path 1023" d="M1043.541,260.7a8.65,8.65,0,0,1,7.646,5.21c6.856,17,13.361,34.134,20.233,51.125a7.671,7.671,0,0,0,9.393,4.185L1114,309.413a2.747,2.747,0,0,1,3.386,3.439c-4.515,12.1-8.99,24.219-13.548,36.307-6.084,15.852-25.224,25.142-41.857,19.118q-33.612-12.423-67.147-25.054c-15.89-6.1-25.244-25.25-19.032-42.058l2.791-7.481a2.438,2.438,0,0,1,1.279-1.438c19.932-10.222,39.812-20.544,59.794-30.665A8.626,8.626,0,0,1,1043.541,260.7Zm-.167,5.324a4.571,4.571,0,0,0-1.381.346l-58.77,30.142c-1.958,5.249-4.133,10.459-4.167,15.928a27.953,27.953,0,0,0,17.507,25.741q33.587,12.894,67.416,25.154c13.355,4.745,29.7-2.313,34.948-16.242l11.474-30.749c-9.322,3.316-18.621,6.7-27.964,9.947a13.116,13.116,0,0,1-15.941-7.23c-6.883-17.018-12.949-34.372-20.268-51.207A3.166,3.166,0,0,0,1043.374,266.025Z" transform="translate(-973.866 -213.122)" fill="#41146c"/>
            <path id="Path_1024" data-name="Path 1024" d="M1151.674,284.4a13.281,13.281,0,1,1-7.8-17.086,13.279,13.279,0,0,1,7.8,17.086" transform="translate(-1024.721 -215.052)" fill="#ffcf91" fill-rule="evenodd"/>
            <path id="Path_1025" data-name="Path 1025" d="M1138.326,262.477c10.918.267,19.494,13.809,13.424,24.072-4.945,8.362-18.284,10.152-25.219,2.919-6.142-6.407-5.469-18.112,1.769-23.677A15.351,15.351,0,0,1,1138.326,262.477Zm-.356,5.323c-6.848.087-12.539,7.948-9.751,14.68,2.937,7.089,14.6,8.708,18.948,1.358,3.684-6.227-.8-15.837-8.938-16.036Z" transform="translate(-1023.521 -213.715)" fill="#41146c"/>
            <path id="Path_1026" data-name="Path 1026" d="M1053.049,209.978a25.415,25.415,0,0,1,3.126.325c1.705.389,1.777,3.524-1.131,3.041a13.72,13.72,0,0,0-11.428,3.54,2.028,2.028,0,0,1-1.862.243,1.634,1.634,0,0,1-.154-2.732A17.013,17.013,0,0,1,1053.049,209.978Z" transform="translate(-996.296 -196.16)" fill="#41146c"/>
          </g>
          <g id="Group_65" data-name="Group 65" transform="translate(8.693 308.066)">
            <path id="Path_1027" data-name="Path 1027" d="M228.038,465.341H153.365a28.226,28.226,0,0,1-28.225-28.225V362.444a28.226,28.226,0,0,1,28.225-28.226h74.672a28.226,28.226,0,0,1,28.225,28.226v74.672A28.226,28.226,0,0,1,228.038,465.341Z" transform="translate(-122.276 -331.533)" fill="#fff"/>
            <path id="Path_1028" data-name="Path 1028" d="M227.012,330.311c15.932.152,30.526,13.753,30.688,30.688q.117,37.681,0,75.361c-.152,15.957-13.852,30.424-30.489,30.687-25.185.24-50.374.08-75.56,0-15.844-.151-30.418-13.613-30.687-30.489-.238-25.185-.081-50.374,0-75.56.151-15.973,13.829-30.423,30.489-30.687C176.637,330.071,201.826,330.231,227.012,330.311Zm-75.158,5.323c-13.271.042-25.433,11.356-25.566,25.4-.08,25.153-.239,50.307,0,75.46.208,13.125,11.437,25.012,25.23,25.23q37.811.362,75.625,0c13.112-.207,25.012-11.438,25.23-25.23q.362-37.811,0-75.625c-.207-13.08-11.418-25.012-25.23-25.23C202.048,335.4,176.951,335.634,151.854,335.634Z" transform="translate(-120.837 -330.184)" fill="#41146c"/>
            <path id="Path_1029" data-name="Path 1029" d="M195.14,447.619V394.765A3.4,3.4,0,0,1,200.516,392l38.921,27.9a1.588,1.588,0,0,1,0,2.583l-38.921,27.9A3.4,3.4,0,0,1,195.14,447.619Z" transform="translate(-145.684 -350.642)" fill="#ff9591" fill-rule="evenodd"/>
            <path id="Path_1030" data-name="Path 1030" d="M196.994,387.362a6.234,6.234,0,0,1,3.311,1.076c13.09,9.209,26.019,18.647,39.028,27.972a4.371,4.371,0,0,1,.091,6.822c-12.9,9.537-26,18.808-39.118,28.038-3.556,2.407-9.368,0-9.5-4.878q-.24-26.538,0-53.078A6.251,6.251,0,0,1,196.994,387.362Zm-.126,5.326a.768.768,0,0,0-.737.723c-.159,17.618,0,35.24,0,52.859a.759.759,0,0,0,1.172.6L235,419.854q-18.846-13.51-37.694-27.018A.739.739,0,0,0,196.868,392.687Z" transform="translate(-144.195 -349.304)" fill="#41146c"/>
            <path id="Path_1031" data-name="Path 1031" d="M156.91,350.94c1.573.144,2.129,2.539-.156,3.28a13.726,13.726,0,0,0-8.522,8.4s-2.659,2.322-3.084-.268c-.228-1.38.9-2.958,1.816-4.376,2.194-3.4,5.62-6.289,9.55-7.014A1.154,1.154,0,0,1,156.91,350.94Z" transform="translate(-128.957 -337.124)" fill="#41146c"/>
          </g>
          <g id="Group_66" data-name="Group 66" transform="translate(60.372 135.015)">
            <path id="Path_1032" data-name="Path 1032" d="M337.772,85.64l17.364,62.226a15.667,15.667,0,0,1-10.868,19.281L239.6,196.353a15.657,15.657,0,0,1-19.281-10.868L202.957,123.26a15.668,15.668,0,0,1,10.868-19.281L318.492,74.772a15.663,15.663,0,0,1,19.28,10.868Z" transform="translate(-199.784 -71.531)" fill="#ffcf91" fill-rule="evenodd"/>
            <path id="Path_1033" data-name="Path 1033" d="M321.529,70.195a18.7,18.7,0,0,1,17.446,13.19c5.924,20.779,11.617,41.624,17.424,62.435a18.786,18.786,0,0,1-12.483,22.486c-34.9,10-69.94,19.519-104.911,29.276a18.8,18.8,0,0,1-22.49-12.5q-8.931-31.274-17.483-62.656a18.821,18.821,0,0,1,12.526-22.282c34.906-10,69.949-19.519,104.923-29.279A16.359,16.359,0,0,1,321.529,70.195Zm-.394,5.327a13.71,13.71,0,0,0-3.051.429Q265.472,90.24,213.061,105.256a13.339,13.339,0,0,0-8.884,15.8q8.536,31.318,17.45,62.532a13.356,13.356,0,0,0,15.789,8.905q52.6-14.305,105-29.3a13.315,13.315,0,0,0,8.894-15.8q-8.536-31.315-17.448-62.526A13,13,0,0,0,321.135,75.522Z" transform="translate(-198.481 -70.194)" fill="#41146c"/>
            <path id="Path_1034" data-name="Path 1034" d="M366.539,187.11a15.583,15.583,0,0,1-9.661,7.834L252.211,224.151a15.6,15.6,0,0,1-12.126-1.579l35.763-46.592,0-.007,14.32-18.653Z" transform="translate(-212.393 -99.328)" fill="#ffcf91" fill-rule="evenodd"/>
            <path id="Path_1035" data-name="Path 1035" d="M289.159,153.337a3.546,3.546,0,0,1,.664.165l76.372,29.789c4.487,2.095-3.29,10.893-9.677,12.811-34.907,9.983-69.941,19.519-104.911,29.276-4.858,1.322-10.507,1.006-14.457-2.036a2.786,2.786,0,0,1-.488-3.731l35.761-46.6,14.32-18.653A2.276,2.276,0,0,1,289.159,153.337ZM276.7,176.187l-33.757,43.988a13.2,13.2,0,0,0,7.075.119q52.6-14.307,105-29.3a13.251,13.251,0,0,0,6.11-3.906l-71.379-27.9Z" transform="translate(-211.082 -97.99)" fill="#41146c"/>
            <path id="Path_1036" data-name="Path 1036" d="M332.273,76.911,295.31,142.035a18.42,18.42,0,0,1-25.023,6.983L204.7,112.3a15.6,15.6,0,0,1,9.9-8.322L319.267,74.772A15.6,15.6,0,0,1,332.273,76.911Z" transform="translate(-200.559 -71.531)" fill="#ffcf91" fill-rule="evenodd"/>
            <path id="Path_1037" data-name="Path 1037" d="M322.377,70.193c5.671.08,12.784,2.946,10.981,6.695L296.39,142.019c-5.489,9.535-18.592,13.525-28.627,7.989l-65.6-36.723c-4.153-2.714,3.793-11.193,10.242-13.138,34.906-10,69.949-19.519,104.922-29.279A16.365,16.365,0,0,1,322.377,70.193Zm-.393,5.328a13.715,13.715,0,0,0-3.052.429Q266.32,90.236,213.909,105.256a13.259,13.259,0,0,0-6.729,4.682l-.029.039c21.128,11.826,42.184,23.783,63.385,35.48a12.221,12.221,0,0,0,1.814.843,16.141,16.141,0,0,0,19.418-6.923L327.4,76.593A12.034,12.034,0,0,0,321.984,75.521Z" transform="translate(-199.328 -70.193)" fill="#41146c"/>
            <path id="Path_1038" data-name="Path 1038" d="M206.918,137.633l54.913,30.755-51.477-13.062-2.643-9.393s-1.771-4.722-.793-8.3" transform="translate(-201.204 -92.745)" fill="rgba(0,0,0,0.25)" style="mix-blend-mode: overlay;isolation: isolate"/>
            <path id="Path_1039" data-name="Path 1039" d="M385.472,92.491l2.573,9.239-36.957,37.616,30.9-54.42a11.127,11.127,0,0,1,2.186,3.41,8.752,8.752,0,0,1,.318.84c.115.354.275.857.391,1.258.2.7.588,2.057.588,2.057" transform="translate(-249.512 -75.12)" fill="rgba(0,0,0,0.25)" style="mix-blend-mode: overlay;isolation: isolate"/>
          </g>
          <g id="Group_67" data-name="Group 67" transform="translate(248.866 381.698)">
            <path id="Path_1040" data-name="Path 1040" d="M795.792,593.7l-51.661,79.493a42.9,42.9,0,0,1-35.964,19.519H516.519a30.782,30.782,0,0,1-30.3-36.213l34.044-189.916a26.336,26.336,0,0,1,26.48-21.684l109.919,2.328a42.925,42.925,0,0,1,29.85,12.973l19,19.519.782,1.736-97.632-1.736H577.624a22.1,22.1,0,0,0-21.665,17.7L524.282,652.939l62.175-38.912a55.71,55.71,0,0,1,29.6-8.506h48.83a29.058,29.058,0,0,0,23.956-12.607l4.352-6.332a23.807,23.807,0,0,1,19.637-10.347h44.372l.011.666,29.4-.06A10.915,10.915,0,0,1,795.792,593.7Z" transform="translate(-483.03 -442.176)" fill="#ffcf91" fill-rule="evenodd"/>
            <path id="Path_1041" data-name="Path 1041" d="M785.74,572.134c9.43.186,17.106,11.783,11.3,20.99-17.252,26.8-34.736,53.452-52.105,80.179A46.749,46.749,0,0,1,706.84,694.17q-95.993.382-191.989,0c-19.245-.206-36.116-19.107-32.745-39.136,11.167-63.59,22.246-127.2,34.176-190.651a29.586,29.586,0,0,1,28.786-23.572c36.883.466,73.756,1.448,110.63,2.342a46.378,46.378,0,0,1,31.251,13.582l.194.2,19.022,19.54.52.763a9.819,9.819,0,0,1,1.017,2.776l-.191,1.047-.584.888-.887.588-1.046.2L607.3,480.991c-10.41,0-20.82-.056-31.23,0a15.319,15.319,0,0,0-2.143.14,19.906,19.906,0,0,0-16.75,15.477l-30.511,149.8c19.165-12,38.264-24.1,57.5-35.984a59.168,59.168,0,0,1,30.135-8.659c16.406-.108,32.812.063,49.217,0a27.18,27.18,0,0,0,21.662-11.4c2.738-3.956,5.109-8.1,8.663-11.3A26.977,26.977,0,0,1,711.5,572.2l44.361-.013C765.818,572.172,775.779,572.025,785.74,572.134ZM683.353,460.672a41,41,0,0,0-27.793-12.183c-36.86-.893-73.721-1.874-110.588-2.342a24.285,24.285,0,0,0-23.539,19.39q-17.324,95.211-34.15,190.508c-2.662,15.822,9.948,32.736,27.549,32.925q96,.334,192,0a41.252,41.252,0,0,0,33.51-18.188c17.544-26.768,35.242-53.44,52.32-80.508,3.062-4.94-.518-12.674-7.012-12.745l-29.742.073c-14.778,0-29.556-.057-44.334,0a21.788,21.788,0,0,0-17.374,9.154c-4.64,6.711-9.4,13.409-16.4,16.957a32.349,32.349,0,0,1-14.234,3.461c-16.411.067-32.823-.105-49.235,0a53.81,53.81,0,0,0-27.807,8.123l-62.35,39.022c-1.908.73-4.043.115-4.024-2.79L551.922,495.57a25.436,25.436,0,0,1,24.328-19.878h31.082l92.242,1.64Z" transform="translate(-481.674 -440.81)" fill="#41146c"/>
            <path id="Path_1042" data-name="Path 1042" d="M749.731,551.795,769,594.4H732.083a23.807,23.807,0,0,0-19.637,10.347l-4.352,6.332a29.058,29.058,0,0,1-23.956,12.607H635.551a56.016,56.016,0,0,0-29.76,8.551l-62.5,39.119,31.844-156.339a22.22,22.22,0,0,1,21.778-17.795h30.548l98.367,1.749Z" transform="translate(-502.277 -459.673)" fill="#fff"/>
            <path id="Path_1043" data-name="Path 1043" d="M724.437,494.955a2.4,2.4,0,0,1,2.379,1.564L750.564,549,769.7,591.322s.917,3.455-2.426,3.759c-12.13,0-24.26-.046-36.39,0a21.772,21.772,0,0,0-17.366,9.151c-4.542,6.571-9.163,13.152-15.962,16.728a32.379,32.379,0,0,1-14.653,3.68c-16.4.064-32.808-.1-49.212,0a53.787,53.787,0,0,0-27.794,8.12l-62.322,39a2.766,2.766,0,0,1-4.022-2.788l31.754-155.892a25.372,25.372,0,0,1,24.316-19.868h31.067ZM595.66,498.543a19.971,19.971,0,0,0-19.111,15.614l-30.5,149.756c19.159-11.992,38.251-24.094,57.481-35.974a59.16,59.16,0,0,1,30.126-8.657c16.4-.105,32.8.061,49.2,0a27.217,27.217,0,0,0,21.657-11.4c3.98-5.751,7.832-11.669,13.727-14.889a26.989,26.989,0,0,1,12.583-3.265h32.3l-17.435-38.55-23.048-50.93-95.982-1.706Z" transform="translate(-501.024 -458.335)" fill="#41146c"/>
            <path id="Path_1044" data-name="Path 1044" d="M889.63,642.2l-.012.012h-7.923Z" transform="translate(-615.44 -508.155)" fill="#fff"/>
            <path id="Path_1045" data-name="Path 1045" d="M888.465,638.486c2.678.133,3.281,5.165-.007,5.335-3.374.057-7.716.437-9.169-.262-2.037-.981-1.793-4.908,1.059-5.06Q884.4,638.422,888.465,638.486Z" transform="translate(-614.189 -506.903)" fill="#41146c"/>
            <path id="Path_1046" data-name="Path 1046" d="M773.822,510.535,763.389,551.8l-13.928-.363-126.973-3.281a21.527,21.527,0,0,0-19.513,11.353L585.151,592.86l-8.082,15.132L543.49,670.847l31.752-155.886a22.155,22.155,0,0,1,21.715-17.744h31.036l97.719,1.737,39.8.7A8.728,8.728,0,0,1,773.822,510.535Z" transform="translate(-502.345 -459.673)" fill="#fff"/>
            <path id="Path_1047" data-name="Path 1047" d="M724.438,494.955c13.324.236,26.65.371,39.971.708a8.985,8.985,0,0,1,1.668.177,11.7,11.7,0,0,1,9.008,14L764.65,551.114c-.626,1.816-.944,1.91-2.651,2.008l-13.928-.363c-42.379-1.095-84.753-2.412-127.137-3.285a19.263,19.263,0,0,0-16.854,9.806c-6.026,11.134-11.934,22.33-17.9,33.5L578.1,607.908l-33.579,62.856a2.717,2.717,0,0,1-4.957-1.786l31.754-155.892a25.431,25.431,0,0,1,24.315-19.868H626.7Zm-128.794,3.588a20.017,20.017,0,0,0-19.116,15.619l-28.108,138c17.007-31.836,33.846-63.759,50.988-95.433a24.717,24.717,0,0,1,21.611-12.573c42.4.872,84.794,2.19,127.19,3.285l11.8.307c3.312-13.1,6.711-26.173,9.934-39.292a6.233,6.233,0,0,0-5.708-7.466c-13.295-.337-26.594-.472-39.891-.706l-97.7-1.737Z" transform="translate(-501.024 -458.335)" fill="#41146c"/>
            <path id="Path_1048" data-name="Path 1048" d="M789,591.261,776.534,620.5l-.011.011H732.374a24.1,24.1,0,0,0-19.82,10.347l-4.393,6.332a29.407,29.407,0,0,1-24.18,12.608h-48.5a56.232,56.232,0,0,0-29.674,8.448L543.488,696.9l33.58-62.276,8.082-14.993,17.823-33.045a21.562,21.562,0,0,1,19.514-11.247l126.972,3.251,13.929.359,17.891.463A8.544,8.544,0,0,1,789,591.261Z" transform="translate(-502.345 -485.792)" fill="#fff"/>
            <path id="Path_1049" data-name="Path 1049" d="M620.821,570.218l.214,0c53,1.084,105.968,2.732,159.019,4.115a8.929,8.929,0,0,1,1.79.188,11.6,11.6,0,0,1,8.306,15.465l-12.469,29.525c-.488.976-.256.662-.9,1.13a3.027,3.027,0,0,1-1.564.508c-14.771,0-29.542-.057-44.313,0a21.691,21.691,0,0,0-17.366,9.149c-4.59,6.638-9.277,13.277-16.175,16.84a32.348,32.348,0,0,1-14.44,3.568c-16.4.063-32.808-.1-49.212,0a53.827,53.827,0,0,0-27.794,8.119l-62.322,39a2.727,2.727,0,0,1-3.761-3.511c19.868-37.19,39.54-74.49,59.588-111.531A24.527,24.527,0,0,1,620.821,570.218Zm-.372,4.976A19.3,19.3,0,0,0,604.094,585c-6.026,11.134-11.935,22.332-17.9,33.5l-8.082,15.132-28.872,54.045c18.1-11.326,36.13-22.753,54.291-33.976a59.189,59.189,0,0,1,30.135-8.659c16.406-.106,32.811.059,49.217,0a27.221,27.221,0,0,0,21.662-11.4c2.868-4.143,5.385-8.49,9.117-11.7a27.013,27.013,0,0,1,17.2-6.457h42.594c3.94-9.331,7.95-18.633,11.821-27.994A6.143,6.143,0,0,0,780,579.313c-6-.2-11.995-.313-17.991-.469l-13.929-.363c-42.379-1.095-84.752-2.417-127.136-3.284C620.781,575.194,620.615,575.194,620.448,575.194Z" transform="translate(-501.039 -484.084)" fill="#41146c"/>
            <path id="Path_1050" data-name="Path 1050" d="M863.043,647.218H884.5a8.342,8.342,0,0,1,7,12.885l-51.193,78.854a41.165,41.165,0,0,1-34.527,18.75H779.251s15.33-4.338,25.164-17.644,58.717-92.846,58.717-92.846" transform="translate(-581.183 -509.833)" fill="rgba(0,0,0,0.25)" style="mix-blend-mode: overlay;isolation: isolate"/>
            <path id="Path_1051" data-name="Path 1051" d="M553.941,666.58l50.142-94.175a23.9,23.9,0,0,1,21.753-12.656l138.723,3.842,3.269-13.146a5.8,5.8,0,0,0-5.507-7.194l-146.729-2.974a24.232,24.232,0,0,0-23.377,16.267Z" transform="translate(-505.84 -474.07)" fill="rgba(0,0,0,0.25)" style="mix-blend-mode: overlay;isolation: isolate"/>
            <path id="Path_1052" data-name="Path 1052" d="M568.6,458.468c1.647.175,2.388,2.873-.508,3.245a15.758,15.758,0,0,0-12.383,9.756,2.037,2.037,0,0,1-1.468,1.014c-4.429.052,3.228-12.905,14.077-14.012A1.542,1.542,0,0,1,568.6,458.468Z" transform="translate(-505.513 -446.714)" fill="#41146c"/>
            <path id="Path_1053" data-name="Path 1053" d="M841.316,609.948l14.077.372c2.687.294,3.335,5.309-.286,5.315q-10.184-.267-20.367-.53c-2.129-.115-2.122-.849-2.448-1.792a2.745,2.745,0,0,1,2.585-3.53Z" transform="translate(-598.876 -497.314)" fill="#41146c"/>
            <path id="Path_1054" data-name="Path 1054" d="M765.344,607.985c2.761.227,3.874,5.2-.137,5.323l-84.8-2.191c-2.823-.232-3.7-5.207.138-5.323Z" transform="translate(-547.317 -495.98)" fill="#41146c"/>
            <path id="Path_1055" data-name="Path 1055" d="M731.656,639.037c2.411.181,2.513,1.447,2.587,2.469a2.789,2.789,0,0,1-2.724,2.854l-64.786-1.675c-2.75-.206-3.727-5.233.138-5.323Z" transform="translate(-542.748 -506.537)" fill="#41146c"/>
            <path id="Path_1056" data-name="Path 1056" d="M701.421,734.543a1.46,1.46,0,0,1,1.088.558l17.553,20.65c1.047,1.325-.882,3.769-2.434,2.069l-17.554-20.65c-.474-.6-.383-.753-.38-1.05C699.705,735.052,701.233,734.536,701.421,734.543Z" transform="translate(-554.577 -539.034)" fill="#41146c"/>
            <path id="Path_1057" data-name="Path 1057" d="M719.583,735.619c1.7.108,3.6,3.37,5.509,5.7.943,1.238-.913,3.673-2.433,2.069-2.067-2.346-4.8-4.885-4.744-6.242A1.572,1.572,0,0,1,719.583,735.619Z" transform="translate(-560.673 -539.393)" fill="#41146c"/>
            <path id="Path_1058" data-name="Path 1058" d="M695.955,748.545a1.693,1.693,0,0,1,1.116.5c3.24,3.614,6.291,7.394,9.436,11.093,1.022,1.271-.858,3.661-2.379,2.131-3.24-3.614-6.29-7.395-9.435-11.094A1.587,1.587,0,0,1,695.955,748.545Z" transform="translate(-552.782 -543.716)" fill="#41146c"/>
            <path id="Path_1059" data-name="Path 1059" d="M714.744,540.178l80.8,1.436" transform="translate(-559.612 -474.039)" fill="#fff"/>
            <path id="Path_1060" data-name="Path 1060" d="M794.254,537.614c1.775.128,2,.816,2.327,1.457a2.78,2.78,0,0,1-2.422,3.866l-80.8-1.436c-2.4-.172-2.427-1.18-2.587-2.278a2.8,2.8,0,0,1,2.682-3.046Z" transform="translate(-558.276 -472.701)" fill="#41146c"/>
            <path id="Path_1061" data-name="Path 1061" d="M646.744,538.969l23.292.414" transform="translate(-536.873 -473.634)" fill="#fff"/>
            <path id="Path_1062" data-name="Path 1062" d="M668.862,535.384c2.7.126,3.623,5.282-.095,5.324l-23.293-.415c-2.741-.128-3.623-5.282.1-5.324Z" transform="translate(-535.652 -472.297)" fill="#41146c"/>
            <path id="Path_1063" data-name="Path 1063" d="M928.8,481.209a1.642,1.642,0,0,1,.6,3.026c-3.066,1.423-6.2,2.7-9.3,4.05-1.49.607-3.159-1.948-1.344-2.9,3.066-1.423,6.2-2.7,9.3-4.05A1.3,1.3,0,0,1,928.8,481.209Z" transform="translate(-627.57 -454.318)" fill="#41146c"/>
            <path id="Path_1064" data-name="Path 1064" d="M892.259,453.377a1.652,1.652,0,0,1,1.508,1.569c-.025,3.164-.2,6.325-.3,9.487-.087,1.553-3.1,2.266-3.194-.026.025-3.164.2-6.325.3-9.487A1.546,1.546,0,0,1,892.259,453.377Z" transform="translate(-618.309 -445.012)" fill="#41146c"/>
            <path id="Path_1065" data-name="Path 1065" d="M912.082,462.657a1.665,1.665,0,0,1,1.293,2.446c-1.906,2.883-3.94,5.678-5.91,8.516-.954,1.309-3.7-.022-2.665-1.761,1.906-2.883,3.94-5.677,5.911-8.515A1.453,1.453,0,0,1,912.082,462.657Z" transform="translate(-623.09 -448.115)" fill="#41146c"/>
          </g>
          <g id="Group_68" data-name="Group 68" transform="translate(270.542)">
            <path id="Path_1066" data-name="Path 1066" d="M621.038,2.341H546.367A28.227,28.227,0,0,1,518.14-25.885v-74.67a28.226,28.226,0,0,1,28.225-28.226h74.672a28.226,28.226,0,0,1,28.225,28.226v74.672A28.226,28.226,0,0,1,621.038,2.341Z" transform="translate(-515.544 131.359)" fill="#fff"/>
            <path id="Path_1067" data-name="Path 1067" d="M620.347-132.594c15.949.151,30.532,13.79,30.688,30.688q.117,37.68,0,75.361c-.148,16.012-14.029,30.529-30.688,30.688q-37.681.116-75.361,0c-16.038-.154-30.53-14.03-30.689-30.688q-.117-37.681,0-75.361c.153-16.026,14.03-30.53,30.689-30.688Q582.667-132.714,620.347-132.594Zm-75.158,5.323c-13.3.043-25.434,11.388-25.568,25.4-.078,25.154-.238,50.308,0,75.46.208,13.122,11.42,25.012,25.231,25.23q37.811.362,75.626,0c13.088-.206,25.008-11.418,25.23-25.23q.351-37.811,0-75.625c-.211-13.11-11.438-25.011-25.23-25.23C595.384-127.507,570.287-127.271,545.19-127.271Z" transform="translate(-514.239 132.654)" fill="#41146c"/>
            <path id="Path_1068" data-name="Path 1068" d="M622.719-79.392,577.265-63.285,576-66.838a5.354,5.354,0,0,1-.322-1.83,5.436,5.436,0,0,1,3.647-5.144L614.448-86.3a5.44,5.44,0,0,1,6.983,3.294Z" transform="translate(-534.783 117.265)" fill="#fff"/>
            <path id="Path_1069" data-name="Path 1069" d="M615.178-90.631a8.321,8.321,0,0,1,7.5,5.385l1.291,3.623a2.793,2.793,0,0,1-1.619,3.4L576.894-62.113a2.794,2.794,0,0,1-3.4-1.614c-1.186-3.325-2.379-6.874-.913-9.861a8.249,8.249,0,0,1,4.442-4.018c11.793-4.261,23.588-8.519,35.443-12.6A8.291,8.291,0,0,1,615.178-90.631Zm-.158,5.323a2.816,2.816,0,0,0-.884.156c-11.757,4.221-23.644,8.08-35.306,12.557a2.864,2.864,0,0,0-1.587,3.527l.375,1.049,40.435-14.329C617.568-83.714,616.728-85.31,615.021-85.308Z" transform="translate(-533.523 118.602)" fill="#41146c"/>
            <path id="Path_1070" data-name="Path 1070" d="M622.518-79.734a2.477,2.477,0,0,1,2.187,1.751l14.529,40.861a2.755,2.755,0,0,1-3.54,3.347,2.337,2.337,0,0,1-1.478-1.562L620.578-73.693,580.145-59.365,593.8-20.984c.654,2.146-.326,2.7-1.169,3.194a2.787,2.787,0,0,1-3.846-1.409L574.235-60.091a2.794,2.794,0,0,1,1.619-3.4L621.307-79.6A2.489,2.489,0,0,1,622.518-79.734Z" transform="translate(-534.261 114.964)" fill="#41146c"/>
            <path id="Path_1071" data-name="Path 1071" d="M592.049,8.32c1.013,2.846-1.694,6.41-6.048,7.959s-8.7.5-9.716-2.348,1.695-6.41,6.047-7.959,8.7-.5,9.716,2.348" transform="translate(-534.916 86.537)" fill="#ff9591" fill-rule="evenodd"/>
            <path id="Path_1072" data-name="Path 1072" d="M585.107,1.258c4.257.057,9.351,3.023,8.378,8.227-1.538,8.227-17.158,13.177-20.9,4.344C570.192,8.161,577.475,1.227,585.107,1.258Zm-.186,5.325c-3.345.047-8.093,2.086-7.483,4.992.295,1.4,2.093,1.41,3.2,1.42,3.4.029,8.233-2.086,7.622-4.992C587.947,6.531,585.963,6.578,584.92,6.583Z" transform="translate(-533.596 87.874)" fill="#41146c"/>
            <path id="Path_1073" data-name="Path 1073" d="M660.151-15.92c1.012,2.846-1.695,6.41-6.048,7.959s-8.7.5-9.716-2.348,1.7-6.41,6.048-7.959,8.7-.5,9.717,2.348" transform="translate(-557.689 94.643)" fill="#ff9591" fill-rule="evenodd"/>
            <path id="Path_1074" data-name="Path 1074" d="M653.207-22.982c4.258.056,9.352,3.022,8.379,8.227-1.54,8.225-17.159,13.176-20.9,4.344C638.29-16.081,645.576-23.013,653.207-22.982Zm-.186,5.325c-3.345.047-8.092,2.1-7.483,4.991.295,1.4,2.1,1.41,3.194,1.42,3.408.029,8.275-2.163,7.62-5.011C656.019-17.706,654.06-17.663,653.021-17.657Z" transform="translate(-556.368 95.98)" fill="#41146c"/>
            <path id="Path_1075" data-name="Path 1075" d="M550.018-107.945c1.567.144,2.159,2.531-.156,3.28a13.723,13.723,0,0,0-8.522,8.4s-2.659,2.322-3.084-.267c-.228-1.381.9-2.959,1.816-4.376,2.194-3.4,5.626-6.289,9.551-7.014A1.189,1.189,0,0,1,550.018-107.945Z" transform="translate(-522.26 124.393)" fill="#41146c"/>
          </g>
          <g id="Group_69" data-name="Group 69" transform="translate(599.775 432.196)">
            <path id="Path_1076" data-name="Path 1076" d="M1116.037,652.341h-74.671a28.226,28.226,0,0,1-28.225-28.225V549.443a28.225,28.225,0,0,1,28.225-28.225h74.672a28.227,28.227,0,0,1,28.227,28.227v74.67A28.227,28.227,0,0,1,1116.037,652.341Z" transform="translate(-1010.304 -518.196)" fill="#fff"/>
            <path id="Path_1077" data-name="Path 1077" d="M1114.987,516.737c15.982.152,30.536,13.791,30.689,30.687q.128,37.681,0,75.361c-.143,15.9-13.791,30.529-30.689,30.689q-37.681.117-75.361,0c-16.035-.153-30.529-14.03-30.688-30.689q-.117-37.681,0-75.361c.153-16.042,14.03-30.528,30.688-30.687Q1077.306,516.62,1114.987,516.737Zm-75.158,5.323c-13.279.042-25.433,11.388-25.568,25.4-.078,25.154-.238,50.308,0,75.461.207,13.1,11.418,25.013,25.23,25.231q37.811.362,75.625,0c13.124-.208,25.009-11.62,25.231-25.231q.34-37.811,0-75.626c-.214-13.12-11.417-25.011-25.231-25.229C1090.022,521.822,1064.925,522.06,1039.829,522.06Z" transform="translate(-1008.879 -516.678)" fill="#41146c"/>
            <path id="Path_1078" data-name="Path 1078" d="M1044.89,537.333c1.592.146,2.079,2.557-.157,3.279a13.727,13.727,0,0,0-8.521,8.4s-.553,1.035-1.448,1.07a1.7,1.7,0,0,1-1.444-2.474,16.888,16.888,0,0,1,10.78-10.146A1.668,1.668,0,0,1,1044.89,537.333Z" transform="translate(-1017.005 -523.584)" fill="#41146c"/>
            <path id="Path_1079" data-name="Path 1079" d="M1082.655,621.464c14.922,8.034,25.971-5.9,28.111-7.706,1.323-1.113,2.244-1.981,2.244-1.981a2.872,2.872,0,0,1,2.9-.678,3.886,3.886,0,0,1,1.736,1.135l13.321,14.752c.777.863,1.592,1.693,2.4,2.526a7.857,7.857,0,0,1,1.864,3.556c.411,1.572-.794,3.17-2.636,4.575a26.26,26.26,0,0,1-5.94,3.231c-4.183,1.669-10.6,3.231-17.01.692a59.247,59.247,0,0,1-11.128-6.429c-2.947-2.067-5.516-4.082-7.068-5.344-.855-.692-1.985-1.7-3.2-2.824a130.4,130.4,0,0,1-15.041-16.53c-1-1.315-1.9-2.537-2.513-3.45-2.44-3.659-8.081-12.6-10.011-19.223s.233-12.861,2.288-16.87a26.634,26.634,0,0,1,3.629-5.453c1.614-1.792,3.375-2.928,4.949-2.352a7.835,7.835,0,0,1,3.362,2.188c.754.886,1.5,1.775,2.288,2.631l7.951,8.667,5.486,5.981a3.9,3.9,0,0,1,.967,1.837,2.874,2.874,0,0,1-.948,2.824s-.974.861-2.231,2.1c-.223.218-.491.453-.793.7-5.117,4.228-9.1,7.5-10.2,14.049a22.576,22.576,0,0,0,1.856,13.741" transform="translate(-1025.952 -532.148)" fill="#ff88b3" fill-rule="evenodd"/>
            <path id="Path_1080" data-name="Path 1080" d="M1114.14,607.07a6.513,6.513,0,0,1,4.221,2.066c5.286,5.77,10.369,11.7,15.805,17.364a10.955,10.955,0,0,1,2.457,4.667,6.753,6.753,0,0,1-.1,2.953c-1.482,4.614-6.536,6.778-11.4,8.492-8.226,2.9-17.006,1.447-25.775-4.153-17.286-11.04-31.654-26.159-40.556-46.253a27.622,27.622,0,0,1,4.824-29.977q.313-.337.643-.656a7.245,7.245,0,0,1,9.075-1.255c1.815,1.074,3.074,2.823,4.5,4.407,4.54,4.977,9.155,9.883,13.649,14.881,2.431,2.788,1.53,6.591-1.944,9.945-3.846,3.713-8.721,6.8-10.247,11.876a19.248,19.248,0,0,0,1.019,13.628l2.769,3.016c7.786,3.99,16.936.162,24.121-6.972C1109.461,608.888,1111.056,606.932,1114.14,607.07Zm-.337,5.316c-.954.047-2.85,2.519-4.481,4.115-5.142,4.968-11.594,8.865-18.683,8.865,0,0,5.009,4.22,9.874,7.492,3.415,2.3,6.961,4.626,10.856,5.622,6.187,1.583,13.158-.371,18.155-3.99.873-.631,2.089-1.5,1.873-2.244-.568-1.856-2.12-3.1-3.444-4.543q-6.741-7.45-13.467-14.913A.991.991,0,0,0,1113.8,612.386Zm-44.326-48.017c-3.211.634-6.182,6.753-7.511,12.3-2.445,10.21,5.128,21.352,10.955,29.3,0,0,.3,1.1.335-.07.319-7.71,5.575-14.15,11.677-19.327a30.387,30.387,0,0,0,2.806-2.624c.178-.2-.023-.564-.241-.815-5.256-5.847-10.573-11.663-15.882-17.456A5.135,5.135,0,0,0,1069.477,564.369Z" transform="translate(-1024.762 -530.911)" fill="#41146c"/>
            <path id="Path_1081" data-name="Path 1081" d="M1213.773,742.654c1.451.138,2.075,2.032.21,3.309a69.436,69.436,0,0,1-9.227,5.26s-3.548-.3-1.958-2.406c.317-.421.577-.469,1.506-.92a66.259,66.259,0,0,0,8.445-4.964A1.57,1.57,0,0,1,1213.773,742.654Z" transform="translate(-1073.589 -592.243)" fill="#41146c"/>
            <path id="Path_1082" data-name="Path 1082" d="M1250.525,673.772c2.459.416,1.046,5.051.181,8.845A67.31,67.31,0,0,1,1232.719,715s-1.445,1.394-2.54.48c-1.522-1.269,1.187-3.573,3.048-5.675a64.009,64.009,0,0,0,15.522-34.637S1249.222,673.68,1250.525,673.772Z" transform="translate(-1082.732 -569.209)" fill="#41146c"/>
          </g>
        </g>
      </g>
    </g>
  </g>
</svg>
