<?xml version="1.0" encoding="utf-8"?>
<!-- Generator: Adobe Illustrator 25.2.3, SVG Export Plug-In . SVG Version: 6.00 Build 0)  -->
<svg version="1.1" id="Layer_1" xmlns="http://www.w3.org/2000/svg" xmlns:xlink="http://www.w3.org/1999/xlink" x="0px" y="0px"
	 viewBox="0 0 18 18" style="enable-background:new 0 0 18 18;" xml:space="preserve">
<style type="text/css">
	.st0{fill:#313D44;}
	.st1{fill:#BBDEFB;}
	.st2{fill:#5FAEDF;}
</style>
<g id="_30_Days_Notification">
	<g id="glasses" transform="translate(0 -82.46)">
		<path id="Path_38101" class="st0" d="M17.7,91.2l-1-4.6c-0.2-0.9-1.1-1.4-2-1.2c-0.7,0.2-1.2,0.8-1.3,1.6v0.2
			c0,0.2,0.2,0.4,0.4,0.4s0.4-0.2,0.4-0.4v-0.2c0-0.5,0.4-0.9,0.9-0.9c0.4,0,0.7,0.3,0.8,0.7l1,4.6c0.1,0.6,0.2,1.2,0.2,1.7h0
			c-0.2-2.1-2.1-3.5-4.1-3.3c-1.5,0.2-2.7,1.2-3.2,2.6c-0.4-0.5-1.2-0.6-1.7-0.2c-0.1,0-0.1,0.1-0.2,0.2c-0.6-2-2.7-3.1-4.7-2.5
			c-1.4,0.4-2.5,1.7-2.6,3.2h0c0-0.6,0.1-1.2,0.2-1.7l1-4.6c0.1-0.5,0.6-0.8,1-0.7c0.4,0.1,0.7,0.4,0.7,0.8v0.2
			c0,0.2,0.2,0.4,0.4,0.4c0.2,0,0.4-0.2,0.4-0.4v-0.2c0-0.9-0.8-1.6-1.6-1.6c-0.7,0-1.4,0.5-1.6,1.3l-1,4.6C0.1,92,0,92.7,0,93.5
			c0,0.2,0.2,0.4,0.4,0.4c0,0,0,0,0,0h0.4c0.2,2.1,2.1,3.5,4.1,3.3c1.9-0.2,3.3-1.7,3.3-3.6c0.1-0.2,0.4-0.8,0.8-0.8
			s0.7,0.6,0.8,0.8c0.1,2.1,1.8,3.7,3.9,3.6c1.9-0.1,3.4-1.5,3.6-3.3h0.4c0.2,0,0.4-0.2,0.4-0.4c0,0,0,0,0,0
			C18,92.7,17.9,92,17.7,91.2z"/>
		<g id="Group_39270" transform="translate(1.483 90.526)">
			<circle id="Ellipse_122" class="st1" cx="3" cy="3" r="3"/>
			<circle id="Ellipse_123" class="st1" cx="12.1" cy="3" r="3"/>
		</g>
		<circle id="Ellipse_124" class="st2" cx="4.4" cy="93.5" r="3"/>
		<circle id="Ellipse_125" class="st2" cx="13.6" cy="93.5" r="3"/>
	</g>
</g>
</svg>
