<svg xmlns="http://www.w3.org/2000/svg" width="16.2" height="18" viewBox="0 0 16.2 18">
  <g id="Group_4409" data-name="Group 4409" transform="translate(-871.194 -659.595)">
    <g id="Path_3470" data-name="Path 3470">
      <path id="Path_3514" data-name="Path 3514" d="M879.294,661.495l6.6,5.133v9.167a.3.3,0,0,1-.3.3h-12.6a.3.3,0,0,1-.3-.3v-9.167l6.6-5.133m0-1.9-8.1,6.3v9.9a1.8,1.8,0,0,0,1.8,1.8h12.6a1.8,1.8,0,0,0,1.8-1.8v-9.9l-8.1-6.3Z" fill="#737b88"/>
    </g>
    <g id="Path_3471" data-name="Path 3471">
      <path id="Path_3515" data-name="Path 3515" d="M881.994,677.345a.75.75,0,0,1-.75-.75v-7.25h-3.9v7.25a.75.75,0,0,1-1.5,0v-8a.75.75,0,0,1,.75-.75h5.4a.75.75,0,0,1,.75.75v8A.75.75,0,0,1,881.994,677.345Z" fill="#737b88"/>
    </g>
  </g>
</svg>
