<svg xmlns="http://www.w3.org/2000/svg" width="18.215" height="18" viewBox="0 0 18.215 18">
  <g id="Group_4384" data-name="Group 4384" transform="translate(-108.768 -659.595)">
    <path id="Path_3470" data-name="Path 3470" d="M122.164,677.595a.75.75,0,0,1-.292-.059.764.764,0,0,1-.473-.707V660.36a.765.765,0,0,1,1.531,0v14.621l2.748-2.747a.765.765,0,0,1,1.082,0,.766.766,0,0,1,0,1.082l-4.054,4.055A.764.764,0,0,1,122.164,677.595Z" fill="#737b88"/>
    <g id="Group_4379" data-name="Group 4379">
      <path id="Path_3471" data-name="Path 3471" d="M119.074,661.095h-9.556a.75.75,0,0,1,0-1.5h9.556a.75.75,0,0,1,0,1.5Z" fill="#737b88"/>
    </g>
    <g id="Group_4380" data-name="Group 4380">
      <path id="Path_3472" data-name="Path 3472" d="M111.074,677.595h-1.556a.75.75,0,0,1,0-1.5h1.556a.75.75,0,0,1,0,1.5Z" fill="#737b88"/>
    </g>
    <g id="Group_4381" data-name="Group 4381">
      <path id="Path_3473" data-name="Path 3473" d="M117.074,665.22h-7.556a.75.75,0,0,1,0-1.5h7.556a.75.75,0,0,1,0,1.5Z" fill="#737b88"/>
    </g>
    <g id="Group_4382" data-name="Group 4382">
      <path id="Path_3474" data-name="Path 3474" d="M113.074,673.47h-3.556a.75.75,0,0,1,0-1.5h3.556a.75.75,0,0,1,0,1.5Z" fill="#737b88"/>
    </g>
    <g id="Group_4383" data-name="Group 4383">
      <path id="Path_3475" data-name="Path 3475" d="M115.074,669.345h-5.556a.75.75,0,0,1,0-1.5h5.556a.75.75,0,0,1,0,1.5Z" fill="#737b88"/>
    </g>
  </g>
</svg>
