<svg xmlns="http://www.w3.org/2000/svg" width="18" height="18" viewBox="0 0 18 18">
  <g id="Group_4370" data-name="Group 4370" transform="translate(-162.467 -290.319)">
    <g id="Group_4365" data-name="Group 4365">
      <path id="Path_3445" data-name="Path 3445" d="M163.2,302.569a.744.744,0,0,1-.737-.75v-5a.737.737,0,1,1,1.474,0v5A.744.744,0,0,1,163.2,302.569Z" fill="#737b88"/>
    </g>
    <g id="Group_4366" data-name="Group 4366">
      <path id="Path_3446" data-name="Path 3446" d="M167.336,306.069a.744.744,0,0,1-.737-.75v-12a.737.737,0,1,1,1.474,0v12A.744.744,0,0,1,167.336,306.069Z" fill="#737b88"/>
    </g>
    <g id="Group_4367" data-name="Group 4367">
      <path id="Path_3447" data-name="Path 3447" d="M171.467,308.319a.716.716,0,0,1-.737-.692V291.012a.738.738,0,0,1,1.474,0v16.615A.716.716,0,0,1,171.467,308.319Z" fill="#737b88"/>
    </g>
    <g id="Group_4368" data-name="Group 4368">
      <path id="Path_3448" data-name="Path 3448" d="M175.6,304.569a.744.744,0,0,1-.737-.75v-9a.737.737,0,1,1,1.474,0v9A.744.744,0,0,1,175.6,304.569Z" fill="#737b88"/>
    </g>
    <g id="Group_4369" data-name="Group 4369">
      <path id="Path_3449" data-name="Path 3449" d="M179.73,301.569a.744.744,0,0,1-.737-.75v-3a.737.737,0,1,1,1.474,0v3A.744.744,0,0,1,179.73,301.569Z" fill="#737b88"/>
    </g>
  </g>
</svg>
