<svg xmlns="http://www.w3.org/2000/svg" width="14.933" height="18.694" viewBox="0 0 14.933 18.694">
  <g id="bin" transform="translate(0.313 0.77)">
    <path id="Path_2288" data-name="Path 2288" d="M222.811,154.7a.413.413,0,0,0-.413.413v7.8a.413.413,0,1,0,.825,0v-7.8A.413.413,0,0,0,222.811,154.7Zm0,0" transform="translate(-213.222 -148.319)" fill="#4d4f5c" stroke="#4d4f5c" stroke-width="0.6"/>
    <path id="Path_2289" data-name="Path 2289" d="M104.811,154.7a.413.413,0,0,0-.413.413v7.8a.413.413,0,1,0,.826,0v-7.8A.413.413,0,0,0,104.811,154.7Zm0,0" transform="translate(-100.092 -148.319)" fill="#4d4f5c" stroke="#4d4f5c" stroke-width="0.6"/>
    <path id="Path_2290" data-name="Path 2290" d="M1.169,5.246v10.17a2.277,2.277,0,0,0,.605,1.571,2.033,2.033,0,0,0,1.475.638h7.81a2.032,2.032,0,0,0,1.475-.638,2.277,2.277,0,0,0,.605-1.571V5.246a1.577,1.577,0,0,0-.4-3.1H10.621V1.16A1.621,1.621,0,0,0,8.987-.47H5.321A1.621,1.621,0,0,0,3.687,1.16v.985H1.574a1.577,1.577,0,0,0-.4,3.1ZM11.059,16.8H3.249a1.307,1.307,0,0,1-1.255-1.383V5.282H12.314V15.415A1.307,1.307,0,0,1,11.059,16.8ZM4.512,1.16a.8.8,0,0,1,.809-.8H8.987a.8.8,0,0,1,.809.8v.985H4.512ZM1.574,2.97H12.734a.743.743,0,1,1,0,1.486H1.574a.743.743,0,1,1,0-1.486Zm0,0" transform="translate(0 0)" fill="#4d4f5c" stroke="#4d4f5c" stroke-width="0.6"/>
    <path id="Path_2291" data-name="Path 2291" d="M163.811,154.7a.413.413,0,0,0-.413.413v7.8a.413.413,0,1,0,.826,0v-7.8A.413.413,0,0,0,163.811,154.7Zm0,0" transform="translate(-156.657 -148.319)" fill="#4d4f5c" stroke="#4d4f5c" stroke-width="0.6"/>
  </g>
</svg>
