<svg xmlns="http://www.w3.org/2000/svg" width="11.633" height="15.66" viewBox="0 0 11.633 15.66">
  <g id="calculator" transform="translate(-65.834)">
    <path id="Path_2614" data-name="Path 2614" d="M75.96,0h-8.62a1.508,1.508,0,0,0-1.507,1.507V14.153a1.508,1.508,0,0,0,1.507,1.507h8.62a1.508,1.508,0,0,0,1.507-1.507V1.507A1.508,1.508,0,0,0,75.96,0ZM67.9,2.6a.459.459,0,0,1,.459-.459h6.586A.459.459,0,0,1,75.4,2.6v.906a.459.459,0,0,1-.459.459H68.358a.459.459,0,0,1-.459-.459Zm1.545,10.3a.459.459,0,0,1-.459.459h-.627A.459.459,0,0,1,67.9,12.9V12.47a.459.459,0,0,1,.459-.459h.627a.459.459,0,0,1,.459.459Zm0-2.715a.459.459,0,0,1-.459.459h-.627a.459.459,0,0,1-.459-.459V9.755a.459.459,0,0,1,.459-.459h.627a.459.459,0,0,1,.459.459ZM72.46,12.9a.459.459,0,0,1-.459.459h-.627a.459.459,0,0,1-.459-.459V12.47a.459.459,0,0,1,.459-.459H72a.459.459,0,0,1,.459.459Zm0-2.715a.459.459,0,0,1-.459.459h-.627a.459.459,0,0,1-.459-.459V9.755a.459.459,0,0,1,.459-.459H72a.459.459,0,0,1,.459.459Zm0-2.715A.459.459,0,0,1,72,7.933H68.358a.459.459,0,0,1-.459-.459V7.04a.459.459,0,0,1,.459-.459H72a.459.459,0,0,1,.459.459Zm3.017,5.43a.459.459,0,0,1-.459.459h-.627a.459.459,0,0,1-.459-.459V12.47a.459.459,0,0,1,.459-.459h.627a.459.459,0,0,1,.459.459Zm0-2.715a.459.459,0,0,1-.459.459h-.627a.459.459,0,0,1-.459-.459V9.755a.459.459,0,0,1,.459-.459h.627a.459.459,0,0,1,.459.459Zm0-2.715a.459.459,0,0,1-.459.459h-.627a.459.459,0,0,1-.459-.459V7.04a.459.459,0,0,1,.459-.459h.627a.459.459,0,0,1,.459.459Z" transform="translate(0 0)" fill="#4d4f5c"/>
  </g>
</svg>
