<svg xmlns="http://www.w3.org/2000/svg" width="18" height="18" viewBox="0 0 18 18">
  <g id="Group_4469" data-name="Group 4469" transform="translate(-579 -801)">
    <rect id="Rectangle_3008" data-name="Rectangle 3008" width="18" height="18" transform="translate(579 801)" opacity="0"/>
    <path id="Path_3452" data-name="Path 3452" d="M300.53,305.666a2.251,2.251,0,0,1-1.512-.6,2.556,2.556,0,0,1-.816-1.769V291.9a2.56,2.56,0,0,1,.818-1.806,2.268,2.268,0,0,1,1.527-.6l.12,0,4.434,0,1.724,2.478,7.051-.047a2.283,2.283,0,0,1,1.507.6,2.569,2.569,0,0,1,.818,1.771v8.975a2.581,2.581,0,0,1-.818,1.79,2.283,2.283,0,0,1-1.533.6Zm13.25-1.569-.006.1.062-.1a.713.713,0,0,0,.492-.2.983.983,0,0,0,.306-.669v-8.9a.97.97,0,0,0-.3-.646.719.719,0,0,0-.479-.2l-7.834,0-1.725-2.478-3.668.044a.765.765,0,0,0-.549.192.984.984,0,0,0-.306.682v11.323a.964.964,0,0,0,.3.645.715.715,0,0,0,.491.195l13.21,0Z" transform="translate(280.799 512.51)" fill="#757a85"/>
  </g>
</svg>
