<svg xmlns="http://www.w3.org/2000/svg" width="14" height="14" viewBox="0 0 14 14">
  <g id="Group_40075" data-name="Group 40075" transform="translate(-15288 -414)">
    <rect id="Rectangle_6444" data-name="Rectangle 6444" width="14" height="14" transform="translate(15288 414)" opacity="0"/>
    <rect id="Rectangle_6445" data-name="Rectangle 6445" width="14" height="14" transform="translate(15288 414)" fill="none"/>
    <path id="Path_38150" data-name="Path 38150" d="M1.812,13.582a1.755,1.755,0,0,1-1.176-.467A1.989,1.989,0,0,1,0,11.74V2.875a1.993,1.993,0,0,1,.636-1.4A1.76,1.76,0,0,1,1.825,1H5.367L6.708,2.931l5.484-.037a1.775,1.775,0,0,1,1.172.467A2,2,0,0,1,14,4.739v6.981a2.01,2.01,0,0,1-.636,1.392,1.773,1.773,0,0,1-1.192.467Z" transform="translate(15288 413.777)" fill="#72c9ff"/>
  </g>
</svg>
