<svg xmlns="http://www.w3.org/2000/svg" width="15.323" height="18" viewBox="0 0 15.323 18">
  <g id="Group_4351" data-name="Group 4351" transform="translate(-443.472 -147.331)">
    <path id="Path_3410" data-name="Path 3410" d="M448.574,165.331a2.447,2.447,0,0,1-2.438-2.146l-1.091-9.5a.712.712,0,0,1,.215-.62.792.792,0,0,1,.53-.207l10.659,0a.8.8,0,0,1,.549.2.734.734,0,0,1,.226.565l-.9,9.5a2.43,2.43,0,0,1-2.431,2.217Zm-.874-2.314a.83.83,0,0,0,.827.748h5.337a.863.863,0,0,0,.895-.765l.819-8.575H446.7Z" fill="#737b88"/>
    <path id="Path_3411" data-name="Path 3411" d="M457.938,151.691H444.186a.784.784,0,0,1,.069-1.564l4,0v-1.217a1.562,1.562,0,0,1,1.537-1.581h2.728a1.542,1.542,0,0,1,1.493,1.593v1.2l4.068,0a.784.784,0,0,1-.07,1.564Zm-5.49-1.562v-1.217l-2.659-.018.024,1.235Z" fill="#737b88"/>
  </g>
</svg>
