<svg xmlns="http://www.w3.org/2000/svg" width="18.215" height="18" viewBox="0 0 18.215 18">
  <g id="Group_4434" data-name="Group 4434" transform="translate(-108.768 -699.866)">
    <path id="Path_3546" data-name="Path 3546" d="M122.164,699.866a.765.765,0,0,0-.765.765V717.1a.765.765,0,1,0,1.531,0V702.479l2.748,2.748a.765.765,0,0,0,1.082-1.083l-4.054-4.054A.764.764,0,0,0,122.164,699.866Z" fill="#737b88"/>
    <g id="Group_4429" data-name="Group 4429">
      <path id="Path_3547" data-name="Path 3547" d="M119.074,701.366h-9.556a.75.75,0,0,1,0-1.5h9.556a.75.75,0,0,1,0,1.5Z" fill="#737b88"/>
    </g>
    <g id="Group_4430" data-name="Group 4430">
      <path id="Path_3548" data-name="Path 3548" d="M111.074,717.866h-1.556a.75.75,0,0,1,0-1.5h1.556a.75.75,0,0,1,0,1.5Z" fill="#737b88"/>
    </g>
    <g id="Group_4431" data-name="Group 4431">
      <path id="Path_3549" data-name="Path 3549" d="M117.074,705.491h-7.556a.75.75,0,0,1,0-1.5h7.556a.75.75,0,0,1,0,1.5Z" fill="#737b88"/>
    </g>
    <g id="Group_4432" data-name="Group 4432">
      <path id="Path_3550" data-name="Path 3550" d="M113.074,713.741h-3.556a.75.75,0,0,1,0-1.5h3.556a.75.75,0,0,1,0,1.5Z" fill="#737b88"/>
    </g>
    <g id="Group_4433" data-name="Group 4433">
      <path id="Path_3551" data-name="Path 3551" d="M115.074,709.616h-5.556a.75.75,0,0,1,0-1.5h5.556a.75.75,0,0,1,0,1.5Z" fill="#737b88"/>
    </g>
  </g>
</svg>
