<svg xmlns="http://www.w3.org/2000/svg" width="16.234" height="18" viewBox="0 0 16.234 18">
  <g id="Group_4371" data-name="Group 4371" transform="translate(-207.348 -290.319)">
    <path id="Path_3450" data-name="Path 3450" d="M211.9,308.319a1.592,1.592,0,0,1-1.593-1.552V294.721a1.584,1.584,0,0,1,1.576-1.554h5.853a3.046,3.046,0,0,1,1.73.773,17.324,17.324,0,0,1,3.332,3.243,2.845,2.845,0,0,1,.785,1.675v7.907a1.585,1.585,0,0,1-1.577,1.554Zm0-13.7a.11.11,0,0,0-.108.1v12.037a.105.105,0,0,0,.107.1h10.089a.107.107,0,0,0,.108-.1v-7.706l-3.795-.02a.742.742,0,0,1-.743-.726v-3.665Zm7.144,2.936,2.137.02a9.071,9.071,0,0,0-.989-1.1c-.356-.349-.731-.683-1.115-.992l-.033-.026Z" fill="#757a85"/>
    <path id="Path_3451" data-name="Path 3451" d="M208.627,306.082a1.573,1.573,0,0,1-1.279-1.522V291.874a1.586,1.586,0,0,1,1.577-1.555h6.538a3.049,3.049,0,0,1,1.71.756c.167.118.336.248.51.386l.437.349-9.178-.035a.106.106,0,0,0-.107.1v14.244Z" fill="#757a85"/>
  </g>
</svg>
