<svg xmlns="http://www.w3.org/2000/svg" width="18" height="18" viewBox="0 0 18 18">
  <g id="Group_4359" data-name="Group 4359" transform="translate(-153.745 -317.549)">
    <path id="Path_3427" data-name="Path 3427" d="M156.355,335.549a2.613,2.613,0,0,1-2.61-2.611v-3.651a.784.784,0,0,1,1.567,0v3.651a1.044,1.044,0,0,0,1.043,1.043h12.779a1.044,1.044,0,0,0,1.043-1.043v-3.651a.784.784,0,0,1,1.568,0v3.651a2.614,2.614,0,0,1-2.611,2.611Z" fill="#747b88"/>
    <path id="Path_3428" data-name="Path 3428" d="M157.625,325.276a.784.784,0,0,1,1.109-1.108l4.011,4.011,4.01-4.011a.783.783,0,0,1,1.108,1.108l-5.118,5.119Z" fill="#747b88"/>
    <path id="Path_3429" data-name="Path 3429" d="M162.745,330.071a.785.785,0,0,1-.784-.784V318.333a.784.784,0,1,1,1.567,0v10.954A.784.784,0,0,1,162.745,330.071Z" fill="#747b88"/>
  </g>
</svg>
