<svg xmlns="http://www.w3.org/2000/svg" width="18" height="18" viewBox="0 0 18 18">
  <g id="Group_4474" data-name="Group 4474" transform="translate(-871 -325)">
    <rect id="Rectangle_2993" data-name="Rectangle 2993" width="18" height="18" transform="translate(871 325)" opacity="0"/>
    <g id="Group_4360" data-name="Group 4360" transform="translate(671.255 7.338)">
      <path id="Path_3430" data-name="Path 3430" d="M204.043,330.925a.769.769,0,0,1-.547-.227l-3.525-3.525a.775.775,0,0,1,0-1.094l3.525-3.526a.774.774,0,1,1,1.1,1.094l-2.95,2.95,2.95,3.007a.774.774,0,0,1-.548,1.321Z" fill="#747b88"/>
      <path id="Path_3431" data-name="Path 3431" d="M213.445,330.925a.774.774,0,0,1-.547-1.321l2.949-2.95-2.949-3.007a.774.774,0,1,1,1.094-1.094l3.526,3.526a.773.773,0,0,1,0,1.094l-3.526,3.525A.769.769,0,0,1,213.445,330.925Z" fill="#747b88"/>
      <path id="Path_3432" data-name="Path 3432" d="M207.048,331.436a.773.773,0,0,1-.714-1.071l3.419-8.227a.774.774,0,1,1,1.43.6l-3.419,8.227A.774.774,0,0,1,207.048,331.436Z" fill="#747b88"/>
    </g>
  </g>
</svg>
