<svg xmlns="http://www.w3.org/2000/svg" width="16" height="16" viewBox="0 0 16 16">
  <path id="Icon_awesome-expand" data-name="Icon awesome-expand" d="M0,7.536V3.107A.855.855,0,0,1,.857,2.25H5.286a.43.43,0,0,1,.429.429V4.107a.43.43,0,0,1-.429.429h-3v3a.43.43,0,0,1-.429.429H.429A.43.43,0,0,1,0,7.536ZM10.286,2.679V4.107a.43.43,0,0,0,.429.429h3v3a.43.43,0,0,0,.429.429h1.429A.43.43,0,0,0,16,7.536V3.107a.855.855,0,0,0-.857-.857H10.714A.43.43,0,0,0,10.286,2.679Zm5.286,9.857H14.143a.43.43,0,0,0-.429.429v3h-3a.43.43,0,0,0-.429.429v1.429a.43.43,0,0,0,.429.429h4.429A.855.855,0,0,0,16,17.393V12.964A.43.43,0,0,0,15.571,12.536ZM5.714,17.821V16.393a.43.43,0,0,0-.429-.429h-3v-3a.43.43,0,0,0-.429-.429H.429A.43.43,0,0,0,0,12.964v4.429a.855.855,0,0,0,.857.857H5.286A.43.43,0,0,0,5.714,17.821Z" transform="translate(0 -2.25)" fill="#fff"/>
</svg>
