<svg xmlns="http://www.w3.org/2000/svg" width="18" height="18" viewBox="0 0 18 18">
  <path id="Path_3228" data-name="Path 3228" d="M651.5,285a.723.723,0,0,1,.723-.723h3.3v-1.7a.722.722,0,1,1,1.444,0v4.842a.722.722,0,1,1-1.444,0v-1.7h-3.3A.723.723,0,0,1,651.5,285Zm17.277-.723H658.559a.723.723,0,0,0,0,1.445h10.219a.723.723,0,1,0,0-1.445Zm-16.555-4.411h9.151a.723.723,0,0,0,0-1.445h-9.151a.723.723,0,1,0,0,1.445Zm16.555-1.445h-4.364v-1.7a.722.722,0,1,0-1.445,0v4.842a.722.722,0,1,0,1.445,0v-1.7h4.364a.723.723,0,1,0,0-1.445Zm0,11.713h-7.61a.723.723,0,1,0,0,1.445h7.61a.723.723,0,1,0,0-1.445Zm-9.929-2.421a.723.723,0,0,0-.722.723v1.7h-5.9a.723.723,0,1,0,0,1.445h5.9v1.7a.722.722,0,1,0,1.445,0v-4.842A.723.723,0,0,0,658.849,287.713Z" transform="translate(-651.5 -276)" fill="#737b88"/>
</svg>
