<svg xmlns="http://www.w3.org/2000/svg" width="220" height="180" viewBox="0 0 220 180">
  <g id="Group_4069" data-name="Group 4069" transform="translate(705 15817.999)">
    <g id="Group_4037" data-name="Group 4037" transform="translate(-705 -15817.999)">
      <path id="Path_3292" data-name="Path 3292" d="M1635.885,688.913v-7.761a8.675,8.675,0,0,0-8.8-8.544h-79.2a8.675,8.675,0,0,0-8.8,8.544v50.285h220V703.152a8.675,8.675,0,0,0-8.8-8.544H1641.752A5.783,5.783,0,0,1,1635.885,688.913Z" transform="translate(-1539.085 -672.608)" fill="#d5dae0"/>
      <path id="Path_3293" data-name="Path 3293" d="M1747.351,899.958H1550.818a11.566,11.566,0,0,1-11.734-11.392V776.755h97.129a8.921,8.921,0,0,0,6.5-2.787l10.811-11.513a8.92,8.92,0,0,1,6.5-2.787h99.054v128.9A11.566,11.566,0,0,1,1747.351,899.958Z" transform="translate(-1539.085 -719.958)" fill="#edf0f5"/>
    </g>
  </g>
</svg>
