<?xml version="1.0" encoding="utf-8"?>
<!-- Generator: Adobe Illustrator 24.1.1, SVG Export Plug-In . SVG Version: 6.00 Build 0)  -->
<svg version="1.1" id="Layer_1" xmlns="http://www.w3.org/2000/svg" xmlns:xlink="http://www.w3.org/1999/xlink" x="0px" y="0px"
	 width="1460.6px" height="1163.7px" viewBox="0 0 1460.6 1163.7" style="enable-background:new 0 0 1460.6 1163.7;"
	 xml:space="preserve">
<style type="text/css">
	.st0{fill:url(#Path_2459_1_);}
	.st1{fill:#8FD8FC;}
	.st2{fill:#0070AD;}
	.st3{fill:#BFEAFF;}
	.st4{fill:none;stroke:#22537F;stroke-width:2;stroke-linecap:round;stroke-linejoin:round;}
	.st5{fill:#CBEFFC;}
	.st6{fill:#FFC55F;}
	.st7{fill:#F95B03;}
	.st8{fill:#EC961F;}
	.st9{fill:#1C2229;}
	.st10{fill:#FFAA83;}
	.st11{fill:none;stroke:#ED5738;stroke-width:6;stroke-linecap:round;stroke-linejoin:round;}
	.st12{fill:#ED5738;}
	.st13{fill:#5296FB;}
	.st14{fill:#FFFFFF;}
	.st15{fill:#1D5EF8;}
	.st16{fill:#253238;}
	.st17{fill:#22537F;}
	.st18{fill:#1E5B89;}
	.st19{fill:#4C91FC;}
	.st20{fill:#465197;}
</style>
<g id="forgot-img" transform="translate(333.664 84)">
	
		<linearGradient id="Path_2459_1_" gradientUnits="userSpaceOnUse" x1="576.491" y1="548.2128" x2="576.4972" y2="547.4634" gradientTransform="matrix(1515.1649 0 0 -1163.667 -873300.6875 638137.5)">
		<stop  offset="0" style="stop-color:#F6F9FB"/>
		<stop  offset="1" style="stop-color:#E9EFF4"/>
	</linearGradient>
	<path id="Path_2459" class="st0" d="M901.2,1079.7H-757.4L-759.2-369h314.6c99.7,144.1,79.3,405,199.6,463.9
		C-112.7,159.7-119-104.2,88.9-79.3s156.1,276.1,351.3,296S630.4-9.6,920.1,65.1S1187.8,1031.1,901.2,1079.7z"/>
	<g id="Group_532" transform="translate(13.588 134.648)">
		<g id="Environment" transform="translate(198.939 63.774)">
			<g id="Tree-" transform="translate(148.392)">
				<path id="Tree-base" class="st1" d="M-121.5-179.1c0-0.1,0-0.2,0-0.4c0-20.1-15.9-36.3-35.4-36.3s-35.4,16.3-35.4,36.3
					c0,0.1,0,0.1,0,0.2l0,0c0.1,14.4-4.7,28.3-13.6,39.6c-11.7,14.7-17.5,28.2-17.5,40.4c0.2,6.6,1.5,13,3.9,19.1l0,0
					c6.7,18.1,4.6,38.3-5.6,54.7c-9.9,15.9-14.8,30-14.8,42.5c0,8,2.1,17.3,6.4,28l0,0c7.2,18.1,5.6,38.5-4.4,55.3
					c-11.7,19.5-17.5,36.6-17.5,51.2c0,55.8,44.1,101.1,98.5,101.1s98.5-45.2,98.5-101.1c0-14.6-5.8-31.7-17.5-51.2l0,0
					c-10-16.7-11.6-37.2-4.4-55.3c4.3-10.7,6.4-20,6.4-28c0-12.6-5-26.8-15.1-42.8l0,0c-10.3-16.3-12.4-36.5-5.9-54.6
					c2.3-6,3.6-12.4,3.8-18.8c0-12.1-5.7-25.5-17.1-40l0,0C-117-150.6-121.7-164.7-121.5-179.1z"/>
				<path id="Tree-base-2" class="st2" d="M-157.2,89.7v-51L-121.4-8c0.3-0.5,0.3-1.1-0.2-1.5c-0.5-0.3-1.1-0.3-1.5,0.2l-36,47
					c-0.1,0.2-0.2,0.4-0.2,0.6V87l-33.7-44c-0.3-0.5-1-0.6-1.5-0.2c-0.5,0.3-0.6,1-0.2,1.5c0,0,0,0,0,0l35.3,46.1v4.8
					c0,0.4,0.2,0.7,0.5,0.9v45.2l-0.3,0.3c-0.1,0.2-0.2,0.4-0.2,0.6v37.9l-33.7-44c-0.3-0.5-1-0.5-1.5-0.2c-0.5,0.3-0.5,1-0.2,1.5
					l35.3,46.1V199c0,0.4,0.2,0.7,0.5,0.9v27.2c-0.1,0.2-0.2,0.4-0.2,0.6v83.6c0,0.6,0.5,1,1,1s1-0.5,1-1v-70.1
					c0.1-0.2,0.2-0.4,0.2-0.6v-12.7l37.4-38.4c0.4-0.4,0.4-1.1,0-1.5c-0.4-0.4-1.1-0.4-1.5,0l0,0l-35.9,36.8v-41.1
					c0-0.2-0.1-0.4-0.2-0.6l-0.3-0.3v-34.5c0.3-0.2,0.5-0.5,0.5-0.9v-5.5l35.3-46.1c0.4-0.5,0.3-1.1-0.2-1.5
					c-0.5-0.4-1.1-0.3-1.5,0.2c0,0,0,0,0,0l-33.7,44V90.6c0-0.2-0.1-0.5-0.2-0.6L-157.2,89.7z"/>
			</g>
			<g id="Tree--2" transform="translate(0 72.394)">
				<path id="Tree-base-3" class="st3" d="M-199.5,225.3c-50.9,0-92.2-42.3-92.2-94.6s41.3-328.8,92.2-328.8s92.2,276.6,92.2,328.8
					S-148.6,225.3-199.5,225.3z"/>
				<path id="Tree-base-4" class="st2" d="M-199.8,101.3V61l35.8-46.7c0.3-0.5,0.2-1.1-0.3-1.4c-0.4-0.3-1-0.2-1.4,0.2l-36,47
					c-0.1,0.2-0.2,0.4-0.2,0.6v37.9l-33.7-44c-0.3-0.5-1-0.5-1.5-0.2c-0.5,0.3-0.5,1-0.2,1.5l0,0l35.3,46.1v15.4
					c0,0.4,0.2,0.7,0.5,0.9V147l-34.1-44.6c-0.3-0.5-1-0.5-1.5-0.2c-0.5,0.3-0.5,1-0.2,1.5l0,0l35.8,46.7v42.9
					c-0.1,0.2-0.2,0.4-0.2,0.6v83.6c0,0.6,0.5,1,1,1c0.6,0,1-0.5,1-1v-70.1c0.1-0.2,0.2-0.4,0.2-0.6v-12.7l37.4-38.4
					c0.4-0.4,0.4-1.1,0-1.5c-0.4-0.4-1.1-0.4-1.5,0l-35.9,36.8v-88.9c0-0.2-0.1-0.5-0.2-0.6L-199.8,101.3z"/>
			</g>
			<g id="Tree--3" transform="translate(604.235 94.234)">
				<path id="Tree-base-5" class="st1" d="M-51.6,230.7c-50.9,0-92.2-42.3-92.2-94.6s41.3-328.8,92.2-328.8S40.6,83.9,40.6,136.1
					S-0.6,230.7-51.6,230.7z"/>
				<path id="Tree-base-6" class="st2" d="M-51.9,106.6V66.3l35.8-46.7c0.3-0.5,0.3-1.1-0.2-1.5c-0.5-0.3-1.1-0.3-1.4,0.2l-36,47
					c-0.1,0.2-0.2,0.4-0.2,0.6v37.9l-33.7-44c-0.3-0.5-1-0.5-1.5-0.2c-0.5,0.3-0.5,1-0.2,1.5l35.3,46.1v15.4c0,0.4,0.2,0.7,0.5,0.9
					v28.7l-34.1-44.6c-0.3-0.5-1-0.5-1.5-0.2c-0.5,0.3-0.5,1-0.2,1.5l35.8,46.7v42.9c-0.1,0.2-0.2,0.4-0.2,0.6v83.6c0,0.6,0.5,1,1,1
					c0.6,0,1-0.5,1-1v-70.1c0.1-0.2,0.2-0.4,0.2-0.6v-12.7l37.4-38.4c0.4-0.4,0.4-1.1,0-1.5c-0.4-0.4-1.1-0.4-1.5,0l0,0l-35.9,36.8
					v-88.9c0-0.2-0.1-0.5-0.2-0.6L-51.9,106.6z"/>
			</g>
		</g>
		<g id="Leaves-" transform="translate(692.658 449.901)">
			<path id="Leaves-base" class="st3" d="M-34.8,113.6C-67,118.2-81.5-10.8-86.6-47s16.9-69.2,49.1-73.7S24.9-99.6,30-63.4
				S-2.6,109.1-34.8,113.6z"/>
			<path id="Leaves-base-2" class="st4" d="M-29.3,132.8v-189"/>
			<path id="Leaves-base-3" class="st1" d="M-23.4,141.6C-47.6,127.1,15.8,27.5,32.9-0.9s50.6-39.8,74.8-25.2s29.9,49.4,12.8,77.9
				S0.8,156.1-23.4,141.6z"/>
			<path id="Leaves-base-4" class="st3" d="M-21.8,145.1c-8.5-18.2,99.3-66.1,129.4-80.2s61.4-10.6,69.9,7.6
				c8.5,18.2-9,44.4-39.1,58.5S-13.3,163.3-21.8,145.1z"/>
			<path id="Leaves-base-5" class="st4" d="M-17.5,143.2L99,107.4"/>
			<path id="Leaves-base-6" class="st4" d="M-19.3,136.4L74.1,29.5"/>
			<path id="Leaves-base-7" class="st1" d="M-20,143.5c-13.5,15-99.7-65.6-124.4-87.8s-33.8-52.4-20.3-67.3s44.4-9.1,69.1,13.2
				S-6.5,128.5-20,143.5z"/>
			<path id="Leaves-base-8" class="st4" d="M-32.7,125.2l-58.5-73.9"/>
			<path id="Leaves-base-9" class="st5" d="M-16.4,143.3c-3.5,13-89.6-11.6-113.9-18.1s-41.3-22.3-37.8-35.3s26-18.2,50.4-11.7
				C-93.4,84.7-12.9,130.3-16.4,143.3z"/>
			<path id="Leaves-base-10" class="st4" d="M-17.9,142.3l-99.2-34"/>
		</g>
		<g id="Boy" transform="translate(313.939 161.514)">
			<g id="_-Torch" transform="translate(0 27.297)">
				<path id="_-Torch-base" class="st6" d="M-174.8,228c-0.1,2.8-2.4,5.1-5.2,5c-0.3,0-0.6,0-0.9-0.1c-3.7-0.7-6.5-3.6-7.2-7.3
					L-231.5,9.8c-3.3-16.5,7.4-32.6,23.9-35.9c1.3-0.3,2.6-0.4,4-0.5c0.9-0.1,1.9-0.1,2.8-0.1c17.6,0.4,31.5,15,31.1,32.5
					c0,0,0,0,0,0L-174.8,228z"/>
				<path id="_-Torch-base-2" class="st7" d="M-213.5,24c-22,8-59.2-27.6-48.1-67.7s21-64.2,10.5-76.6s27.5-6.4,27.5,17.6
					s2.9-59.7,32-82.4c5.1,27.7,14.5,49.3,28.2,64.8c20.5,23.2,16.2,41.6,7.7,63.7c9.9,1.9,14.2-0.5,13.1-7.3
					c13.2,12.4,0.4,64.9-30.3,79.3S-191.5,16-213.5,24z"/>
				<path id="_-Torch-base-3" class="st8" d="M-169.7,13.7c-1,0.6-2,1.1-3.1,1.6c-30.6,14.4-18.7,0.7-40.7,8.7
					c-4.9,1.6-10.1,1.5-14.9-0.2L-230.8,9c-0.1-0.7-0.2-1.5-0.3-2.2c-1.5-16.7,10.9-31.4,27.6-32.9c0,0,0,0,0,0
					c0.6,0,1.2-0.1,1.7-0.1c17-0.5,31.3,12.8,31.8,29.9l0,0L-169.7,13.7z"/>
				<path id="_-Torch-base-4" class="st9" d="M-210.3,2.7l10.1-19.7c0.7-1.3,2.3-1.8,3.7-1.1c1.3,0.7,1.8,2.3,1.2,3.6l-10.1,19.7
					c-0.7,1.3-2.4,1.8-3.7,1.1C-210.4,5.6-210.9,4-210.3,2.7z"/>
				<path id="_-Torch-base-5" class="st9" d="M-200.3,7.7l10.1-19.7c0.7-1.3,2.3-1.8,3.7-1.1c1.3,0.7,1.8,2.3,1.2,3.6l-10.1,19.7
					c-0.7,1.3-2.3,1.9-3.7,1.2C-200.4,10.7-201,9-200.3,7.7z"/>
			</g>
			<g id="Hand-base" transform="translate(28.471 179.317)">
				<path id="Path_2520" class="st10" d="M-216.7,27.3c12.8-7.7-13.2-51.1-18-53.1c-8-3.5-20.4,15.9-21.9,25.2
					c-1.8,11.7,16.3,27.3,25.7,33.2c0.8,0.5,5,4.1,6.1,3.9c1-0.2-0.2-4.9,0.9-5.4C-221.3,30-219,28.7-216.7,27.3z"/>
				<path id="Path_2521" class="st11" d="M-57.5,46.3L-68,29.5L-57.5,46.3z"/>
				<path id="Combined-Shape" class="st10" d="M-186.9-6.9c31.8,8.4,79.2,21.7,118.9,36.5c-17.5-55.2-34.3-129.9-22.2-155.1
					c17.4-36.4,42.3-22.4,55.5-1.4C-22-106.4,23.2,46.9,9.1,87.9c5.5,24.7-9.7,36.2-41.4,29.7c-22.5-4.6-76.4-32.1-161.7-82.5
					c-3.9,0.8-9.2-1.7-11.5-4.9c-0.6-0.9-1.2-1.9-1.6-2.9c-8.2-4.9-16.6-9.9-25.4-15.2c-1.2-5.6-1.7-11.3-1.5-17l-0.1-0.1
					c-13.5-5.9,8.2-31.2,16.5-28.1c5.6,2,12.8,0.9,21.7,9C-191.8-20.4-188.8-14.1-186.9-6.9z"/>
				<path id="Path_2522" class="st12" d="M-239.5-12.1c2.5-3.5,5.2-6.8,8.2-9.9c1-1.1,1-2.8-0.1-3.8c-1.1-1-2.8-1-3.8,0.1
					c-3.3,3.3-6.2,6.9-8.9,10.7c-0.8,1.2-1.4,2.5-1.8,3.9c-0.5,1.7,0.2,3.5,1.7,4.5c4.5,2.9,11.2,3.3,19.9,0.3
					c2.4-0.9,4.5-1.7,6.3-2.4c-1,5.2-0.3,10.6,2,15.3c1.1,2.6,2.8,5,4.8,6.9c2,1.9,5,1.9,7,0.1c1.1-1,1.2-2.7,0.2-3.8
					c-0.9-1.1-2.5-1.2-3.7-0.4c0,0-0.1-0.1-0.1-0.1c-1.4-1.5-2.6-3.2-3.4-5.1c-2.6-5.2-2.6-10.9,0.1-17.3c0.6-1.4-0.1-3-1.5-3.6
					c-0.9-0.4-2-0.2-2.8,0.4c-1.3,1.1-5,2.7-10.8,4.8c-6.5,2.3-11.1,2.3-14.1,0.8C-240.1-11.2-239.8-11.7-239.5-12.1z M-207.5,9.4
					L-207.5,9.4z"/>
			</g>
			<g id="Body-base" transform="translate(142.391 149.915)">
				<path id="Path_2523" class="st10" d="M-181.8-140.7c36.9-34.5,273.9-0.2,290,30.5S77.3,125.7,32.7,152.4s-148.4,29.5-188-19.8
					S-218.8-106.3-181.8-140.7z"/>
				<path id="Path_2524" class="st13" d="M-184.3,28.5c-21.3,0.9-39.9-7-42.8-27.1c-5.6-38.9,4-106.7,32.2-135.6
					c10.1-10.4,19-14.3,26.6-13.9c15.4-5.3,39.3-7.4,66.8-7.1c22.4,0.2-25.2,147.6,53.2,155.9C50.9,11.2,6.5-145,23.3-141.6
					c44,8.6,79,20.2,84.8,31.4C121.3-85.1,92,57.9,56.4,123C48.7,137.2,80,199,72,203.8c-38.9,23.3-63.9,19.4-134.4,21.4
					s-111.2-32.7-110.1-46.3c1.8-22,5.5-54.5,1.1-82.3C-173.6,82.4-179,57.4-184.3,28.5z"/>
				<path id="Path_2525" class="st14" d="M-105.9-87.5c-0.1-2.1,1.4-3.9,3.5-4.1c2.1-0.1,3.9,1.4,4,3.4
					c4.4,53.8,21.2,81.6,49.8,84.6C-28.3-1.4-11.7-10,0.4-27.2c10.9-15.4,17.4-37.1,18.3-59c0.1-2.1,1.9-3.7,4-3.7
					c2.1,0.1,3.7,1.9,3.7,4c-0.9,23.3-7.9,46.3-19.6,63C-7-3.4-26.2,6.5-49.3,4C-82.5,0.5-101.3-30.4-105.9-87.5z"/>
				<path id="Path_2526" class="st14" d="M-189.7,20.4c-12.6-3-26.2-10.2-38.1-21c-1.1-1-1.2-2.7-0.2-3.8s2.7-1.2,3.8-0.2
					c11.7,10.6,23.7,17.1,35.9,19.7C-187.3,18.7-185.1,20.4-189.7,20.4z"/>
				<path id="Path_2527" class="st15" d="M-183.4,24.5c0.4,1.4-0.4,3-1.8,3.4s-3-0.4-3.4-1.8c-5.9-19.3-8.4-33.1-7.4-41.8
					c0.2-1.5,1.5-2.6,3-2.4s2.6,1.5,2.4,3c0,0,0,0.1,0,0.1C-191.5-7.4-189.1,5.9-183.4,24.5z"/>
			</g>
			<g id="Head" transform="translate(202.365 0)">
				<g id="Face-base" transform="translate(17.385 80.641)">
					<path id="Path_2528" class="st10" d="M-185-54c-9.7-3.1-27.3-18.5-24.5-30.6c2.9-12.5,12.9-20.9,22.3-18.7
						c0.4,0.1,0.7,0.2,1.1,0.3c0.3-2,0.7-4,1.1-5.9c10.2-44.1,54.9-71.5,99.9-61.1s73.2,54.6,63,98.7S-84.4,45.1-129.4,34.7
						C-159.3,27.8-178.5-13.9-185-54z"/>
					<path id="Path_2529" class="st16" d="M-137.6-105.3l15.3,14.3c2,1.7,2.2,4.8,0.4,6.7c-1.7,2-4.8,2.2-6.7,0.4
						c-0.1-0.1-0.1-0.1-0.2-0.2l-15.3-14.3c-2-1.7-2.2-4.8-0.4-6.7c1.7-2,4.8-2.2,6.7-0.4C-137.7-105.4-137.6-105.4-137.6-105.3z"/>
					<path id="Path_2530" class="st17" d="M-69.2-92.9l19.5-7.5c2.5-0.9,5.2,0.3,6.1,2.8c0.9,2.4-0.3,5.1-2.7,6.1L-65.8-84
						c-2.5,0.9-5.2-0.3-6.2-2.7C-72.9-89.2-71.7-92-69.2-92.9C-69.3-92.9-69.3-92.9-69.2-92.9L-69.2-92.9z"/>
					<path id="Path_2531" class="st11" d="M-95.2-82.9c-7.4,17.9-8.7,29.3-4,34.3c4.7,5,9.2,8,13.6,9c-6.5,5.7-12.5,8.9-17.8,9.6
						c-8.1,1.1-20.6-5.2-12.5-9.9"/>
					<path id="Path_2532" class="st12" d="M-190-94.7c1.4-0.4,3,0.4,3.4,1.8c0.4,1.4-0.4,3-1.8,3.4c-8.3,2.5-9.8,6.1-5.4,12.9
						c0.8,1.2,0.5,2.9-0.7,3.8c-1.2,0.8-2.9,0.5-3.8-0.7c0,0,0-0.1-0.1-0.1C-204.8-83.5-201.7-91.2-190-94.7z"/>
					<path id="Path_2533" class="st12" d="M-139.7-12.4c-1.5,0-2.7-1.2-2.7-2.7c0-1.5,1.2-2.7,2.7-2.7c0,0,0,0,0.1,0
						c19.5,0.4,33,10.2,40.2,29.1c0.5,1.4-0.1,3-1.5,3.5c-1.4,0.5-3-0.1-3.5-1.5c0,0,0,0,0-0.1C-110.9-3.6-122.5-12.1-139.7-12.4z"
						/>
					<path id="Path_2534" class="st12" d="M-172.3-7c-0.5-1.4,0.3-3,1.7-3.4c1.4-0.5,3,0.3,3.4,1.7c7.7,23.5,20.9,37.2,39.6,41.5
						c18.7,4.3,36.7-3.1,54.2-22.6c1-1.1,2.7-1.2,3.8-0.2c1.1,1,1.2,2.7,0.2,3.8l0,0c-18.8,20.9-38.7,29.1-59.5,24.3
						C-149.4,33.4-164,18.2-172.3-7z"/>
					<path id="Path_2535" class="st9" d="M-148.7-73.6l14.1-2.7l-11.6-7.4c-1.3-0.8-1.6-2.5-0.8-3.8c0.8-1.3,2.5-1.6,3.8-0.8
						l17.3,11.1c1.3,0.8,1.6,2.5,0.8,3.8c-0.4,0.6-1,1.1-1.8,1.2l-20.8,4c-1.5,0.3-2.9-0.7-3.2-2.2
						C-151.1-71.9-150.1-73.3-148.7-73.6L-148.7-73.6z"/>
					<circle id="Ellipse_54" class="st9" cx="-65.8" cy="-60.7" r="5.9"/>
				</g>
				<path id="Hair" class="st16" d="M-200.1-80.1l-11.6-4.8c-1.9-0.8-2.9-3-2.1-5c0.8-1.9,3-2.9,5-2.1l4.4,1.8l-3.7-3.4
					c-1.6-1.4-1.7-3.8-0.3-5.4c1.4-1.6,3.8-1.7,5.4-0.3c0,0,0.1,0.1,0.1,0.1l6,5.5c0.4-0.8,0.7-1.7,1.1-2.5
					c13-25.2,21.6-31.8,46.8-20.8c43.5-99.4,110.2-87.7,128.5-35.7c25.7-32.2,49.1-31.9,66.4-20.5l4.1-7.3c1-1.8,3.3-2.5,5.2-1.5
					c1.8,1,2.5,3.3,1.5,5.2c0,0,0,0.1-0.1,0.1l-4.7,8.3c3.4,3.1,6.6,6.4,9.4,10.1l20.2-14c1.7-1.2,4.1-0.7,5.3,1
					c1.1,1.7,0.7,4-1,5.2l-20.2,14l0.2,0.3l14.9-5c2-0.6,4.1,0.6,4.7,2.6c0.6,1.9-0.5,3.9-2.3,4.6L69.8-145
					c1.9,3.7,3.4,7.5,4.5,11.4c66.9-10.2,94.3,44.5,12.8,77.5c5.8,38.4-42.2,49.9-59.4,39.8c-1,33.5-29.1,51.7-43.8,52.1
					c3.3-5.2,9-21.1,11.4-31.2c-5.1-18.8-9-24.2-7.1-46.6C-26.9-32-54.4-29.3-79.7-25.4c-11.3,1.8-48.3-2.5-59.6-18.5
					c-3.9,16.8-4,34.4-15.8,58.2c-9.6,3.1-5.2-27.7-11-33.5c-6.8-6.8-15.8,1.2-20.4,2.9C-189-22.8-202.2-54.8-200.1-80.1z"/>
			</g>
			<g id="Hand-base-2" transform="translate(291.577 180.473)">
				<path id="Path_2536" class="st10" d="M-22.3-92.1c0.7,19.6-8.9,123-48.7,185c-8.7,13.6-6.4,20.7-12.9,31.2
					c-25.1,40.9-67.4,48.5-67.4-26.1c0-18.8,14.8-35.1,18.1-52c11-57.7,36.5-147,62.2-164.7C-37.8-141.4-23.2-116.8-22.3-92.1z"/>
				<path id="Path_2537" class="st13" d="M-23.4-121.3c0.7,24.3,5,64.3,5.1,100.7c0.1,36.4-103,63.8-110.9,0s27.3-127,57.5-127
					S-24.2-146.1-23.4-121.3z"/>
				<path id="Path_2538" class="st14" d="M-23.8-15.6c-37.9,31.4-74.2,32-107.8,1.7c-1.1-1-1.2-2.7-0.2-3.8c1-1.1,2.7-1.2,3.8-0.2
					C-96.4,10.5-63.2,10-27.3-19.7c1.2-0.9,2.9-0.8,3.8,0.4C-22.5-18.2-22.7-16.5-23.8-15.6L-23.8-15.6z"/>
				<path id="Path_2539" class="st15" d="M-122.5-19.8c4.5-19.6,9.3-32.9,14.5-39.9c0.9-1.2,2.6-1.4,3.8-0.5
					c1.2,0.9,1.4,2.6,0.5,3.8c-4.7,6.2-9.3,18.9-13.6,37.8c-0.3,1.5-1.8,2.4-3.3,2C-122-16.9-122.9-18.4-122.5-19.8L-122.5-19.8z"/>
				<path id="Path_2540" class="st12" d="M-131.7,47.4V36.2c0-1.5,1.2-2.7,2.7-2.7c1.5,0,2.7,1.2,2.7,2.7c0,0,0,0,0,0v11.2
					c0,1.5-1.2,2.7-2.7,2.7S-131.7,48.9-131.7,47.4C-131.7,47.4-131.7,47.4-131.7,47.4z"/>
				<path id="Path_2541" class="st12" d="M-84.8,99c3.5-9.1,3.5-23.4-0.1-42.8c-5.7-21.4-6.8-34.4-2.7-39.8c0.9-1.2,2.6-1.4,3.8-0.5
					c1.2,0.9,1.4,2.5,0.6,3.7c-2.6,3.5-1.6,15.6,3.7,35.5c3.8,20.4,3.8,35.6-0.1,45.9c-0.5,1.4-2.1,2.1-3.5,1.6
					C-84.6,102-85.3,100.4-84.8,99C-84.8,99-84.8,99-84.8,99L-84.8,99z"/>
				<path id="Path_2542" class="st10" d="M-186.4,21.6c-4.3-5.3-2.9-7.4-4.6-14c-0.6-2.3,2.1-5.9,1.8-8.3c-0.3-1.8-3-4.4-3-6.2
					c0-3.2,2.4-6.4,3-9.7c0.5-2.9-3.5-5.3-1.8-10c1.7-4.7,6.4-5.2,8.1-7.7c1.4-2-5.7-4.9,0-10.6s22.7-7.9,31.2-3.9
					c-2.6,16.2,11.8,17.1,20,12.3c2.1-1.2,1.4-11.2,4.5-11.2c2.6,0,9.5,0,13.2,2.8c21.6,16.4,28.5,28.1,25.9,61.6
					c-1.3,16.7-47.9,19.7-63.6,16.4C-160.7,31.2-180.1,29.3-186.4,21.6z"/>
			</g>
			<g id="_-Magnifier-base" transform="translate(285.358 136.111)">
				<path id="Path_2543" class="st18" d="M-141.6-21l22.2,4.7l-7.2,35l-22.2-4.7L-141.6-21z"/>
				<circle id="Ellipse_55" class="st19" cx="-120.8" cy="-85.6" r="73"/>
				<circle id="Ellipse_56" class="st14" cx="-120.8" cy="-84.7" r="64.8"/>
				<path id="Path_2544" class="st10" d="M-59.3-105.2c-5.3,25.1-21.4,57.7-42.2,82.4c-34.2,10.6-70.5-8.5-81.1-42.7
					c-10.6-34.2,8.5-70.5,42.7-81.1C-106.3-157-70.5-138.6-59.3-105.2z"/>
				<g id="Eye" transform="translate(30.576 24.024)">
					<circle id="Ellipse_57" class="st14" cx="-150.9" cy="-117.3" r="35.3"/>
					<circle id="Ellipse_58" class="st17" cx="-150" cy="-116.4" r="18.1"/>
					<circle id="Ellipse_59" class="st9" cx="-150" cy="-116.4" r="9.1"/>
					<circle id="Ellipse_60" class="st14" cx="-137.8" cy="-124.1" r="8.6"/>
				</g>
			</g>
		</g>
		<g id="Frontground" transform="translate(138.412 476.101)">
			<path id="Leaves" class="st3" d="M572.7,141c-15.5-41.7-38.2-62.5-68-62.5c-44.8,0-23.2-65.6-69.7-65.6
				c-30.3,0-30.3,36.5-73.6,13.8c-44.7-23.4,1.7-63.7-83-71.5s-65.2,71.5-100,71.5c-25.1,0-26.7-39.9-48.1-43.1S106,6.8,89.9,3.5
				c-19.5-4-12.2-37.6-59.8-37.6s-31.4,64.9-43.1,72s-26.5-16.7-42.6,11.5s11.7,41.5-11.6,41.5c-28.5,0-44.2,16.7-47.1,50.1
				c2.1,10.2,21.7,15.9,58.7,17.2C0.1,160,2.6,144.3,71.6,147.1c69,2.8,80.7,0,179.7,0s81.5,22.2,157.1,15.5s133.6,7.2,177,4.4
				C609.2,165.5,605,156.8,572.7,141z"/>
			<g id="Leaves-2" transform="translate(23.515)">
				<path id="Leaves-base-11" class="st1" d="M-116,55.9c2.4,4.5,0.8,9.4-3.7,11c-4.5,1.5-30.1,6.1-32.5,1.5
					c-2.4-4.5,19.2-16.3,23.7-17.9C-124.1,49-118.5,51.4-116,55.9z M-142.5,40.4c2.4,4.5,0.8,9.4-3.7,11c-4.5,1.5-30.1,6.1-32.5,1.5
					s19.2-16.3,23.7-17.9C-150.5,33.4-144.9,35.9-142.5,40.4L-142.5,40.4z M-165.7,24c1.7,4.7-0.8,9.1-5.6,9.9
					c-4.8,0.8-31.6,1.2-33.3-3.5s22.3-12.7,27.1-13.5C-172.4,16.3-167.6,19.2-165.7,24z M-190.1,7.4c1.1,4.8-2.1,8.7-7.1,8.8
					c-5,0.1-32.3-3.1-33.4-7.8c-1.1-4.8,24.5-9.3,29.5-9.4C-196-1-191.4,2.5-190.1,7.4L-190.1,7.4z M-212.4-12.8
					c0.6,4.7-3,8.4-8,8.1c-5.1-0.3-32.5-5.8-33.1-10.5c-0.6-4.7,25.7-7,30.8-6.7S-213-17.6-212.4-12.8L-212.4-12.8z M-233.9-32.2
					c-0.3,4.6-4.7,7.3-9.8,6.1c-5.1-1.2-31.9-11.5-31.6-16.1c0.3-4.6,27.6-1.8,32.7-0.6C-237.4-41.5-233.5-36.8-233.9-32.2
					L-233.9-32.2z M-251.5-52.5c-1.6,4.1-6.8,5.5-11.7,3.1c-4.8-2.4-29.2-18.5-27.6-22.7c1.6-4.1,28.6,5.3,33.4,7.7
					C-252.5-62-249.9-56.7-251.5-52.5L-251.5-52.5z M-265.3-77.7c-2.6,3.5-8.3,3.7-12.6,0.4c-4.4-3.3-25.3-23.6-22.7-27.1
					s27.8,11.1,32.1,14.4C-264.1-86.7-262.7-81.2-265.3-77.7z M-256.4-85.5c-3.8-0.9-6.4-4.4-6.3-8.3c0.3-3.6,5.1-22,9-21
					s5.2,20.9,4.9,24.6C-249.2-86.6-252.6-84.5-256.4-85.5L-256.4-85.5z M-241.3-60.2c-3.9-0.7-6.8-3.9-7.1-7.8
					c-0.1-3.7,2.5-22.8,6.4-22.2c3.8,0.6,7.4,20.7,7.5,24.4C-234.4-62.1-237.4-59.6-241.3-60.2L-241.3-60.2z M-224.6-37.5
					c-3.9-0.7-6.8-4-7-7.9c0-3.7,3-22.7,6.8-22c3.8,0.7,7.1,20.8,7.1,24.5S-220.8-36.9-224.6-37.5L-224.6-37.5z M-203.9-14.4
					c-3.9-0.4-7.1-3.4-7.7-7.3c-0.4-3.7,0.4-23.3,4.2-23.1s9.2,20.4,9.6,24.1c0.5,3-1.6,5.8-4.5,6.2
					C-202.9-14.3-203.4-14.3-203.9-14.4L-203.9-14.4z M-182,3c-3.9-0.6-6.9-3.7-7.4-7.6c-0.2-3.7,1.7-23.1,5.5-22.6
					c3.8,0.5,8.1,20.6,8.4,24.3c0.3,3-2,5.7-5,6C-180.9,3.2-181.4,3.1-182,3L-182,3z M-163.2,16.9c-3.8-1.1-6.5-4.9-6.1-8.5
					c0.5-3.6,6-21.7,9.8-20.6c3.8,1.1,4.5,21,4,24.6C-155.9,16-159.3,18-163.2,16.9z M-143.8,29.1c-3.8-1.4-6.2-5.4-5.4-8.8
					s8.1-20.7,11.8-19.3s2.6,20.9,1.8,24.4S-140.1,30.5-143.8,29.1L-143.8,29.1z M-118.7,45.7c-3.8-0.9-6.5-4.3-6.5-8.3
					c0.2-3.6,4.7-22.2,8.5-21.2c3.8,0.9,5.6,20.9,5.3,24.6C-111.5,44.4-114.8,46.6-118.7,45.7L-118.7,45.7z"/>
				<path id="Leaves-base-12" class="st20" d="M-73.4,70.6c1.2,0.5,1.8,1.8,1.5,3.1c-0.5,1-1.7,1.5-2.8,1c-0.1,0-0.1-0.1-0.2-0.1
					C-177.1,24.1-240.2-29.5-264.1-86c-0.5-0.9-0.1-2,0.8-2.5c0.1-0.1,0.3-0.1,0.5-0.2c1.3-0.2,2.6,0.5,3.1,1.7
					C-236.6-31.9-174.4,20.7-73.4,70.6z"/>
				<path id="Leaves-base-13" class="st3" d="M-44.7,53.6c0.8,4.7-2.6,8.4-7.6,8.2c-5-0.2-32.3-4.8-33.1-9.4
					c-0.8-4.7,25.1-7.7,30.1-7.5C-50.2,45.1-45.8,48.7-44.7,53.6z M-66.1,33.6c0.1,4.6-3.9,7.7-9,6.9c-5.1-0.8-32.1-8.9-32.3-13.6
					s26.7-4,31.8-3.2C-70.5,24.5-66.3,28.9-66.1,33.6L-66.1,33.6z M-84.7,10.5c-0.3,4.5-4.7,7.2-9.7,6c-5.1-1.2-31.7-11.5-31.4-16
					c0.3-4.5,27.4-1.7,32.5-0.4C-88.3,1.3-84.4,5.9-84.7,10.5L-84.7,10.5z M-102.7-11.7c-1.2,4.2-6.2,5.9-11.2,3.8
					c-4.9-2.1-30-16.7-28.8-20.9s28.3,3.5,33.3,5.6C-104.4-21-101.4-15.9-102.7-11.7L-102.7-11.7z M-120.4-36.1
					c-3,3.1-8.7,2.6-12.7-1s-23-25.5-20-28.6c3-3.1,26.8,13.7,30.9,17.4S-117.4-39.2-120.4-36.1L-120.4-36.1z M-129.7-63.8
					c-4.2,1.6-9.8-0.7-12.4-5.3c-2.7-4.6-13.3-30-9.1-31.6s21.7,21.2,24.4,25.7C-124.3-70.5-125.5-65.5-129.7-63.8L-129.7-63.8z
					 M-116-68.2c-3.4-2.2-4.8-6.3-3.1-9.3c1.7-3,13.4-17.1,16.8-14.9c3.4,2.2-2.7,19.7-4.4,22.7C-108.4-66.7-112.5-66-116-68.2
					L-116-68.2z M-104.8-39c-3.7-1.3-6.3-5.2-5.6-8.6c0.6-3.5,7.1-20.9,10.8-19.6c3.7,1.3,3.4,20.8,2.7,24.3
					C-97.5-39.5-101-37.7-104.8-39L-104.8-39z M-92.4-14.8c-3.7-1.3-6.2-5.2-5.5-8.7c0.7-3.5,7.5-20.7,11.2-19.4
					c3.7,1.3,3,20.8,2.3,24.2C-85-15.1-88.6-13.4-92.4-14.8L-92.4-14.8z M-75.9,10.8c-3.8-1-6.4-4.4-6.3-8.3
					c0.3-3.6,5-21.8,8.8-20.8S-68.2,2.4-68.5,6C-68.8,9.6-72.2,11.7-75.9,10.8L-75.9,10.8z M-57.1,31.2c-3.8-1.2-6.4-5-5.9-8.5
					s6.3-21.3,10-20.1s4.1,20.8,3.6,24.4C-49.9,30.4-53.3,32.3-57.1,31.2L-57.1,31.2z M-40.8,47.7c-3.6-1.7-5.6-5.8-4.4-9.1
					c1.2-3.3,10.3-19.2,14-17.4c3.6,1.7,0.3,20.5-0.9,23.7S-37.2,49.4-40.8,47.7z"/>
				<path id="Leaves-base-14" class="st20" d="M3,81.1c1.1,0.6,1.6,2,1.1,3.1c-0.7,1-2.1,1.2-3.1,0.5c0,0-0.1,0-0.1-0.1
					C-67.9,40.4-109.2-10.2-122.7-67.2c-0.3-0.9,0.3-1.9,1.2-2.2c0.2-0.1,0.4-0.1,0.6-0.1c1.3,0,2.5,0.9,2.8,2.2
					C-105-11.7-64.6,37.7,3,81.1z"/>
			</g>
			<g id="Leaves--2" transform="translate(444.199 86.546)">
				<path id="Leaves-base-15" class="st14" d="M-138.8-93.6c2.9,0.1,5.2,3.4,5.1,7.5c-0.1,4.1-2.8,25.6-5.7,25.6
					c-2.9,0-4.9-21.7-4.8-25.7C-144.1-90.4-141.7-93.7-138.8-93.6z"/>
				<path id="Leaves-base-16" class="st14" d="M-160.6-74.4c2.4-1.6,6.2-0.1,8.4,3.3c2.2,3.4,12,22.8,9.6,24.4s-16.2-15.2-18.4-18.7
					C-163.2-68.7-163-72.8-160.6-74.4z"/>
				<path id="Leaves-base-17" class="st14" d="M-172.9-53.9c2.5-2.7,7.5-2,11.2,1.5c3.7,3.5,21.5,24,19,26.7
					c-2.5,2.7-24.2-13.6-28-17.1C-174.4-46.3-175.4-51.3-172.9-53.9z"/>
				<path id="Leaves-base-18" class="st14" d="M-180-31.8c2.5-3.3,8.3-3,12.9,0.6S-140.3-6-142.8-2.7c-2.5,3.3-28.9-13-33.5-16.6
					C-180.9-22.9-182.5-28.5-180-31.8z"/>
				<path id="Leaves-base-19" class="st14" d="M-188.2-4.9c2.5-4,9.1-4.4,14.7-0.9s33.3,25.3,30.8,29.3s-34.2-11.3-39.8-14.8
					S-190.6-0.9-188.2-4.9z"/>
				<path id="Leaves-base-20" class="st14" d="M-197.4,25.3c1.9-4.9,9-6.7,15.9-4.1s41.8,20.6,39.9,25.5s-39.8-5.1-46.7-7.8
					C-195.2,36.3-199.2,30.2-197.4,25.3z"/>
				<path id="Leaves-base-21" class="st14" d="M-117.8-74.4c2.4,1.6,2.6,5.6,0.4,9c-2.2,3.4-15.9,20.2-18.4,18.7
					c-2.4-1.6,7.3-21,9.6-24.4C-124-74.5-120.2-75.9-117.8-74.4z"/>
				<path id="Leaves-base-22" class="st14" d="M-105.5-53.9c2.5,2.7,1.5,7.6-2.3,11.1s-25.5,19.7-28,17.1
					c-2.5-2.7,15.3-23.2,19-26.7C-113-55.9-107.9-56.6-105.5-53.9z"/>
				<path id="Leaves-base-23" class="st14" d="M-98.4-31.8c2.5,3.3,0.9,8.8-3.7,12.4c-4.6,3.6-30.9,19.9-33.5,16.6
					s19.7-24.9,24.2-28.4C-106.7-34.8-101-35-98.4-31.8z"/>
				<path id="Leaves-base-24" class="st14" d="M-90.2-4.9c2.5,4,0,10.1-5.6,13.6c-5.6,3.5-37.3,18.8-39.8,14.8
					c-2.5-4,25.2-25.8,30.8-29.3C-99.3-9.3-92.7-8.9-90.2-4.9z"/>
				<path id="Leaves-base-25" class="st14" d="M-81,25.3c1.9,4.9-2.2,11-9,13.6c-6.9,2.6-44.8,12.6-46.7,7.8s33-22.8,39.9-25.5
					C-90,18.6-82.9,20.4-81,25.3z"/>
				<path id="Leaves-base-26" class="st14" d="M-139.8-52.6c0-0.5,0.4-0.9,0.9-0.9c0.5,0,0.9,0.4,0.9,0.9c0,0,0,0,0,0V67.5
					c0,0.5-0.4,0.9-0.9,0.9c-0.5,0-0.9-0.4-0.9-0.9c0,0,0,0,0,0V-52.6z"/>
			</g>
			<g id="Leaves--3" transform="translate(516.469 129.84)">
				<path id="Leaves-base-27" class="st14" d="M-108.2-82.8c1.9,0.8,2.5,3.6,1.4,6.3s-8.7,16.2-10.6,15.4
					c-1.9-0.8,2.6-15.6,3.7-18.3S-110.1-83.6-108.2-82.8z"/>
				<path id="Leaves-base-28" class="st14" d="M-127.8-75.9c2-0.4,4.1,1.6,4.7,4.5c0.6,2.9,1.8,18.3-0.2,18.7
					c-2,0.4-6.6-14.4-7.2-17.3C-131-72.9-129.8-75.5-127.8-75.9z"/>
				<path id="Leaves-base-29" class="st14" d="M-141.4-65.7c2.3-1.1,5.5,0.7,7,4s7.8,21.6,5.4,22.7c-2.3,1.1-12.4-15.5-13.9-18.8
					S-143.7-64.6-141.4-65.7z"/>
				<path id="Leaves-base-30" class="st14" d="M-152-52.9c2.6-1.5,6.3,0.2,8.4,3.8s11,23.8,8.4,25.3c-2.6,1.5-15.6-16.4-17.7-19.9
					C-154.9-47.3-154.5-51.4-152-52.9z"/>
				<path id="Leaves-base-31" class="st14" d="M-164.5-37.3c2.7-2,7.2-0.5,9.9,3.3s15.2,25.6,12.5,27.6s-19.6-16.6-22.4-20.4
					S-167.3-35.3-164.5-37.3z"/>
				<path id="Leaves-base-32" class="st14" d="M-178.7-19.8c2.6-2.7,7.7-2.1,11.6,1.5S-145,6.6-147.6,9.3s-25-14-28.8-17.6
					C-180.2-11.9-181.3-17-178.7-19.8z"/>
				<path id="Leaves-base-33" class="st14" d="M-99.4-64.4c1.2,1.7,0.2,4.4-2.2,6.1c-2.4,1.7-16,9.1-17.1,7.4
					c-1.2-1.7,10.5-11.9,12.8-13.6C-103.5-66.2-100.6-66.1-99.4-64.4z"/>
				<path id="Leaves-base-34" class="st14" d="M-96.7-47.6c0.9,2.4-1.1,5.4-4.5,6.7c-3.4,1.3-22.1,6.2-23.1,3.8s16.3-11.3,19.7-12.6
					C-101.2-51-97.7-50.1-96.7-47.6z"/>
				<path id="Leaves-base-35" class="st14" d="M-98-31.1c0.8,2.8-1.8,6.1-5.7,7.2c-4,1.1-25.8,4.9-26.6,2.1
					c-0.8-2.8,19.6-11.2,23.6-12.3C-102.7-35.3-98.8-33.9-98-31.1z"/>
				<path id="Leaves-base-36" class="st14" d="M-99.8-11.1c0.6,3.3-2.7,6.7-7.4,7.5c-4.6,0.8-29.7,2.5-30.3-0.8s23.5-10.3,28.2-11.1
					C-104.6-16.5-100.3-14.4-99.8-11.1z"/>
				<path id="Leaves-base-37" class="st14" d="M-101.8,11.3c-0.1,3.7-4.4,6.7-9.6,6.6s-33-3.6-33-7.4c0.1-3.7,27.9-6.3,33.2-6.2
					S-101.7,7.6-101.8,11.3z"/>
				<path id="Leaves-base-38" class="st14" d="M-120-56c0.2-0.5,0.7-0.7,1.2-0.5c0.5,0.2,0.7,0.7,0.5,1.2c0,0,0,0,0,0l-32.1,79.4
					c-0.2,0.5-0.7,0.7-1.2,0.5c-0.5-0.2-0.7-0.7-0.5-1.2c0,0,0,0,0,0L-120-56z"/>
			</g>
			<path id="Leaves-3" class="st1" d="M408.3,159.1c-8.7-13.8-28.4-20.6-59.3-20.6c-46.3,0-38-25-86-25s-19.2-94.4-135.8-99.4
				S36.9,69.1,0.9,69.1s-55.3-29.4-99.4-27.3s-61.8,68-79.5,71.7c-17.7,3.7-4.6-13-53.1-13c-32.4,0-55.2,12.7-68.6,38
				c-18.6,13.8,0.7,20.6,57.8,20.6c21,0,79-6.7,143.4-8.6c36.4-1.1,102.8,19,186.2,19c39.4,0,73.2-9,150.3-10.4
				C289.4,158.2,346.1,158.2,408.3,159.1z"/>
		</g>
	</g>
</g>
</svg>
