<svg xmlns="http://www.w3.org/2000/svg" width="1676.5" height="194.486" viewBox="0 0 1676.5 194.486">
  <g id="Group_2333" data-name="Group 2333" transform="translate(-153 -794)">
    <line id="Line_133" data-name="Line 133" x2="1676" transform="translate(153.5 794.5)" fill="none" stroke="#a5a5a5" stroke-width="1"/>
    <line id="Line_134" data-name="Line 134" x2="1676" transform="translate(153.5 842.871)" fill="none" stroke="#a5a5a5" stroke-width="1"/>
    <line id="Line_135" data-name="Line 135" x2="1676" transform="translate(153.5 891.243)" fill="none" stroke="#a5a5a5" stroke-width="1"/>
    <line id="Line_136" data-name="Line 136" x2="1676" transform="translate(153.5 939.614)" fill="none" stroke="#a5a5a5" stroke-width="1"/>
    <line id="Line_137" data-name="Line 137" x2="1676" transform="translate(153.5 987.986)" fill="none" stroke="#a5a5a5" stroke-width="1"/>
    <line id="Line_138" data-name="Line 138" y2="193" transform="translate(179.5 794.5)" fill="none" stroke="#b4b4b4" stroke-width="1"/>
    <line id="Line_139" data-name="Line 139" y2="193" transform="translate(515.856 794.5)" fill="none" stroke="#b4b4b4" stroke-width="1"/>
    <line id="Line_140" data-name="Line 140" y2="193" transform="translate(852.213 794.5)" fill="none" stroke="#b4b4b4" stroke-width="1"/>
    <line id="Line_141" data-name="Line 141" y2="193" transform="translate(1188.569 794.5)" fill="none" stroke="#b4b4b4" stroke-width="1"/>
    <line id="Line_142" data-name="Line 142" y2="193" transform="translate(1524.925 794.5)" fill="none" stroke="#b4b4b4" stroke-width="1"/>
    <path id="Path_2741" data-name="Path 2741" d="M153.5,939.614v48.175H1829V939.614l-132.979,17.9-40.437-33.983-105.33,8.564-85.075-45.566-34.731,37-72.521-37L1277.513,915.5l-66.04-68.414-53.069,92.53-54.637-7.518-73.47,7.518-78.7-16.082-63.3,16.082L824.319,915.5l-108.71,24.116-22.36-122.772L667.554,939.614,650.1,862.669l-19.833,76.945L588.038,915.5l-50.628,8.034-27.594-17.75H445.321l-9.384,17.75L379.263,915.5l-22.4-35.709-78.424,25.994-52.5,9.715-57.059-9.715Z" fill="#d55d5d" stroke="#707070" stroke-width="1"/>
  </g>
</svg>
