<svg xmlns="http://www.w3.org/2000/svg" width="21.584" height="18" viewBox="0 0 21.584 18">
  <path id="Path_3187" data-name="Path 3187" d="M89.149,294.04l-3.971-.188-.231-2.521a.984.984,0,0,0-1.094-.859h-.01l-14.259,1.139a.967.967,0,0,0-.936,1l0,.024,1.02,11.045a.992.992,0,0,0,1.1.857l.723-.056-.116,2.146a1.081,1.081,0,0,0,1.063,1.1h.018l15.908.736a1.1,1.1,0,0,0,1.194-.987v-.006l.666-12.336a1.073,1.073,0,0,0-1.054-1.091A.13.13,0,0,0,89.149,294.04Zm-17.1.247-.337,6.311-.843,1.162-.776-8.341v-.045a.516.516,0,0,1,.463-.441l12.577-1a.463.463,0,0,1,.506.37c0,.01.014.01.014.018s.015.01.015.019l.13,1.443-10.554-.492a1.1,1.1,0,0,0-1.19,1Zm16.1,11.1-4.087-4.662-1.8,1.607-3.337-3.785L73.01,304.67l.5-9.328v-.019a.548.548,0,0,1,.573-.422l14.033.656a.506.506,0,0,1,.5.478c0,.01.015.014.015.024Z" transform="translate(-68.648 -290.465)" fill="#757a85"/>
</svg>
