<svg xmlns="http://www.w3.org/2000/svg" xmlns:xlink="http://www.w3.org/1999/xlink" width="264.127" height="80" viewBox="0 0 264.127 80">
  <defs>
    <linearGradient id="linear-gradient" x1="0.356" y1="0.947" x2="0.577" y2="0.263" gradientUnits="objectBoundingBox">
      <stop offset="0" stop-color="#445ea7"/>
      <stop offset="0.222" stop-color="#4f7cbc"/>
      <stop offset="0.997" stop-color="#5faedf"/>
    </linearGradient>
    <linearGradient id="linear-gradient-2" x1="0.366" y1="-0.021" x2="0.507" y2="0.626" gradientUnits="objectBoundingBox">
      <stop offset="0" stop-color="#445ea7"/>
      <stop offset="0.222" stop-color="#4f7cbc"/>
      <stop offset="0.998" stop-color="#5faedf"/>
    </linearGradient>
    <linearGradient id="linear-gradient-3" x1="0.12" y1="0.537" x2="1.008" y2="0.454" gradientUnits="objectBoundingBox">
      <stop offset="0" stop-color="#445ea7"/>
      <stop offset="0.248" stop-color="#4f7cbc"/>
      <stop offset="1" stop-color="#89ddef"/>
    </linearGradient>
    <linearGradient id="linear-gradient-4" x1="0.6" y1="-0.018" x2="0.452" y2="0.77" gradientUnits="objectBoundingBox">
      <stop offset="0" stop-color="#445ea7"/>
      <stop offset="1" stop-color="#445ea7" stop-opacity="0"/>
    </linearGradient>
    <linearGradient id="linear-gradient-5" x1="0.5" y1="-0.275" x2="0.5" y2="1.363" xlink:href="#linear-gradient-3"/>
  </defs>
  <g id="Group_38924" data-name="Group 38924" transform="translate(1853 693)">
    <g id="Group_38907" data-name="Group 38907" transform="translate(-1853 -693)">
      <path id="Path_37562" data-name="Path 37562" d="M180.507,308.562a39.945,39.945,0,0,0,28.154-48.316c-.048-.2-.1-.392-.15-.587a39.875,39.875,0,0,0-6.538-13.531,24.032,24.032,0,0,1,5.421,1.733,19.752,19.752,0,0,1,3.6,2.124h0l.007.005a.91.91,0,0,0,1.239-.14l7.478-8.818a.877.877,0,0,0-.142-1.269l-.546-.41c-8.376-6.3-20.492-8.788-32.789-5.835a39.99,39.99,0,1,0-5.737,75.045Zm10.425-54.932a26.467,26.467,0,0,1,4.7,9.478A13.33,13.33,0,0,1,176.094,278.1a13.576,13.576,0,0,1-1.262-.825,13.192,13.192,0,0,1-4.624-6.235c-.019-.052-.037-.1-.055-.155s-.028-.08-.042-.122c-.023-.07-.046-.14-.068-.211s-.036-.115-.053-.173-.027-.09-.04-.136c-.007-.026-.015-.051-.022-.076-.015-.053-.03-.107-.044-.161s-.028-.108-.042-.161c-.007-.026-.013-.051-.019-.077-.012-.046-.023-.091-.033-.138s-.028-.118-.041-.177-.027-.121-.039-.181a13.2,13.2,0,0,1,.815-8.013.026.026,0,0,1,0-.008,19.48,19.48,0,0,1,2.254-4.12,25.165,25.165,0,0,1,6.4-6.2,29.682,29.682,0,0,1,5.644-3.012A26.514,26.514,0,0,1,190.932,253.63Zm-47.466,12.719a26.625,26.625,0,0,1,19.518-22.092,26.889,26.889,0,0,1,4.194-.777,35.1,35.1,0,0,0-8.937,12.608.035.035,0,0,0,0,.01,27.308,27.308,0,0,0-1.55,16.023c.018.086.036.172.056.258s.04.179.062.268q.049.211.1.423l.033.13c.023.086.045.172.068.259s.047.172.07.258l.037.129q.06.21.122.417.039.132.081.263c.026.084.053.167.08.251a27.31,27.31,0,0,0,9.354,13.1l.009.007a26.674,26.674,0,0,0,16.251,5.339q-1.075.608-2.208,1.112a26.852,26.852,0,0,1-4.019,1.424,26.682,26.682,0,0,1-33.318-29.412Z" transform="translate(-129.884 -230.009)" fill="#5faedf"/>
      <path id="Path_37563" data-name="Path 37563" d="M180.235,308.636a39.99,39.99,0,1,1,6.01-75.119q-.581.139-1.162.295a42.978,42.978,0,0,0-17.9,9.668,26.889,26.889,0,0,0-4.194.777,26.66,26.66,0,1,0,13.8,51.5,26.885,26.885,0,0,0,4.019-1.424q1.132-.5,2.208-1.112a26.666,26.666,0,0,0,25.5-33.566,39.989,39.989,0,0,1-28.277,48.978Z" transform="translate(-129.885 -230.009)" fill="url(#linear-gradient)"/>
      <path id="Path_37564" data-name="Path 37564" d="M292.979,289.846a32.071,32.071,0,0,1-3.831.781,29.694,29.694,0,0,1-6.394.212,25.158,25.158,0,0,1-8.639-2.167,19.541,19.541,0,0,1-4-2.431,13.625,13.625,0,0,0,1.262.825,13.33,13.33,0,0,0,19.541-14.994,26.529,26.529,0,0,0-10.811-15.182q-.785-.529-1.61-1.006a26.592,26.592,0,0,0-9.67-3.33,26.236,26.236,0,0,0-3.9-.251q-1.235.011-2.467.141a42.978,42.978,0,0,1,17.9-9.668q.581-.156,1.162-.295A39.894,39.894,0,0,1,303.8,268.623a26.534,26.534,0,0,1-.911,16.582q-.274.2-.555.39A30.49,30.49,0,0,1,292.979,289.846Z" transform="translate(-225.169 -238.973)" fill="#5faedf"/>
      <path id="Path_37565" data-name="Path 37565" d="M256.687,326.367a26.585,26.585,0,0,1-22.9-4.425l-.009-.007a27.31,27.31,0,0,1-9.354-13.1c-.028-.084-.054-.167-.08-.251s-.055-.175-.081-.263q-.063-.208-.122-.417l-.037-.129c-.024-.086-.047-.172-.07-.258s-.046-.173-.068-.258l-.033-.13q-.054-.211-.1-.423c-.021-.089-.042-.179-.062-.268s-.039-.171-.056-.258a27.313,27.313,0,0,1,1.55-16.023.034.034,0,0,1,0-.01,35.094,35.094,0,0,1,8.937-12.608q1.232-.129,2.467-.141a26.24,26.24,0,0,1,3.9.251,26.592,26.592,0,0,1,9.67,3.33q.827.477,1.61,1.006A29.676,29.676,0,0,0,246.207,285a25.165,25.165,0,0,0-6.4,6.2,19.479,19.479,0,0,0-2.254,4.12.025.025,0,0,0,0,.008,13.2,13.2,0,0,0-.815,8.013c.012.06.025.121.039.181s.027.118.04.177.022.092.033.138c.006.026.012.051.019.077.014.054.028.108.042.161s.03.107.044.161c.007.026.014.051.022.076.013.046.026.09.04.136s.035.116.053.173.045.141.068.211c.013.041.027.082.042.122s.036.1.055.155a13.194,13.194,0,0,0,4.624,6.235,19.539,19.539,0,0,0,4,2.431,25.16,25.16,0,0,0,8.639,2.167,29.691,29.691,0,0,0,6.394-.212,32.062,32.062,0,0,0,3.831-.781,30.49,30.49,0,0,0,9.351-4.251q.281-.192.555-.39A26.619,26.619,0,0,1,256.687,326.367Z" transform="translate(-196.911 -264.066)" fill="url(#linear-gradient-2)"/>
      <path id="Path_37566" data-name="Path 37566" d="M363.719,246.839a.877.877,0,0,0-.142-1.269l-.546-.41c-8.376-6.3-20.492-8.788-32.789-5.836a40.084,40.084,0,0,1,15.729,12.61,24.033,24.033,0,0,1,5.421,1.733,19.751,19.751,0,0,1,3.6,2.124h0l.007.005a.91.91,0,0,0,1.239-.14Z" transform="translate(-273.882 -235.816)" fill="url(#linear-gradient-3)"/>
      <path id="Path_37567" data-name="Path 37567" d="M259.069,372.181a26.482,26.482,0,0,0,10.561-.666,26.871,26.871,0,0,0,4.019-1.424q1.132-.5,2.208-1.112a26.665,26.665,0,0,0,25.5-33.566,39.989,39.989,0,0,1-28.277,48.978" transform="translate(-222.73 -305.763)" fill="url(#linear-gradient-4)"/>
    </g>
    <g id="Group_38913" data-name="Group 38913" transform="translate(-1746.733 -685)">
      <path id="Path_37568" data-name="Path 37568" d="M516.837,261.273h8.712l-6.488,36.886h16.188l-1.421,8.218h-24.9Z" transform="translate(-508.928 -261.273)" fill="#263138"/>
      <path id="Path_37569" data-name="Path 37569" d="M608.327,323.806c1.359-7.785,7.97-14.211,16.311-14.211,4.263,0,7.353,1.73,9.144,4.387l.68-3.769h8.588l-3.892,20.822c-.371,1.915,0,2.842,2.41,2.842h.618l-1.3,7.229h-3.954c-2.78,0-4.572-1.236-5.437-3.151a12.278,12.278,0,0,1-9.33,3.769C611.663,341.724,606.721,333.321,608.327,323.806Zm23.664,2.41c.865-4.819-2.348-8.9-6.734-8.9a8.894,8.894,0,0,0-8.774,7.538c-.742,4.572,2.039,9.021,7.044,9.021C628.346,333.877,631.25,330.231,631.991,326.215Z" transform="translate(-580.153 -296.002)" fill="#263138"/>
      <path id="Path_37570" data-name="Path 37570" d="M739.993,322.234c.556-2.224,0-3.09-1.977-3.09h-.989l1.3-7.352h3.584c4.016,0,5.5,1.915,5.746,4.881a10.505,10.505,0,0,1,9.268-4.881h3.954l-1.544,8.526h-3.4c-4.263,0-7.229,1.915-8.341,7.661l-2.9,14.705h-8.65Z" transform="translate(-672.153 -297.581)" fill="#263138"/>
      <path id="Path_37571" data-name="Path 37571" d="M819.08,333.85l3.831-22.058H831.5l-3.707,21.131c-.309,1.792.185,2.224,1.792,2.224h.927l-1.36,7.538H824.7C819.08,342.685,818.091,339.6,819.08,333.85Z" transform="translate(-731.593 -297.581)" fill="#263138"/>
      <path id="Path_37572" data-name="Path 37572" d="M867.723,323.806c1.359-7.785,7.97-14.211,16.312-14.211,4.263,0,7.353,1.73,9.144,4.387l.68-3.769h8.588l-3.893,20.822c-.371,1.915,0,2.842,2.41,2.842h.618l-1.3,7.229H896.33c-2.78,0-4.572-1.236-5.437-3.151a12.28,12.28,0,0,1-9.33,3.769C871.06,341.724,866.117,333.321,867.723,323.806Zm23.664,2.41c.865-4.819-2.348-8.9-6.735-8.9a8.894,8.894,0,0,0-8.773,7.538c-.741,4.572,2.039,9.021,7.043,9.021C887.742,333.877,890.646,330.231,891.387,326.215Z" transform="translate(-766.582 -296.002)" fill="#263138"/>
      <path id="Path_37573" data-name="Path 37573" d="M997.014,281.482h5.19l1.3-7.229,9.391-4.634s-.989,5.623-2.1,11.863h5.808l-1.359,7.6h-5.808c-.927,5.19-1.668,9.515-1.73,9.824-.927,4.819-.556,5.561,4.819,5.561l-1.359,7.909h-1.236c-10.009,0-12.543-3.336-10.751-13.407l1.73-9.886h-5.252Z" transform="translate(-858.741 -267.271)" fill="#263138"/>
      <circle id="Ellipse_2" data-name="Ellipse 2" cx="4.232" cy="4.232" r="4.232" transform="translate(92.281 3.094) rotate(-5.655)" fill="url(#linear-gradient-5)"/>
      <g id="Group_38908" data-name="Group 38908" transform="translate(0 53.946)">
        <path id="Path_37574" data-name="Path 37574" d="M508.928,453.449h1.219l2.8,3.872,2.889-3.872H517v8.24H515.78v-6.276l-2.856,3.849-2.765-3.759v6.186h-1.23Z" transform="translate(-508.928 -453.336)" fill="#464e51"/>
        <path id="Path_37575" data-name="Path 37575" d="M563.484,453.449h1.264l3.025,8.24H566.5l-.643-1.761h-3.477l-.632,1.761h-1.287Zm-.677,5.305h2.619l-1.309-3.612Z" transform="translate(-545.964 -453.336)" fill="#464e51"/>
        <path id="Path_37576" data-name="Path 37576" d="M609.3,453.449h2.562a2.711,2.711,0,0,1,2.912,2.687,2.527,2.527,0,0,1-1.783,2.494l1.964,3.059h-1.411l-2.483-3.928h.666a1.676,1.676,0,0,0,1.817-1.625c0-.926-.6-1.547-1.806-1.547H610.53v7.1H609.3Z" transform="translate(-581.066 -453.336)" fill="#464e51"/>
        <path id="Path_37577" data-name="Path 37577" d="M654.79,457.546l-1.2,1.433v2.709h-1.23v-8.24h1.23v3.928l3.274-3.928h1.5l-2.709,3.251,3,4.989h-1.4Z" transform="translate(-612.015 -453.336)" fill="#464e51"/>
        <path id="Path_37578" data-name="Path 37578" d="M697.311,453.449h4.944v1.163h-3.714v2.359h3.714v1.163h-3.714v2.382h3.714v1.174h-4.944Z" transform="translate(-644.32 -453.336)" fill="#464e51"/>
        <path id="Path_37579" data-name="Path 37579" d="M740.141,454.6H737.8v-1.152H743.7V454.6H741.36v7.088h-1.219Z" transform="translate(-673.422 -453.336)" fill="#464e51"/>
        <path id="Path_37580" data-name="Path 37580" d="M782.312,453.449h1.23v8.24h-1.23Z" transform="translate(-705.41 -453.336)" fill="#464e51"/>
        <path id="Path_37581" data-name="Path 37581" d="M811.086,453.449h1.388l4.176,6.231v-6.231h1.219v8.24h-1.3l-4.255-6.332v6.332h-1.23Z" transform="translate(-726.09 -453.336)" fill="#464e51"/>
        <path id="Path_37582" data-name="Path 37582" d="M858.483,457.281a4.275,4.275,0,0,1,7.969-2.111l-1.072.643a2.872,2.872,0,0,0-2.63-1.591,3.053,3.053,0,0,0,.011,6.106,2.691,2.691,0,0,0,2.8-2.28H862.6v-1.163h4.244v.44a4,4,0,0,1-4.086,4.188A4.2,4.2,0,0,1,858.483,457.281Z" transform="translate(-760.154 -453.048)" fill="#464e51"/>
        <path id="Path_37583" data-name="Path 37583" d="M946.03,458.133H942.3v3.556h-1.23v-8.24h1.23v3.511h3.725v-3.511h1.219v8.24H946.03Z" transform="translate(-819.513 -453.336)" fill="#464e51"/>
        <path id="Path_37584" data-name="Path 37584" d="M987.066,458.912v-5.463h1.23v5.542a1.638,1.638,0,0,0,1.648,1.659,1.66,1.66,0,0,0,1.682-1.659v-5.542h1.219v5.463a2.889,2.889,0,1,1-5.779,0Z" transform="translate(-852.568 -453.336)" fill="#464e51"/>
        <path id="Path_37585" data-name="Path 37585" d="M1031.655,453.449h2.788c1.67,0,2.709.835,2.709,2.246a1.83,1.83,0,0,1-.971,1.682,1.962,1.962,0,0,1,1.23,1.93c0,1.524-1.095,2.382-2.777,2.382h-2.98Zm1.23,1.118v2.314h1.6c.993,0,1.433-.5,1.433-1.185,0-.711-.508-1.129-1.479-1.129Zm0,3.454v2.54h1.749c.971,0,1.546-.508,1.546-1.275s-.462-1.264-1.6-1.264Z" transform="translate(-884.614 -453.336)" fill="#464e51"/>
      </g>
    </g>
  </g>
</svg>
