<?xml version="1.0" encoding="utf-8"?>
<!-- Generator: Adobe Illustrator 25.2.3, SVG Export Plug-In . SVG Version: 6.00 Build 0)  -->
<svg version="1.1" id="Layer_1" xmlns="http://www.w3.org/2000/svg" xmlns:xlink="http://www.w3.org/1999/xlink" x="0px" y="0px"
	 viewBox="0 0 88.3 28" style="enable-background:new 0 0 88.3 28;" xml:space="preserve">
<style type="text/css">
	.st0{fill:url(#Ellipse_13_1_);}
	.st1{fill:#FFFFFF;}
	.st2{fill:#5FAEDF;}
	.st3{fill:url(#Path_37984_1_);}
	.st4{fill:url(#Path_37986_1_);}
	.st5{fill:url(#Path_37987_1_);}
	.st6{fill:url(#Path_37988_1_);}
</style>
<g id="Group_39056" transform="translate(-22974.248 6561.074)">
	
		<linearGradient id="Ellipse_13_1_" gradientUnits="userSpaceOnUse" x1="22960.3828" y1="-6509.6318" x2="22960.3828" y2="-6511.27" gradientTransform="matrix(2.8361 -0.2808 -0.2808 -2.8361 -43907.0312 -18568.6719)">
		<stop  offset="0" style="stop-color:#445EA7"/>
		<stop  offset="0.248" style="stop-color:#4F7CBC"/>
		<stop  offset="1" style="stop-color:#89DDEF"/>
	</linearGradient>
	<circle id="Ellipse_13" class="st0" cx="23039.9" cy="-6552.4" r="1.4"/>
	<path id="Path_37977" class="st1" d="M23025.5-6549v1c-0.8-0.7-1.9-1.1-3-1.2c-3,0-5,2.2-5,5.6c0,0.9,0.1,1.8,0.5,2.6
		c0.3,0.7,0.7,1.3,1.2,1.8c0.9,0.8,2.1,1.3,3.3,1.2c1.1,0,2.1-0.4,3-1v0.8h2.7v-10.9H23025.5z M23023-6540.4c-1.8,0-2.8-1-2.8-3.1
		c0-2.1,1-3.2,2.8-3.2c1.2,0,2.5,1.1,2.5,3.1S23024.2-6540.4,23023-6540.4L23023-6540.4z"/>
	<path id="Path_37978" class="st1" d="M23035.5-6546.8c-2.3,0-3,1.2-3,2.9v5.8h-2.6v-10.9h2.6v0.9c0.8-0.7,1.8-1.1,2.9-1.1
		c0.7,0,1.4,0.2,1.9,0.7v2.3C23036.8-6546.6,23036.2-6546.8,23035.5-6546.8z"/>
	<path id="Path_37979" class="st1" d="M23038.6-6549h2.6v10.9h-2.6V-6549z"/>
	<path id="Path_37980" class="st1" d="M23047.6-6549.2c1.1,0,2.2,0.4,3,1.2v-1h2.7v10.9h-2.7v-0.8c-0.9,0.7-1.9,1-3,1
		c-3,0-5-2.2-5-5.6C23042.6-6546.9,23044.6-6549.2,23047.6-6549.2z M23048.1-6540.4c1.2,0,2.5-1.1,2.5-3.2s-1.3-3.1-2.5-3.1
		c-1.8,0-2.8,1.2-2.8,3.2S23046.3-6540.4,23048.1-6540.4L23048.1-6540.4z"/>
	<path id="Path_37981" class="st1" d="M23018.8-6537.9h-4.6h-0.1c-3,0-4.1-1.4-4.1-3.9v-10.7l2.6-1.5v12.5c0,0.7,0.6,1.3,1.3,1.3
		h3.1c0.3,0.7,0.8,1.4,1.4,1.9l0,0C23018.5-6538.1,23018.7-6538,23018.8-6537.9z"/>
	<path id="Path_37982" class="st1" d="M23062.5-6546.6v-2.3h-3.7v-5.1l0,0l-2.6,1.5v3.6h-1.6v2.3h1.6v4.8c0,2.5,1.1,3.9,4.1,3.9h2.3
		v-2.3h-1.6c-1.6,0-2.1-0.6-2.1-1.6v-4.8L23062.5-6546.6z"/>
</g>
<g id="Group_39057" transform="translate(-23005 6554)">
	<path id="Path_37983" class="st2" d="M23035.6-6551.1L23035.6-6551.1c-2.2-1.4-4.8-2.1-7.4-2c-0.2,0-0.5,0-0.7,0
		c-0.1,0-0.2,0-0.2,0h-0.1c-0.8,0.1-1.5,0.2-2.3,0.3l0,0l-0.1,0l-0.1,0l0,0c-7.1-3.2-15.4,0-18.5,7s0,15.4,7,18.5
		c7.1,3.2,15.4,0,18.5-7c1.3-2.9,1.6-6.1,0.8-9.2c0-0.1,0-0.1-0.1-0.2c-0.5-1.7-1.2-3.3-2.3-4.7v0c0.3,0.1,0.7,0.2,1,0.3l0,0
		c0.1,0,0.1,0,0.2,0.1l0.1,0c0.1,0,0.1,0,0.2,0.1c0,0,0.1,0,0.1,0c0.4,0.2,0.7,0.3,1.1,0.5c0.2,0.1,0.3,0.1,0.5,0l1.4-0.8l2.3-1.4
		c0.1-0.1,0.2-0.3,0.1-0.4c0,0,0,0-0.1-0.1C23036.7-6550.4,23036.2-6550.8,23035.6-6551.1z M23022.9-6531.5
		c-0.5,0.2-0.9,0.4-1.4,0.5c-5,1.3-10.1-1.6-11.4-6.6c-1.3-5,1.6-10.1,6.6-11.4c0.5-0.1,1-0.2,1.5-0.3c-1.4,1.2-2.4,2.7-3.1,4.4l0,0
		c-0.7,1.8-0.9,3.7-0.5,5.6c0,0,0,0.1,0,0.1c0,0,0,0.1,0,0.1c0,0,0,0.1,0,0.1l0,0l0,0.1c0,0,0,0.1,0,0.1l0,0c0,0,0,0.1,0,0.1
		c0,0,0,0.1,0,0.1l0,0.1c0.6,1.8,1.7,3.4,3.3,4.6l0,0c1.6,1.2,3.6,1.9,5.7,1.9C23023.4-6531.7,23023.1-6531.6,23022.9-6531.5z
		 M23027.6-6538.9c-1.3,2.2-4.1,3-6.4,1.7c-0.2-0.1-0.3-0.2-0.4-0.3c-0.7-0.5-1.3-1.3-1.6-2.2c0,0,0,0,0-0.1l0,0l0-0.1
		c0,0,0,0,0-0.1s0,0,0,0c0,0,0,0,0,0c0,0,0,0,0-0.1l0-0.1l0,0c0,0,0,0,0,0l0-0.1c0,0,0,0,0-0.1c-0.2-0.9-0.1-1.9,0.3-2.8l0,0
		c0.2-0.5,0.5-1,0.8-1.4c0.6-0.9,1.4-1.6,2.2-2.2c0.6-0.4,1.3-0.8,2-1.1c1.9,1.3,3.2,3.1,3.8,5.3
		C23028.4-6541.2,23028.2-6539.9,23027.6-6538.9L23027.6-6538.9z"/>
	<g id="Group_39035" transform="translate(0 0)">
		
			<linearGradient id="Path_37984_1_" gradientUnits="userSpaceOnUse" x1="22983.2109" y1="-6492.1538" x2="22983.4316" y2="-6491.4697" gradientTransform="matrix(28.0109 0 0 -28.0035 -620764.9375 -188330.4688)">
			<stop  offset="0" style="stop-color:#445EA7"/>
			<stop  offset="0.222" style="stop-color:#4F7CBC"/>
			<stop  offset="0.997" style="stop-color:#5FAEDF"/>
		</linearGradient>
		<path id="Path_37984" class="st3" d="M23022.7-6526.5c-7.5,2-15.1-2.4-17.2-9.9s2.4-15.1,9.9-17.2c3.1-0.8,6.4-0.6,9.4,0.7
			c-0.1,0-0.3,0.1-0.4,0.1c-2.3,0.6-4.5,1.8-6.3,3.4c-0.5,0.1-1,0.1-1.5,0.3c-5,1.3-8,6.4-6.6,11.4c1.3,5,6.4,8,11.4,6.6
			c0,0,0,0,0.1,0c0.5-0.1,1-0.3,1.4-0.5c0.3-0.1,0.5-0.2,0.8-0.4c5.2,0,9.3-4.3,9.2-9.4c0-0.8-0.1-1.6-0.3-2.3
			C23034.5-6536.2,23030.1-6528.5,23022.7-6526.5L23022.7-6526.5z"/>
		<path id="Path_37985" class="st2" d="M23028.8-6536.2c-0.4,0.1-0.9,0.2-1.3,0.3c-0.7,0.1-1.5,0.1-2.2,0.1c-1-0.1-2.1-0.3-3-0.8
			c-0.5-0.2-1-0.5-1.4-0.9c0.1,0.1,0.3,0.2,0.4,0.3c2.2,1.3,5.1,0.5,6.4-1.7c0.6-1.1,0.8-2.3,0.5-3.5c-0.6-2.2-1.9-4.1-3.8-5.3
			c-0.2-0.1-0.4-0.2-0.6-0.4c-1-0.6-2.2-1-3.4-1.2c-0.5-0.1-0.9-0.1-1.4-0.1c-0.3,0-0.6,0-0.9,0c1.8-1.6,3.9-2.8,6.3-3.4
			c0.1,0,0.3-0.1,0.4-0.1c3.8,1.7,6.7,5.1,7.8,9.1c0.5,1.9,0.4,4-0.3,5.8c-0.1,0-0.1,0.1-0.2,0.1
			C23031-6537,23029.9-6536.5,23028.8-6536.2z"/>
		
			<linearGradient id="Path_37986_1_" gradientUnits="userSpaceOnUse" x1="22983.6758" y1="-6491.9194" x2="22983.8184" y2="-6492.5669" gradientTransform="matrix(18.018 0 0 -17.4545 -391098.125 -119862.8906)">
			<stop  offset="0" style="stop-color:#445EA7"/>
			<stop  offset="0.222" style="stop-color:#4F7CBC"/>
			<stop  offset="0.998" style="stop-color:#5FAEDF"/>
		</linearGradient>
		<path id="Path_37986" class="st4" d="M23026-6532.2c-2.8,0.7-5.7,0.2-8-1.5l0,0c-1.5-1.2-2.7-2.8-3.3-4.6c0,0,0-0.1,0-0.1l0-0.1
			c0,0,0-0.1,0-0.1l0,0l0-0.1l0-0.1l0,0c0,0,0-0.1,0-0.1c0,0,0-0.1,0-0.1c0,0,0-0.1,0-0.1c-0.4-1.9-0.2-3.8,0.5-5.6l0,0
			c0.7-1.7,1.8-3.2,3.1-4.4c0.3,0,0.6,0,0.9,0c0.5,0,0.9,0,1.4,0.1c1.2,0.2,2.3,0.6,3.4,1.2c0.2,0.1,0.4,0.2,0.6,0.4
			c-0.7,0.3-1.4,0.6-2,1.1c-0.9,0.6-1.6,1.3-2.2,2.2c-0.3,0.4-0.6,0.9-0.8,1.4l0,0c-0.4,0.9-0.5,1.9-0.3,2.8c0,0,0,0,0,0.1l0,0.1
			c0,0,0,0,0,0l0,0l0,0.1l0,0.1l0,0c0,0,0,0,0,0l0,0.1c0,0,0,0,0,0.1c0,0,0,0,0,0l0,0.1c0.3,0.9,0.9,1.6,1.6,2.2
			c0.4,0.3,0.9,0.6,1.4,0.9c1,0.4,2,0.7,3,0.8c0.7,0.1,1.5,0,2.2-0.1c0.5-0.1,0.9-0.2,1.3-0.3c1.2-0.3,2.3-0.8,3.3-1.5
			c0.1,0,0.1-0.1,0.2-0.1C23031.2-6535,23028.8-6533,23026-6532.2z"/>
		
			<linearGradient id="Path_37987_1_" gradientUnits="userSpaceOnUse" x1="22984.1387" y1="-6491.958" x2="22983.9902" y2="-6492.7461" gradientTransform="matrix(15.2879 0 0 -17.142 -328353.4062 -117829.0625)">
			<stop  offset="0" style="stop-color:#364D7F"/>
			<stop  offset="0.999" style="stop-color:#364D7F;stop-opacity:0"/>
		</linearGradient>
		<path id="Path_37987" class="st5" d="M23022.7-6526.5c7.5-2,11.9-9.7,9.9-17.1c0,0,0,0,0,0c1.3,5-1.6,10.1-6.6,11.4
			c-0.8,0.2-1.5,0.3-2.3,0.3c-0.3,0.1-0.5,0.3-0.8,0.4c-0.5,0.2-0.9,0.4-1.4,0.5c-1.2,0.3-2.5,0.4-3.7,0.2"/>
		
			<linearGradient id="Path_37988_1_" gradientUnits="userSpaceOnUse" x1="22984.0098" y1="-6496.2568" x2="22984.8867" y2="-6496.2568" gradientTransform="matrix(12.5332 0 0 -5.8986 -265037.4375 -44869)">
			<stop  offset="0" style="stop-color:#445EA7"/>
			<stop  offset="0.248" style="stop-color:#4F7CBC"/>
			<stop  offset="1" style="stop-color:#89DDEF"/>
		</linearGradient>
		<path id="Path_37988" class="st6" d="M23037.2-6550c0.1,0.1,0.1,0.3,0,0.4c0,0,0,0-0.1,0.1l-2.3,1.4l-1.4,0.8
			c-0.2,0.1-0.3,0.1-0.5,0c-0.4-0.2-0.7-0.4-1.1-0.5c0,0-0.1,0-0.1-0.1c-0.1,0-0.1,0-0.2-0.1l-0.1,0c-0.1,0-0.1,0-0.2-0.1l0,0
			c-0.3-0.1-0.6-0.2-1-0.3c-1.4-1.9-3.3-3.4-5.5-4.4l0.1,0l0.1,0l0,0c0.7-0.2,1.5-0.3,2.3-0.3h0.1c0.1,0,0.2,0,0.2,0
			c0.2,0,0.5,0,0.7,0c2.6,0,5.1,0.7,7.4,2l0,0C23036.2-6550.8,23036.7-6550.4,23037.2-6550z"/>
	</g>
</g>
</svg>
