<svg xmlns="http://www.w3.org/2000/svg" xmlns:xlink="http://www.w3.org/1999/xlink" width="228.609" height="80" viewBox="0 0 228.609 80">
  <defs>
    <linearGradient id="linear-gradient" x1="0.5" y1="-0.275" x2="0.5" y2="1.363" gradientUnits="objectBoundingBox">
      <stop offset="0" stop-color="#445ea7"/>
      <stop offset="0.248" stop-color="#4f7cbc"/>
      <stop offset="1" stop-color="#89ddef"/>
    </linearGradient>
    <linearGradient id="linear-gradient-2" x1="0.356" y1="0.947" x2="0.577" y2="0.263" gradientUnits="objectBoundingBox">
      <stop offset="0" stop-color="#445ea7"/>
      <stop offset="0.222" stop-color="#4f7cbc"/>
      <stop offset="0.997" stop-color="#5faedf"/>
    </linearGradient>
    <linearGradient id="linear-gradient-3" x1="0.366" y1="-0.021" x2="0.507" y2="0.626" gradientUnits="objectBoundingBox">
      <stop offset="0" stop-color="#445ea7"/>
      <stop offset="0.222" stop-color="#4f7cbc"/>
      <stop offset="0.998" stop-color="#5faedf"/>
    </linearGradient>
    <linearGradient id="linear-gradient-4" x1="0.6" y1="-0.018" x2="0.452" y2="0.77" gradientUnits="objectBoundingBox">
      <stop offset="0" stop-color="#364d7f"/>
      <stop offset="0.999" stop-color="#364d7f" stop-opacity="0"/>
    </linearGradient>
    <linearGradient id="linear-gradient-5" x1="0.141" y1="0.5" x2="1.017" y2="0.5" xlink:href="#linear-gradient"/>
  </defs>
  <g id="Group_39051" data-name="Group 39051" transform="translate(23112 -6675.047)">
    <g id="Group_39050" data-name="Group 39050">
      <path id="Path_37989" data-name="Path 37989" d="M389.558,484.912a11.016,11.016,0,0,0,1.447,0v.021l.834-.021,1.806,3.95,1.764-3.95.9.011v-.011c.782.011,1.447,0,1.447,0v7.53h-1.447v-5.9l-1.986,3.791h-1.33L391,486.581v5.861h-1.447Z" transform="translate(-23417.113 6260.028)" fill="#263138"/>
      <path id="Path_37990" data-name="Path 37990" d="M447.89,491.982a2.349,2.349,0,0,1,1.51.592v-.486h1.352V497.6H449.4v-.423a2.523,2.523,0,0,1-1.51.528,2.882,2.882,0,0,1,0-5.724Zm.233,4.467c.634,0,1.278-.549,1.278-1.605s-.644-1.595-1.278-1.595c-.929,0-1.447.591-1.447,1.648S447.193,496.449,448.123,496.449Z" transform="translate(-23457.816 6254.87)" fill="#263138"/>
      <path id="Path_37991" data-name="Path 37991" d="M496.366,493.186c-1.151.011-1.51.591-1.51,1.489V497.6h-1.341v-5.513h1.341v.433a2,2,0,0,1,1.479-.539,1.269,1.269,0,0,1,.961.349V493.5A1.7,1.7,0,0,0,496.366,493.186Z" transform="translate(-23492.965 6254.87)" fill="#263138"/>
      <path id="Path_37992" data-name="Path 37992" d="M531.372,483h1.341v4.752l2.27-2.218h1.732l-1.816,1.806,1.911,3.707h-1.616l-1.278-2.725-1.2,1.2v1.521h-1.341Z" transform="translate(-23520.586 6261.425)" fill="#263138"/>
      <path id="Path_37993" data-name="Path 37993" d="M579.114,496.9a2.412,2.412,0,0,1-2.1.8c-1.785,0-2.978-.887-2.978-2.862a2.527,2.527,0,0,1,2.746-2.862c1.817,0,2.619,1.246,2.524,3.126h-1.341c.011-.169,0-.338,0-.5v.5H575.5a1.4,1.4,0,0,0,1.51,1.436,4.61,4.61,0,0,0,2.133-.676Zm-2.334-3.865c-.644,0-1.109.391-1.246,1.236h2.4C577.8,493.5,577.424,493.038,576.78,493.038Z" transform="translate(-23551.715 6254.87)" fill="#263138"/>
      <path id="Path_37994" data-name="Path 37994" d="M619.892,486.68h-1.88v2.44c0,.507.264.813,1.077.813a1.983,1.983,0,0,0,.771-.18v1.12a3.042,3.042,0,0,1-1.119.222c-1.521,0-2.07-.708-2.07-1.975v-2.44h-.834v-1.172h.834V483.7l1.341-.782v2.587h1.88Z" transform="translate(-23582.215 6261.481)" fill="#263138"/>
      <path id="Path_37995" data-name="Path 37995" d="M656.155,482.607s1.373.011,1.458,0c.021.064,0,1.457,0,1.457h-1.458Zm.063,2.64h1.341v5.513h-1.341Zm1.394-2.64" transform="translate(-23611.633 6261.71)" fill="#263138"/>
      <path id="Path_37996" data-name="Path 37996" d="M690.4,494.4a.933.933,0,0,0-.929-.813c-.686,0-1.151.211-1.151.813v3.348H686.98v-5.513h1.341v.644a2.122,2.122,0,0,1,1.669-.7c1.056,0,1.753.75,1.753,2.218v3.348H690.4S690.465,495.4,690.4,494.4Z" transform="translate(-23634.125 6254.727)" fill="#263138"/>
      <path id="Path_37997" data-name="Path 37997" d="M729.534,498.053a3.244,3.244,0,0,0,2.482.9,1.305,1.305,0,0,0,1.426-1.426v-.359a3.258,3.258,0,0,1-1.8.433c-1.415-.021-2.355-.771-2.355-2.757,0-2.059.94-2.851,2.355-2.862a2.918,2.918,0,0,1,1.8.517v-.412h1.341v5.228a2.559,2.559,0,0,1-2.746,2.862,3.946,3.946,0,0,1-2.6-.644Zm2.471-1.647a1.417,1.417,0,0,0,1.436-1.563,1.438,1.438,0,0,0-1.436-1.626c-.8,0-1.362.317-1.362,1.584C730.643,495.984,731.2,496.406,732.005,496.406Z" transform="translate(-23664.996 6254.871)" fill="#263138"/>
      <path id="Path_37998" data-name="Path 37998" d="M807.349,484.912h1.5v3.168h3.96v-3.168h1.5v7.53h-1.5v-3.137h-3.96v3.137h-1.5Z" transform="translate(-23721.951 6260.028)" fill="#263138"/>
      <path id="Path_37999" data-name="Path 37999" d="M862.75,497.886v-.6a2.165,2.165,0,0,1-1.584.708c-1.447,0-1.859-.771-1.859-2.27v-3.348h1.341v3.348c0,.7.211,1.056.94,1.056a1.15,1.15,0,0,0,1.162-1.267v-3.137h1.341v5.513Z" transform="translate(-23759.863 6254.584)" fill="#263138"/>
      <path id="Path_38000" data-name="Path 38000" d="M902.829,483h1.341v2.968a3.122,3.122,0,0,1,1.764-.539c1.373,0,2.292,1.141,2.292,2.862s-.919,2.862-2.292,2.862a3.055,3.055,0,0,1-1.764-.549v.444h-1.341Zm2.725,6.991c.771,0,1.341-.591,1.341-1.647s-.517-1.711-1.289-1.711c-.792,0-1.436.443-1.436,1.658S904.761,489.989,905.554,489.989Z" transform="translate(-23791.617 6261.425)" fill="#263138"/>
    </g>
    <g id="Group_39049" data-name="Group 39049">
      <circle id="Ellipse_14" data-name="Ellipse 14" cx="3.912" cy="3.912" r="3.912" transform="translate(-22949.721 6695.427) rotate(-5.655)" fill="url(#linear-gradient)"/>
      <path id="Path_38001" data-name="Path 38001" d="M487.422,347.83v2.625a12.687,12.687,0,0,0-8.161-3.2c-8.275,0-13.757,6.166-13.757,15.469a19.088,19.088,0,0,0,1.274,7.113,13.5,13.5,0,0,0,3.309,4.936,13.141,13.141,0,0,0,9.175,3.42,13.638,13.638,0,0,0,8.161-2.854v2.3h7.308V347.83Zm-6.9,23.586c-5.024,0-7.82-2.7-7.82-8.39s2.8-8.905,7.82-8.905c3.423,0,6.9,2.911,6.9,8.619s-3.481,8.663-6.911,8.663Z" transform="translate(-23472.525 6360.467)" fill="#263138"/>
      <path id="Path_38002" data-name="Path 38002" d="M606.819,353.763c-6.22.057-8.16,3.2-8.16,8.039v15.836h-7.251V347.83h7.251v2.338a10.828,10.828,0,0,1,7.992-2.911,6.859,6.859,0,0,1,5.192,1.884v6.338A9.165,9.165,0,0,0,606.819,353.763Z" transform="translate(-23564.391 6360.467)" fill="#263138"/>
      <path id="Path_38003" data-name="Path 38003" d="M679.844,349.376h7.264v29.809h-7.264Z" transform="translate(-23628.918 6358.921)" fill="#263138"/>
      <path id="Path_38004" data-name="Path 38004" d="M734.313,347.257a12.7,12.7,0,0,1,8.164,3.2V347.83h7.3v29.809h-7.3v-2.281a13.654,13.654,0,0,1-8.164,2.854c-8.275,0-13.754-6.166-13.754-15.469S726.038,347.257,734.313,347.257ZM735.57,371.4c3.423,0,6.907-2.969,6.907-8.676s-3.484-8.619-6.907-8.619c-5.024,0-7.82,3.2-7.82,8.905S730.546,371.4,735.57,371.4Z" transform="translate(-23658.625 6360.467)" fill="#263138"/>
      <path id="Path_38005" data-name="Path 38005" d="M413.7,342.451l-12.736.005h-.222c-8.219,0-11.187-3.823-11.187-10.674V302.5l7.237-4.226V332.7a3.48,3.48,0,0,0,3.485,3.471h8.438a16.888,16.888,0,0,0,3.726,5.221l.022.022A15.99,15.99,0,0,0,413.7,342.451Z" transform="translate(-23417.113 6396.205)" fill="#263138"/>
      <path id="Path_38006" data-name="Path 38006" d="M863.416,318.572v-6.348H853.24V298.241h0l-7.247,4.225v9.771H841.5v6.338H846v13.191c0,6.85,2.969,10.674,11.186,10.674h6.227v-6.294h-4.34c-4.38,0-5.822-1.654-5.822-4.38V318.572Z" transform="translate(-23746.867 6396.231)" fill="#263138"/>
    </g>
    <g id="Group_39042" data-name="Group 39042" transform="translate(-23112 6675.047)">
      <path id="Path_38007" data-name="Path 38007" d="M161.247,234.215l-.024-.016A38.551,38.551,0,0,0,141,228.592c-.654,0-1.3.016-1.944.046-.214.011-.427.022-.641.038-.059,0-.116.005-.176.011a43,43,0,0,0-6.232.927l-.089.022-.368.084c-.054.016-.111.03-.165.043l-.005,0a38.492,38.492,0,1,0,21.547,25.689c-.046-.187-.095-.376-.146-.562A38.282,38.282,0,0,0,146.5,241.88l-.014-.016a24.4,24.4,0,0,1,2.674.7c.035.011.07.022.105.035.143.046.289.092.433.143.081.027.16.057.241.084.178.062.354.127.53.2.116.043.232.092.346.138a23.566,23.566,0,0,1,3.026,1.456,1.339,1.339,0,0,0,1.339-.012l3.8-2.219,6.429-3.756a.813.813,0,0,0,.115-1.322A35.024,35.024,0,0,0,161.247,234.215Zm-35.1,54a25.972,25.972,0,0,1-3.863,1.371,25.624,25.624,0,1,1-13.264-49.5,26.078,26.078,0,0,1,4.031-.746,33.8,33.8,0,0,0-8.589,12.117c0,.005,0,.008,0,.011a26.231,26.231,0,0,0-1.49,15.4c.016.084.035.165.054.249s.038.17.059.257c.03.135.065.27.1.406l.032.127.065.246c.022.084.046.168.068.249.011.041.024.084.035.124.038.135.078.268.119.4.024.087.051.17.076.254s.051.16.078.241a26.261,26.261,0,0,0,8.989,12.593l.008.005a25.65,25.65,0,0,0,15.618,5.131Q127.238,287.73,126.149,288.213Zm12.977-20.29a12.812,12.812,0,0,1-17.5,4.688,13.18,13.18,0,0,1-1.214-.792,12.663,12.663,0,0,1-4.442-5.994c-.019-.049-.038-.1-.054-.149s-.027-.076-.041-.116l-.065-.2c-.016-.054-.035-.111-.051-.168s-.027-.086-.038-.13c-.008-.024-.014-.049-.022-.073-.014-.051-.03-.1-.043-.154l-.041-.154c-.005-.027-.011-.051-.016-.076-.011-.043-.024-.086-.032-.132s-.027-.114-.041-.168-.024-.116-.035-.176a12.678,12.678,0,0,1,.781-7.7s0-.005.005-.008a18.726,18.726,0,0,1,2.166-3.961,24.186,24.186,0,0,1,6.148-5.953,28.407,28.407,0,0,1,5.426-2.9,25.482,25.482,0,0,1,10.39,14.591A12.733,12.733,0,0,1,139.126,267.923Z" transform="translate(-77.21 -226.389)" fill="#5faedf"/>
      <g id="Group_39041" data-name="Group 39041" transform="translate(0.001 0)">
        <path id="Path_38008" data-name="Path 38008" d="M125.6,301.958a38.435,38.435,0,1,1,5.776-72.2q-.558.134-1.117.283a41.306,41.306,0,0,0-17.208,9.292,25.844,25.844,0,0,0-4.031.747,25.623,25.623,0,1,0,13.263,49.5,25.82,25.82,0,0,0,3.863-1.369q1.088-.484,2.122-1.069a25.628,25.628,0,0,0,24.508-32.26A38.434,38.434,0,0,1,125.6,301.958Z" transform="translate(-77.213 -226.389)" fill="url(#linear-gradient-2)"/>
        <path id="Path_38009" data-name="Path 38009" d="M239.122,284.384a30.816,30.816,0,0,1-3.682.751,28.536,28.536,0,0,1-6.145.2,24.18,24.18,0,0,1-8.3-2.083,18.781,18.781,0,0,1-3.844-2.336,13.084,13.084,0,0,0,1.213.793A12.812,12.812,0,0,0,237.143,267.3a25.5,25.5,0,0,0-10.391-14.592q-.754-.508-1.548-.967a25.557,25.557,0,0,0-9.294-3.2,25.222,25.222,0,0,0-3.747-.241q-1.187.011-2.371.135A41.306,41.306,0,0,1,227,239.145q.559-.15,1.117-.283a38.342,38.342,0,0,1,21.4,25.124,25.5,25.5,0,0,1-.875,15.937q-.264.19-.534.374A29.307,29.307,0,0,1,239.122,284.384Z" transform="translate(-173.948 -235.49)" fill="#5faedf"/>
        <path id="Path_38010" data-name="Path 38010" d="M202.711,320.842A25.552,25.552,0,0,1,180.7,316.59l-.008-.007a26.248,26.248,0,0,1-8.99-12.592c-.027-.08-.052-.161-.077-.241s-.052-.168-.078-.253q-.06-.2-.117-.4l-.035-.124c-.023-.082-.045-.165-.068-.248s-.044-.166-.065-.248l-.031-.125q-.051-.2-.1-.406c-.02-.086-.04-.172-.059-.258s-.037-.165-.054-.248a26.246,26.246,0,0,1,1.489-15.4.043.043,0,0,1,0-.01,33.734,33.734,0,0,1,8.589-12.118q1.184-.124,2.371-.135a25.218,25.218,0,0,1,3.747.241,25.557,25.557,0,0,1,9.294,3.2q.794.459,1.548.967a28.529,28.529,0,0,0-5.424,2.9,24.191,24.191,0,0,0-6.149,5.955,18.729,18.729,0,0,0-2.166,3.959.024.024,0,0,0,0,.008,12.685,12.685,0,0,0-.783,7.7c.011.058.024.116.037.174s.026.113.039.17.021.088.032.132c.006.025.012.049.018.074.013.052.026.1.04.155s.028.1.043.154c.006.025.014.049.021.073.012.044.025.087.038.13s.034.112.051.167.043.136.066.2c.013.04.026.079.04.117s.035.1.052.149a12.68,12.68,0,0,0,4.444,5.993,18.781,18.781,0,0,0,3.844,2.336,24.179,24.179,0,0,0,8.3,2.083,28.536,28.536,0,0,0,6.145-.2,30.817,30.817,0,0,0,3.682-.751,29.307,29.307,0,0,0,8.987-4.086q.27-.185.534-.374A25.584,25.584,0,0,1,202.711,320.842Z" transform="translate(-145.259 -260.964)" fill="url(#linear-gradient-3)"/>
        <path id="Path_38011" data-name="Path 38011" d="M219.864,378.866a38.4,38.4,0,0,0,27.178-47.073,25.647,25.647,0,0,1-24.508,32.26q-1.033.584-2.122,1.069a25.824,25.824,0,0,1-3.863,1.369,25.456,25.456,0,0,1-10.15.641" transform="translate(-171.472 -303.296)" fill="url(#linear-gradient-4)"/>
        <path id="Path_38012" data-name="Path 38012" d="M311.725,243.251a.813.813,0,0,1-.115,1.322l-6.429,3.756-3.8,2.219a1.339,1.339,0,0,1-1.339.012,23.566,23.566,0,0,0-3.026-1.456c-.114-.046-.23-.095-.346-.138-.176-.07-.351-.135-.53-.2-.081-.027-.16-.057-.241-.084-.143-.051-.289-.1-.433-.143-.035-.014-.07-.024-.105-.035a24.4,24.4,0,0,0-2.674-.7,38.511,38.511,0,0,0-15.1-12.1c.054-.014.111-.027.165-.043l.368-.084.089-.022a43,43,0,0,1,6.232-.927c.059-.005.116-.008.176-.011.214-.016.427-.027.641-.038.643-.03,1.29-.046,1.944-.046a38.551,38.551,0,0,1,20.225,5.607l.024.016A35.023,35.023,0,0,1,311.725,243.251Z" transform="translate(-223.415 -232.335)" fill="url(#linear-gradient-5)"/>
      </g>
    </g>
  </g>
</svg>
