<svg xmlns="http://www.w3.org/2000/svg" xmlns:xlink="http://www.w3.org/1999/xlink" width="95.117" height="32" viewBox="0 0 95.117 32">
  <defs>
    <linearGradient id="linear-gradient" x1="0.5" y1="-0.275" x2="0.5" y2="1.363" gradientUnits="objectBoundingBox">
      <stop offset="0" stop-color="#445ea7"/>
      <stop offset="0.248" stop-color="#4f7cbc"/>
      <stop offset="1" stop-color="#89ddef"/>
    </linearGradient>
    <linearGradient id="linear-gradient-2" x1="0.356" y1="0.947" x2="0.577" y2="0.263" gradientUnits="objectBoundingBox">
      <stop offset="0" stop-color="#445ea7"/>
      <stop offset="0.222" stop-color="#4f7cbc"/>
      <stop offset="0.997" stop-color="#5faedf"/>
    </linearGradient>
    <linearGradient id="linear-gradient-3" x1="0.366" y1="-0.021" x2="0.507" y2="0.626" gradientUnits="objectBoundingBox">
      <stop offset="0" stop-color="#445ea7"/>
      <stop offset="0.222" stop-color="#4f7cbc"/>
      <stop offset="0.998" stop-color="#5faedf"/>
    </linearGradient>
    <linearGradient id="linear-gradient-4" x1="0.6" y1="-0.018" x2="0.452" y2="0.77" gradientUnits="objectBoundingBox">
      <stop offset="0" stop-color="#364d7f"/>
      <stop offset="0.999" stop-color="#364d7f" stop-opacity="0"/>
    </linearGradient>
    <linearGradient id="linear-gradient-5" x1="0.141" y1="0.5" x2="1.017" y2="0.5" xlink:href="#linear-gradient"/>
  </defs>
  <g id="Group_39037" data-name="Group 39037" transform="translate(-77.211 -226.389)">
    <g id="Group_39034" data-name="Group 39034" transform="translate(112.355 234.473)">
      <circle id="Ellipse_13" data-name="Ellipse 13" cx="1.628" cy="1.628" r="1.628" transform="translate(32.393 0.397) rotate(-5.655)" fill="url(#linear-gradient)"/>
      <path id="Path_37977" data-name="Path 37977" d="M474.625,347.5v1.092a5.28,5.28,0,0,0-3.4-1.331c-3.444,0-5.725,2.566-5.725,6.438a7.945,7.945,0,0,0,.53,2.96,5.616,5.616,0,0,0,1.377,2.054,5.469,5.469,0,0,0,3.818,1.423,5.676,5.676,0,0,0,3.4-1.188v.956h3.042V347.5Zm-2.873,9.816c-2.091,0-3.255-1.122-3.255-3.492s1.164-3.706,3.255-3.706c1.425,0,2.873,1.212,2.873,3.587s-1.449,3.605-2.876,3.605Z" transform="translate(-456.958 -341.742)" fill="#263138"/>
      <path id="Path_37978" data-name="Path 37978" d="M597.822,349.965c-2.589.024-3.4,1.331-3.4,3.346V359.9h-3.018V347.5h3.018v.973a4.507,4.507,0,0,1,3.326-1.212,2.855,2.855,0,0,1,2.161.784v2.638A3.814,3.814,0,0,0,597.822,349.965Z" transform="translate(-568.696 -341.742)" fill="#263138"/>
      <path id="Path_37979" data-name="Path 37979" d="M679.844,349.376h3.023v12.406h-3.023Z" transform="translate(-647.181 -343.622)" fill="#263138"/>
      <path id="Path_37980" data-name="Path 37980" d="M726.283,347.257a5.287,5.287,0,0,1,3.4,1.331V347.5h3.04V359.9h-3.04v-.949a5.683,5.683,0,0,1-3.4,1.188c-3.444,0-5.724-2.566-5.724-6.438S722.839,347.257,726.283,347.257Zm.523,10.049c1.425,0,2.875-1.235,2.875-3.611s-1.45-3.587-2.875-3.587c-2.091,0-3.255,1.331-3.255,3.706S724.715,357.306,726.806,357.306Z" transform="translate(-683.315 -341.742)" fill="#263138"/>
      <path id="Path_37981" data-name="Path 37981" d="M399.607,316.662l-5.3,0h-.092c-3.421,0-4.656-1.591-4.656-4.442V300.037l3.012-1.759V312.6a1.448,1.448,0,0,0,1.45,1.445h3.512a7.029,7.029,0,0,0,1.551,2.173l.009.009A6.659,6.659,0,0,0,399.607,316.662Z" transform="translate(-389.558 -298.274)" fill="#263138"/>
      <path id="Path_37982" data-name="Path 37982" d="M850.62,306.7v-2.642h-4.235v-5.82h0L843.369,300v4.067H841.5V306.7h1.875v5.49c0,2.851,1.235,4.442,4.656,4.442h2.592v-2.62h-1.806c-1.823,0-2.423-.689-2.423-1.823V306.7Z" transform="translate(-790.646 -298.241)" fill="#263138"/>
    </g>
    <g id="Group_39036" data-name="Group 39036" transform="translate(77.21 226.389)">
      <path id="Path_37983" data-name="Path 37983" d="M112.185,229.646l-.01-.007a16.044,16.044,0,0,0-8.418-2.334c-.272,0-.541.007-.809.019-.089,0-.178.009-.267.016l-.073,0a17.9,17.9,0,0,0-2.594.386l-.037.009-.153.035-.069.018h0a16.02,16.02,0,1,0,8.968,10.692c-.019-.078-.039-.156-.061-.234a15.933,15.933,0,0,0-2.615-5.413l-.006-.007a10.152,10.152,0,0,1,1.113.29l.044.015c.06.019.12.038.18.06l.1.035c.074.026.147.053.221.082.048.018.1.038.144.057a9.808,9.808,0,0,1,1.26.606.557.557,0,0,0,.557-.005l1.581-.924,2.676-1.563a.338.338,0,0,0,.048-.55A14.577,14.577,0,0,0,112.185,229.646ZM97.578,252.119a10.812,10.812,0,0,1-1.608.57,10.664,10.664,0,1,1-5.52-20.6,10.852,10.852,0,0,1,1.678-.311,14.065,14.065,0,0,0-3.575,5.043s0,0,0,0a10.917,10.917,0,0,0-.62,6.409c.007.035.015.069.023.1s.016.071.025.107c.012.056.027.113.041.169l.013.053.027.1c.009.035.019.07.028.1l.015.052c.016.056.033.111.05.167.01.036.021.071.032.106l.033.1a10.929,10.929,0,0,0,3.741,5.241l0,0a10.675,10.675,0,0,0,6.5,2.136Q98.031,251.918,97.578,252.119Zm5.4-8.445a5.332,5.332,0,0,1-7.284,1.951,5.487,5.487,0,0,1-.505-.33,5.27,5.27,0,0,1-1.849-2.495c-.008-.02-.016-.04-.023-.062l-.017-.048-.027-.084c-.007-.022-.015-.046-.021-.07s-.011-.036-.016-.054-.006-.02-.009-.03-.012-.043-.018-.064l-.017-.064-.007-.032c0-.018-.01-.036-.014-.055l-.017-.07c0-.025-.01-.048-.015-.073a5.276,5.276,0,0,1,.325-3.2l0,0a7.793,7.793,0,0,1,.9-1.648,10.066,10.066,0,0,1,2.559-2.478,11.823,11.823,0,0,1,2.258-1.205,10.605,10.605,0,0,1,4.324,6.073A5.3,5.3,0,0,1,102.979,243.675Z" transform="translate(-77.21 -226.389)" fill="#5faedf"/>
      <g id="Group_39035" data-name="Group 39035" transform="translate(0 0)">
        <path id="Path_37984" data-name="Path 37984" d="M97.353,257.84a16,16,0,1,1,2.4-30.048q-.232.056-.465.118a17.191,17.191,0,0,0-7.162,3.867,10.756,10.756,0,0,0-1.678.311,10.664,10.664,0,1,0,5.52,20.6,10.748,10.748,0,0,0,1.608-.57q.453-.2.883-.445a10.666,10.666,0,0,0,10.2-13.426A16,16,0,0,1,97.353,257.84Z" transform="translate(-77.213 -226.389)" fill="url(#linear-gradient-2)"/>
        <path id="Path_37985" data-name="Path 37985" d="M222,257.808a12.831,12.831,0,0,1-1.532.313,11.876,11.876,0,0,1-2.558.085,10.063,10.063,0,0,1-3.455-.867,7.818,7.818,0,0,1-1.6-.972,5.446,5.446,0,0,0,.5.33,5.332,5.332,0,0,0,7.817-6,10.611,10.611,0,0,0-4.325-6.073q-.314-.211-.644-.4a10.637,10.637,0,0,0-3.868-1.332,10.5,10.5,0,0,0-1.56-.1q-.494,0-.987.056a17.191,17.191,0,0,1,7.162-3.867q.233-.062.465-.118a15.958,15.958,0,0,1,8.907,10.456,10.613,10.613,0,0,1-.364,6.633q-.11.079-.222.156A12.2,12.2,0,0,1,222,257.808Z" transform="translate(-194.874 -237.459)" fill="#5faedf"/>
        <path id="Path_37986" data-name="Path 37986" d="M183.89,293.364a10.634,10.634,0,0,1-9.16-1.77l0,0a10.924,10.924,0,0,1-3.741-5.241c-.011-.033-.022-.067-.032-.1l-.032-.105q-.025-.083-.049-.167l-.015-.052-.028-.1-.027-.1-.013-.052q-.021-.085-.041-.169c-.008-.036-.017-.072-.025-.107s-.015-.069-.022-.1a10.923,10.923,0,0,1,.62-6.409l0,0a14.04,14.04,0,0,1,3.575-5.043q.493-.052.987-.056a10.5,10.5,0,0,1,1.56.1,10.637,10.637,0,0,1,3.868,1.332q.331.191.644.4a11.875,11.875,0,0,0-2.257,1.2,10.068,10.068,0,0,0-2.559,2.478,7.8,7.8,0,0,0-.9,1.648v0a5.279,5.279,0,0,0-.326,3.205c0,.024.01.048.016.073l.016.071c0,.018.009.037.013.055l.008.031.017.065.018.064.009.03c.005.018.01.036.016.054l.021.069c.009.028.018.056.027.084s.011.033.017.049l.022.062a5.277,5.277,0,0,0,1.85,2.494,7.817,7.817,0,0,0,1.6.972,10.063,10.063,0,0,0,3.455.867,11.876,11.876,0,0,0,2.558-.085,12.83,12.83,0,0,0,1.532-.313,12.2,12.2,0,0,0,3.74-1.7q.112-.077.222-.156A10.648,10.648,0,0,1,183.89,293.364Z" transform="translate(-159.979 -268.443)" fill="url(#linear-gradient-3)"/>
        <path id="Path_37987" data-name="Path 37987" d="M212,351.384a15.982,15.982,0,0,0,11.311-19.591,10.674,10.674,0,0,1-10.2,13.426q-.43.243-.883.445a10.746,10.746,0,0,1-1.608.57,10.6,10.6,0,0,1-4.224.267" transform="translate(-191.862 -319.933)" fill="url(#linear-gradient-4)"/>
        <path id="Path_37988" data-name="Path 37988" d="M291.8,238.164a.338.338,0,0,1-.048.55l-2.676,1.563-1.581.924a.557.557,0,0,1-.557.005,9.807,9.807,0,0,0-1.26-.606c-.047-.019-.1-.039-.144-.057-.073-.029-.146-.056-.221-.082l-.1-.035c-.06-.021-.12-.04-.18-.06l-.044-.015a10.153,10.153,0,0,0-1.113-.29,16.028,16.028,0,0,0-6.284-5.036l.069-.018.153-.035.037-.009a17.9,17.9,0,0,1,2.594-.386l.073,0c.089-.007.178-.011.267-.016.268-.012.537-.019.809-.019a16.044,16.044,0,0,1,8.418,2.334l.01.007A14.575,14.575,0,0,1,291.8,238.164Z" transform="translate(-255.042 -233.621)" fill="url(#linear-gradient-5)"/>
      </g>
    </g>
  </g>
</svg>
