<svg id="Group_38915" data-name="Group 38915" xmlns="http://www.w3.org/2000/svg" xmlns:xlink="http://www.w3.org/1999/xlink" width="31.516" height="28" viewBox="0 0 31.516 28">
  <defs>
    <linearGradient id="linear-gradient" x1="0.356" y1="0.947" x2="0.577" y2="0.263" gradientUnits="objectBoundingBox">
      <stop offset="0" stop-color="#445ea7"/>
      <stop offset="0.222" stop-color="#4f7cbc"/>
      <stop offset="0.997" stop-color="#5faedf"/>
    </linearGradient>
    <linearGradient id="linear-gradient-2" x1="0.366" y1="-0.021" x2="0.507" y2="0.626" gradientUnits="objectBoundingBox">
      <stop offset="0" stop-color="#445ea7"/>
      <stop offset="0.222" stop-color="#4f7cbc"/>
      <stop offset="0.998" stop-color="#5faedf"/>
    </linearGradient>
    <linearGradient id="linear-gradient-3" x1="0.12" y1="0.537" x2="1.008" y2="0.454" gradientUnits="objectBoundingBox">
      <stop offset="0" stop-color="#445ea7"/>
      <stop offset="0.248" stop-color="#4f7cbc"/>
      <stop offset="1" stop-color="#89ddef"/>
    </linearGradient>
    <linearGradient id="linear-gradient-4" x1="0.6" y1="-0.018" x2="0.452" y2="0.77" gradientUnits="objectBoundingBox">
      <stop offset="0" stop-color="#445ea7"/>
      <stop offset="1" stop-color="#445ea7" stop-opacity="0"/>
    </linearGradient>
  </defs>
  <path id="Path_37550" data-name="Path 37550" d="M96.543,257.5a13.98,13.98,0,0,0,9.854-16.911q-.025-.1-.052-.206a13.958,13.958,0,0,0-2.288-4.736,8.413,8.413,0,0,1,1.9.607,6.916,6.916,0,0,1,1.261.744h0l0,0a.318.318,0,0,0,.434-.049l2.617-3.086a.307.307,0,0,0-.05-.444l-.191-.144a13.826,13.826,0,0,0-11.476-2.042A14,14,0,1,0,96.543,257.5Zm3.649-19.226a9.264,9.264,0,0,1,1.646,3.317A4.666,4.666,0,0,1,95,246.842a4.765,4.765,0,0,1-.442-.289,4.617,4.617,0,0,1-1.618-2.182l-.019-.054c-.005-.014-.01-.028-.015-.043l-.024-.074-.019-.061-.014-.047-.008-.027-.016-.056-.015-.057-.007-.027c0-.016-.008-.032-.012-.048l-.014-.062c0-.021-.009-.042-.014-.063a4.62,4.62,0,0,1,.285-2.8v0a6.814,6.814,0,0,1,.789-1.442,8.806,8.806,0,0,1,2.239-2.169,10.384,10.384,0,0,1,1.975-1.054A9.277,9.277,0,0,1,100.191,238.276Zm-16.613,4.451A9.319,9.319,0,0,1,90.41,235a9.406,9.406,0,0,1,1.468-.272,12.282,12.282,0,0,0-3.128,4.413v0a9.559,9.559,0,0,0-.542,5.608c.006.03.013.06.02.09s.014.063.022.094q.017.074.036.148l.011.045.024.09.025.09.013.045q.021.073.043.146l.028.092c.009.029.018.059.028.088a9.559,9.559,0,0,0,3.274,4.586l0,0a9.336,9.336,0,0,0,5.688,1.869q-.376.213-.773.389a9.4,9.4,0,0,1-1.407.5,9.339,9.339,0,0,1-11.661-10.294Z" transform="translate(-78.825 -230.009)" fill="#5faedf"/>
  <path id="Path_37551" data-name="Path 37551" d="M96.447,257.528a14,14,0,1,1,2.1-26.292q-.2.049-.407.1a15.042,15.042,0,0,0-6.266,3.384A9.406,9.406,0,0,0,90.41,235a9.331,9.331,0,1,0,4.83,18.026,9.409,9.409,0,0,0,1.407-.5q.4-.176.773-.389a9.333,9.333,0,0,0,8.925-11.748,14,14,0,0,1-9.9,17.142Z" transform="translate(-78.825 -230.009)" fill="url(#linear-gradient)"/>
  <path id="Path_37552" data-name="Path 37552" d="M222.085,259.06a11.22,11.22,0,0,1-1.341.273,10.394,10.394,0,0,1-2.238.074,8.807,8.807,0,0,1-3.024-.758,6.833,6.833,0,0,1-1.4-.851,4.748,4.748,0,0,0,.442.289,4.666,4.666,0,0,0,6.84-5.248,9.285,9.285,0,0,0-3.784-5.314q-.275-.185-.564-.352a9.307,9.307,0,0,0-3.385-1.165,9.182,9.182,0,0,0-1.365-.088q-.432,0-.863.049a15.042,15.042,0,0,1,6.266-3.384q.2-.054.407-.1a13.963,13.963,0,0,1,7.794,9.149,9.287,9.287,0,0,1-.319,5.8q-.1.069-.194.136A10.67,10.67,0,0,1,222.085,259.06Z" transform="translate(-198.351 -241.254)" fill="#5faedf"/>
  <path id="Path_37553" data-name="Path 37553" d="M183.824,294.535a9.3,9.3,0,0,1-8.015-1.549l0,0a9.559,9.559,0,0,1-3.274-4.586c-.01-.029-.019-.059-.028-.088l-.028-.092q-.022-.073-.043-.146l-.013-.045-.025-.09-.024-.09-.012-.046q-.019-.074-.036-.148c-.007-.031-.015-.063-.022-.094s-.013-.06-.02-.09a9.559,9.559,0,0,1,.542-5.608v0a12.282,12.282,0,0,1,3.128-4.413q.431-.045.863-.049a9.171,9.171,0,0,1,1.365.088,9.305,9.305,0,0,1,3.385,1.165q.289.167.564.352a10.388,10.388,0,0,0-1.975,1.054,8.808,8.808,0,0,0-2.239,2.169,6.815,6.815,0,0,0-.789,1.442v0a4.62,4.62,0,0,0-.285,2.8c0,.021.009.042.014.063l.014.062c0,.016.008.032.012.048l.007.027.015.057.016.056.008.027.014.047.019.061.024.074q.007.022.015.043l.019.054a4.617,4.617,0,0,0,1.618,2.182,6.834,6.834,0,0,0,1.4.851,8.807,8.807,0,0,0,3.024.758,10.388,10.388,0,0,0,2.238-.074,11.208,11.208,0,0,0,1.341-.273,10.67,10.67,0,0,0,3.273-1.488q.1-.067.194-.136A9.316,9.316,0,0,1,183.824,294.535Z" transform="translate(-162.903 -272.73)" fill="url(#linear-gradient-2)"/>
  <path id="Path_37554" data-name="Path 37554" d="M290.9,241.151a.307.307,0,0,0-.05-.444l-.191-.144a13.826,13.826,0,0,0-11.476-2.042,14.03,14.03,0,0,1,5.505,4.413,8.415,8.415,0,0,1,1.9.607,6.916,6.916,0,0,1,1.261.744h0l0,0a.318.318,0,0,0,.434-.049Z" transform="translate(-259.456 -237.293)" fill="url(#linear-gradient-3)"/>
  <path id="Path_37555" data-name="Path 37555" d="M208.01,348.282a9.268,9.268,0,0,0,3.7-.233,9.414,9.414,0,0,0,1.407-.5q.4-.176.773-.389a9.333,9.333,0,0,0,8.925-11.748,14,14,0,0,1-9.9,17.142" transform="translate(-195.291 -325.036)" fill="url(#linear-gradient-4)"/>
</svg>
