<svg xmlns="http://www.w3.org/2000/svg" xmlns:xlink="http://www.w3.org/1999/xlink" width="118.455" height="32" viewBox="0 0 118.455 32">
  <defs>
    <linearGradient id="linear-gradient" x1="0.356" y1="0.947" x2="0.577" y2="0.263" gradientUnits="objectBoundingBox">
      <stop offset="0" stop-color="#445ea7"/>
      <stop offset="0.222" stop-color="#4f7cbc"/>
      <stop offset="0.997" stop-color="#5faedf"/>
    </linearGradient>
    <linearGradient id="linear-gradient-2" x1="0.366" y1="-0.021" x2="0.507" y2="0.626" gradientUnits="objectBoundingBox">
      <stop offset="0" stop-color="#445ea7"/>
      <stop offset="0.222" stop-color="#4f7cbc"/>
      <stop offset="0.998" stop-color="#5faedf"/>
    </linearGradient>
    <linearGradient id="linear-gradient-3" x1="0.12" y1="0.537" x2="1.008" y2="0.454" gradientUnits="objectBoundingBox">
      <stop offset="0" stop-color="#445ea7"/>
      <stop offset="0.248" stop-color="#4f7cbc"/>
      <stop offset="1" stop-color="#89ddef"/>
    </linearGradient>
    <linearGradient id="linear-gradient-4" x1="0.6" y1="-0.018" x2="0.452" y2="0.77" gradientUnits="objectBoundingBox">
      <stop offset="0" stop-color="#445ea7"/>
      <stop offset="1" stop-color="#445ea7" stop-opacity="0"/>
    </linearGradient>
    <linearGradient id="linear-gradient-5" x1="0.5" y1="-0.275" x2="0.5" y2="1.363" xlink:href="#linear-gradient-3"/>
  </defs>
  <g id="Group_38918" data-name="Group 38918" transform="translate(1853 761)">
    <g id="Group_38904" data-name="Group 38904" transform="translate(-1853 -761)">
      <path id="Path_37550" data-name="Path 37550" d="M99.074,261.43A15.978,15.978,0,0,0,110.336,242.1q-.029-.117-.06-.235a15.952,15.952,0,0,0-2.615-5.412,9.616,9.616,0,0,1,2.169.693,7.9,7.9,0,0,1,1.441.85h0l0,0a.364.364,0,0,0,.5-.056l2.991-3.527a.351.351,0,0,0-.057-.508l-.218-.164a15.8,15.8,0,0,0-13.116-2.334,16,16,0,1,0-2.295,30.018Zm4.17-21.973a10.587,10.587,0,0,1,1.882,3.791,5.332,5.332,0,0,1-7.817,6,5.447,5.447,0,0,1-.5-.33,5.277,5.277,0,0,1-1.85-2.494l-.022-.062c-.006-.016-.011-.032-.017-.049s-.018-.056-.027-.084l-.021-.069c-.006-.018-.011-.036-.016-.054l-.009-.03-.018-.064-.017-.065-.008-.031c0-.018-.009-.036-.013-.055l-.016-.071c-.005-.024-.011-.048-.016-.073a5.28,5.28,0,0,1,.326-3.205v0a7.787,7.787,0,0,1,.9-1.648,10.064,10.064,0,0,1,2.559-2.478,11.867,11.867,0,0,1,2.257-1.2A10.6,10.6,0,0,1,103.244,239.457Zm-18.986,5.087a10.65,10.65,0,0,1,7.807-8.837,10.75,10.75,0,0,1,1.678-.311,14.037,14.037,0,0,0-3.575,5.043l0,0a10.925,10.925,0,0,0-.62,6.409c.007.035.015.069.022.1s.016.072.025.107q.02.085.041.169l.013.052.027.1.028.1.015.052q.024.084.049.167l.032.105c.01.034.021.067.032.1a10.925,10.925,0,0,0,3.741,5.241l0,0a10.67,10.67,0,0,0,6.5,2.136q-.43.243-.883.445a10.744,10.744,0,0,1-1.608.57,10.673,10.673,0,0,1-13.327-11.765Z" transform="translate(-78.825 -230.009)" fill="#5faedf"/>
      <path id="Path_37551" data-name="Path 37551" d="M98.965,261.46a16,16,0,1,1,2.4-30.048q-.232.056-.465.118a17.191,17.191,0,0,0-7.162,3.867,10.75,10.75,0,0,0-1.678.311,10.664,10.664,0,1,0,5.52,20.6,10.755,10.755,0,0,0,1.608-.57q.453-.2.883-.445a10.666,10.666,0,0,0,10.2-13.426A16,16,0,0,1,98.965,261.46Z" transform="translate(-78.825 -230.009)" fill="url(#linear-gradient)"/>
      <path id="Path_37552" data-name="Path 37552" d="M223.61,261.428a12.825,12.825,0,0,1-1.532.313,11.877,11.877,0,0,1-2.558.085,10.064,10.064,0,0,1-3.455-.867,7.812,7.812,0,0,1-1.6-.972,5.444,5.444,0,0,0,.5.33,5.332,5.332,0,0,0,7.817-6,10.612,10.612,0,0,0-4.325-6.073q-.314-.211-.644-.4a10.636,10.636,0,0,0-3.868-1.332,10.5,10.5,0,0,0-1.56-.1q-.494,0-.987.056a17.191,17.191,0,0,1,7.162-3.867q.233-.062.465-.118a15.957,15.957,0,0,1,8.907,10.456,10.613,10.613,0,0,1-.364,6.633q-.11.079-.222.156A12.2,12.2,0,0,1,223.61,261.428Z" transform="translate(-196.486 -241.079)" fill="#5faedf"/>
      <path id="Path_37553" data-name="Path 37553" d="M185.5,296.984a10.634,10.634,0,0,1-9.16-1.77l0,0a10.925,10.925,0,0,1-3.741-5.241c-.011-.034-.022-.067-.032-.1l-.032-.105q-.025-.083-.049-.167l-.015-.052-.028-.1-.027-.1-.013-.052q-.021-.085-.041-.169c-.009-.036-.017-.072-.025-.107s-.015-.069-.022-.1a10.925,10.925,0,0,1,.62-6.409l0,0a14.037,14.037,0,0,1,3.575-5.043q.493-.052.987-.056a10.494,10.494,0,0,1,1.56.1,10.636,10.636,0,0,1,3.868,1.332q.33.191.644.4a11.872,11.872,0,0,0-2.258,1.2,10.066,10.066,0,0,0-2.559,2.478,7.788,7.788,0,0,0-.9,1.648v0a5.28,5.28,0,0,0-.326,3.205c0,.024.01.048.016.073l.016.071c0,.019.009.037.013.055l.008.031.017.065.018.064.009.03c.005.018.01.036.016.054l.021.069c.009.028.018.056.027.084s.011.033.017.049l.022.062a5.277,5.277,0,0,0,1.85,2.494,7.811,7.811,0,0,0,1.6.972,10.065,10.065,0,0,0,3.455.867,11.879,11.879,0,0,0,2.558-.085,12.819,12.819,0,0,0,1.532-.313,12.194,12.194,0,0,0,3.74-1.7q.112-.077.222-.156A10.647,10.647,0,0,1,185.5,296.984Z" transform="translate(-161.591 -272.063)" fill="url(#linear-gradient-2)"/>
      <path id="Path_37554" data-name="Path 37554" d="M292.573,241.589a.351.351,0,0,0-.057-.508l-.218-.164a15.8,15.8,0,0,0-13.116-2.334,16.033,16.033,0,0,1,6.292,5.044,9.617,9.617,0,0,1,2.169.693,7.9,7.9,0,0,1,1.441.85h0l0,0a.364.364,0,0,0,.5-.056Z" transform="translate(-256.638 -237.179)" fill="url(#linear-gradient-3)"/>
      <path id="Path_37555" data-name="Path 37555" d="M208.01,350.12a10.592,10.592,0,0,0,4.224-.267,10.755,10.755,0,0,0,1.608-.57q.453-.2.883-.445a10.666,10.666,0,0,0,10.2-13.426A16,16,0,0,1,213.614,355" transform="translate(-193.474 -323.553)" fill="url(#linear-gradient-4)"/>
    </g>
    <g id="Group_38905" data-name="Group 38905" transform="translate(-1810.503 -756)">
      <path id="Path_37556" data-name="Path 37556" d="M425.592,274.261h4.192l-3.122,17.749h7.789l-.684,3.954H421.787Z" transform="translate(-421.787 -274.261)" fill="#263138"/>
      <path id="Path_37557" data-name="Path 37557" d="M545.436,341.322a8.122,8.122,0,0,1,7.849-6.838,5.048,5.048,0,0,1,4.4,2.111l.327-1.813h4.133L560.271,344.8c-.178.922,0,1.367,1.159,1.367h.3l-.624,3.478h-1.9a2.643,2.643,0,0,1-2.616-1.516,5.908,5.908,0,0,1-4.489,1.814C547.042,349.943,544.663,345.9,545.436,341.322Zm11.386,1.16a3.451,3.451,0,0,0-3.241-4.281,4.279,4.279,0,0,0-4.222,3.627,3.523,3.523,0,0,0,3.389,4.34A4.173,4.173,0,0,0,556.823,342.481Z" transform="translate(-531.88 -327.943)" fill="#263138"/>
      <path id="Path_37558" data-name="Path 37558" d="M706.729,342.245c.268-1.07,0-1.487-.951-1.487H705.3l.624-3.538h1.724c1.932,0,2.646.922,2.765,2.349a5.055,5.055,0,0,1,4.459-2.349h1.9l-.743,4.1H714.4c-2.051,0-3.478.922-4.013,3.687l-1.4,7.076h-4.162Z" transform="translate(-674.086 -330.383)" fill="#263138"/>
      <path id="Path_37559" data-name="Path 37559" d="M808.06,347.835l1.843-10.614h4.132l-1.784,10.168c-.148.862.089,1.07.862,1.07h.446l-.654,3.627h-2.141C808.06,352.086,807.584,350.6,808.06,347.835Z" transform="translate(-765.963 -330.383)" fill="#263138"/>
      <path id="Path_37560" data-name="Path 37560" d="M868.713,341.322a8.122,8.122,0,0,1,7.849-6.838,5.049,5.049,0,0,1,4.4,2.111l.327-1.813h4.133L883.548,344.8c-.178.922,0,1.367,1.159,1.367h.3l-.624,3.478h-1.9a2.642,2.642,0,0,1-2.616-1.516,5.909,5.909,0,0,1-4.489,1.814C870.318,349.943,867.94,345.9,868.713,341.322Zm11.386,1.16a3.451,3.451,0,0,0-3.24-4.281,4.279,4.279,0,0,0-4.222,3.627,3.523,3.523,0,0,0,3.389,4.34A4.173,4.173,0,0,0,880.1,342.481Z" transform="translate(-820.046 -327.943)" fill="#263138"/>
      <path id="Path_37561" data-name="Path 37561" d="M1029.032,290.372h2.5l.624-3.478,4.519-2.23s-.476,2.705-1.011,5.708h2.795l-.654,3.657h-2.795c-.446,2.5-.8,4.578-.833,4.727-.446,2.319-.268,2.676,2.319,2.676l-.654,3.805h-.595c-4.816,0-6.035-1.605-5.173-6.451l.832-4.757h-2.527Z" transform="translate(-962.499 -283.534)" fill="#263138"/>
      <circle id="Ellipse_1" data-name="Ellipse 1" cx="2.036" cy="2.036" r="2.036" transform="translate(44.403 1.489) rotate(-5.655)" fill="url(#linear-gradient-5)"/>
    </g>
  </g>
</svg>
