<svg id="Group_39057" data-name="Group 39057" xmlns="http://www.w3.org/2000/svg" xmlns:xlink="http://www.w3.org/1999/xlink" width="32.266" height="28" viewBox="0 0 32.266 28">
  <defs>
    <linearGradient id="linear-gradient" x1="0.356" y1="0.947" x2="0.577" y2="0.263" gradientUnits="objectBoundingBox">
      <stop offset="0" stop-color="#445ea7"/>
      <stop offset="0.222" stop-color="#4f7cbc"/>
      <stop offset="0.997" stop-color="#5faedf"/>
    </linearGradient>
    <linearGradient id="linear-gradient-2" x1="0.366" y1="-0.021" x2="0.507" y2="0.626" gradientUnits="objectBoundingBox">
      <stop offset="0" stop-color="#445ea7"/>
      <stop offset="0.222" stop-color="#4f7cbc"/>
      <stop offset="0.998" stop-color="#5faedf"/>
    </linearGradient>
    <linearGradient id="linear-gradient-3" x1="0.6" y1="-0.018" x2="0.452" y2="0.77" gradientUnits="objectBoundingBox">
      <stop offset="0" stop-color="#364d7f"/>
      <stop offset="0.999" stop-color="#364d7f" stop-opacity="0"/>
    </linearGradient>
    <linearGradient id="linear-gradient-4" x1="0.141" y1="0.5" x2="1.017" y2="0.5" gradientUnits="objectBoundingBox">
      <stop offset="0" stop-color="#445ea7"/>
      <stop offset="0.248" stop-color="#4f7cbc"/>
      <stop offset="1" stop-color="#89ddef"/>
    </linearGradient>
  </defs>
  <path id="Path_37983" data-name="Path 37983" d="M107.813,229.239l-.009-.006a14.039,14.039,0,0,0-7.365-2.042c-.238,0-.474.006-.708.017-.078,0-.156.008-.233.014l-.064,0a15.661,15.661,0,0,0-2.269.338l-.032.008L97,227.6l-.06.016h0a14.017,14.017,0,1,0,7.847,9.355c-.017-.068-.034-.137-.053-.2a13.941,13.941,0,0,0-2.288-4.737l0-.006a8.884,8.884,0,0,1,.974.254l.038.013c.052.017.105.033.158.052l.088.031c.065.023.129.046.193.072.042.016.085.033.126.05a8.582,8.582,0,0,1,1.1.53.488.488,0,0,0,.488,0l1.383-.808,2.341-1.368a.3.3,0,0,0,.042-.482A12.754,12.754,0,0,0,107.813,229.239ZM95.032,248.9a9.46,9.46,0,0,1-1.407.5,9.331,9.331,0,1,1-4.83-18.027,9.5,9.5,0,0,1,1.468-.272,12.307,12.307,0,0,0-3.128,4.413s0,0,0,0a9.552,9.552,0,0,0-.542,5.608c.006.031.013.06.02.091s.014.062.022.094c.011.049.024.1.035.148l.012.046.024.09c.008.031.017.061.025.091l.013.045c.014.049.029.1.043.146.009.032.019.062.028.093l.029.088a9.563,9.563,0,0,0,3.274,4.586l0,0a9.341,9.341,0,0,0,5.688,1.869Q95.428,248.727,95.032,248.9Zm4.726-7.389a4.666,4.666,0,0,1-6.374,1.707,4.8,4.8,0,0,1-.442-.288,4.611,4.611,0,0,1-1.618-2.183c-.007-.018-.014-.035-.02-.054l-.015-.042-.024-.074c-.006-.02-.013-.04-.019-.061s-.01-.031-.014-.047,0-.018-.008-.027-.011-.037-.016-.056l-.015-.056-.006-.028c0-.016-.009-.032-.012-.048l-.015-.061c0-.022-.009-.042-.013-.064a4.617,4.617,0,0,1,.285-2.8l0,0a6.819,6.819,0,0,1,.789-1.442,8.808,8.808,0,0,1,2.239-2.168,10.345,10.345,0,0,1,1.976-1.054,9.28,9.28,0,0,1,3.784,5.314A4.637,4.637,0,0,1,99.758,241.514Z" transform="translate(-77.21 -226.389)" fill="#5faedf"/>
  <g id="Group_39035" data-name="Group 39035" transform="translate(0 0)">
    <path id="Path_37984" data-name="Path 37984" d="M94.835,253.908a14,14,0,1,1,2.1-26.292q-.2.049-.407.1a15.042,15.042,0,0,0-6.266,3.384,9.41,9.41,0,0,0-1.468.272,9.331,9.331,0,1,0,4.83,18.026,9.4,9.4,0,0,0,1.407-.5q.4-.176.773-.389a9.333,9.333,0,0,0,8.925-11.748,14,14,0,0,1-9.9,17.142Z" transform="translate(-77.213 -226.389)" fill="url(#linear-gradient)"/>
    <path id="Path_37985" data-name="Path 37985" d="M220.473,255.44a11.225,11.225,0,0,1-1.341.274,10.392,10.392,0,0,1-2.238.074,8.805,8.805,0,0,1-3.024-.758,6.841,6.841,0,0,1-1.4-.851,4.765,4.765,0,0,0,.442.289,4.666,4.666,0,0,0,6.839-5.248,9.284,9.284,0,0,0-3.784-5.314q-.275-.185-.564-.352a9.307,9.307,0,0,0-3.384-1.165,9.185,9.185,0,0,0-1.365-.088q-.432,0-.863.049a15.042,15.042,0,0,1,6.266-3.384q.2-.055.407-.1a13.963,13.963,0,0,1,7.794,9.149,9.287,9.287,0,0,1-.319,5.8q-.1.069-.194.136A10.673,10.673,0,0,1,220.473,255.44Z" transform="translate(-196.739 -237.634)" fill="#5faedf"/>
    <path id="Path_37986" data-name="Path 37986" d="M182.213,290.915a9.3,9.3,0,0,1-8.015-1.549l0,0a9.559,9.559,0,0,1-3.274-4.586c-.01-.029-.019-.058-.028-.088l-.028-.092q-.022-.073-.043-.146l-.013-.045-.025-.09-.024-.09-.011-.045q-.019-.074-.036-.148c-.007-.031-.015-.063-.021-.094s-.013-.06-.02-.09a9.558,9.558,0,0,1,.542-5.608v0a12.285,12.285,0,0,1,3.128-4.413q.431-.045.863-.049a9.181,9.181,0,0,1,1.365.088,9.307,9.307,0,0,1,3.384,1.165q.289.167.564.352a10.39,10.39,0,0,0-1.975,1.054,8.81,8.81,0,0,0-2.239,2.169,6.822,6.822,0,0,0-.789,1.442v0a4.62,4.62,0,0,0-.285,2.8c0,.021.009.042.014.063l.014.062c0,.016.008.032.012.048l.007.027.015.056.016.056.008.027c0,.016.009.032.014.047l.019.061c.008.025.016.049.024.074s.009.029.015.043l.019.054a4.618,4.618,0,0,0,1.618,2.182,6.841,6.841,0,0,0,1.4.851,8.805,8.805,0,0,0,3.023.758,10.393,10.393,0,0,0,2.238-.074,11.23,11.23,0,0,0,1.341-.274,10.673,10.673,0,0,0,3.273-1.488q.1-.067.194-.136A9.317,9.317,0,0,1,182.213,290.915Z" transform="translate(-161.291 -269.11)" fill="url(#linear-gradient-2)"/>
    <path id="Path_37987" data-name="Path 37987" d="M211.3,348.935a13.984,13.984,0,0,0,9.9-17.142,9.34,9.34,0,0,1-8.925,11.748q-.376.213-.773.389a9.4,9.4,0,0,1-1.407.5,9.27,9.27,0,0,1-3.7.233" transform="translate(-193.679 -321.416)" fill="url(#linear-gradient-3)"/>
    <path id="Path_37988" data-name="Path 37988" d="M290.019,237.711a.3.3,0,0,1-.042.482l-2.341,1.368-1.383.808a.488.488,0,0,1-.488,0,8.582,8.582,0,0,0-1.1-.53c-.041-.017-.084-.034-.126-.05-.064-.026-.128-.049-.193-.072l-.088-.031c-.052-.019-.105-.035-.158-.052l-.038-.013a8.884,8.884,0,0,0-.974-.254,14.024,14.024,0,0,0-5.5-4.407l.06-.016.134-.031.033-.008a15.659,15.659,0,0,1,2.269-.338l.064,0c.078-.006.156-.01.233-.014.234-.011.47-.017.708-.017a14.039,14.039,0,0,1,7.365,2.042l.009.006A12.754,12.754,0,0,1,290.019,237.711Z" transform="translate(-257.86 -233.736)" fill="url(#linear-gradient-4)"/>
  </g>
</svg>
