<svg xmlns="http://www.w3.org/2000/svg" width="18" height="18" viewBox="0 0 18 18">
  <g id="Group_4378" data-name="Group 4378" transform="translate(-645.53 -288.043)">
    <path id="Path_3464" data-name="Path 3464" d="M648.53,289.543l0,1.5-1.5,0,0-1.5h1.5m0-1.5h-1.5a1.5,1.5,0,0,0-1.5,1.5v1.505a1.5,1.5,0,0,0,1.5,1.5h1.5a1.5,1.5,0,0,0,1.5-1.5v-1.505a1.5,1.5,0,0,0-1.5-1.5Z" fill="#757a85"/>
    <path id="Path_3465" data-name="Path 3465" d="M662.806,291.043H653a.75.75,0,0,1,0-1.5h9.8a.75.75,0,0,1,0,1.5Z" fill="#757a85"/>
    <path id="Path_3466" data-name="Path 3466" d="M648.53,296.293l0,1.5-1.5,0,0-1.5h1.5m0-1.5h-1.5a1.5,1.5,0,0,0-1.5,1.5V297.8a1.5,1.5,0,0,0,1.5,1.5h1.5a1.5,1.5,0,0,0,1.5-1.5v-1.505a1.5,1.5,0,0,0-1.5-1.5Z" fill="#757a85"/>
    <path id="Path_3467" data-name="Path 3467" d="M662.806,297.793H653a.75.75,0,0,1,0-1.5h9.8a.75.75,0,0,1,0,1.5Z" fill="#757a85"/>
    <path id="Path_3468" data-name="Path 3468" d="M648.53,303.043l0,1.5-1.5,0,0-1.5h1.5m0-1.5h-1.5a1.5,1.5,0,0,0-1.5,1.5v1.505a1.5,1.5,0,0,0,1.5,1.5h1.5a1.5,1.5,0,0,0,1.5-1.5v-1.505a1.5,1.5,0,0,0-1.5-1.5Z" fill="#757a85"/>
    <path id="Path_3469" data-name="Path 3469" d="M662.806,304.543H653a.75.75,0,0,1,0-1.5h9.8a.75.75,0,0,1,0,1.5Z" fill="#757a85"/>
  </g>
</svg>
