<?xml version="1.0" encoding="utf-8"?>
<!-- Generator: Adobe Illustrator 24.1.1, SVG Export Plug-In . SVG Version: 6.00 Build 0)  -->
<svg version="1.1" id="Layer_1" xmlns="http://www.w3.org/2000/svg" xmlns:xlink="http://www.w3.org/1999/xlink" x="0px" y="0px"
	 width="1186.2px" height="1053.2px" viewBox="0 0 1186.2 1053.2" style="enable-background:new 0 0 1186.2 1053.2;"
	 xml:space="preserve">
<style type="text/css">
	.st0{fill:#ECF4FF;}
	.st1{fill:#B0D3FF;}
	.st2{fill:#F8FBFF;}
	.st3{fill:#FEAC00;}
	.st4{fill:#00236E;}
	.st5{fill:#FF9201;}
	.st6{fill:#1980FF;}
	.st7{fill:#1063DC;}
	.st8{fill:#BCDAFE;}
	.st9{fill:#99C5FF;}
	.st10{fill:#8CBFFF;}
	.st11{fill:#0DBF95;}
	.st12{fill:#08A078;}
	.st13{fill:#FE99C0;}
	.st14{fill:#033593;}
	.st15{fill:#094BB7;}
	.st16{fill:#FFC400;}
	.st17{fill:#C8DFFF;}
	.st18{fill:#A4CCFF;}
</style>
<g id="login-img" transform="translate(791.751 -80.557)">
	<path id="bg" class="st0" d="M-1582.6,935.5c-173.8-261.2,30.7-819.2,357.3-708.4s256.1,316,402.3,274.2S-286.8-57.4-96,116
		s278.4,970.1,0,1021.8c-278.4,51.8-458.6,75.5-727,67C-1091.5,1196.3-1396.7,1214.9-1582.6,935.5z"/>
	<g id="kanban_board" transform="translate(272.164 235.608)">
		<path id="Path" class="st1" d="M-78.3,451c0,11.6-9.4,20.9-20.9,20.9c0,0,0,0,0,0h-660.5c-11.6,0-20.9-9.4-20.9-20.9c0,0,0,0,0,0
			V31.7c0-11.6,9.4-20.9,20.9-20.9c0,0,0,0,0,0h660.5c11.6,0,20.9,9.4,20.9,20.9c0,0,0,0,0,0V451z"/>
		<rect id="Rectangle" x="-759" y="35.1" class="st2" width="206.2" height="412.5"/>
		<rect id="Rectangle-2" x="-532.6" y="35.1" class="st2" width="206.2" height="412.5"/>
		<rect id="Rectangle-3" x="-305.7" y="35.1" class="st2" width="206.2" height="412.5"/>
		<g id="Group" transform="translate(54.014 103.438)">
			<path id="Path-2" class="st3" d="M-777,17.9v43.5h26.3l11.2-9.2V17.9H-777z"/>
			<path id="Path-3" class="st4" d="M-759.4,36.8c-1.9,0-3.8-0.8-5.2-2.1c-2.1-2.1-5.6-2.1-7.7,0c-0.4,0.4-1,0.3-1.3,0
				c-0.3-0.4-0.3-0.9,0-1.3c2.9-2.9,7.5-2.9,10.4,0c2.2,2.1,5.6,2.1,7.7,0l0.2-0.2c2.9-2.9,7.5-2.9,10.4,0l0.9,0.9
				c0.4,0.4,0.3,1,0,1.3c-0.4,0.3-0.9,0.3-1.3,0l-0.9-0.9c-2.1-2.1-5.6-2.1-7.7,0l-0.2,0.2C-755.6,36-757.4,36.8-759.4,36.8z"/>
			<path id="Path-4" class="st5" d="M-739.5,52.2h-7.6c-1.3,0-2.4,1-2.6,2.3l-0.9,6.9L-739.5,52.2z"/>
		</g>
		<g id="Group-2" transform="translate(143.309 118.262)">
			<path id="Path-5" class="st6" d="M-770.8,18.9v43.5h26.3l11.2-9.2V18.9H-770.8z"/>
			<path id="Path-6" class="st7" d="M-733.3,53.2h-7.6c-1.3,0-2.4,1-2.6,2.3l-0.9,6.9L-733.3,53.2z"/>
		</g>
		<g id="Group-3" transform="translate(93.018 303.921)">
			<path id="Path-7" class="st3" d="M-774.3,31.7v43.5h26.3l11.2-9.2V31.7H-774.3z"/>
			<path id="Path-8" class="st5" d="M-736.8,66.1h-7.6c-1.3,0-2.4,1-2.6,2.3l-0.9,6.9L-736.8,66.1z"/>
		</g>
		<g id="Group-4" transform="translate(577.824 95.366)">
			<path id="Path-9" class="st8" d="M-713.1,17.3l-27.7,33.6l20.3,16.7h14.5l21.8-26.5L-713.1,17.3z"/>
			<path id="Path-10" class="st9" d="M-706,67.7l-5.9-4.9c-1-0.8-2.5-0.8-3.5,0.1l-5.1,4.8H-706z"/>
		</g>
		<g id="Group-5" transform="translate(264.073 103.438)">
			<path id="Path-11" class="st8" d="M-762.4,17.9v43.5h26.3l11.2-9.2V17.9H-762.4z"/>
			<path id="Path-12" class="st10" d="M-724.9,52.2h-7.6c-1.3,0-2.4,1-2.6,2.3l-0.9,6.9L-724.9,52.2z"/>
		</g>
		<g id="Group-6" transform="translate(314.526 150.122)">
			<path id="Path-13" class="st3" d="M-735.6,21.1L-759,57.8l22.2,14.1l14.4-1.8l18.4-29L-735.6,21.1z"/>
			<path id="Path-14" class="st4" d="M-717.4,53.5c-0.4,0-0.8-0.3-0.9-0.7l-0.3-1.2c-0.6-2.9-3.6-4.8-6.5-4.1c0,0,0,0,0,0l-0.3,0.1
				c-1.9,0.4-3.9,0.1-5.5-1c-1.6-1-2.8-2.7-3.2-4.6c-0.7-2.9-3.6-4.8-6.5-4.1c0,0,0,0,0,0c-0.5,0.1-1-0.2-1.1-0.7
				c-0.1-0.5,0.2-1,0.7-1.1c4-0.9,7.9,1.6,8.7,5.6c0.7,2.9,3.6,4.8,6.5,4.1l0.3-0.1c4-0.9,7.9,1.6,8.7,5.6l0.3,1.2
				c0.1,0.5-0.2,1-0.7,1.1C-717.3,53.5-717.3,53.5-717.4,53.5L-717.4,53.5z"/>
			<path id="Path-15" class="st5" d="M-722.4,70.2l-6.4-4.1c-1.1-0.7-2.6-0.5-3.4,0.5l-4.5,5.3L-722.4,70.2z"/>
		</g>
		<g id="Group-7" transform="translate(463.998 111.998)">
			<path id="Path-16" class="st11" d="M-731.6,18.5l-17,40.1l24.2,10.3l13.9-4.1l13.4-31.6L-731.6,18.5z"/>
			<path id="Path-17" class="st4" d="M-708.5,47.5c-0.4,0-0.7-0.2-0.9-0.6l-0.5-1.1c-1.1-2.8-4.3-4.1-7.1-3l-0.3,0.1
				c-3.8,1.5-8-0.3-9.5-4.1c0,0,0,0,0,0c-1.1-2.8-4.3-4.1-7.1-3c-0.5,0.2-1,0-1.2-0.4s0-1,0.4-1.2c0,0,0.1,0,0.1,0
				c3.8-1.5,8,0.3,9.5,4.1c1.1,2.8,4.3,4.2,7.1,3c0,0,0,0,0,0l0.3-0.1c3.8-1.5,8,0.3,9.5,4.1l0.5,1.2c0.2,0.5,0,1-0.5,1.2
				c0,0,0,0,0,0C-708.2,47.4-708.4,47.5-708.5,47.5z"/>
			<path id="Path-18" class="st12" d="M-710.5,64.7l-7-3c-1.2-0.5-2.6-0.1-3.3,1.1l-3.6,6L-710.5,64.7z"/>
		</g>
		<g id="Group-8" transform="translate(516.916 166.885)">
			<path id="Path-19" class="st3" d="M-745,34.5l14.2,53.1l32.1-8.6l10.6-14.9l-11.2-41.9L-745,34.5z"/>
			<path id="Path-20" class="st5" d="M-688.1,64.1l-9.3,2.5c-1.6,0.4-2.7,2-2.4,3.6l1.1,8.8L-688.1,64.1z"/>
		</g>
		<path id="Path-21" class="st11" d="M-725.7,231.5l17.4,65.9l39.8-10.5l13.3-18.4l-13.7-52L-725.7,231.5z"/>
		<path id="Path-22" class="st12" d="M-655.2,268.6l-11.6,3c-2,0.5-3.3,2.4-3,4.5l1.3,10.9L-655.2,268.6z"/>
		<g id="Group-9" transform="translate(591.924 215.987)">
			<path id="Path-23" class="st6" d="M-739.8,25.6v30.7h18.6l7.9-6.5V25.6H-739.8z"/>
			<path id="Path-24" class="st7" d="M-713.3,49.9h-5.4c-0.9,0-1.7,0.7-1.8,1.6l-0.7,4.9L-713.3,49.9z"/>
		</g>
		<rect id="Rectangle-4" x="-692.7" y="70.5" class="st10" width="75" height="5.6"/>
		<rect id="Rectangle-5" x="-466.6" y="67.8" class="st10" width="74.8" height="5.3"/>
		<rect id="Rectangle-6" x="-232.7" y="67.7" class="st10" width="75" height="5.6"/>
	</g>
	<g id="wall_line" transform="translate(310.856 719.695)">
		<path id="Path-25" class="st8" d="M-570.6,46.1h-206.5c-0.5,0-0.9-0.4-0.9-0.9c0-0.5,0.4-0.9,0.9-0.9h206.5c0.5,0,0.9,0.4,0.9,0.9
			C-569.7,45.6-570.1,46.1-570.6,46.1z"/>
		<path id="Path-26" class="st8" d="M-580.8,132.3h-169c-0.5,0-0.9-0.4-0.9-0.9c0-0.5,0.4-0.9,0.9-0.9h169c0.5,0,0.9,0.4,0.9,0.9
			C-579.9,131.9-580.3,132.3-580.8,132.3z"/>
		<path id="Path-27" class="st8" d="M-644.7,91.1h-101.9c-0.5,0-0.9-0.4-0.9-0.9c0-0.5,0.4-0.9,0.9-0.9h101.9c0.5,0,0.9,0.4,0.9,0.9
			C-643.7,90.7-644.2,91.1-644.7,91.1C-644.7,91.1-644.7,91.1-644.7,91.1z"/>
		<path id="Path-28" class="st8" d="M-713.6,91.1c-0.5,0-0.9-0.4-0.9-0.9v-45c0-0.5,0.4-0.9,0.9-0.9c0.5,0,0.9,0.4,0.9,0.9
			c0,0,0,0,0,0v45C-712.6,90.7-713.1,91.1-713.6,91.1C-713.6,91.1-713.6,91.1-713.6,91.1z"/>
		<path id="Path-29" class="st8" d="M-665.3,118.9c-0.5,0-0.9-0.4-0.9-0.9c0,0,0,0,0,0V90.1c0-0.5,0.4-0.9,0.9-0.9s0.9,0.4,0.9,0.9
			c0,0,0,0,0,0v27.8C-664.4,118.4-664.8,118.9-665.3,118.9C-665.3,118.9-665.3,118.9-665.3,118.9z"/>
	</g>
	<g id="woman" transform="translate(519.305 459.639)">
		<path id="Path-30" class="st6" d="M-763.6,113.6l8.7,29.8l18-5.3l5.8-8.5l-6.9-23.5L-763.6,113.6z"/>
		<path id="Path-31" class="st7" d="M-731.1,129.6l-5.2,1.5c-0.9,0.3-1.5,1.2-1.3,2.1l0.7,4.9L-731.1,129.6z"/>
		<path id="Path-32" class="st13" d="M-597.9,412.9c0,0,6.8,24,4.1,29s-14.7,15-14.7,15l1.6,4.6l40.2-14.1c0,0-2.2-4.1-5.4-11.5
			c-3.2-7.4-9.2-28.8-9.2-28.8L-597.9,412.9z"/>
		<path id="Path-33" class="st4" d="M-564.5,449.5l-53.4,18.8c-0.9-2.5,4.4-9.6,9.4-11.3c5.1-1.8,5.7-0.7,11.9-3.9
			c6.2-3.2,12.5-16.3,24.6-20.5C-566.6,438.5-564.8,442.6-564.5,449.5z"/>
		<path id="Path-34" class="st13" d="M-633.9,424c0,0-1.5,24.9-5.7,28.7s-18.9,9.3-18.9,9.3v4.9h42.6c0,0-0.7-4.6-1.3-12.6
			c-0.6-8,0.9-30.3,0.9-30.3H-633.9z"/>
		<path id="Path-35" class="st4" d="M-614.5,469.6h-56.6c0-2.7,7.3-7.6,12.6-7.6c5.4,0,5.6,1.2,12.5,0.3c6.9-1,17.1-11.2,30-11.2
			C-612.8,458.5-612.6,463-614.5,469.6z"/>
		<path id="Path-36" class="st4" d="M-638.5,214.5c0,0-18.7,58.7-18.6,97.1c0,8.7,59.7,122.7,59.7,122.7l24.1-10.3l-31.9-117.5
			l8.4-97.9L-638.5,214.5z"/>
		<path id="Path-37" class="st13" d="M-643.1,105.4l-31,44.6l-40.5-30.1c0,0-11.3-6.3-13.1-6.8c-1.7-0.5-7.5-3.1-8.9-2.1l2.9,10.7
			c0,0-6.3,3.2-5.9,5c0.3,1.4,4.8,0.7,6.1,0.9c3.1,0.4,11.2-0.9,11.2-0.9s44.2,47,49.1,47.1c4.9,0.1,32.1-34.6,32.1-34.6
			L-643.1,105.4z"/>
		<path id="Path-38" class="st14" d="M-582.5,212.9c0,0,6.5,5.5,6.5,35.2c0,23.1-30.7,194.2-30.7,194.2h-32.9
			c0,0,7.6-112.2,7.9-122.3c0.3-10,5.7-108.1,5.7-108.1L-582.5,212.9z"/>
		<path id="Path-39" class="st11" d="M-631.2,99.1c0,0-9.4,2.1-12.7,5.2c-4.7,4.4-11.3,23.7-9.4,32.5c1.8,8.8,16.9,26.7,16.9,43.9
			c-0.1,11.3-0.8,22.5-2,33.7l56-1.6c0,0-3.1-19.4-3.9-34.1c-0.8-14.7,11.5-55,7.5-65.4s-25-15.9-25-15.9L-631.2,99.1z"/>
		<path id="Path-40" class="st13" d="M-582.5,111.7c19.4,2.2-0.8,69.5-0.8,69.5l-15.3,59.5l-14.8-2.8l12.6-64.1
			C-600.7,173.9-596,110.2-582.5,111.7z"/>
		<path id="Path-41" class="st4" d="M-653.4,93.9l67.1-8.6c0,0,13.4-48.9-16.7-50.4c0,0-5.6-8.7-21.2-8.7
			C-643.2,26.2-667.8,48.2-653.4,93.9z"/>
		<path id="Path-42" class="st13" d="M-630.8,48.2c-5.3,0-9.9,2.5-11.2,11.1c-1.3,8.3,0,16.8,3.7,24.4c3,6.1,10.8,3.7,10.8,3.7
			c-0.4,9.6-3.7,11.7-3.7,11.7s-5.7,19.1,8.1,19.1S-604,97.3-604,97.3c-5.3-10.9-4.1-26.1-4.1-26.1s4.9-0.2,5.1-6.7
			c0.2-6.7-7-6.6-7.3-6.5C-623.1,59.1-623.1,48.2-630.8,48.2z"/>
		
			<rect id="Rectangle-7" x="-608.1" y="227.9" transform="matrix(0.1839 -0.9829 0.9829 0.1839 -729.8712 -400.2948)" class="st7" width="4.2" height="22.9"/>
	</g>
	<g id="man" transform="translate(132.504 433.302)">
		<path id="Path-43" class="st13" d="M-678.2,116.4l26.4,14.5c0,0,47.7-39.9,53.7-52.9c1.4-3,16.4-13.8,17.3-10.5
			c0.9,3.3-8.2,10.3-8.2,10.3s8.6,6.3,4.7,12c-4.4,6.4-7.9,3.5-11.7,7.3s-45.9,56.7-55.4,56.7c-13,0-35.6-16.3-35.6-16.3
			L-678.2,116.4z"/>
		<path id="Path-44" class="st4" d="M-697.4,226.1c0,0,29.8,91.3,34.3,111.1c4.5,19.8-0.3,122.6-0.3,122.6h-27.4l-9.2-109.8
			c0,0-42-76-54.2-121.2L-697.4,226.1z"/>
		<path id="Path-45" class="st14" d="M-709.5,225.7l-25.9,236.5h-29.1l0.1-233.8L-709.5,225.7z"/>
		<path id="Path-46" class="st4" d="M-626.9,485.6h-56.6c0,0-3.2-3-3.2-6.9c0-4.6,2.9-14.7,2.4-19.4h18.3c0,0,2.9,7.8,6.5,9.6
			C-649.6,474-626.9,474.6-626.9,485.6z"/>
		<path id="Path-47" class="st4" d="M-704.6,485.6h-56.6c0,0-3.2-3-3.2-6.9c0-4.6,2.9-14.7,2.4-19.4h18.3c0,0,2.9,7.8,6.5,9.6
			C-727.3,474-704.6,474.6-704.6,485.6z"/>
		<path id="Path-48" class="st6" d="M-781.6,170.7l23.4-13.5c0,0-5.3,57.2-6.2,71.3l67.5-2.3l-5.9-89.6l29.2,16.1l17.1-27
			c0,0-46.6-33.7-57.2-34.4c-10.6-0.6-42.3-0.2-47.7,3.2c-5.2,3.3-24.4,7.4-28,25.2C-793.8,141.6-781.6,170.7-781.6,170.7z"/>
		<g id="Group-10" transform="translate(94.63 52.163)">
			<path id="Path-49" class="st14" d="M-783.6,74.5l14.2-40.9c0.4-1.2,1.3-2,2.5-2.4l11-3.1c0.8-0.2,1.7-0.2,2.5,0.2l2.5,1.1
				l-11.4,6.1l-20,43.1l-0.6-0.6C-783.7,77.1-784,75.7-783.6,74.5z"/>
			<path id="Path-50" class="st15" d="M-766.9,35.5c0.4-1.2,1.4-2,2.5-2.4l13.6-3.7l-15.5,44.8c-0.5,1.3-1.6,2.3-3,2.5l-13,1.9
				L-766.9,35.5z"/>
		</g>
		<path id="Path-51" class="st13" d="M-663.9,104c-2.5-1.1-14.8,6.2-15.5,7.1c0,0-3.4-6.1-5.6-5c-2.2,1.1-0.1,9.4,0.6,13.1
			c0.6,2.8-1.8,5.5-3.3,7.6c-3.1,4.4-54.7,53.5-54.7,53.5l-15.7-23.3l-20.6,11.8c0,0,14.3,33,27.8,37.7c18,6.2,71.8-71.1,74-73
			c2.3-1.9,5.8-5.4,9.1-8.3C-663.9,121.8-657.7,106.7-663.9,104z"/>
		<path id="Path-52" class="st13" d="M-723.1,83.5c-2.1,2.1-10.9,0.2-10.9,0.2l2.8,7.6c0,0,9.9,11.7-0.7,17.8
			c-10.5,6.1-29.6-14.5-29.6-14.5l3.6-21.7c0,0-10.7-36,21.4-36.5c21.2-0.3,17.8,6,18.9,13.6C-716.4,57.5-717.1,77.4-723.1,83.5z"/>
		<path id="Path-53" class="st4" d="M-713.4,30.1c2.8,3.3,4.1,7.6,3.5,11.8c-0.4,3.6-7.8,13.2-33.3,6.1c0,0,0.4,16-0.8,16.3
			c-1.2,0.3-4.1-12.5-8.2-13.7c-3.7-1-5.8,1.2-6.1,4.6c-0.4,4.4,6,7.4,6.1,9.8c0.1,2.4-3,9.1-5.8,9.2c-2.8,0.1-10.9-17.4-9.8-27.7
			s7.8-12.4,7.8-12.4s-0.1-11.2,14.5-9.7c14.6,1.5,15.3,5.7,25.6,6.8C-717.6,31.7-715.4,31.2-713.4,30.1z"/>
	</g>
	<g id="chat_bubble" transform="translate(114.412 282.137)">
		<path id="Path-54" class="st3" d="M-777.5,13.9H-665c7.8,0,14.1,6.3,14.1,14.1l0,0v77.3c0,7.8-6.3,14.1-14.1,14.1l0,0h-14.1v28.1
			l-28.1-28.1h-70.3c-7.8,0-14.1-6.3-14.1-14.1V28C-791.6,20.2-785.3,13.9-777.5,13.9C-777.5,13.9-777.5,13.9-777.5,13.9z"/>
	</g>
	<g id="table" transform="translate(701.978 649.94)">
		<path id="Path-55" class="st6" d="M-524.4,43.9l69.4,242.7l-5-0.9l-98.7-241.9H-524.4z"/>
		<path id="Path-56" class="st6" d="M-681.6,43.9L-751,286.6l5-0.9l98.7-241.9H-681.6z"/>
		<rect id="Rectangle-8" x="-745" y="39.4" class="st7" width="277" height="9"/>
	</g>
	<g id="laptop" transform="translate(788.268 585.108)">
		<g id="Group-11" transform="translate(0 0)">
			<path id="Path-57" class="st0" d="M-733.5,95.1l-9.6-51.7c-0.6-3.1,1.5-6,4.5-6.6c0.3-0.1,0.7-0.1,1-0.1h63c2.7,0,5,1.9,5.5,4.5
				l11,53.9L-733.5,95.1L-733.5,95.1z"/>
			<path id="Shape" class="st4" d="M-655.7,97H-735l-9.9-53.3c-0.8-4.1,1.9-8,6-8.7c0.4-0.1,0.9-0.1,1.4-0.1h63c3.6,0,6.6,2.5,7.3,6
				L-655.7,97L-655.7,97L-655.7,97L-655.7,97z M-737.5,38.6c-2.1,0-3.7,1.7-3.7,3.7c0,0.2,0,0.5,0.1,0.7l9.3,50.2h71.6l-10.6-51.6
				c-0.4-1.7-1.9-3-3.7-3L-737.5,38.6z"/>
		</g>
		<path id="Path-58" class="st4" d="M-735.3,96.8L-735.3,96.8c1.1,4.2,4.9,7.2,9.3,7.2h95.8c4.4,0,8.2-3,9.3-7.2H-735.3z"/>
	</g>
	<g id="woman_sit" transform="translate(847.093 479.987)">
		<path id="Path-59" class="st13" d="M-665.1,419.2c0,0,1,21-2.5,24.3c-3.6,3.2-15.9,7.9-15.9,7.9v4.1h36c0,0-0.6-3.9-1.1-10.7
			s-1.6-25.6-1.6-25.6H-665.1z"/>
		<path id="Path-60" class="st4" d="M-646.4,457.7h-47.8c0-2.3,6.2-6.4,10.7-6.4c4.5,0,4.8,1.1,10.6,0.2c5.8-0.8,14.5-9.5,25.3-9.5
			C-645,448.3-644.7,452.1-646.4,457.7z"/>
		<path id="Path-61" class="st4" d="M-585.4,295.9l-55,19.8l-4.3,119.3l-25.2-0.8l-1.4-156.5l97-4L-585.4,295.9z"/>
		<path id="Path-62" class="st13" d="M-709.5,420.3c0,0-1.3,21-4.9,24.3c-3.6,3.2-15.9,7.9-15.9,7.9v4.1h36c0,0-0.6-3.9-1.1-10.7
			s0.7-25.6,0.7-25.6H-709.5z"/>
		<path id="Path-63" class="st4" d="M-693.1,458.8H-741c0-2.3,6.2-6.4,10.7-6.4c4.5,0,4.8,1.1,10.6,0.2c5.8-0.8,14.5-9.5,25.3-9.5
			C-691.7,449.4-691.5,453.2-693.1,458.8z"/>
		<path id="Path-64" class="st14" d="M-548.7,258c0,0,0.8,9.9,0.8,22.6c0,38-101.9,30.3-114.3,28.3L-689.8,435h-25.9
			c0,0,18.5-148.1,28-155.7c10.8-8.7,38.8-15.8,65.6-21.2C-595.2,252.6-548.7,258-548.7,258z"/>
		<path id="Path-65" class="st13" d="M-605.8,63.1c-3.4,0.5-7.2,8.5-7.9,14.9c-0.7,7.2,2,19.7,4.8,23.9c2.2,3.5,6.2,5.5,10.3,5.1
			c-0.5,10.8-1.3,20.5-1.3,20.5l32.1-1.4c-6.4-12.3-5.2-25.6-5.2-25.6s-18.2,4.2-18-3.2c0.2-7.6,14.4-35,2.1-36.5
			C-603.6,59-601.2,62.4-605.8,63.1z"/>
		<path id="Path-66" class="st14" d="M-459,154.9h-10.5c-3.5,0-6.3-2.8-6.3-6.3v-25.4h23.2v25.4C-452.7,152-455.5,154.9-459,154.9z"
			/>
		<path id="Path-67" class="st14" d="M-471.7,150.8h-8.5c-3.5,0-6.3-2.8-6.3-6.3v-12.3c0-3.5,2.8-6.3,6.3-6.3h7.6v3.2h-7.6
			c-1.7,0-3.2,1.4-3.2,3.2v12.3c0,1.7,1.4,3.2,3.2,3.2h8.5V150.8z"/>
		<path id="Path-68" class="st13" d="M-533,151.4l14.1,21.5c0,0,22.1-36.3,22.9-39.4c0.8-3.2,3.5-11.5,5.5-11.5c4.4,0,2,7.5,2,7.5
			s10.3-1.2,11.5,1.6c1.2,2.8,1.6,13,0,14.2c-1.2,1-11.6,2.5-12.8,4.7c-1.9,3.4-17.7,54.5-28.8,54.5c-6.8,0-31.3-30.3-31.3-30.3
			L-533,151.4z"/>
		<path id="Path-69" class="st13" d="M-653.9,182.7l-11.5,8.4l-34.2,0.2c0,0-7.1-6.3-13.8-5.2c-6.7,1.2-21.3,11.1-19.1,13.4
			c2.2,2.3,12.5-3,16-3.3c3.5-0.3,7.5,4.3,11.5,4.9c4,0.6,44,12.3,48.3,11.2s16.4-14.6,16.4-14.6L-653.9,182.7z"/>
		<path id="Path-70" class="st6" d="M-597.5,118c-6.9,0.8-13.5,3.6-19,7.9c-8.7,7.1-43.9,55.2-43.9,55.2l20.7,23l14.9-17
			c0,0,13.5,34.6,2.8,70.9c36.6,16.1,81.8,27.7,73.3,0c-8.5-27.7-3.6-79.9-3.6-79.9l6.7,6.4l19-26.6c0,0-19.1-34.1-29.8-39.3
			C-565.1,114.5-593.7,117.4-597.5,118z"/>
		<path id="Path-71" class="st4" d="M-583.3,102.9c13.8,0,24.8-12,24.7-27.8c-0.1-16.9-17.4-33.6-33.9-33.6s-18,8.1-19.4,19.1
			C-613.9,75.7-593.6,102.9-583.3,102.9z"/>
		
			<ellipse id="Oval" transform="matrix(0.5 -0.866 0.866 0.5 -331.7715 -471.6175)" class="st4" cx="-574.3" cy="51.5" rx="13.9" ry="16.1"/>
		<path id="Path-72" class="st4" d="M-620.9,58.9c0,6.9,6.7,11.8,15.2,11.8c8.1,0,5.5-0.4,5.5-0.4s3.5,4.9,2.4,13.2
			c-1,7.4,1.2,16.2,1.7,25c0.5,9.1-7.1,15.2-7.1,15.2s13-1.8,13.3-14.2c0.2-6.5,3.4-18.2,3.8-25.1c0.4-6.9,8-15.8,6.4-22.2
			s-5.7-15.5-16-15.5C-605.4,46.7-620.9,45.3-620.9,58.9z"/>
		<path id="Path-73" class="st4" d="M-624.8,187.2l12.7-18.1c0,0,1.3,29.7-7.1,41.7C-619.2,210.8-629.7,204.5-624.8,187.2z"/>
		<circle id="Oval-2" class="st4" cx="-566.6" cy="37" r="9.4"/>
	</g>
	<g id="chair" transform="translate(956.015 735.159)">
		<rect id="Rectangle-9" x="-699.7" y="53.7" class="st3" width="11.4" height="144.5"/>
		<rect id="Rectangle-10" x="-733.4" y="45.2" class="st16" width="81.1" height="12.2"/>
	</g>
	<g id="plant" transform="translate(360.996 569.154)">
		<path id="Path-74" class="st12" d="M-679,245.3c-9.2-36.4-43.5-72.5-43.9-72.9l1.7-1.6c0.3,0.4,35.1,37,44.4,74L-679,245.3z"/>
		<path id="Path-75" class="st12" d="M-676.7,263.9l-2.3-0.1c5.5-100.5,44.6-109.4,46.3-109.7l0.5,2.3
			C-632.7,156.4-671.4,165.4-676.7,263.9z"/>
		<path id="Path-76" class="st12" d="M-676.7,272.9l-2.3-0.2c7.7-100.2-21.7-189.3-22-190.1l2.2-0.7
			C-698.6,82.7-669,172.2-676.7,272.9z"/>
		<path id="Path-77" class="st17" d="M-673.2,357.5L-673.2,357.5c-28.5,0-51.6-23.1-51.6-51.6c0,0,0,0,0,0v-42.2h103.1V306
			C-621.6,334.5-644.7,357.5-673.2,357.5z"/>
		<rect id="Rectangle-11" x="-724.8" y="245" class="st18" width="103.1" height="18.7"/>
		<path id="Path-78" class="st11" d="M-712.5,183c-46.4-8.5-54.6-22.7-62-68.4C-724.6,122.7-719.9,150.1-712.5,183z"/>
		<path id="Path-79" class="st11" d="M-689,123.2c-37.1-29.1-37.8-45.5-23-89.4C-671.6,64.2-680.2,90.7-689,123.2z"/>
		<path id="Path-80" class="st11" d="M-660.2,181.8c8-54.4,24.2-64.5,77.1-75C-590.5,165.3-622.2,171.8-660.2,181.8z"/>
	</g>
</g>
</svg>
