<svg xmlns="http://www.w3.org/2000/svg" width="18" height="18" viewBox="0 0 18 18">
  <g id="Group_4491" data-name="Group 4491" transform="translate(815.334 -375.358) rotate(90)">
    <path id="Path_3552" data-name="Path 3552" d="M377.969,815.334a2.614,2.614,0,0,1-2.611-2.61v-3.652a.784.784,0,0,1,1.568,0v3.652a1.044,1.044,0,0,0,1.043,1.043h12.779a1.044,1.044,0,0,0,1.043-1.043v-3.652a.784.784,0,0,1,1.567,0v3.652a2.613,2.613,0,0,1-2.61,2.61Z" fill="#747b88"/>
    <g id="Group_4435" data-name="Group 4435">
      <path id="Path_3553" data-name="Path 3553" d="M379.239,802.453a.783.783,0,1,0,1.108,1.108l4.011-4.011,4.011,4.011a.783.783,0,0,0,1.108-1.108l-5.119-5.119Z" fill="#747b88"/>
      <path id="Path_3554" data-name="Path 3554" d="M384.358,797.659a.784.784,0,0,0-.783.784V809.4a.783.783,0,1,0,1.567,0V798.443A.784.784,0,0,0,384.358,797.659Z" fill="#747b88"/>
    </g>
  </g>
</svg>
