<svg id="Group_11" data-name="Group 11" xmlns="http://www.w3.org/2000/svg" width="71.561" height="71.561" viewBox="0 0 71.561 71.561">
  <path id="Path_14" data-name="Path 14" d="M61.205,23.1a5.981,5.981,0,0,0-8.513,0L23.1,52.831a6.02,6.02,0,0,0,8.513,8.513L61.345,31.618A6.111,6.111,0,0,0,61.205,23.1Z" transform="translate(8.437 8.437)" fill="#fff"/>
  <path id="Path_15" data-name="Path 15" d="M69.632,1.8a5.981,5.981,0,0,0-8.513,0L1.8,61.259a6.02,6.02,0,0,0,8.513,8.513L69.632,10.178A5.815,5.815,0,0,0,69.632,1.8Z" transform="translate(0.01 0.01)" fill="#fff"/>
  <path id="Path_16" data-name="Path 16" d="M39.905,1.8a5.981,5.981,0,0,0-8.513,0L1.8,31.531a6.02,6.02,0,0,0,8.513,8.513L39.905,10.178A5.815,5.815,0,0,0,39.905,1.8Z" transform="translate(0.01 0.01)" fill="#fff"/>
  <path id="Path_17" data-name="Path 17" d="M44.4,44.375a6.02,6.02,0,1,0,8.513,0A6.245,6.245,0,0,0,44.4,44.375Z" transform="translate(16.864 16.894)" fill="#fff"/>
  <circle id="Ellipse_10" data-name="Ellipse 10" cx="6.001" cy="6.001" r="6.001" fill="#fff"/>
</svg>
