<svg xmlns="http://www.w3.org/2000/svg" width="184.38" height="67.959" viewBox="0 0 184.38 67.959"><g transform="translate(-868 -154)"><g transform="translate(946 154)"><path d="M37.147,22.031a2.373,2.373,0,0,0-3.378,0L22.031,33.825A2.388,2.388,0,1,0,25.409,37.2L37.2,25.409A2.424,2.424,0,0,0,37.147,22.031Z" transform="translate(-9.517 -9.517)" fill="#ed703d"/><path d="M27.641.731a2.373,2.373,0,0,0-3.378,0L.731,24.318A2.388,2.388,0,0,0,4.109,27.7L27.641,4.053A2.307,2.307,0,0,0,27.641.731Z" transform="translate(-0.011 -0.011)" fill="#ed703d"/><path d="M15.847.731a2.373,2.373,0,0,0-3.378,0L.731,12.525A2.388,2.388,0,0,0,4.109,15.9L15.847,4.053A2.307,2.307,0,0,0,15.847.731Z" transform="translate(-0.011 -0.011)" fill="#ed703d"/><path d="M43.331,43.364a2.388,2.388,0,1,0,3.378,0A2.477,2.477,0,0,0,43.331,43.364Z" transform="translate(-19.024 -19.057)" fill="#2180bc"/><circle cx="2.381" cy="2.381" r="2.381" fill="#2180bc"/></g><g transform="translate(89.688 114)"><path d="M102.616,14.827V27.008H98.629V15.215c0-3.1-1.55-5.094-4.153-5.094-2.658,0-4.54,2.049-4.54,5.094V27.008H85.95V15.215c0-3.1-1.55-5.094-4.153-5.094-2.658,0-4.485,2.049-4.485,5.094V27.008H73.27V11.892c0-1.107-.166-1.772-.831-1.772a1.008,1.008,0,0,0-.609.221l-.277-.111L71,7.241l.166-.277A3.634,3.634,0,0,1,73.381,6.3,3.276,3.276,0,0,1,76.7,8.847,7.925,7.925,0,0,1,82.572,6.3a6.805,6.805,0,0,1,6.146,3.433A7.871,7.871,0,0,1,95.307,6.3C99.792,6.3,102.616,9.788,102.616,14.827Z" transform="translate(707.313 76.188)"/><path d="M152.46,28.574l-.166.221a3.85,3.85,0,0,1-2.159.609,3.123,3.123,0,0,1-3.211-2.326,8.933,8.933,0,0,1-6.091,2.326c-3.654,0-7.032-2.049-7.032-5.869,0-3.931,3.544-5.758,7.918-5.758a12.575,12.575,0,0,1,4.706.831v-1c0-2.547-2.326-3.821-4.762-3.821a6.578,6.578,0,0,0-4.817,2.049h-.277l-1.938-1.827v-.277a10.459,10.459,0,0,1,7.42-2.935c3.821,0,8.195,1.716,8.195,6.81v6.866c0,.941.166,1.55.831,1.55a.738.738,0,0,0,.554-.221l.277.111Zm-5.98-7.309a12.477,12.477,0,0,0-4.208-.831c-2.824,0-4.54,1.218-4.54,3.1,0,2.049,1.938,3.045,3.931,3.045,2.436,0,4.817-1.55,4.817-4.042Z" transform="translate(679.285 74.18)"/><path d="M245.279,20.1c0,5.315-4.042,9.3-9.69,9.3s-9.69-4.042-9.69-9.3c0-5.315,4.042-9.3,9.69-9.3S245.279,14.842,245.279,20.1Zm-3.931,0a5.585,5.585,0,0,0-5.7-5.925,5.647,5.647,0,0,0-5.7,5.925,5.647,5.647,0,0,0,5.7,5.925A5.585,5.585,0,0,0,241.348,20.1Z" transform="translate(638.18 74.18)"/><path d="M293.986,18.33V29.017H290.11V18.607c0-2.713-1.55-4.485-4.042-4.485a4.229,4.229,0,0,0-4.43,4.485V28.961h-3.931V18.607c0-2.713-1.495-4.485-4.042-4.485a4.215,4.215,0,0,0-4.374,4.485V28.961h-3.931V15.728c0-.941-.166-1.55-.831-1.55a.846.846,0,0,0-.554.221l-.221-.111-.554-2.658.166-.221a3.85,3.85,0,0,1,2.159-.609,3.067,3.067,0,0,1,3.211,2.215,8.178,8.178,0,0,1,5.7-2.215,6.8,6.8,0,0,1,5.98,3.045,7.832,7.832,0,0,1,6.423-3.045C291.217,10.8,293.986,13.845,293.986,18.33Z" transform="translate(621.533 74.18)"/><path d="M344,6.4V27.053h-3.544V18.138H329.544v8.915H326V6.4h3.544v8.748h10.908V6.4Z" transform="translate(593.506 76.145)"/><path d="M385.88,30.163l-.111.277a4.69,4.69,0,0,1-3.1,1.107,6.655,6.655,0,0,1-4.263-1.827c-1.44-1.163-2.658-2.547-3.931-2.547-6.312,0-11.074-4.6-11.074-10.686S368.217,5.8,374.474,5.8c6.312,0,11.074,4.6,11.074,10.686a10.452,10.452,0,0,1-6.423,9.8l.5.388c1,.831,1.883,1.827,3.156,1.827a2.557,2.557,0,0,0,1.606-.554l.277.111Zm-11.351-6.2A7.322,7.322,0,0,0,382,16.431a7.475,7.475,0,1,0-14.95,0A7.322,7.322,0,0,0,374.529,23.961Z" transform="translate(576.813 76.412)"/><path d="M180.512,14.233a10.026,10.026,0,0,1,1.44-2.879,6.127,6.127,0,0,0-7.309,1.716,3.051,3.051,0,0,0-3.1-2.27,4.128,4.128,0,0,0-2.049.5.2.2,0,0,0-.111.277l.554,2.27a.59.59,0,0,0,.609.332c.664,0,.831.609.831,1.55V28.961h3.876V18.829c0-2.935,1.55-4.706,3.82-4.706a7.537,7.537,0,0,1,1.163.111C180.4,14.288,180.456,14.288,180.512,14.233Z" transform="translate(663.414 74.18)"/><path d="M208.137,22.357a6.9,6.9,0,0,1-4.263,1.384c-4.1,0-6.81-2.768-6.81-6.921a6.622,6.622,0,0,1,6.7-6.977,7.244,7.244,0,0,1,5.2,2.159,12.385,12.385,0,0,1,1.938-2.547,1.158,1.158,0,0,0,.221-.332A10.744,10.744,0,0,0,203.6,6.3a10.524,10.524,0,1,0,0,21.04,11.473,11.473,0,0,0,6.2-1.772A11.8,11.8,0,0,1,208.137,22.357Z" transform="translate(652.953 76.188)"/></g></g></svg>