<svg xmlns="http://www.w3.org/2000/svg" width="18" height="18" viewBox="0 0 18 18">
  <g id="Group_2285" data-name="Group 2285" transform="translate(-269.148 -68.618)">
    <path id="Path_3153" data-name="Path 3153" d="M286.152,86.618a.97.97,0,1,1,.687-.284A.967.967,0,0,1,286.152,86.618Z" transform="translate(0.025)" fill="#fff"/>
    <path id="Path_3154" data-name="Path 3154" d="M270.12,70.557a.969.969,0,1,1,.687-.284A.967.967,0,0,1,270.12,70.557Z" transform="translate(0)" fill="#fff"/>
    <path id="Path_3155" data-name="Path 3155" d="M270.12,86.618a.97.97,0,0,1-.687-1.656L285.491,68.9a.958.958,0,0,1,.32-.214.986.986,0,0,1,.366-.07.943.943,0,0,1,.184.017.97.97,0,0,1,.5,1.639L270.806,86.335A.968.968,0,0,1,270.12,86.618Z" fill="#fff"/>
    <path id="Path_3156" data-name="Path 3156" d="M270.12,78.588a.961.961,0,0,1-.534-.16.874.874,0,0,1-.155-.126.948.948,0,0,1-.212-.319.984.984,0,0,1,0-.73.953.953,0,0,1,.213-.321l8.029-8.03a.979.979,0,0,1,.321-.214,1.008,1.008,0,0,1,.18-.053.968.968,0,0,1,.871.267.947.947,0,0,1,.214.32.97.97,0,0,1-.213,1.051L270.806,78.3a.91.91,0,0,1-.153.125A.963.963,0,0,1,270.12,78.588Z" transform="translate(0)" fill="#fff"/>
    <path id="Path_3157" data-name="Path 3157" d="M278.137,86.618a.981.981,0,0,1-.368-.071.972.972,0,0,1-.319-1.585l8.029-8.03a.97.97,0,0,1,1.657.685.853.853,0,0,1-.017.185.953.953,0,0,1-.054.182.937.937,0,0,1-.212.32l-8.03,8.031a.97.97,0,0,1-.685.283Z" transform="translate(0.012)" fill="#fff"/>
  </g>
</svg>
