<svg xmlns="http://www.w3.org/2000/svg" width="128.428" height="18" viewBox="0 0 128.428 18">
  <g id="Group_2300" data-name="Group 2300" transform="translate(-327 -31)">
    <g id="Group_2293" data-name="Group 2293" transform="translate(330.393 31.978)">
      <path id="Path_18" data-name="Path 18" d="M88.191,10.937V17.56H86.024V11.147c0-1.686-.843-2.77-2.258-2.77a2.509,2.509,0,0,0-2.469,2.77V17.56H79.129V11.147c0-1.686-.843-2.77-2.258-2.77a2.487,2.487,0,0,0-2.439,2.77V17.56h-2.2V9.341c0-.6-.09-.963-.452-.963a.548.548,0,0,0-.331.12l-.151-.06L71,6.812l.09-.151a1.976,1.976,0,0,1,1.2-.361A1.781,1.781,0,0,1,74.1,7.685,4.309,4.309,0,0,1,77.292,6.3a3.7,3.7,0,0,1,3.342,1.867A4.28,4.28,0,0,1,84.217,6.3C86.656,6.3,88.191,8.2,88.191,10.937Z" transform="translate(-46.223 -4.125)" fill="#fff"/>
      <path id="Path_19" data-name="Path 19" d="M143.946,20.465l-.09.12a2.094,2.094,0,0,1-1.174.331,1.7,1.7,0,0,1-1.746-1.265,4.858,4.858,0,0,1-3.312,1.265c-1.987,0-3.824-1.114-3.824-3.191,0-2.138,1.927-3.131,4.305-3.131a6.838,6.838,0,0,1,2.559.452V14.5c0-1.385-1.265-2.077-2.589-2.077a3.577,3.577,0,0,0-2.619,1.114h-.151l-1.054-.994V12.4a5.687,5.687,0,0,1,4.034-1.6c2.077,0,4.456.933,4.456,3.7v3.733c0,.512.09.843.452.843a.4.4,0,0,0,.3-.12l.151.06Zm-3.252-3.974a6.784,6.784,0,0,0-2.288-.452c-1.536,0-2.469.662-2.469,1.686,0,1.114,1.054,1.656,2.138,1.656a2.415,2.415,0,0,0,2.619-2.2Z" transform="translate(-90.115 -7.271)" fill="#fff"/>
      <path id="Path_20" data-name="Path 20" d="M236.438,15.858a5.273,5.273,0,1,1-5.269-5.058A5.01,5.01,0,0,1,236.438,15.858Zm-2.138,0a3.037,3.037,0,0,0-3.1-3.222,3.071,3.071,0,0,0-3.1,3.222,3.071,3.071,0,0,0,3.1,3.222A3.037,3.037,0,0,0,234.3,15.858Z" transform="translate(-154.486 -7.271)" fill="#fff"/>
      <path id="Path_21" data-name="Path 21" d="M279.94,14.895v5.811h-2.108v-5.66a2.173,2.173,0,0,0-2.2-2.439,2.3,2.3,0,0,0-2.409,2.439v5.63h-2.138v-5.63a2.158,2.158,0,0,0-2.2-2.439,2.292,2.292,0,0,0-2.379,2.439v5.63h-2.138v-7.2c0-.512-.09-.843-.452-.843a.46.46,0,0,0-.3.12l-.12-.06-.3-1.445.09-.12a2.093,2.093,0,0,1,1.174-.331,1.668,1.668,0,0,1,1.746,1.2,4.447,4.447,0,0,1,3.1-1.2,3.7,3.7,0,0,1,3.252,1.656,4.259,4.259,0,0,1,3.492-1.656A3.757,3.757,0,0,1,279.94,14.895Z" transform="translate(-180.556 -7.271)" fill="#fff"/>
      <path id="Path_22" data-name="Path 22" d="M335.785,6.4V17.63h-1.927V12.783h-5.931V17.63H326V6.4h1.927v4.757h5.931V6.4Z" transform="translate(-224.449 -4.195)" fill="#fff"/>
      <path id="Path_23" data-name="Path 23" d="M375.624,19.047l-.06.151a2.55,2.55,0,0,1-1.686.6,3.619,3.619,0,0,1-2.318-.994c-.783-.632-1.445-1.385-2.138-1.385a5.814,5.814,0,1,1,6.022-5.811,5.683,5.683,0,0,1-3.492,5.329l.271.211c.542.452,1.024.994,1.716.994a1.391,1.391,0,0,0,.873-.3l.151.06Zm-6.172-3.372a3.981,3.981,0,0,0,4.065-4.095,4.065,4.065,0,1,0-8.129,0A3.981,3.981,0,0,0,369.452,15.675Z" transform="translate(-250.588 -3.776)" fill="#fff"/>
      <path id="Path_24" data-name="Path 24" d="M175.424,12.667a5.451,5.451,0,0,1,.783-1.566,3.331,3.331,0,0,0-3.974.933,1.659,1.659,0,0,0-1.686-1.234,2.245,2.245,0,0,0-1.114.271.11.11,0,0,0-.06.151l.3,1.234a.321.321,0,0,0,.331.181c.361,0,.452.331.452.843v7.2h2.108v-5.51c0-1.6.843-2.559,2.077-2.559a4.1,4.1,0,0,1,.632.06C175.364,12.7,175.394,12.7,175.424,12.667Z" transform="translate(-114.97 -7.271)" fill="#fff"/>
      <path id="Path_25" data-name="Path 25" d="M201.14,15.031a3.752,3.752,0,0,1-2.318.753,3.524,3.524,0,0,1-3.7-3.763,3.6,3.6,0,0,1,3.643-3.794,3.939,3.939,0,0,1,2.83,1.174,6.735,6.735,0,0,1,1.054-1.385.63.63,0,0,0,.12-.181A5.842,5.842,0,0,0,198.671,6.3a5.722,5.722,0,1,0,0,11.441,6.239,6.239,0,0,0,3.372-.963A6.418,6.418,0,0,1,201.14,15.031Z" transform="translate(-131.352 -4.125)" fill="#fff"/>
    </g>
    <g id="Group_2289" data-name="Group 2289" transform="translate(57.852 -37.618)">
      <path id="Path_3153" data-name="Path 3153" d="M286.152,86.618a.97.97,0,1,1,.687-.284A.967.967,0,0,1,286.152,86.618Z" transform="translate(0.025)" fill="#fff"/>
      <path id="Path_3154" data-name="Path 3154" d="M270.12,70.557a.969.969,0,1,1,.687-.284A.967.967,0,0,1,270.12,70.557Z" transform="translate(0)" fill="#fff"/>
      <path id="Path_3155" data-name="Path 3155" d="M270.12,86.618a.97.97,0,0,1-.687-1.656L285.491,68.9a.958.958,0,0,1,.32-.214.986.986,0,0,1,.366-.07.943.943,0,0,1,.184.017.97.97,0,0,1,.5,1.639L270.806,86.335A.968.968,0,0,1,270.12,86.618Z" fill="#fff"/>
      <path id="Path_3156" data-name="Path 3156" d="M270.12,78.588a.961.961,0,0,1-.534-.16.874.874,0,0,1-.155-.126.948.948,0,0,1-.212-.319.984.984,0,0,1,0-.73.953.953,0,0,1,.213-.321l8.029-8.03a.979.979,0,0,1,.321-.214,1.008,1.008,0,0,1,.18-.053.968.968,0,0,1,.871.267.947.947,0,0,1,.214.32.97.97,0,0,1-.213,1.051L270.806,78.3a.91.91,0,0,1-.153.125A.963.963,0,0,1,270.12,78.588Z" transform="translate(0)" fill="#fff"/>
      <path id="Path_3157" data-name="Path 3157" d="M278.137,86.618a.981.981,0,0,1-.368-.071.972.972,0,0,1-.319-1.585l8.029-8.03a.97.97,0,0,1,1.657.685.853.853,0,0,1-.017.185.953.953,0,0,1-.054.182.937.937,0,0,1-.212.32l-8.03,8.031a.97.97,0,0,1-.685.283Z" transform="translate(0.012)" fill="#fff"/>
    </g>
  </g>
</svg>
