<svg xmlns="http://www.w3.org/2000/svg" width="18" height="18" viewBox="0 0 18 18">
  <g id="Group_4355" data-name="Group 4355" transform="translate(-741.322 -145.174)">
    <path id="Path_3418" data-name="Path 3418" d="M744.57,157.423a.777.777,0,0,1-.553-.23l-2.466-2.465a.785.785,0,0,1,0-1.108l2.466-2.465a.785.785,0,0,1,1.108,0,.785.785,0,0,1,0,1.108l-1.911,1.911,1.911,1.911a.784.784,0,0,1-.555,1.338Z" fill="#737b88"/>
    <path id="Path_3419" data-name="Path 3419" d="M747.857,149.206a.778.778,0,0,1-.554-.229.786.786,0,0,1,0-1.109l2.465-2.464a.782.782,0,0,1,1.108,0l2.465,2.464a.786.786,0,0,1,0,1.109.785.785,0,0,1-1.108,0l-1.911-1.911-1.91,1.911A.781.781,0,0,1,747.857,149.206Z" fill="#737b88"/>
    <path id="Path_3420" data-name="Path 3420" d="M750.322,163.174a.789.789,0,0,1-.554-.229L747.3,160.48a.784.784,0,0,1,1.109-1.109l1.91,1.911,1.911-1.911a.784.784,0,0,1,1.108,1.109l-2.465,2.465A.79.79,0,0,1,750.322,163.174Z" fill="#737b88"/>
    <path id="Path_3421" data-name="Path 3421" d="M756.073,157.423a.784.784,0,0,1-.554-1.338l1.911-1.911-1.911-1.911a.784.784,0,0,1,1.109-1.108l2.464,2.465a.785.785,0,0,1,0,1.108l-2.464,2.465A.782.782,0,0,1,756.073,157.423Z" fill="#737b88"/>
    <path id="Path_3422" data-name="Path 3422" d="M742.106,154.958a.783.783,0,1,1,0-1.567h16.432a.783.783,0,1,1,0,1.567Z" fill="#737b88"/>
    <path id="Path_3423" data-name="Path 3423" d="M750.322,163.174a.784.784,0,0,1-.784-.783V145.958a.784.784,0,0,1,1.568,0v16.433A.784.784,0,0,1,750.322,163.174Z" fill="#737b88"/>
  </g>
</svg>
