<svg xmlns="http://www.w3.org/2000/svg" width="131.304" height="156.752" viewBox="0 0 131.304 156.752">
  <g id="Group_4457" data-name="Group 4457" transform="translate(-190.348 -177.624)">
    <path id="Path_3564" data-name="Path 3564" d="M285.185,214.415a2.634,2.634,0,0,0,0,5.268h4.436v4.436a2.634,2.634,0,0,0,5.268,0h0v-4.436h4.436a2.634,2.634,0,0,0,0-5.268h-4.436v-4.436a2.634,2.634,0,1,0-5.268,0v4.436Z" fill="#e1e3e5"/>
    <path id="Path_3565" data-name="Path 3565" d="M321.64,199.786c.327-1.514-9.069-9.64-15.472-16.394-3.86-3.74-7.446-9.025-9.477-3.116v15.476a6.854,6.854,0,0,0,6.846,6.846h12.848v95.093a1.579,1.579,0,0,1-1.578,1.577H227.036a1.579,1.579,0,0,1-1.578-1.577v-113.2a1.58,1.58,0,0,1,1.578-1.578h59.449a2.634,2.634,0,1,0,.005-5.268H227.036a6.853,6.853,0,0,0-6.846,6.846v8.075h-8.075a6.854,6.854,0,0,0-6.846,6.846v8.076h-8.075a6.853,6.853,0,0,0-6.846,6.846v113.2a6.854,6.854,0,0,0,6.846,6.846h87.767a6.856,6.856,0,0,0,6.849-6.846v-8.076h8.075a6.854,6.854,0,0,0,6.846-6.846v-8.075h8.075a6.854,6.854,0,0,0,6.846-6.846V199.964c0-.033,0-.029-.009-.178ZM301.459,312.612a1.579,1.579,0,0,1-1.577,1.578H234.716a2.634,2.634,0,0,0,0,5.268h51.825v8.076a1.581,1.581,0,0,1-1.581,1.578H197.194a1.58,1.58,0,0,1-1.578-1.578v-113.2a1.579,1.579,0,0,1,1.578-1.578h8.075v99.86a6.854,6.854,0,0,0,6.846,6.846h10.351a2.634,2.634,0,0,0,0-5.268H212.115a1.58,1.58,0,0,1-1.578-1.578V199.408a1.579,1.579,0,0,1,1.578-1.578h8.076v99.86a6.854,6.854,0,0,0,6.846,6.846H301.46v8.075Zm2.078-115.281a1.58,1.58,0,0,1-1.578-1.578v-9.119l10.7,10.7Z" fill="#e1e3e5"/>
  </g>
</svg>
