<svg xmlns="http://www.w3.org/2000/svg" width="18" height="18" viewBox="0 0 18 18">
  <g id="Group_4473" data-name="Group 4473" transform="translate(-871 -230)">
    <rect id="Rectangle_3012" data-name="Rectangle 3012" width="18" height="18" transform="translate(871 230)" opacity="0"/>
    <path id="Icon_open-share" data-name="Icon open-share" d="M125.9,321.95l3.233,3.061-3.233,3.406v-2.312h-3.785a11.466,11.466,0,0,0-6.1,1.593c1.394-2.005,3.933-3.163,8.384-3.163h1.5V321.95m-.817-2.589a.679.679,0,0,0-.683.68v2.994c-8.755,0-11.221,4.3-11.414,10.582a.118.118,0,0,0,.231.038c1.364-3.995,4.607-6.05,8.9-6.05H124.4v2.87a.677.677,0,0,0,.684.68.665.665,0,0,0,.487-.213l5.216-5.495a.678.678,0,0,0-.025-.96l-5.217-4.938a.664.664,0,0,0-.462-.188Z" transform="translate(758.015 -87.562)" fill="#747b88"/>
  </g>
</svg>
