<?xml version="1.0" encoding="utf-8"?>
<!-- Generator: Adobe Illustrator 24.1.1, SVG Export Plug-In . SVG Version: 6.00 Build 0)  -->
<svg version="1.1" id="Layer_1" xmlns="http://www.w3.org/2000/svg" xmlns:xlink="http://www.w3.org/1999/xlink" x="0px" y="0px"
	 width="1512px" height="1194.5px" viewBox="0 0 1512 1194.5" style="enable-background:new 0 0 1512 1194.5;" xml:space="preserve"
	>
<style type="text/css">
	.st0{fill:url(#Path_2459_1_);}
	.st1{fill:#BFCDE6;}
	.st2{fill:#F5F8FD;}
	.st3{fill:#00B98F;}
	.st4{fill:#01C99C;}
	.st5{fill:#D7E3F8;}
	.st6{fill:#B0C0D8;}
	.st7{fill:#FFFFFF;}
	.st8{opacity:0.33;}
	.st9{opacity:0.73;}
	.st10{opacity:0.33;fill:#D7E3F8;enable-background:new    ;}
	.st11{fill:#0053BF;}
	.st12{fill:#192D54;}
	.st13{fill:#171E45;}
	.st14{fill:#343358;}
	.st15{fill:#2864F0;}
	.st16{fill:#ECACA2;}
	.st17{fill:#F1BAB3;}
	.st18{clip-path:url(#SVGID_2_);}
	.st19{clip-path:url(#SVGID_4_);}
	.st20{fill:#FFAD12;}
	.st21{fill:#FFCC4B;}
</style>
<g id="signup-img" transform="translate(-11.433 135.143)">
	
		<linearGradient id="Path_2459_1_" gradientUnits="userSpaceOnUse" x1="513.8729" y1="526.9941" x2="513.8793" y2="526.2229" gradientTransform="matrix(1515.1649 0 0 -1163.667 -778055.1875 613400.25)">
		<stop  offset="0" style="stop-color:#F6F9FB"/>
		<stop  offset="1" style="stop-color:#E9EFF4"/>
	</linearGradient>
	<path id="Path_2459" class="st0" d="M1291.1,1059.5H-415.7l-1.8-1490.7h323.8C8.9-283-12.1-14.4,111.7,46.2
		c136.1,66.6,129.6-205,343.5-179.3S615.8,151,816.7,171.5s195.8-232.9,493.9-156S1586,1009.5,1291.1,1059.5z"/>
	<path id="Path_2460" class="st1" d="M723.2,91.1c-0.4-19.4-16.5-34.8-35.9-34.3c-11.9,0.3-22.8,6.5-29.1,16.6
		c-10-2.8-20.5,2.6-24.1,12.4c-12.3-2.1-24,6.1-26.1,18.4c-2.1,12.3,6.1,24,18.4,26.1c0.5,0.1,1,0.2,1.4,0.2v0.1h90.1
		c11.1,0,20.1-9,20.1-20.1C738,101.4,731.9,93.5,723.2,91.1L723.2,91.1z"/>
	<g id="Group_476">
		<path id="Path_2461" class="st2" d="M456.8,14.5c-86.2,0-153.5,84.5-163.1,175.4c-9.9,93.5,41.4,193.9,88.5,271.7
			s90.1,133.1,145.2,154.5c23.2,9,48.6,11.9,74.1,11.9c34.9,0,69.9-5.5,99.9-8.5c16-1.8,32.1-2.7,48.2-2.8
			c30.6,0,60.2,3.9,100.3,13.1c41.3,9.5,93.8,24.6,131.5,24.6c17.1,0,31.2-3.1,39.7-11.3c27.4-26.3-2-104.6,26.7-185.4
			c28.6-80.7,115.4-164.1,105.6-211c-9.6-45.4-110.6-55.9-189.6-55.9c-2.3,0-4.5,0-6.7,0c-28.1,0.2-52.9,1.7-76.7,1.7
			c-44,0-84.8-5.1-137.3-32.9C662.1,116.7,553.7,19.7,464.2,14.7C461.7,14.6,459.2,14.5,456.8,14.5"/>
	</g>
	<g id="Group_480">
		<path id="Path_2462" class="st3" d="M1245.1,618.8c-6.2-13.5-5-18.7-2.9-21c7.2-7.7,30.3,12.2,46.3,2.9c11.1-6.4,5-18.9,18.6-29.6
			c11.8-9.3,22.4-4.6,30.5-14.8c5-6.2,5.4-13.4,5.7-21c0.9-18.5-5.4-48-22.4-52.5c-7.1-1.9-13.6,1.3-25.3,7.2
			c-16.1,8-15.8,13.8-30,20c-14.5,6.4-21.6,3.4-24.8,9.5c-4.2,8.1,7.1,16.4,2.9,27.2c-3,7.7-11.9,11.3-15.7,12.9
			c-13.5,5.4-20.9-0.8-25.7,4.3c-6.7,7,1.1,25.2,4.8,33.9c2.7,6.2,6,12.2,10,17.6C1226.3,616.6,1235.7,617.7,1245.1,618.8z"/>
		<path id="Path_2463" class="st3" d="M1124.9,610.4c1.4-1.3,8.4-7.7,7.3-15.4c-1.2-9.3-13.1-14.2-20.4-15.5
			c-11.9-2.1-16.1,4.7-23.3,1.5c-9.7-4.3-15.4-22.6-9.5-33.2c5.8-10.2,18.6-6.4,25.7-18.4c4.9-8.2,3.5-17.6,3.1-20.4
			c-2.3-15.7-14.2-20.5-12.5-29.1c1.5-7.3,11-12.2,18-13.5c14.2-2.6,20.9,9.1,30.1,5.6c11.8-4.4,8-26.2,17.2-28.7
			c9-2.4,26.1,14.7,25,30.5c-0.8,11.5-10.4,11.7-15,27.1c-4.2,14.2,2.2,20.2-1.3,36.5c-2,9.2-7.7,11.1-11,23.4
			c-2.6,9.8-1.4,14.5-1.1,15.9c1.8,6.7,5.7,8,8.4,14.6c1.6,3.8,2.9,9.7,1.1,18.6L1124.9,610.4z"/>
		<g id="Group_478">
			<path id="Path_2464" class="st4" d="M1157.3,621.5c3.3-14.7,0.7-24.1-2.4-30c-5.9-11.3-14.9-12.6-21.5-25.2
				c-0.6-1.2-6.3-12.6-4.7-25.3c3.2-25.6,32.3-28,34.2-48.5c1.8-19.6-23.1-28.2-19.1-47.7c2.4-11.4,13.3-19.6,21.6-23
				c18.4-7.6,28.5,6.3,44.7-0.5c16.4-6.9,12.6-24.3,29.1-31.8c15-6.8,37.4-2,47.7,11.4c14.1,18.4,1.1,49.8-10.5,65.8
				c-12.3,16.9-22.6,16.1-24.8,27.7c-3.6,18.8,26.9,28.8,26.7,56.3c0,3.7-0.1,11.1-4.7,18.2c-10.2,15.8-30.3,10.6-46.2,25.5
				c-4.9,4.6-10.9,12.5-14,26.8C1194.8,621.2,1176.1,621.4,1157.3,621.5z"/>
			<g id="Group_477">
				<path id="Path_2465" class="st3" d="M1185.8,626L1185.8,626c-1.1,0-2-0.9-1.9-2c3.1-66.3,20.9-131.8,50-184.5
					c0.5-0.9,1.7-1.3,2.6-0.7c0.9,0.5,1.3,1.7,0.7,2.6l0,0c-28.9,52.2-46.5,117.1-49.5,182.8C1187.7,625.2,1186.9,626,1185.8,626z"
					/>
			</g>
		</g>
		<g id="Group_479">
			<rect id="Rectangle_713" x="1122.8" y="600.7" class="st5" width="126.1" height="46.7"/>
			<path id="Path_2466" class="st1" d="M1231.4,768.1h-91.1l-11.7-120.7h114.5L1231.4,768.1z"/>
		</g>
	</g>
	<path id="Path_2467" class="st5" d="M640.7,26c-0.7-33.2-28.3-59.6-61.5-58.8c-20.3,0.5-39.1,11.2-49.8,28.4
		c-17.2-4.8-35.2,4.5-41.3,21.2c-21-3.6-41,10.5-44.7,31.5c-3.6,21,10.5,41,31.5,44.7c0.8,0.1,1.6,0.2,2.4,0.3v0.2h154.3
		c19,0,34.4-15.4,34.4-34.4C666.1,43.7,655.7,30.1,640.7,26L640.7,26z"/>
	<g id="Group_505">
		<g id="Group_482">
			<g id="Group_481">
				<path id="Path_2468" class="st6" d="M796.4,479.2H684.1l20.2-6.6c5.1-1.7,8.6-6.4,8.6-11.8v-59.3h54.7v59.3
					c0,5.4,3.5,10.2,8.6,11.8L796.4,479.2z"/>
			</g>
			<rect id="Rectangle_714" x="684.1" y="475.1" class="st5" width="112.3" height="4.1"/>
			<path id="Path_2469" class="st5" d="M854.2,468.8c-20.5,0-23.1,10.4-23.1,10.4h42.3C873.4,479.2,874.7,468.8,854.2,468.8z"/>
			<path id="Rectangle_715" class="st5" d="M568.3,475.1h110.2c0.6,0,1.1,0.5,1.1,1.1v2c0,0.6-0.5,1.1-1.1,1.1H568.3
				c-0.6,0-1.1-0.5-1.1-1.1v-2C567.2,475.5,567.7,475.1,568.3,475.1z"/>
		</g>
		<path id="Rectangle_716" class="st5" d="M612.4,271.7h255.6c2.1,0,3.8,1.7,3.8,3.8c0,0,0,0,0,0v165c0,2.1-1.7,3.8-3.8,3.8H612.4
			c-2.1,0-3.8-1.7-3.8-3.8v-165C608.6,273.4,610.3,271.7,612.4,271.7z"/>
		<g id="Group_484">
			<g id="Group_483">
				<rect id="Rectangle_717" x="618.8" y="281.8" class="st7" width="243" height="138.1"/>
			</g>
		</g>
		<g id="Group_504" class="st8">
			<g id="Group_485" class="st9">
				<rect id="Rectangle_718" x="626.1" y="301.1" class="st6" width="47" height="48.1"/>
			</g>
			<g id="Group_486" class="st9">
				<rect id="Rectangle_719" x="681.9" y="343.5" class="st6" width="47" height="55.2"/>
			</g>
			<g id="Group_487" class="st9">
				<rect id="Rectangle_720" x="737.7" y="301.1" class="st6" width="61.3" height="67"/>
			</g>
			<g id="Group_488" class="st9">
				<rect id="Rectangle_721" x="807.8" y="301.1" class="st6" width="48.8" height="52.5"/>
			</g>
			<g id="Group_489" class="st9">
				<rect id="Rectangle_722" x="807.8" y="360.4" class="st6" width="48.8" height="52.5"/>
			</g>
			<g id="Group_490">
				<rect id="Rectangle_723" x="626.1" y="355.8" class="st5" width="47" height="2.7"/>
			</g>
			<g id="Group_491">
				<rect id="Rectangle_724" x="626.1" y="366.7" class="st5" width="47" height="2.7"/>
			</g>
			<g id="Group_492">
				<rect id="Rectangle_725" x="626.1" y="377.5" class="st5" width="47" height="2.7"/>
			</g>
			<g id="Group_493">
				<rect id="Rectangle_726" x="626.1" y="388.4" class="st5" width="47" height="2.7"/>
			</g>
			<g id="Group_494">
				<rect id="Rectangle_727" x="626.1" y="399.2" class="st5" width="47" height="2.7"/>
			</g>
			<g id="Group_499">
				<g id="Group_495">
					<rect id="Rectangle_728" x="681.9" y="299.7" class="st5" width="47" height="2.7"/>
				</g>
				<g id="Group_496">
					<rect id="Rectangle_729" x="681.9" y="310.5" class="st5" width="47" height="2.7"/>
				</g>
				<g id="Group_497">
					<rect id="Rectangle_730" x="681.9" y="321.4" class="st5" width="47" height="2.7"/>
				</g>
				<g id="Group_498">
					<rect id="Rectangle_731" x="681.9" y="332.2" class="st5" width="47" height="2.7"/>
				</g>
			</g>
			<g id="Group_500">
				<rect id="Rectangle_732" x="737.7" y="375.4" class="st5" width="61.3" height="3.1"/>
			</g>
			<g id="Group_501">
				<rect id="Rectangle_733" x="737.7" y="386.2" class="st5" width="61.3" height="3.1"/>
			</g>
			<g id="Group_502">
				<rect id="Rectangle_734" x="737.7" y="397.1" class="st5" width="61.3" height="3.1"/>
			</g>
			<g id="Group_503">
				<rect id="Rectangle_735" x="737.7" y="407.9" class="st5" width="61.3" height="3.1"/>
			</g>
		</g>
		<rect id="Rectangle_736" x="626.1" y="285.5" class="st10" width="31.6" height="7.4"/>
		<rect id="Rectangle_737" x="668" y="290.2" class="st10" width="16.1" height="2.7"/>
		<rect id="Rectangle_738" x="689.3" y="290.2" class="st10" width="16.1" height="2.7"/>
		<rect id="Rectangle_739" x="710.6" y="290.2" class="st10" width="16.1" height="2.7"/>
		<rect id="Rectangle_740" x="731.9" y="290.2" class="st10" width="16.1" height="2.7"/>
		<rect id="Rectangle_741" x="753.2" y="290.2" class="st10" width="16.1" height="2.7"/>
	</g>
	<g id="Group_512">
		<g id="Group_508">
			<g id="Group_506">
				<path id="Path_2470" class="st6" d="M354.5,768.5c-2.3,0-4.2-1.9-4.2-4.2l0,0v-266c0-2.3,1.9-4.2,4.2-4.2s4.2,1.9,4.2,4.2v266
					C358.7,766.6,356.8,768.5,354.5,768.5z"/>
			</g>
			<g id="Group_507">
				<path id="Path_2471" class="st6" d="M1108.2,768.5c-2.3,0-4.2-1.9-4.2-4.2v-266c0-2.3,1.9-4.2,4.2-4.2s4.2,1.9,4.2,4.2v266
					C1112.3,766.6,1110.5,768.5,1108.2,768.5L1108.2,768.5z"/>
			</g>
		</g>
		<g id="Group_511">
			<g id="Group_509">
				<path id="Path_2472" class="st6" d="M289.2,769.3c-2.8,0-5-2.3-5-5c0,0,0,0,0,0v-266c0-2.8,2.3-5,5-5c2.8,0,5,2.3,5,5v266
					C294.3,767.1,292,769.3,289.2,769.3z"/>
			</g>
			<g id="Group_510">
				<path id="Path_2473" class="st6" d="M1173.4,769.3c-2.8,0-5-2.3-5-5v0v-266c0-2.8,2.3-5,5.1-5c2.7,0,4.9,2.2,5,5v266
					C1178.4,767.1,1176.2,769.3,1173.4,769.3C1173.4,769.3,1173.4,769.3,1173.4,769.3z"/>
			</g>
		</g>
		<rect id="Rectangle_742" x="223.9" y="479.2" class="st1" width="1027.3" height="19"/>
	</g>
	<g id="Group_514">
		<path id="Path_2474" class="st1" d="M310.8,479.3c-1.4,0-2.5-1.1-2.5-2.5v-66.6c0-14.2,4.2-28.2,12.2-39.9l47.5-70.4
			c0.8-1.2,2.3-1.5,3.5-0.7c1.2,0.8,1.5,2.3,0.7,3.5L324.7,373c-7.4,11-11.4,23.9-11.4,37.1v66.6
			C313.3,478.2,312.2,479.3,310.8,479.3L310.8,479.3z"/>
		<g id="Group_513">
			<path id="Path_2475" class="st7" d="M417.2,310.9l-14.3,25.6c7.1,4,16,1.4,20-5.6C426.8,323.7,424.3,314.8,417.2,310.9
				L417.2,310.9z"/>
			<path id="Path_2476" class="st6" d="M373.4,313.3l-14-7.8c-0.9-0.5-1.4-1.4-1.3-2.4c-0.2-5.3,2.6-10.2,7.2-12.9
				c0.8-0.5,1.9-0.5,2.7-0.1l14.1,7.9L373.4,313.3z"/>
			<path id="Path_2477" class="st5" d="M370.1,301.3c-7.9,14.1-1.6,32.7,25.7,48c13.2-14.8,23-32.3,28.6-51.2
				C397.7,283.1,378,287.2,370.1,301.3z"/>
		</g>
		<path id="Path_2478" class="st5" d="M357.5,474.4c-30.5-8.9-62.9-8.9-93.5,0v4.8h93.5V474.4z"/>
	</g>
	<g id="Group_519">
		<g id="Group_515">
			<path id="Path_2479" class="st5" d="M548.5,767.5c-0.1,0-0.1,0-0.2,0c-1.8-0.1-3.1-1.6-3-3.4c0,0,0,0,0,0l7.5-131
				c0.1-1.8,1.6-3.1,3.4-3c1.8,0.1,3.1,1.6,3,3.4l0,0l-7.5,131C551.6,766.2,550.2,767.5,548.5,767.5z"/>
		</g>
		<g id="Group_516">
			<path id="Path_2480" class="st5" d="M407.1,768.1c-0.4,0-0.9-0.1-1.3-0.2c-2-0.7-3-2.9-2.3-4.9c0,0,0,0,0,0L454,621.5
				c0.7-2,2.8-3.1,4.8-2.4c2,0.7,3.1,2.8,2.4,4.8c0,0.1,0,0.1-0.1,0.2l-50.5,141.5C410.1,767.1,408.7,768.1,407.1,768.1z"/>
		</g>
		<g id="Group_517">
			<path id="Path_2481" class="st5" d="M614.8,767.5c-1.6,0-3-1.2-3.2-2.8l-19.2-133c-0.3-1.8,1-3.4,2.7-3.7c1.8-0.3,3.4,1,3.7,2.7
				l0,0l19.2,133c0.3,1.8-1,3.4-2.7,3.7C615.1,767.5,615,767.5,614.8,767.5z"/>
		</g>
		<g id="Group_518">
			<path id="Path_2482" class="st5" d="M473,768.1c-0.3,0-0.6,0-0.8-0.1c-2.1-0.5-3.4-2.5-2.9-4.5c0,0,0,0,0,0l30.6-138.8
				c0.4-2.1,2.4-3.4,4.5-3c2.1,0.4,3.4,2.4,3,4.5c0,0,0,0.1,0,0.1l-30.6,138.8C476.3,766.8,474.8,768.1,473,768.1z"/>
		</g>
		<path id="Path_2483" class="st6" d="M416,468h86.6c8.4,0,15.5,6.1,16.7,14.3l13.3,86.6c2,13.1,13.3,22.8,26.6,22.8h72.7
			c5.5,0,10,4.5,10,10l0,0v9c0,7.1-4.4,13.4-11,15.8c-28.7,10.8-130.4,39.3-188.1,2.3S393.6,515,399.4,482.1
			C400.8,474,407.8,468,416,468z"/>
	</g>
	<g id="Group_522">
		<path id="Path_2484" class="st11" d="M560.4,356.8c18.3,19.6,52.7,48,56.2,48.5c3.5,0.4,46.2-46.6,46.2-46.6l18.2,15.7
			c0,0-41.4,80.3-65.8,80.6c-24.3,0.3-63.5-24.5-76.1-49.1C526.5,381.4,536.6,331.3,560.4,356.8z"/>
		<path id="Path_2485" class="st12" d="M686.3,713.9c0,17.1,0.6,26.9,11.6,29.3c11,2.4,23.8,3.1,29.6,8.5c3.4,3.2,5,7.9,4.3,12.5
			h-71.5c0.6-13.1,3.4-19.5,4.9-26.3c1.5-6.7,2.1-12.5,2.1-23.5L686.3,713.9z"/>
		<path id="Path_2486" class="st13" d="M538.7,544.4c57.9-11.8,161.2-27.7,176.7-8.4c15.5,19.3-21.8,188-21.8,188h-29.8l13.4-149.4
			L538.7,544.4z"/>
		<path id="Path_2487" class="st12" d="M793.2,708.4c10.3,13.7,16.7,21.1,26.9,16.4c10.2-4.7,20.9-11.9,28.8-11
			c4.7,0.5,8.8,3.3,10.9,7.4l-57.1,43c-7.4-10.9-9.1-17.6-11.9-23.9c-2.8-6.3-5.8-11.3-12.4-20.1L793.2,708.4z"/>
		<path id="Path_2488" class="st12" d="M539.1,271.7c11.3-4.9,13.6-18.6,8-27.5s-21.4-3.7-33.6,7.7c-12.2,11.3-28.3,16.7-31.6,30.9
			c-3.4,14.3,7.3,29.9,16.9,39.6S539.1,271.7,539.1,271.7z"/>
		<path id="Path_2489" class="st14" d="M447.6,531.4c-1.3,31.9,4.2,59.6,47,66.3c42.8,6.7,144.4,17.6,144.4,17.6l143.8,116.8
			l25-18.2c0,0-112.9-128.8-126.3-141s-121.3-28.1-142.7-28.5l-1.7-22.7L447.6,531.4z"/>
		<path id="Path_2490" class="st15" d="M508.4,335.9c29.3-2.1,46.5,12.9,52,20.9s4.3,39.4,0.5,74.6c-3.8,35.3-1.2,68.8-0.4,81
			c0.8,12.2-8.9,19.3-16,21.4c-7.1,2.1-72.9,3.9-89.7,2.6s-14.4-12.3-12.7-31.1c1.7-18.9,1.2-43.7-0.5-70.9
			c-1.6-25.7-21.8-66.9-4.5-76.8C459,345.2,483.4,337.8,508.4,335.9z"/>
		<path id="Path_2491" class="st16" d="M534.1,323.4c-2.4,8.7-3,17.7-1.7,26.7c-3.9,22.7-42.7,15.4-46.2,1.1
			c3.6-18.7,14.7-35.7,20.4-40.3C518.1,301.6,538,308.6,534.1,323.4z"/>
		<path id="Path_2492" class="st17" d="M539.1,271.7c0,0,11.9,31.1,15.7,40.5c3,7.6-25.8,20.8-41.5,2.5c-2,3-6.1,2.2-8.7-0.3
			c-2.7-2.7-4.2-8.9,1.7-10.5c0,0-5.2-9-4.2-13.9S539.1,271.7,539.1,271.7z"/>
		<g id="Group_521">
			<g id="Group_520">
				<path id="Path_2493" class="st16" d="M486.3,501.2c-8.5,2.4-9,9.1-8.5,14c0.8,7.3-4.5,9.2-5.2,4.9c-0.7-5,0.1-12.2-2-14.7
					c-1.7-2.4-3-5-3.9-7.7l1.8-6.4L486.3,501.2z"/>
				<path id="Path_2494" class="st17" d="M471.9,479.4c7.9,2.4,23.6,15.5,25.9,21.6c1.6,4.5,3.1,17.7-0.7,26.4
					c-1.4,3.1-9.7,4.9-11.5,5.7c-3,1.4-3.8-3.4,0.7-5.9c1.2-0.7,4.3-1,5-3.2c1.7-6-1.7-14.8-2.7-16.6c-5.7-9.6-16-4.7-20.9-13.1
					L471.9,479.4"/>
			</g>
			<path id="Path_2495" class="st11" d="M437.1,357.6c-45.8,35.9-74.5,80.5-72,105.3c2.5,24.8,99.9,40.7,99.9,40.7l7.6-26.4
				l-52-24.3c0,0,15.4-16.5,30-29.7C466.2,408.9,463.7,336.7,437.1,357.6z"/>
		</g>
		<path id="Path_2496" class="st17" d="M664.6,360.3c-5-16.2-3.7-24.9-5.9-31.7c-1-3.4,6.1-5,8.2,4.2c2.1,9.2,6.7,10.7,6.7,10.7
			h48.1c5.7,0,5.7,6.5,3.6,6.5s-26.7,2.4-31.6,4.2c-3.4,1.2-18.4,15.2-18.4,15.2L664.6,360.3z"/>
	</g>
	<g id="Group_528">
		<g id="Group_527">
			<path id="Path_2497" class="st16" d="M917.9,212.1c0,0-31.2,0.5-33,7.7c-1.7,7.2,12.9,31.5,18.8,32.5c5.9,1,12.9,2.3,15.5-5.9
				c3.7,1.7,7.9,2.2,12,1.4l9.1-15.1L917.9,212.1z"/>
			<g id="Group_524">
				<rect id="Rectangle_743" x="815.7" y="157.6" class="st7" width="96" height="72.7"/>
				<g>
					<defs>
						<rect id="SVGID_1_" x="815.7" y="157.6" width="96" height="72.7"/>
					</defs>
					<clipPath id="SVGID_2_">
						<use xlink:href="#SVGID_1_"  style="overflow:visible;"/>
					</clipPath>
					<g id="Group_523" class="st18">
						<rect id="Rectangle_744" x="815.7" y="157.6" class="st7" width="96" height="72.7"/>
						<path id="Path_2498" class="st7" d="M888,173.1c-0.2,6.3-5.5,11.3-11.8,11c-6.3-0.2-11.3-5.5-11-11.8c0.2-6.2,5.3-11,11.4-11
							C883,161.4,888.1,166.7,888,173.1z"/>
						<path id="Path_2499" class="st7" d="M937,230.3h-91.3l45.7-47.3L937,230.3z"/>
						<path id="Path_2500" class="st7" d="M891.3,230.3H785l53.1-55L891.3,230.3z"/>
					</g>
				</g>
			</g>
			<g id="Group_526">
				<g>
					<defs>
						<rect id="SVGID_3_" x="821.7" y="163.4" width="83.9" height="61.4"/>
					</defs>
					<clipPath id="SVGID_4_">
						<use xlink:href="#SVGID_3_"  style="overflow:visible;"/>
					</clipPath>
					<g id="Group_525" class="st19">
						<rect id="Rectangle_746" x="821.7" y="163.4" class="st1" width="83.9" height="61.4"/>
						<path id="Path_2501" class="st6" d="M877.4,178.2c0,4.3-3.5,7.8-7.8,7.8c-4.3,0-7.8-3.5-7.8-7.8c0-4.3,3.5-7.8,7.8-7.8
							c0,0,0,0,0,0C873.9,170.4,877.4,173.9,877.4,178.2z"/>
						<path id="Path_2502" class="st6" d="M927.8,224.8h-79.9l39.9-39.9L927.8,224.8z"/>
						<path id="Path_2503" class="st5" d="M887.8,224.8h-92.9l46.5-46.5L887.8,224.8z"/>
					</g>
				</g>
			</g>
			<path id="Path_2504" class="st17" d="M944.9,225.3c0,0-14.2-14.3-17.8-17.1c-3.6-2.8-26.6-2.8-32.5-2.8c-5.9,0-5.9,9,4.8,9
				c8.7,0,17.4,1,17.4,1c-2.3,9.6,4.1,23.5,17.7,27.2C948,246.2,944.9,225.3,944.9,225.3z"/>
		</g>
		<path id="Path_2505" class="st12" d="M1066.1,92.2c-11.4-4.4-22-22.8-7.7-34.5s37.8-14.3,52.5-11s21,27.5,18,59.4
			C1125.9,138,1066.1,92.2,1066.1,92.2z"/>
		<path id="Path_2506" class="st12" d="M998.8,694c10.6,13.4,16.2,21.4,9.2,30.2s-16.7,17.2-17.9,25.1c-0.7,4.6,1,9.3,4.4,12.5
			l55.9-44.5c-8.6-9.9-14.8-13.2-20.2-17.5c-5.4-4.3-9.5-8.5-16.3-17.1L998.8,694z"/>
		<path id="Path_2507" class="st20" d="M1071.7,149.1c-21.1,18.7-32.9,49.9-43.1,72.2c-5.5,12.3-11.9,24.3-19,35.8l-62.7-35.3
			l-16.2,26.9c0,0,68.8,62.8,85.6,61c16.9-1.8,45.3-33,58.8-71.6S1086.3,136.2,1071.7,149.1z"/>
		<path id="Path_2508" class="st13" d="M1098.8,357.7c-14.8,67.4-62.5,79.7-130.5,155c28.5,71.1,64.8,181,64.8,181l-31.1,20.9
			c0,0-94.1-163.6-97.4-203.9c-3.4-40.3,108.5-111.3,115.9-125.6c7.4-14.3,18.3-49.1,18.3-49.1L1098.8,357.7z"/>
		<path id="Path_2509" class="st21" d="M1133.8,135.7c44.3,7.2,59.3,30.2,64.9,48.7c5.6,18.5-6.7,62.1-30.8,101.3
			c-18.9,30.8-2.8,66.6-31.3,79.5c-55.4-7.3-97.9-29.1-97.9-29.1c-16.8-40.3,9-45.3,9.5-99.1c0.6-53.7,5.6-74.4,23.5-87.9
			C1089.6,135.7,1109.8,131.8,1133.8,135.7z"/>
		<path id="Path_2510" class="st16" d="M1094.3,115.9c1.6,16,3.5,24.7,2.9,32.7c5.4,23.2,52.6,9.7,46.1-7.8
			c-10.9-29.5-20.4-40.1-26.8-48.5C1108.6,87.3,1092.3,96.1,1094.3,115.9z"/>
		<path id="Path_2511" class="st17" d="M1066.1,92.2c0,0,16.7,31,21.8,39.4c5.7,9.2,28.6-6,27.9-31.3c3.6,0.2,8.2-5,6.8-11.6
			c-1.3-6.6-10-7-10.9,0c-5.8-10-8.9-16.3-15.3-13.4C1090.1,78.2,1066.1,92.2,1066.1,92.2z"/>
		<path id="Path_2512" class="st20" d="M1198.8,184.4c20.8,80.2,20,198.9,10.6,277.3h-29.1c4.5-132.1-42-196.1-34.1-240.3
			S1189.3,147.6,1198.8,184.4z"/>
		<path id="Path_2513" class="st17" d="M1182.7,461.7c-5,16.2-4.4,25.6-6.5,32.4c-1,3.4,6.1,5,8.2-4.2s6.7-10.7,6.7-10.7h48.1
			c5.7,0,5.7-6.5,3.6-6.5s-25.3-0.7-30.2-2.5c-3.4-1.2-12.6-8.5-12.6-8.5L1182.7,461.7z"/>
		<path id="Path_2514" class="st12" d="M919.8,707.8c-6.4,15.9-10.6,24.7-21.7,22.8c-11.1-1.9-23.2-6.1-30.7-3.2
			c-4.4,1.7-7.6,5.4-8.7,10l66.2,26.8c4.4-12.4,4.2-19.4,5.3-26.2c1.1-6.8,2.7-12.4,6.8-22.6L919.8,707.8z"/>
		<path id="Path_2515" class="st14" d="M1038.7,336c8.2,23.2,17,40.7,11.6,57.2c-95.2,139.7-118.5,229.6-147.7,326.3l34.1,10.3
			c0,0,100.6-226,168.1-291.4c25.5-24.7,29.2-35.8,31.8-73.3C1124.4,337.7,1038.7,336,1038.7,336z"/>
	</g>
	<g id="Group_529">
		<path id="Rectangle_748" class="st21" d="M600.9,241.4h185.5c2.2,0,4.1,1.8,4.1,4.1v52.4c0,2.2-1.8,4.1-4.1,4.1H600.9
			c-2.2,0-4.1-1.8-4.1-4.1v-52.4C596.9,243.2,598.7,241.4,600.9,241.4z"/>
		<circle id="Ellipse_52" class="st20" cx="629.3" cy="271.7" r="20.5"/>
		<path id="Path_2516" class="st20" d="M664.8,263.6c0,2.1,1.7,3.9,3.9,3.9c0,0,0,0,0,0h99.7c2.1,0,3.9-1.7,3.9-3.8
			c0-2.1-1.7-3.9-3.8-3.9c0,0-0.1,0-0.1,0h-99.7C666.6,259.7,664.8,261.5,664.8,263.6C664.8,263.6,664.8,263.6,664.8,263.6
			L664.8,263.6z"/>
		<path id="Path_2517" class="st20" d="M664.8,280.2c0,2.1,1.7,3.9,3.9,3.9c0,0,0,0,0,0h99.7c2.1,0,3.9-1.7,3.9-3.9
			c0-2.1-1.7-3.9-3.9-3.9h-99.7C666.6,276.4,664.8,278.1,664.8,280.2C664.8,280.2,664.8,280.2,664.8,280.2L664.8,280.2z"/>
	</g>
	<g id="Group_530">
		<path id="Rectangle_749" class="st5" d="M599.8,164.5h185.5c2.2,0,4.1,1.8,4.1,4.1V221c0,2.2-1.8,4.1-4.1,4.1H599.8
			c-2.2,0-4.1-1.8-4.1-4.1v-52.4C595.8,166.4,597.6,164.5,599.8,164.5z"/>
		<circle id="Ellipse_53" class="st1" cx="629.3" cy="194.8" r="20.5"/>
		<path id="Path_2518" class="st1" d="M664.8,186.7c0,2.1,1.7,3.9,3.9,3.9c0,0,0,0,0,0h99.7c2.1,0,3.9-1.7,3.9-3.9s-1.7-3.9-3.9-3.9
			h-99.7C666.6,182.9,664.8,184.6,664.8,186.7C664.8,186.7,664.8,186.7,664.8,186.7L664.8,186.7z"/>
		<path id="Path_2519" class="st1" d="M664.8,203.4c0,2.1,1.7,3.9,3.9,3.9c0,0,0,0,0,0h99.7c2.1,0,3.9-1.7,3.9-3.9
			c0-2.1-1.7-3.9-3.9-3.9h-99.7C666.6,199.5,664.8,201.2,664.8,203.4C664.8,203.4,664.8,203.4,664.8,203.4L664.8,203.4z"/>
	</g>
</g>
</svg>
