<svg id="Group_3" data-name="Group 3" xmlns="http://www.w3.org/2000/svg" width="40.222" height="40.222" viewBox="0 0 40.222 40.222">
  <path id="Path_14" data-name="Path 14" d="M43.74,22.325a3.362,3.362,0,0,0-4.785,0L22.325,39.034a3.384,3.384,0,0,0,4.785,4.785L43.819,27.11A3.435,3.435,0,0,0,43.74,22.325Z" transform="translate(-4.597 -4.597)" fill="#fff"/>
  <path id="Path_15" data-name="Path 15" d="M39.149,1.025a3.362,3.362,0,0,0-4.785,0L1.025,34.442A3.384,3.384,0,1,0,5.81,39.227l33.339-33.5A3.268,3.268,0,0,0,39.149,1.025Z" transform="translate(-0.005 -0.005)" fill="#fff"/>
  <path id="Path_16" data-name="Path 16" d="M22.44,1.025a3.362,3.362,0,0,0-4.785,0L1.025,17.734A3.384,3.384,0,0,0,5.81,22.519L22.44,5.732A3.268,3.268,0,0,0,22.44,1.025Z" transform="translate(-0.005 -0.005)" fill="#fff"/>
  <path id="Path_17" data-name="Path 17" d="M43.625,43.641a3.384,3.384,0,1,0,4.785,0A3.51,3.51,0,0,0,43.625,43.641Z" transform="translate(-9.188 -9.205)" fill="#fff"/>
  <circle id="Ellipse_10" data-name="Ellipse 10" cx="3.373" cy="3.373" r="3.373" fill="#fff"/>
</svg>
