<?xml version="1.0" encoding="utf-8"?>
<!-- Generator: Adobe Illustrator 25.4.1, SVG Export Plug-In . SVG Version: 6.00 Build 0)  -->
<svg version="1.1" id="Layer_1" xmlns="http://www.w3.org/2000/svg" xmlns:xlink="http://www.w3.org/1999/xlink" x="0px" y="0px"
	 viewBox="0 0 18 18" style="enable-background:new 0 0 18 18;" xml:space="preserve">
<style type="text/css">
	.st0{fill-opacity:0;}
	.st1{fill:#757A85;}
	.st2{fill:#737B88;}
</style>
<g id="Group_4470" transform="translate(-623 -801)">
	<rect id="Rectangle_3009" x="623" y="801" class="st0" width="18" height="18"/>
	<g id="Group_4375" transform="translate(277.799 512.51)">
		<g id="Group_4373">
			<path id="Path_3454" class="st1" d="M347.5,305.7c-0.6,0-1.1-0.2-1.5-0.6c-0.5-0.5-0.8-1.1-0.8-1.8v-11.4c0-0.7,0.3-1.3,0.8-1.8
				c0.4-0.4,1-0.6,1.5-0.6h0.1h4.4l1.7,2.5l7.1,0c0.6,0,1.1,0.2,1.5,0.6c0.5,0.5,0.8,1.1,0.8,1.8v9c0,0.7-0.3,1.3-0.8,1.8
				c-0.4,0.4-1,0.6-1.5,0.6L347.5,305.7z M360.8,304.1l0,0.1L360.8,304.1c0.2,0,0.4-0.1,0.5-0.2c0.2-0.2,0.3-0.4,0.3-0.7v-8.9
				c0-0.2-0.1-0.5-0.3-0.6c-0.1-0.1-0.3-0.2-0.5-0.2H353l-1.7-2.5l-3.7,0c-0.2,0-0.4,0.1-0.5,0.2c-0.2,0.2-0.3,0.4-0.3,0.7v11.3
				c0,0.2,0.1,0.5,0.3,0.6c0.1,0.1,0.3,0.2,0.5,0.2L360.8,304.1L360.8,304.1z"/>
		</g>
		<g id="Group_4374">
			<path id="Path_3455" class="st2" d="M356.7,299.6h-5c-0.4,0-0.8-0.3-0.8-0.8s0.3-0.8,0.8-0.8h5c0.4,0,0.8,0.3,0.8,0.8
				S357.1,299.6,356.7,299.6z"/>
		</g>
	</g>
</g>
</svg>
