<svg xmlns="http://www.w3.org/2000/svg" width="18" height="18" viewBox="0 0 18 18">
  <g id="Group_4470" data-name="Group 4470" transform="translate(-623 -801)">
    <rect id="Rectangle_3009" data-name="Rectangle 3009" width="18" height="18" transform="translate(623 801)" opacity="0"/>
    <g id="Group_4375" data-name="Group 4375" transform="translate(277.799 512.51)">
      <g id="Group_4372" data-name="Group 4372">
        <path id="Path_3453" data-name="Path 3453" d="M354.2,302.146a.75.75,0,0,1-.75-.75v-5a.75.75,0,0,1,1.5,0v5A.75.75,0,0,1,354.2,302.146Z" fill="#737b88"/>
      </g>
      <g id="Group_4373" data-name="Group 4373">
        <path id="Path_3454" data-name="Path 3454" d="M347.53,305.666a2.251,2.251,0,0,1-1.512-.6,2.556,2.556,0,0,1-.816-1.769V291.9a2.56,2.56,0,0,1,.818-1.806,2.268,2.268,0,0,1,1.527-.6l.12,0,4.434,0,1.724,2.478,7.051-.047a2.283,2.283,0,0,1,1.507.6,2.569,2.569,0,0,1,.818,1.771v8.975a2.581,2.581,0,0,1-.818,1.79,2.283,2.283,0,0,1-1.533.6Zm13.25-1.569-.006.1.062-.1a.713.713,0,0,0,.492-.2.983.983,0,0,0,.306-.669v-8.9a.97.97,0,0,0-.3-.646.719.719,0,0,0-.479-.2l-7.834,0-1.725-2.478-3.668.044a.765.765,0,0,0-.549.192.984.984,0,0,0-.306.682v11.323a.964.964,0,0,0,.3.645.715.715,0,0,0,.491.195l13.21,0Z" fill="#757a85"/>
      </g>
      <g id="Group_4374" data-name="Group 4374">
        <path id="Path_3455" data-name="Path 3455" d="M356.7,299.646h-5a.75.75,0,1,1,0-1.5h5a.75.75,0,0,1,0,1.5Z" fill="#737b88"/>
      </g>
    </g>
  </g>
</svg>
