<svg xmlns="http://www.w3.org/2000/svg" width="18" height="18" viewBox="0 0 18 18">
  <path id="Path_3579" data-name="Path 3579" d="M135.022,985.981a9,9,0,1,1,6.364-2.637A8.936,8.936,0,0,1,135.022,985.981Zm-4.769-3.187a7.505,7.505,0,0,0,9.538,0l-2.083-2.083a4.59,4.59,0,0,1-5.372,0Zm-1.044-10.583a7.507,7.507,0,0,0,0,9.539l2.083-2.083a4.591,4.591,0,0,1,0-5.373Zm11.627,9.539a7.51,7.51,0,0,0,0-9.539l-2.084,2.083a4.59,4.59,0,0,1,0,5.372Zm-5.814-7.891a3.121,3.121,0,1,0,3.121,3.122A3.125,3.125,0,0,0,135.022,973.859Zm0-1.477a4.547,4.547,0,0,1,2.686.868l2.083-2.083a7.509,7.509,0,0,0-9.538,0l2.083,2.083A4.547,4.547,0,0,1,135.022,972.382Z" transform="translate(-126.022 -967.981)" fill="#757a85"/>
</svg>
