<svg xmlns="http://www.w3.org/2000/svg" width="18" height="18" viewBox="0 0 18 18">
  <g id="Group_4377" data-name="Group 4377" transform="translate(-594.872 -288.043)">
    <path id="Path_3460" data-name="Path 3460" d="M600.872,289.543a.5.5,0,0,1,.5.5v4a.5.5,0,0,1-.5.5h-4a.5.5,0,0,1-.5-.5v-4a.5.5,0,0,1,.5-.5h4m0-1.5h-4a2,2,0,0,0-2,2v4a2,2,0,0,0,2,2h4a2,2,0,0,0,2-2v-4a2,2,0,0,0-2-2Z" fill="#757a85"/>
    <path id="Path_3461" data-name="Path 3461" d="M610.872,289.543a.5.5,0,0,1,.5.5v4a.5.5,0,0,1-.5.5h-4a.5.5,0,0,1-.5-.5v-4a.5.5,0,0,1,.5-.5h4m0-1.5h-4a2,2,0,0,0-2,2v4a2,2,0,0,0,2,2h4a2,2,0,0,0,2-2v-4a2,2,0,0,0-2-2Z" fill="#757a85"/>
    <path id="Path_3462" data-name="Path 3462" d="M600.872,299.543a.5.5,0,0,1,.5.5v4a.5.5,0,0,1-.5.5h-4a.5.5,0,0,1-.5-.5v-4a.5.5,0,0,1,.5-.5h4m0-1.5h-4a2,2,0,0,0-2,2v4a2,2,0,0,0,2,2h4a2,2,0,0,0,2-2v-4a2,2,0,0,0-2-2Z" fill="#757a85"/>
    <path id="Path_3463" data-name="Path 3463" d="M610.872,299.543a.5.5,0,0,1,.5.5v4a.5.5,0,0,1-.5.5h-4a.5.5,0,0,1-.5-.5v-4a.5.5,0,0,1,.5-.5h4m0-1.5h-4a2,2,0,0,0-2,2v4a2,2,0,0,0,2,2h4a2,2,0,0,0,2-2v-4a2,2,0,0,0-2-2Z" fill="#757a85"/>
  </g>
</svg>
