<svg xmlns="http://www.w3.org/2000/svg" width="17.746" height="18" viewBox="0 0 17.746 18">
  <g id="Group_4410" data-name="Group 4410" transform="translate(-954.8 -658.583)">
    <g id="Path_3236" data-name="Path 3236">
      <path id="Path_3516" data-name="Path 3516" d="M971.786,676.583h0a.761.761,0,0,1-.761-.761v-1.268a3.3,3.3,0,0,0-3.3-3.3h-8.112a3.3,3.3,0,0,0-3.295,3.3v1.268a.761.761,0,0,1-.761.761h0a.761.761,0,0,1-.761-.761v-1.268a4.817,4.817,0,0,1,4.817-4.817h8.112a4.817,4.817,0,0,1,4.817,4.817v1.268A.761.761,0,0,1,971.786,676.583Z" fill="#757a85"/>
    </g>
    <g id="Path_3237" data-name="Path 3237">
      <path id="Path_3517" data-name="Path 3517" d="M963.673,668.216a4.816,4.816,0,1,1,4.817-4.816A4.822,4.822,0,0,1,963.673,668.216Zm0-8.112a3.3,3.3,0,1,0,3.3,3.3A3.3,3.3,0,0,0,963.673,660.1Z" fill="#757a85"/>
    </g>
  </g>
</svg>
