<svg xmlns="http://www.w3.org/2000/svg" width="777.646" height="493.255" viewBox="0 0 777.646 493.255">
  <g id="Build" transform="translate(-100.47 28.546)">
    <g id="Build-2" data-name="Build" transform="translate(100.47 -28.546)">
      <g id="Group_59" data-name="Group 59">
        <g id="Background" transform="translate(37.119)">
          <g id="Element" transform="translate(583.078 108.237)">
            <rect id="Shape" width="113.531" height="65.347" transform="translate(1.32 0.851)" fill="#fff"/>
            <path id="Path_855" data-name="Path 855" d="M1155.193,135.742c.913.242.974.406,1.047,1.24v64.807c-.089,1.02-.327,1.178-1.267,1.259H1041.335c-1.026-.089-1.185-.325-1.267-1.259V136.982c.09-1.02.327-1.178,1.267-1.26h113.638Zm-112.485,1.96v62.706H1153.6V137.7Z" transform="translate(-1040.068 -135.531)" fill="#dfd7e4"/>
            <path id="Path_856" data-name="Path 856" d="M1041.965,135.451a1.7,1.7,0,0,1,.439.152l113.4,65.02c1.08.76.35,2.927-1.257,2.193l-113.4-65.02A1.283,1.283,0,0,1,1041.965,135.451Z" transform="translate(-1040.245 -135.438)" fill="#dfd7e4"/>
            <path id="Path_857" data-name="Path 857" d="M1198.758,135.433c.962.094.953.4,1.111.8a1.319,1.319,0,0,1-.547,1.563l-28.836,16.535c-1.17.6-2.758-1.236-1.257-2.193l28.836-16.536A1.037,1.037,0,0,1,1198.758,135.433Z" transform="translate(-1083.766 -135.433)" fill="#dfd7e4"/>
            <path id="Path_858" data-name="Path 858" d="M1112.724,172.518a1.311,1.311,0,0,1,.385,2.338l-70.725,40.552c-1.168.563-2.725-1.207-1.257-2.193l70.725-40.552A1.089,1.089,0,0,1,1112.724,172.518Z" transform="translate(-1040.225 -148.028)" fill="#dfd7e4"/>
          </g>
          <g id="Group_52" data-name="Group 52" transform="translate(501.89 209.396)">
            <path id="Path_859" data-name="Path 859" d="M963.953,291.722h104.632a1.639,1.639,0,0,1,1.638,1.646v116.85a1.636,1.636,0,0,1-1.636,1.636H920.7a1.636,1.636,0,0,1-1.636-1.636V293.368a1.64,1.64,0,0,1,1.639-1.646h29.384" transform="translate(-917.748 -289.72)" fill="#fff"/>
            <path id="Path_860" data-name="Path 860" d="M1068.247,289.288a3.006,3.006,0,0,1,2.75,2.83q.728,58.443,0,116.9a3,3,0,0,1-2.824,2.826q-73.887.928-147.785,0a3,3,0,0,1-2.826-2.826q-.735-58.443,0-116.9a2.866,2.866,0,0,1,2.892-2.747h29.479a1.327,1.327,0,0,1,0,2.64H920.47c-.2-.2-.372-.03-.38.17-.484,38.914,0,77.834,0,116.75a.383.383,0,0,0,.362.38c49.209.618,98.426,0,147.639,0a.383.383,0,0,0,.379-.362c.489-38.913,0-77.832,0-116.75,0-.208-.169-.385-.379-.189H963.67c-1.351-.341-1.826-2.535,0-2.727C998.528,289.285,1033.414,287.943,1068.247,289.288Z" transform="translate(-917.112 -288.689)" fill="#dfd7e4"/>
            <path id="Path_861" data-name="Path 861" d="M993.6,369.626l20.7,25.079a.162.162,0,0,0,.231.02l36.037-31.751a1.842,1.842,0,0,1,2.531.094l17.121,17.492v45.63a1.636,1.636,0,0,1-1.636,1.636H920.7a1.636,1.636,0,0,1-1.636-1.636V399.165l47.1-59.724a1.924,1.924,0,0,1,3-.026L988.5,363.094" transform="translate(-917.748 -305.693)" fill="#fff"/>
            <path id="Path_862" data-name="Path 862" d="M1051.168,360.2a3.2,3.2,0,0,1,2.1.927l17.127,17.527a1.634,1.634,0,0,1,.36.884c0,15.259.191,30.52,0,45.78a3.006,3.006,0,0,1-2.829,2.83q-74.008.931-148.026,0a3.01,3.01,0,0,1-2.831-2.9V398.169a7.818,7.818,0,0,0,.721-.782l47.032-59.731a3.287,3.287,0,0,1,4.956-.044l19.3,23.686c.742,1.137-.658,2.891-1.96,1.6-6.44-7.9-12.546-16.093-19.323-23.71-.327-.347-1,.047-1,.047l-47.087,59.374v26.583a.385.385,0,0,0,.363.38c49.253.618,98.515,0,147.772,0a.385.385,0,0,0,.38-.38V380.055c-5.6-5.727-10.852-11.81-16.792-17.182a.586.586,0,0,0-.745-.009c-12.162,10.455-24.05,21.224-36.075,31.836-.276.216-.721.89-1.764.054a3.147,3.147,0,0,1-.238-.22l-20.72-25.141a1.553,1.553,0,0,1-.209-1.249,1.317,1.317,0,0,1,2.163-.362l19.976,24.239c11.746-10.365,23.359-20.883,35.238-31.1C1050.169,360.014,1049.965,360.171,1051.168,360.2Z" transform="translate(-917.068 -304.944)" fill="#dfd7e4"/>
            <path id="Path_863" data-name="Path 863" d="M1074.077,332.212a11.886,11.886,0,1,1-11.886-11.887,11.885,11.885,0,0,1,11.886,11.887" transform="translate(-962.359 -299.444)" fill="#fff"/>
            <path id="Path_864" data-name="Path 864" d="M1061.887,318.414c8.7.167,15.759,10.395,11.683,18.849-3.562,7.387-14.776,9.681-20.924,3.817-6.082-5.8-4.611-17.642,3.516-21.438A12.2,12.2,0,0,1,1061.887,318.414Zm-.306,2.528c-7.03.135-12.725,8.4-9.438,15.223,2.879,5.971,11.933,7.824,16.9,3.086a10.907,10.907,0,0,0,2.014-12.749A10.488,10.488,0,0,0,1061.581,320.942Z" transform="translate(-961.886 -298.794)" fill="#dfd7e4"/>
          </g>
          <g id="Group_53" data-name="Group 53" transform="translate(0 173.114)">
            <rect id="Rectangle_634" data-name="Rectangle 634" width="135.314" height="135.314" transform="translate(1.56 1.32)" fill="#fff"/>
            <path id="Path_865" data-name="Path 865" d="M294,233.746a1.18,1.18,0,0,1,1.017,1.24V370.412c-.1,1.063-.329,1.172-1.265,1.264H158.333c-1.064-.1-1.173-.329-1.265-1.264V234.987c.1-1.064.33-1.172,1.265-1.265H293.757Zm-134.3,2.616V369.036H292.382V236.362Z" transform="translate(-156.828 -233.722)" fill="#dfd7e4"/>
            <path id="Path_866" data-name="Path 866" d="M158.224,233.913a1.378,1.378,0,0,1,.647.346L294.234,369.621c.84,1.023-.457,2.879-1.787,1.787L157.084,236.046C156.391,235.2,156.58,233.751,158.224,233.913Z" transform="translate(-156.705 -233.783)" fill="#dfd7e4"/>
            <path id="Path_867" data-name="Path 867" d="M345.485,233.887a1.315,1.315,0,0,1,.734,2.147L311.8,270.458c-.987.892-3-.449-1.787-1.787l34.423-34.423C344.867,233.855,344.877,233.841,345.485,233.887Z" transform="translate(-208.69 -233.772)" fill="#dfd7e4"/>
            <path id="Path_868" data-name="Path 868" d="M249.728,300.408a1.324,1.324,0,0,1,.634,2.13l-91.474,91.474c-1.026.869-2.912-.461-1.787-1.787l91.474-91.474A1.442,1.442,0,0,1,249.728,300.408Z" transform="translate(-156.722 -256.386)" fill="#dfd7e4"/>
          </g>
          <g id="Group_54" data-name="Group 54" transform="translate(288.975 32.294)">
            <rect id="Rectangle_635" data-name="Rectangle 635" width="65.347" height="65.347" transform="translate(1.034 0.886)" fill="#fff"/>
            <path id="Path_869" data-name="Path 869" d="M661.314,20.735c.89.194,1.02.4,1.081,1.248V86.789c-.069.978-.337,1.193-1.259,1.259H596.328c-.978-.069-1.193-.337-1.26-1.259V21.982c.07-.978.337-1.193,1.26-1.26h64.807ZM597.048,22.7V85.408h62.706V22.7Z" transform="translate(-594.695 -20.496)" fill="#dfd7e4"/>
            <path id="Path_870" data-name="Path 870" d="M596.018,20.413a1.154,1.154,0,0,1,.625.342l65.02,65.02c.85.98-.451,2.945-1.787,1.787l-65.021-65.02A1.292,1.292,0,0,1,596.018,20.413Z" transform="translate(-594.516 -20.385)" fill="#dfd7e4"/>
            <path id="Path_871" data-name="Path 871" d="M685.8,20.381c.623.067.7.238.865.433a1.218,1.218,0,0,1-.061,1.721L670.068,39.07c-.966.9-3-.484-1.788-1.787l16.535-16.535A1.13,1.13,0,0,1,685.8,20.381Z" transform="translate(-619.454 -20.38)" fill="#dfd7e4"/>
            <path id="Path_872" data-name="Path 872" d="M636.43,57.453a1.307,1.307,0,0,1,.752,2.15l-40.552,40.552c-1.9,1.694-2.616-.86-1.787-1.787l40.552-40.552A1.069,1.069,0,0,1,636.43,57.453Z" transform="translate(-594.502 -32.979)" fill="#dfd7e4"/>
          </g>
          <g id="Group_55" data-name="Group 55" transform="translate(76.913)">
            <path id="Path_873" data-name="Path 873" d="M326.893-25.278H444.519a1.847,1.847,0,0,1,1.846,1.853V108.191a1.845,1.845,0,0,1-1.845,1.845H277.914a1.845,1.845,0,0,1-1.846-1.845V-23.425a1.847,1.847,0,0,1,1.847-1.853h33.137" transform="translate(-274.194 27.435)" fill="#fff"/>
            <path id="Path_874" data-name="Path 874" d="M443.405-27.88a3.221,3.221,0,0,1,2.949,3.034q.821,65.906,0,131.821A3.221,3.221,0,0,1,443.325,110Q360,111.05,276.67,110a3.221,3.221,0,0,1-3.029-3.029q-.828-65.9,0-131.821a2.949,2.949,0,0,1,3.1-2.863h33.244a1.176,1.176,0,1,1,0,2.352c-11.094,0-22.211-.7-33.283,0a.6.6,0,0,0-.535.572c-.547,43.9-2.785,87.9,0,131.724a.6.6,0,0,0,.564.535c55.516.7,111.151,3.522,166.559,0a.6.6,0,0,0,.535-.564c.551-43.906,2.764-87.9,0-131.726-.026-.3-.283-.537-.587-.254H325.476c-1.351-.44-1.7-2.623,0-2.816C364.785-27.885,404.124-29.376,443.405-27.88Z" transform="translate(-273.229 28.546)" fill="#dfd7e4"/>
            <path id="Path_875" data-name="Path 875" d="M360.038,62.327,383.362,90.61a.182.182,0,0,0,.261.022l40.6-35.806a2.071,2.071,0,0,1,2.851.1l19.291,19.727v51.461a1.845,1.845,0,0,1-1.845,1.845H277.914a1.845,1.845,0,0,1-1.846-1.845V95.64l53.068-67.354a2.165,2.165,0,0,1,3.379-.028l21.776,26.7" transform="translate(-274.194 9.507)" fill="#fff"/>
            <path id="Path_876" data-name="Path 876" d="M424.982,52.112a3.442,3.442,0,0,1,2.256,1l19.3,19.745a1.636,1.636,0,0,1,.36.884c0,17.191.215,34.384,0,51.573a3.224,3.224,0,0,1-3.03,3.032q-83.374,1.076-166.764,0a3.223,3.223,0,0,1-3.032-3.1V94.733a1.385,1.385,0,0,1,.271-.782l53.074-67.4a3.524,3.524,0,0,1,5.342-.046l21.782,26.727c.717,1.117-.638,2.893-1.961,1.6-7.27-8.921-14.16-18.166-21.812-26.762a.931.931,0,0,0-1.374.061L276.6,95.171c0,10.035-.636,20.09,0,30.106a.6.6,0,0,0,.565.536c55.551.716,111.22,3.5,166.665,0a.6.6,0,0,0,.535-.587V74.253C438.04,67.781,432.1,60.909,425.39,54.841a.825.825,0,0,0-1.034-.026c-13.982,11.457-27.108,23.92-40.661,35.881-.721.565-2.028-.169-2.028-.169L358.326,62.2a1.653,1.653,0,0,1-.261-1.065,1.309,1.309,0,0,1,2.215-.543L382.89,88.032C396.165,76.318,409.3,64.445,422.713,52.89,423.907,51.913,423.689,52.079,424.982,52.112Z" transform="translate(-273.514 10.242)" fill="#dfd7e4"/>
            <path id="Path_877" data-name="Path 877" d="M449.9,20.279A13.4,13.4,0,1,1,436.5,6.874,13.405,13.405,0,0,1,449.9,20.279" transform="translate(-324.173 16.505)" fill="#fff"/>
            <path id="Path_878" data-name="Path 878" d="M436.111,4.722c8.265.158,15.522,8.261,14.337,16.717a15.157,15.157,0,0,1-14.526,12.62c-9.726,0-17.879-11.663-13.143-21.187a14.964,14.964,0,0,1,12.954-8.15Zm-.347,2.64c-8,.152-14.545,9.606-10.787,17.4,3.29,6.824,13.64,8.941,19.319,3.527,6.671-6.36,2.9-20.716-8.218-20.927Z" transform="translate(-323.595 17.237)" fill="#dfd7e4"/>
          </g>
        </g>
        <g id="Group_56" data-name="Group 56" transform="translate(215.337 115.286)">
          <path id="Path_879" data-name="Path 879" d="M513.154,199.722v196.7H455.068V201.251c0-.519.029-1.024.079-1.529Z" transform="translate(-436.347 -164.337)" fill="#7f77bf"/>
          <path id="Path_880" data-name="Path 880" d="M511.641,196.722l.485.065c1.405.39,1.5.685,1.622,2.044v197.1c-.149,1.708-.544,1.971-2.108,2.108H453.4c-1.708-.149-1.971-.544-2.108-2.108,0-65.265-.672-130.534,0-195.795.027-1.582-.1-3.206,2.185-3.418Zm-55.978,3.96V393.422h54.125V200.682Z" transform="translate(-434.962 -163.317)" fill="#41146c"/>
          <path id="Path_881" data-name="Path 881" d="M714.988,669.851l-104.858.03a6.319,6.319,0,0,1-6.232-7.372l13.5-79.786h90.328l13.492,79.756A6.319,6.319,0,0,1,714.988,669.851Z" transform="translate(-486.909 -294.531)" fill="#d6d5eb"/>
          <path id="Path_882" data-name="Path 882" d="M706.691,578.722l.389.042c1.253.277,1.394.5,1.688,1.714,4.516,26.7,9.214,53.371,13.549,80.1a8.682,8.682,0,0,1-8.22,9.731q-52.7.4-105.4.029a8.686,8.686,0,0,1-8.207-9.844l13.538-80.018c.352-1.455.681-1.657,2.077-1.755Zm-88.8,4.62c-4.42,26.126-9.39,52.166-13.259,78.379a4.383,4.383,0,0,0,4.067,4.811q52.689,1.114,105.4-.029a4.354,4.354,0,0,0,4.045-4.941l-13.233-78.22Z" transform="translate(-485.747 -293.171)" fill="#41146c"/>
          <path id="Path_883" data-name="Path 883" d="M777.263,497.722V522.01a31.236,31.236,0,0,1-31.32,31.158H461.388a31.236,31.236,0,0,1-31.32-31.158V497.722Z" transform="translate(-427.849 -265.637)" fill="#d6d5eb"/>
          <path id="Path_884" data-name="Path 884" d="M776.2,494.722l.863.267a2.623,2.623,0,0,1,.982,1.034l.16.807c0,8.2.026,16.407,0,24.61-.161,17.081-14.87,33.009-33.185,33.185q-142.381.435-284.762,0c-17.251-.167-33.127-14.845-33.187-33.4v-24.4l.16-.807.457-.683a2.786,2.786,0,0,1,1.49-.617Zm-345.3,3.96c0,7.492-.024,14.985,0,22.477.142,14.892,12.972,28.844,29,29q142.354.435,284.709,0c15.071-.146,28.947-13.154,29-29.191V498.682Z" transform="translate(-426.829 -264.617)" fill="#41146c"/>
          <path id="Path_885" data-name="Path 885" d="M777.263,275.795v103.63H430.068V179.569c0-16.484,13.125-29.847,29.317-29.847H750.8a26.71,26.71,0,0,1,26.467,26.945v80.646" transform="translate(-427.849 -147.34)" fill="#fff"/>
          <path id="Path_886" data-name="Path 886" d="M749.563,146.353c14.978.144,28.537,13.364,28.537,29.071v80.4a2.448,2.448,0,0,1-1.3,1.947l-.807.16-.807-.16-.684-.457a2.786,2.786,0,0,1-.617-1.49c0-26.866.087-53.731,0-80.6-.116-12.636-10.673-24.483-24.044-24.7-97.3-.936-194.6-.317-291.9,0-14.209.137-26.985,12.756-27.032,27.768v197.92H774.14V274.32c-.312-.548-.282-1.17.879-1.947l.806-.16.807.16.683.457a5.649,5.649,0,0,1,.785,1.49V378.361l-.329.807-.457.683-.683.457-.807-.129H428.9l-.807.129a2.793,2.793,0,0,1-1.14-1.14l-.16-.807c0-66.745-.2-133.491,0-200.236.152-16.34,13.912-31.605,31.2-31.772Q603.776,145.877,749.563,146.353Z" transform="translate(-426.706 -146.113)" fill="#41146c"/>
          <path id="Path_887" data-name="Path 887" d="M768.92,186.115V190.2H454.068v-4.089a14.392,14.392,0,0,1,14.393-14.393H754.527A14.392,14.392,0,0,1,768.92,186.115Z" transform="translate(-436.007 -154.818)" fill="rgba(255,255,255,0.3)"/>
          <path id="Path_888" data-name="Path 888" d="M754.246,167.741a16.955,16.955,0,0,1,16.294,16.49v4.338a2.449,2.449,0,0,1-1.3,1.947l-.807.16H453.176l-.807-.16a2.794,2.794,0,0,1-1.141-1.14l-.16-.807v-4.338a12.921,12.921,0,0,1,.133-2.092,16.922,16.922,0,0,1,16.153-14.4Q610.8,166.828,754.246,167.741ZM467.312,172.2A12.629,12.629,0,0,0,455.028,184.5v2.218h310.9a18.634,18.634,0,0,0-.745-6.448,12.559,12.559,0,0,0-11.382-8.061C658.307,171.6,562.809,172.2,467.312,172.2Z" transform="translate(-434.987 -153.31)" fill="#41146c"/>
          <rect id="Rectangle_636" data-name="Rectangle 636" width="314.852" height="196.7" transform="translate(18.061 35.386)" fill="#fff"/>
          <path id="Path_889" data-name="Path 889" d="M769.337,196.947a2.407,2.407,0,0,1,1.2,1.883v197.1l-.16.807-.457.684-.683.457-.807.16H453.176l-.807-.16a2.794,2.794,0,0,1-1.141-1.141l-.16-.807V198.83l.16-.807a2.8,2.8,0,0,1,1.141-1.141l.807-.16H768.59Zm-314.309,3.735V393.422H765.92V200.682Z" transform="translate(-434.987 -163.317)" fill="#41146c"/>
          <path id="Path_890" data-name="Path 890" d="M592.8,261.085h-90.55a3.179,3.179,0,0,1-3.18-3.179v-24a3.18,3.18,0,0,1,3.18-3.18h90.669a3.18,3.18,0,0,1,3.18,3.18v24a3.186,3.186,0,0,1-3.188,3.184" transform="translate(-451.304 -174.874)" fill="#d6d5eb"/>
          <path id="Path_891" data-name="Path 891" d="M592.8,261.085h-90.55a3.179,3.179,0,0,1-3.18-3.179v-24a3.18,3.18,0,0,1,3.18-3.18h90.669a3.18,3.18,0,0,1,3.18,3.18v24a3.186,3.186,0,0,1-3.188,3.184" transform="translate(-451.304 -174.874)" fill="rgba(255,255,255,0.3)"/>
          <path id="Path_892" data-name="Path 892" d="M539.377,183.423c1.28.085,1.466,2.428,0,2.526-2.117.046-4.235,0-6.353,0-1.28-.028-1.67-2.419-.055-2.527Q536.171,183.351,539.377,183.423Z" transform="translate(-462.466 -158.784)" fill="#41146c"/>
          <path id="Path_893" data-name="Path 893" d="M509.683,183.727c1.354.183,1.6,2.558-.118,2.635H482.6c-2.619-.117-1.315-2.581,0-2.64h26.964Z" transform="translate(-445.192 -158.898)" fill="#41146c"/>
          <path id="Path_894" data-name="Path 894" d="M453.588,533.474c1.64.18,1.44,3.106,2.3,5.277a20.068,20.068,0,0,0,7.852,9.487,1.527,1.527,0,0,1,.586,1.064c0,1.115-1.273,1.568-2.816.487a22.716,22.716,0,0,1-9.24-14.711S452.1,533.411,453.588,533.474Z" transform="translate(-435.393 -277.79)" fill="#41146c"/>
          <path id="Path_895" data-name="Path 895" d="M894.552,552.626s11.989.735,19.411-2.278a32.824,32.824,0,0,0,14.129-11.76c2.079-3,3.3-7.487,3.914-10.38a23.746,23.746,0,0,0,.51-4.941V500.722H916.675v21.085c.145,10.125-2.078,20.855-10.925,27.022-1.934,1.348-5.345,2.668-11.2,3.8" transform="translate(-585.743 -266.657)" fill="rgba(0,0,0,0.25)" style="mix-blend-mode: overlay;isolation: isolate"/>
          <path id="Path_896" data-name="Path 896" d="M683.3,628.812a1.154,1.154,0,0,1,.839.439L697.778,645.3c.589.747.365,1.074.113,1.482a1.259,1.259,0,0,1-2.039.155l-13.643-16.048a.974.974,0,0,1-.3-.9C681.954,629.3,682.26,628.746,683.3,628.812Z" transform="translate(-513.454 -310.197)" fill="#41146c"/>
          <path id="Path_897" data-name="Path 897" d="M697.477,629.653c1.366.05,2.836,2.615,4.331,4.437.746.978-.725,2.9-1.925,1.636-1.607-1.823-3.733-3.794-3.694-4.856A1.3,1.3,0,0,1,697.477,629.653Z" transform="translate(-518.312 -310.485)" fill="#41146c"/>
          <path id="Path_898" data-name="Path 898" d="M679.015,639.785a1.34,1.34,0,0,1,.866.395c2.517,2.811,4.888,5.748,7.332,8.623.8,1-.7,2.877-1.883,1.686-2.517-2.811-4.888-5.748-7.332-8.622A1.27,1.27,0,0,1,679.015,639.785Z" transform="translate(-512.032 -313.929)" fill="#41146c"/>
          <path id="Path_899" data-name="Path 899" d="M737,585.722H751.26l13.274,78.226a4.235,4.235,0,0,1-4.175,4.943h-18.2s3.725-1.934,3.51-10.315c-.137-5.375-8.811-72.853-8.811-72.853" transform="translate(-532.138 -295.551)" fill="rgba(0,0,0,0.25)" style="mix-blend-mode: overlay;isolation: isolate"/>
        </g>
        <g id="Group_57" data-name="Group 57" transform="translate(67.669 222.075)">
          <path id="Path_900" data-name="Path 900" d="M351.689,626.315c1.064.121,1.073.634,1.49,1.063a61.727,61.727,0,0,1,14.8,25.5c.405,1.4-.455,2.94-1.708,2.117a2.35,2.35,0,0,1-.721-1.415A59.3,59.3,0,0,0,350.7,628.467a1.489,1.489,0,0,1-.368-.923A1.3,1.3,0,0,1,351.689,626.315Z" transform="translate(-253.077 -416.138)" fill="#41146c"/>
          <path id="Path_901" data-name="Path 901" d="M469.805,377.257h21.389a1.119,1.119,0,0,1,.94,1.719,24.634,24.634,0,1,1,0-25.883,1.12,1.12,0,0,1-.941,1.721H469.806a3.116,3.116,0,0,0-3.116,3.116v16.211A3.115,3.115,0,0,0,469.805,377.257Z" transform="translate(-285.779 -319.287)" fill="#d6d5eb"/>
          <path id="Path_902" data-name="Path 902" d="M470.589,337.776a27.152,27.152,0,0,1,22.329,12.368c1.308,2.049.172,5.123-2.416,5.258-7.185.123-14.379-.271-21.56,0a1.04,1.04,0,0,0-.954.954q-.309,8.156,0,16.323a1.04,1.04,0,0,0,.954.953c7.15.273,14.312,0,21.466,0,2.542.044,4,3.048,2.166,5.784-7.17,10.671-22.516,14.894-34.26,9.031a26.8,26.8,0,0,1-12.966-14.361c-4.9-12.964,2-29.3,15.29-34.492A27.132,27.132,0,0,1,470.589,337.776Zm-.4,4.585a23,23,0,0,0-21.6,17.164c-3.3,13.932,9.277,29.755,25.239,27.244A22.641,22.641,0,0,0,488.281,378l-19.389-.09a5.45,5.45,0,0,1-5.146-5.146c-.07-5.519,0-11.037,0-16.556a5.435,5.435,0,0,1,5.269-5.271H487.92a21.4,21.4,0,0,0-16.762-8.581Z" transform="translate(-284.839 -318.054)" fill="#41146c"/>
          <path id="Path_903" data-name="Path 903" d="M424.958,370.552a14.4,14.4,0,0,1-.978,5.2,14.556,14.556,0,0,1-13.6,9.354l-9.884.66-29.143-.016v-.009l1.974-7.29A18.14,18.14,0,0,0,362.2,356.722l48.2.026a14.56,14.56,0,0,1,14.56,14.569" transform="translate(-257.11 -324.495)" fill="#d6d5eb"/>
          <path id="Path_904" data-name="Path 904" d="M409.171,353.22c10.72.069,19.61,12.092,15.541,22.633a17.062,17.062,0,0,1-15.4,10.7c-3.35.017-6.7-.005-10.052-.009l-29.407-.017s-2.018-.439-2.106-2.107a1.5,1.5,0,0,1,.073-.558c1.185-4.381,2.873-8.6,2.481-12.966a16.4,16.4,0,0,0-10.378-13.626s-1.58-.964-1.327-2.349a2.206,2.206,0,0,1,2.073-1.727Zm-40.99,4.394A20.766,20.766,0,0,1,373.9,377.6l-1.3,4.786c12.224.007,24.448.084,36.667.023a12.454,12.454,0,0,0-.116-24.908l-41.116-.021Z" transform="translate(-255.876 -323.296)" fill="#41146c"/>
          <path id="Path_905" data-name="Path 905" d="M424.337,378.132a4.568,4.568,0,1,0,1.752-6.219,4.568,4.568,0,0,0-1.752,6.219" transform="translate(-278.034 -329.46)" fill="#fff"/>
          <path id="Path_906" data-name="Path 906" d="M427.35,368.266c4.955.087,8.591,7.034,4.717,11.124-3.441,3.632-11.3,1.527-11.376-4.442a6.763,6.763,0,0,1,6.34-6.678C427.137,368.267,427.244,368.266,427.35,368.266Zm-.108,4.045c-1.97.038-3.434,2.886-1.645,4.458,1.57,1.379,4.793-.121,4.146-2.562A2.628,2.628,0,0,0,427.243,372.311Z" transform="translate(-276.993 -328.419)" fill="#41146c"/>
          <path id="Path_907" data-name="Path 907" d="M403.555,377.889c.958.03.954.324,1.143.726a1.306,1.306,0,0,1-1.145,1.8l-12.871-.008c-.958-.031-.954-.325-1.143-.727a1.306,1.306,0,0,1,1.145-1.8Z" transform="translate(-266.367 -331.687)" fill="#41146c"/>
          <path id="Path_908" data-name="Path 908" d="M337.664,377.424l-1.98,7.315v.008l-42.46,156.89a44.795,44.795,0,0,0-35.281-5.089c-.228.059-.447.126-.675.193l40.75-152.028,4.508-16.8a18.165,18.165,0,0,1,10.2-11.9,10.212,10.212,0,0,1,.994-.4c.017-.009.026-.009.042-.016a18.007,18.007,0,0,1,11.1-.515c.548.152,1.087.32,1.609.522.009.009.026.009.034.017A18.2,18.2,0,0,1,337.664,377.424Z" transform="translate(-221.44 -323.721)" fill="#d6d5eb"/>
          <path id="Path_909" data-name="Path 909" d="M337.664,377.424l-1.98,7.315v.008l-42.46,156.89a44.795,44.795,0,0,0-35.281-5.089c-.228.059-.447.126-.675.193l40.75-152.028,4.508-16.8a18.165,18.165,0,0,1,10.2-11.9,10.212,10.212,0,0,1,.994-.4c.017-.009.026-.009.042-.016a18.007,18.007,0,0,1,11.1-.515c.548.152,1.087.32,1.609.522.009.009.026.009.034.017A18.2,18.2,0,0,1,337.664,377.424Z" transform="translate(-221.44 -323.721)" fill="rgba(255,255,255,0.3)"/>
          <path id="Path_910" data-name="Path 910" d="M318.97,351.256c12.261.147,22.91,12.739,19.462,25.631l-1.908,7.047v-.272l-.073.55L293.991,541.1c-.394,1.054-.589,1.03-.909,1.231-1.572.993-3.834-1.03-6.218-2.175a42.657,42.657,0,0,0-30.261-2.483s-3.125.229-2.636-2.564l40.75-152.029,4.511-16.81a16.422,16.422,0,0,1,.69-2.092A20.274,20.274,0,0,1,311.309,352.7a7.36,7.36,0,0,1,1.166-.416q.73-.244,1.477-.43A20.427,20.427,0,0,1,318.97,351.256Zm-.749,4.213a15.808,15.808,0,0,0-5.407,1.024c-.316.121.671-.264-.387.138a16.341,16.341,0,0,0-9.542,10.748l-4.506,16.795L258.555,532.75a47.5,47.5,0,0,1,31.677,4.605L331.9,383.382v.272l.073-.55c1.269-4.69,3.052-9.312,2.372-13.884a16.493,16.493,0,0,0-10.269-12.71c-.239-.094-.482-.183-.728-.262-.343-.109-.689-.209-1.038-.3A16.4,16.4,0,0,0,318.221,355.469Z" transform="translate(-220.3 -322.637)" fill="#41146c"/>
          <path id="Path_911" data-name="Path 911" d="M343.465,384.834a5.352,5.352,0,1,0,2.72-7.063,5.353,5.353,0,0,0-2.72,7.063" transform="translate(-250.585 -331.493)" fill="#fff"/>
          <path id="Path_912" data-name="Path 912" d="M347.329,374.119c4.814.064,8.791,5.589,6.846,10.3-2.3,5.573-12.588,6.018-14.182-1.252A7.638,7.638,0,0,1,347.329,374.119Zm-.109,4.213a3.373,3.373,0,0,0-2.508,5.232c1.706,2.211,6.5.8,5.74-2.677A3.348,3.348,0,0,0,347.22,378.332Z" transform="translate(-249.508 -330.408)" fill="#41146c"/>
          <path id="Path_913" data-name="Path 913" d="M306.077,508.5a1.2,1.2,0,0,1,.974,1.57l-16.717,61.737a1.1,1.1,0,0,1-.629.786,1.309,1.309,0,0,1-1.811-1.447l16.716-61.737C304.914,508.532,305.126,508.38,306.077,508.5Z" transform="translate(-231.842 -376.077)" fill="#41146c"/>
          <path id="Path_914" data-name="Path 914" d="M332.59,418.177a1.324,1.324,0,0,1,1.04,1.582l-12.584,46.469c-.428,1.273-2.811,1.13-2.44-.661L331.189,419.1A1.172,1.172,0,0,1,332.59,418.177Z" transform="translate(-242.278 -345.382)" fill="#41146c"/>
          <path id="Path_915" data-name="Path 915" d="M297.177,672.624v12.6l-34.189.66h-.531l-36.486-.66h-17.9v-12.6c0-1.288.055-2.561.164-3.816a44.714,44.714,0,0,1,32.046-39.1c.228-.067.447-.135.675-.193a44.768,44.768,0,0,1,35.281,5.089c.143.084.278.169.421.261a44.13,44.13,0,0,1,7.693,6.16,44.618,44.618,0,0,1,12.926,27.783A32.287,32.287,0,0,1,297.177,672.624Z" transform="translate(-204.715 -416.691)" fill="#fff"/>
          <path id="Path_916" data-name="Path 916" d="M252.257,624.289c19.191.112,38.139,13.312,44.32,32.315a47.212,47.212,0,0,1,2.286,14.224v13.011s-.319,2-2.106,2.106l-71.464.016-17.9.009s-2-.413-2.108-2.106c0-9.643-.494-19.468,2.671-28.407A47.885,47.885,0,0,1,239,626.144,46.8,46.8,0,0,1,252.257,624.289Zm-.767,4.475c-17.355.112-34.077,11.734-39.966,28.36a42.947,42.947,0,0,0-2.43,14.22v10.673Q235.232,682,261.371,682h.531l32.34-.007c0-8.15.376-16.278-2.079-23.826-5.437-16.715-22.114-29.232-40.169-29.4Z" transform="translate(-203.761 -415.45)" fill="#41146c"/>
          <path id="Path_917" data-name="Path 917" d="M271.434,689.722h25.583c.11,1.255.16,2.528.16,3.817v12.685l-34.189.66h-.531l-36.486-.66-17.9.009V693.518c0-1.281.05-2.548.16-3.8h44.725" transform="translate(-204.715 -437.693)" fill="#ffcf91" fill-rule="evenodd"/>
          <path id="Path_918" data-name="Path 918" d="M251.159,686.738c2.011.36,2.942,3.755-.264,3.945H208.354c-.022.537-.03,1.073-.032,1.61v10.931h15.92c12.34.048,37.019.66,37.019.66l32.339-.007c0-4.178.11-8.349-.03-12.534l-23.62-.111a2.779,2.779,0,0,1-2.04-1.3,2.357,2.357,0,0,1,2.04-3.215h25.84c2.153.133,2.281,3.237,2.3,5.758v13.209s-.324,2.028-2.138,2.139l-72.557.016-18.17.009s-2.036-.419-2.14-2.139c0-5.619-.3-11.3.15-16.787a2.321,2.321,0,0,1,2.151-2.2H250.9Z" transform="translate(-202.989 -436.673)" fill="#41146c"/>
          <path id="Path_919" data-name="Path 919" d="M301.064,648.257c1.409.091,3.418,1.989,5.186,3.405a46.763,46.763,0,0,1,3.772,3.383,1.623,1.623,0,0,1,.267,1.4c-.708,1.628-3.3-.949-5.619-2.81a35.732,35.732,0,0,0-4.3-3.03A1.277,1.277,0,0,1,301.064,648.257Z" transform="translate(-235.896 -423.597)" fill="#41146c"/>
          <path id="Path_920" data-name="Path 920" d="M327.133,669.769a45.847,45.847,0,0,0-2.794-10.142,38.19,38.19,0,0,0-8.125-12.77,47.447,47.447,0,0,0-13.421-9.8s12.991,8.191,15.1,32.785Z" transform="translate(-236.916 -419.788)" style="mix-blend-mode: overlay;isolation: isolate"/>
          <rect id="Rectangle_637" data-name="Rectangle 637" width="9.241" height="12.541" transform="translate(81.241 254.01)" fill="rgba(0,0,0,0.25)" style="mix-blend-mode: overlay;isolation: isolate"/>
          <path id="Path_921" data-name="Path 921" d="M292.939,626.977a50.664,50.664,0,0,0-16.494-5.307c-6.741-1.076-15.275.718-15.275.718l1.865-6.454s17.212-4.507,31.554,5.03Z" transform="translate(-222.767 -412.247)" fill="rgba(0,0,0,0.25)" style="mix-blend-mode: overlay;isolation: isolate"/>
          <path id="Path_922" data-name="Path 922" d="M564.514,398.851H517.55a13.482,13.482,0,0,1-13.482-13.481V325.2a13.482,13.482,0,0,1,13.482-13.482h46.964A13.482,13.482,0,0,1,578,325.2V385.37A13.481,13.481,0,0,1,564.514,398.851Z" transform="translate(-305.336 -309.198)" fill="#00d4ae" fill-rule="evenodd"/>
          <path id="Path_923" data-name="Path 923" d="M563.44,307.972a16.014,16.014,0,0,1,15.387,15.386c.125,20.175,0,40.349,0,60.524a16.05,16.05,0,0,1-15.387,15.581c-15.72.1-31.441,0-47.162,0a16.045,16.045,0,0,1-15.58-15.387c-.125-20.174,0-40.349,0-60.524a16.024,16.024,0,0,1,15.387-15.58Q539.762,307.823,563.44,307.972Zm-47.147,4.212a11.652,11.652,0,0,0-11.381,11.228q-.189,30.3,0,60.612a11.664,11.664,0,0,0,11.226,11.226q23.624.152,47.248,0a11.723,11.723,0,0,0,11.227-11.226q.189-30.3,0-60.612a11.721,11.721,0,0,0-11.227-11.226C547.69,312.086,531.992,312.184,516.293,312.184Z" transform="translate(-304.172 -307.897)" fill="#41146c"/>
          <path id="Path_924" data-name="Path 924" d="M562.17,358.445H543.4a4.33,4.33,0,0,1-4.331-4.33V335.053a4.33,4.33,0,0,1,4.331-4.331h19.062a4.33,4.33,0,0,1,4.33,4.331v19.009a4.382,4.382,0,0,1-4.382,4.383" transform="translate(-317.234 -315.656)" fill="rgba(255,255,255,0.3)"/>
          <path id="Path_925" data-name="Path 925" d="M562.17,409.445H543.4a4.33,4.33,0,0,1-4.331-4.33V386.053a4.331,4.331,0,0,1,4.331-4.331h19.062a4.33,4.33,0,0,1,4.33,4.331v19.01a4.382,4.382,0,0,1-4.382,4.382" transform="translate(-317.234 -332.993)" fill="rgba(255,255,255,0.3)"/>
          <path id="Path_926" data-name="Path 926" d="M562.17,358.445H543.4a4.33,4.33,0,0,1-4.331-4.33V335.053a4.33,4.33,0,0,1,4.331-4.331h19.062a4.33,4.33,0,0,1,4.33,4.331v19.009a4.382,4.382,0,0,1-4.382,4.383" transform="translate(-317.234 -315.656)" fill="rgba(255,255,255,0.3)"/>
          <path id="Path_927" data-name="Path 927" d="M562.17,409.445H543.4a4.33,4.33,0,0,1-4.331-4.33V386.053a4.331,4.331,0,0,1,4.331-4.331h19.062a4.33,4.33,0,0,1,4.33,4.331v19.01a4.382,4.382,0,0,1-4.382,4.382" transform="translate(-317.234 -332.993)" fill="rgba(255,255,255,0.3)"/>
        </g>
        <g id="Group_58" data-name="Group 58" transform="translate(370.618 7.709)">
          <path id="Path_928" data-name="Path 928" d="M696.482,534.854a9.3,9.3,0,1,1-9.3-9.3,9.3,9.3,0,0,1,9.3,9.3" transform="translate(-667.372 -167.521)" fill="#fff"/>
          <path id="Path_929" data-name="Path 929" d="M1034.986,8.356a1.289,1.289,0,0,1,.348,2.468c-2.411.7-4.853,1.287-7.279,1.93-1.251.3-2.125-1.94-.7-2.426C1029.9,9.586,1032.46,8.349,1034.986,8.356Z" transform="translate(-785.917 8.293)" fill="#41146c"/>
          <path id="Path_930" data-name="Path 930" d="M1010.836-16.867a1.309,1.309,0,0,1,1.194,1.436c-.376,2.319-.858,4.62-1.287,6.929-.264,1.255-2.679,1.188-2.494-.4.375-2.319.857-4.62,1.287-6.929A1.3,1.3,0,0,1,1010.836-16.867Z" transform="translate(-779.67 16.868)" fill="#41146c"/>
          <path id="Path_931" data-name="Path 931" d="M1024.477-7.44a1.312,1.312,0,0,1,.921,2.093c-1.724,1.9-3.526,3.724-5.29,5.585-.9.909-2.9-.466-1.871-1.7,1.724-1.9,3.527-3.723,5.29-5.585A1.136,1.136,0,0,1,1024.477-7.44Z" transform="translate(-782.971 13.663)" fill="#41146c"/>
          <path id="Path_932" data-name="Path 932" d="M798.782,389.154H678.55a13.482,13.482,0,0,1-13.482-13.481V279.2a13.482,13.482,0,0,1,13.482-13.482H798.782A13.482,13.482,0,0,1,812.263,279.2v96.469A13.481,13.481,0,0,1,798.782,389.154Z" transform="translate(-663.014 -79.194)" fill="#00bcff" fill-rule="evenodd"/>
          <path id="Path_933" data-name="Path 933" d="M797.8,262.884a15.949,15.949,0,0,1,15.385,15.385c.212,32.2,0,64.4,0,96.605a16.044,16.044,0,0,1-15.387,15.58c-40.058.257-80.117,0-120.176,0a16.05,16.05,0,0,1-15.58-15.386c-.207-32.2,0-64.4,0-96.605a16.023,16.023,0,0,1,15.387-15.58Q737.618,262.5,797.8,262.884ZM677.643,267.1a11.7,11.7,0,0,0-11.381,11.227q-.311,48.345,0,96.692a11.715,11.715,0,0,0,11.226,11.226q60.131.385,120.262,0a11.722,11.722,0,0,0,11.226-11.226q.319-48.346,0-96.692A11.647,11.647,0,0,0,797.75,267.1C757.715,266.84,717.679,267.1,677.643,267.1Z" transform="translate(-661.957 -78.164)" fill="#41146c"/>
          <path id="Path_934" data-name="Path 934" d="M826.454,310.224h-58.3a3.081,3.081,0,0,1-3.082-3.081V296.8a3.081,3.081,0,0,1,3.081-3.081h58.525a3.081,3.081,0,0,1,3.081,3.081v10.387a3.059,3.059,0,0,1-3.085,3.033" transform="translate(-697.008 -88.712)" fill="rgba(255,255,255,0.3)"/>
          <path id="Path_935" data-name="Path 935" d="M825.134,395.729H769.823a4.755,4.755,0,0,1-4.755-4.755v-56.5a4.755,4.755,0,0,1,4.755-4.754H825a4.754,4.754,0,0,1,4.754,4.754v56.5a4.756,4.756,0,0,1-4.76,4.753" transform="translate(-697.008 -100.95)" fill="rgba(255,255,255,0.3)"/>
          <path id="Path_936" data-name="Path 936" d="M727.032,383.491H693.16a3.092,3.092,0,0,1-3.092-3.092V296.814a3.093,3.093,0,0,1,3.092-3.092h34.08a3.092,3.092,0,0,1,3.092,3.092v83.578a3.1,3.1,0,0,1-3.1,3.1" transform="translate(-671.513 -88.712)" fill="rgba(255,255,255,0.3)"/>
          <path id="Path_937" data-name="Path 937" d="M1250.132,477.361c.913.2.939.607,1.207,1.547a39.25,39.25,0,0,1-13.358,40.755c-.7.548-1.548,1.232-2.341.692a1.236,1.236,0,0,1-.04-2.061c.927-.686,1-.758,1.433-1.108a36.645,36.645,0,0,0,11.692-38.212S1248.79,477.226,1250.132,477.361Z" transform="translate(-856.776 -151.135)" fill="#41146c"/>
          <path id="Path_938" data-name="Path 938" d="M1238.145,449.657c.964.059,1.708,1.046,2.541,1.8a38.883,38.883,0,0,1,6.6,7.754,1.609,1.609,0,0,1-.1,1.5c-.622.733-1.518.618-2.432-.747a36.649,36.649,0,0,0-7.451-8.057,1.568,1.568,0,0,1-.475-1A1.207,1.207,0,0,1,1238.145,449.657Z" transform="translate(-857.378 -141.72)" fill="#41146c"/>
          <path id="Path_939" data-name="Path 939" d="M783.151,186.99v23.585H758.068V190.63a14.62,14.62,0,0,0,16.5,1.306Z" transform="translate(-694.628 -52.431)" fill="#d6d5eb"/>
          <path id="Path_940" data-name="Path 940" d="M782.3,183.859a1.961,1.961,0,0,1,1.811,2.012v23.585a1.632,1.632,0,0,1-.117.678,1.9,1.9,0,0,1-1.9,1.345h-25a1.632,1.632,0,0,1-.677-.117,1.906,1.906,0,0,1-1.344-1.906V189.511c.034-.956.242-1.026.479-1.308,1.3-1.537,3.616.612,5.811,1.544a12.765,12.765,0,0,0,11.17-.683l8.551-4.944C781.811,183.731,781.714,183.819,782.3,183.859Zm-7.721,8.8a17.154,17.154,0,0,1-15.551.6v14.265h21.122V189.459Z" transform="translate(-693.608 -51.354)" fill="#41146c"/>
          <path id="Path_941" data-name="Path 941" d="M783.4,237.9H749a2.937,2.937,0,0,1-2.937-2.937v-8.591a3.654,3.654,0,0,1,3.654-3.654h32.956a3.654,3.654,0,0,1,3.653,3.654v8.591A2.937,2.937,0,0,1,783.4,237.9Z" transform="translate(-690.549 -64.577)" fill="#ff9591" fill-rule="evenodd"/>
          <path id="Path_942" data-name="Path 942" d="M781.687,219.209a5.858,5.858,0,0,1,5.529,5.529c.073,5.774,1.4,13.584-4.83,13.821-11.529.144-23.061,0-34.592,0a5.123,5.123,0,0,1-4.945-4.832c-.057-4.591-1.128-9.935,1.566-12.762a5.811,5.811,0,0,1,3.963-1.758Q765.032,219,781.687,219.209Zm-33.151,4.043a1.691,1.691,0,0,0-1.643,1.589c-.037,2.937-.112,5.875,0,8.81a.941.941,0,0,0,.864.863q17.262.657,34.549,0a.941.941,0,0,0,.864-.863c.112-2.935.038-5.873,0-8.81a1.687,1.687,0,0,0-1.587-1.587C770.569,223.113,759.552,223.252,748.536,223.252Z" transform="translate(-689.367 -63.347)" fill="#41146c"/>
          <path id="Path_943" data-name="Path 943" d="M776.143,244.916a1.682,1.682,0,0,1,.642.139,1.9,1.9,0,0,1,1.244,1.838v11.325c-.048,2.009-3.892,2.869-3.96,0V246.894a1.672,1.672,0,0,1,.11-.648A1.748,1.748,0,0,1,776.143,244.916Z" transform="translate(-700.067 -72.121)" fill="#41146c"/>
          <path id="Path_944" data-name="Path 944" d="M894.553,69.7,779.879,135.9l-8.561,4.946a14.552,14.552,0,0,1-16.456-1.306,14.333,14.333,0,0,1-3.438-4.02,14.562,14.562,0,0,1,5.334-19.894L891.208,38c.338-.194.674-.371,1.019-.531a18.213,18.213,0,0,0-3.236,19.76Z" transform="translate(-691.706 -1.602)" fill="#d6d5eb"/>
          <path id="Path_945" data-name="Path 945" d="M894.553,69.7,779.879,135.9l-8.561,4.946a14.552,14.552,0,0,1-16.456-1.306,14.333,14.333,0,0,1-3.438-4.02,14.562,14.562,0,0,1,5.334-19.894L891.208,38c.338-.194.674-.371,1.019-.531a18.213,18.213,0,0,0-3.236,19.76Z" transform="translate(-691.706 -1.602)" fill="rgba(255,255,255,0.3)"/>
          <path id="Path_946" data-name="Path 946" d="M891.646,34.323c1.725.512,1.953,2.455.542,4.149a16.432,16.432,0,0,0-2.284,16.82l5.559,12.466c.531,1.508.341,1.845-.871,2.682-41.146,23.756-82.38,47.844-123.38,71.235-7.577,4.222-18.326,1.5-22.734-6.366a17.142,17.142,0,0,1,6.028-22.478q67.164-39.3,134.784-77.824A2.788,2.788,0,0,1,891.646,34.323ZM756.8,116.369c-7.659,4.482-8.549,17.723,1.033,22.112a12.669,12.669,0,0,0,11.307-.475c2.9-1.654,5.78-3.339,8.669-5.008L890.841,67.74c-2.286-5.127-5.266-10.24-6.21-15.3a20.526,20.526,0,0,1,.763-10.323Z" transform="translate(-690.691 -0.521)" fill="#41146c"/>
          <path id="Path_947" data-name="Path 947" d="M778.8,169.715a4.568,4.568,0,1,1-4.568-4.568,4.567,4.567,0,0,1,4.568,4.568" transform="translate(-698.571 -45.005)" fill="#fff"/>
          <path id="Path_948" data-name="Path 948" d="M773.279,162.085c5.031.1,8.714,7.307,4.462,11.359-3.785,3.607-12.028.538-11.061-5.771a6.755,6.755,0,0,1,6.345-5.587C773.109,162.085,773.194,162.083,773.279,162.085Zm-.118,4.044c-2.2.042-3.593,3.776-.956,4.892a2.546,2.546,0,1,0,.956-4.892Z" transform="translate(-697.529 -43.964)" fill="#41146c"/>
          <path id="Path_949" data-name="Path 949" d="M902.716,89.9c2.391.2,1.318,1.89.572,2.357L886.7,101.836a.98.98,0,0,1-.958.127,1.311,1.311,0,0,1-.306-2.316l16.589-9.578A1.43,1.43,0,0,1,902.716,89.9Z" transform="translate(-737.731 -19.427)" fill="#41146c"/>
          <path id="Path_950" data-name="Path 950" d="M846.956,114.271a1.3,1.3,0,0,1,.558,2.356l-42.883,24.758c-2.151,1.081-2.288-1.515-1.264-2.189l42.883-24.758A1.193,1.193,0,0,1,846.956,114.271Z" transform="translate(-709.817 -27.711)" fill="#41146c"/>
          <path id="Path_951" data-name="Path 951" d="M1070.373,599.612h-43.238v22.442h-22.442V599.612H961.248a54.709,54.709,0,0,1,109.125,0Z" transform="translate(-763.696 -175.46)" fill="#fff"/>
          <path id="Path_952" data-name="Path 952" d="M1015.248,545.516c26.2.2,50.815,20.589,55.22,47.467q.132.8.24,1.607c.373,2.762.791,5.673-1.715,5.847H1028.27v20.331a2.423,2.423,0,0,1-2.09,2.111h-22.222c-2.041-.148-2-.89-2.09-2.111V600.437H960.938a2.657,2.657,0,0,1-1.09-.31c-1.855-1.145-.867-4.068-.451-6.725,3.96-25.318,26.17-46.518,52.8-47.82C1013.213,545.533,1014.23,545.514,1015.248,545.516ZM1004.29,595.9c1.329.488,1.444.727,1.538,2.025v20.331h18.482V597.928c.15-2.061.9-2.024,2.141-2.111h41.505c-2.346-19.966-17.265-37.952-36.944-44.056a54.817,54.817,0,0,0-48.492,8.416,52.963,52.963,0,0,0-20.551,35.64h41.717A4.478,4.478,0,0,1,1004.29,595.9Z" transform="translate(-762.85 -174.306)" fill="#41146c"/>
          <path id="Path_953" data-name="Path 953" d="M1069.979,629.706v54.1H961.068v-54.1c0-1.345.042-2.663.151-3.984h43.413v22.442h22.442V625.722h42.745C1069.929,627.042,1069.979,628.361,1069.979,629.706Z" transform="translate(-763.635 -201.57)" fill="#ffcf91" fill-rule="evenodd"/>
          <path id="Path_954" data-name="Path 954" d="M1069.767,621.8c1.687.6,1.511,1.618,1.588,2.9.078,1.312.091,3.139.091,3.139v54.492a2.411,2.411,0,0,1-2.077,2.1H961.652c-2.028-.147-1.992-.886-2.078-2.1,0-18.251-.036-36.5,0-54.752.005-.959.028-1.917.083-2.874.085-1.466.3-2.851,2.144-2.978h42.156c2.091.148,2.053.89,2.141,2.111v20.331h18.482V623.825c.061-.867.176-.894.33-1.137a1.827,1.827,0,0,1,1.748-.966h42.551A4.241,4.241,0,0,1,1069.767,621.8Zm-107.2,4.545c-.019.636-.031,1.269-.031,1.9v52.22h105.812c0-17.488.038-34.977,0-52.465,0-.709-.036-1.66-.036-1.66h-39.768v20.331c-.061.87-.176.9-.332,1.142a1.837,1.837,0,0,1-1.758.969h-22.222c-.861-.062-.889-.178-1.131-.335a1.862,1.862,0,0,1-.96-1.776V626.342H962.566Z" transform="translate(-763.122 -200.211)" fill="#41146c"/>
          <path id="Path_955" data-name="Path 955" d="M1141.362,525.79l-.011.011-7.345,20.748a14.838,14.838,0,0,1-3.12,5.15l-28.44,30.611a54.6,54.6,0,0,0-45.693-49.894l49.4-33.563a27.921,27.921,0,0,0,27.914,27.914c.208,0,.427,0,.636-.011A27.762,27.762,0,0,0,1141.362,525.79Z" transform="translate(-796.161 -158.443)" fill="#d6d5eb"/>
          <path id="Path_956" data-name="Path 956" d="M1105.332,495.679a2.377,2.377,0,0,1,1.849,2.563c.005.236.005.235.013.471.626,15.383,16.7,28.217,32.537,23.96a2.547,2.547,0,0,1,1.755.308,2.21,2.21,0,0,1,.724,2.568c-3.491,6.812-4.688,14.6-7.7,21.63a17.256,17.256,0,0,1-3.163,4.865l-28.444,30.615c-1.421,1.352-3.491.269-3.747-2.493-2.243-22.793-20.5-42.937-43.83-46.756,0,0-3.328-1.9-.844-3.821l49.4-33.563A1.683,1.683,0,0,1,1105.332,495.679Zm-44.368,34.6c.283.072.566.147.849.223,20.755,5.69,37.655,23.808,41.124,45.933,8.477-9.125,17.009-18.2,25.433-27.377a13.168,13.168,0,0,0,2.568-4.3l6.106-17.248a34.947,34.947,0,0,1-11.17-.568,30.706,30.706,0,0,1-22.667-25.358Z" transform="translate(-795.077 -157.36)" fill="#41146c"/>
          <path id="Path_957" data-name="Path 957" d="M1187.424,484.477a27.912,27.912,0,0,1-20.619,26.939,27.517,27.517,0,0,1-6.657.96c-.21.017-.43.017-.64.017a27.919,27.919,0,0,1-26.779-20.063,27.905,27.905,0,0,1-.354-14.392,27.95,27.95,0,0,1,27.133-21.378c.843,0,1.669.034,2.495.11a27.915,27.915,0,0,1,25.422,27.807" transform="translate(-821.604 -144.067)" fill="#ff9591" fill-rule="evenodd"/>
          <path id="Path_958" data-name="Path 958" d="M1158.6,453.369a30.019,30.019,0,0,1,.573,60.028c-18.928.677-36.275-19.354-29.073-39.922a30.691,30.691,0,0,1,27.677-20.1Q1158.189,453.369,1158.6,453.369Zm-.357,4.214c-15.42.166-29.676,15.657-24.569,33.07A26.21,26.21,0,0,0,1158.71,509.2a24,24,0,0,0,3.644-.3c14.654-2.242,25.806-18.867,20.422-34.106a26.288,26.288,0,0,0-23.759-17.2Q1158.632,457.582,1158.244,457.583Z" transform="translate(-820.529 -142.982)" fill="#41146c"/>
          <path id="Path_959" data-name="Path 959" d="M1177.416,493.387a7.281,7.281,0,1,1-7.281-7.282,7.282,7.282,0,0,1,7.281,7.282" transform="translate(-832.229 -154.11)" fill="#fff"/>
          <path id="Path_960" data-name="Path 960" d="M1169.227,482.914c6.411.121,11.52,7.98,8.021,14.061-3.316,5.763-13.436,5.964-16.6-.6-2.673-5.545,1.5-13.329,8.34-13.458C1169.107,482.912,1169.106,482.912,1169.227,482.914Zm-.189,4.213c-3.946.075-6.806,5.694-3.546,8.877s11.2-.417,8.194-6.11A5.269,5.269,0,0,0,1169.038,487.126Z" transform="translate(-831.2 -153.025)" fill="#41146c"/>
          <path id="Path_961" data-name="Path 961" d="M1115.548,315.377a27.754,27.754,0,0,0-12.4-4.2c-.825-.076-1.651-.11-2.494-.11a27.819,27.819,0,0,0-21.545,10.187L965.592,66.673,960.03,54.2a18.2,18.2,0,1,1,33.243-14.83Z" transform="translate(-762.744 1.422)" fill="#d6d5eb"/>
          <path id="Path_962" data-name="Path 962" d="M1115.548,315.377a27.754,27.754,0,0,0-12.4-4.2c-.825-.076-1.651-.11-2.494-.11a27.819,27.819,0,0,0-21.545,10.187L965.592,66.673,960.03,54.2a18.2,18.2,0,1,1,33.243-14.83Z" transform="translate(-762.744 1.422)" fill="rgba(255,255,255,0.3)"/>
          <path id="Path_963" data-name="Path 963" d="M975.85,25.722a20.708,20.708,0,0,1,18.309,12.05l122.277,276.011.18.87-.193.867-.533.71-.78.426-.885.069-.835-.3a26.314,26.314,0,0,0-33.7,5.44l-.663.533-.819.226-.842-.115-.728-.439-.495-.69Q1019.385,194.082,962.629,66.789c-1.881-4.217-3.782-8.424-5.64-12.651a16.846,16.846,0,0,1-.91-2.539c-3.348-11.737,5.954-25.544,19.129-25.877Zm-.389,3.986c-10.38.15-19.2,11.8-14.607,22.526,1.852,4.214,3.748,8.409,5.623,12.613l112.208,251.659a30.393,30.393,0,0,1,31.469-6.6l.067.026c-39.986-90.259-79.449-180.751-119.958-270.774A16.2,16.2,0,0,0,975.46,29.708Z" transform="translate(-761.706 2.39)" fill="#41146c"/>
          <path id="Path_964" data-name="Path 964" d="M989.888,57.994a5.352,5.352,0,1,1-3.778-6.558,5.352,5.352,0,0,1,3.778,6.558" transform="translate(-769.855 -6.288)" fill="#fff"/>
          <path id="Path_965" data-name="Path 965" d="M983.714,48.06c5.778.1,10.046,8.448,4.878,13.034-4.544,4.033-14.017-.232-12.183-7.418A7.473,7.473,0,0,1,983.714,48.06Zm-.124,4.213c-2.752.057-4.537,4.727-1.3,6.2a3.247,3.247,0,1,0,1.3-6.2Z" transform="translate(-768.771 -5.204)" fill="#41146c"/>
          <path id="Path_966" data-name="Path 966" d="M1041.937,175.381a1.511,1.511,0,0,1,.942.731L1100.905,306.2a1.276,1.276,0,0,1-2.309,1.03L1040.57,177.142c-.225-.677-.112-.743-.026-.967C1040.72,175.713,1040.921,175.308,1041.937,175.381Z" transform="translate(-790.615 -48.481)" fill="#41146c"/>
          <path id="Path_967" data-name="Path 967" d="M1003.761,89.907c.673.11.728.175,1.023.742l19.611,43.967c.944,2.5-1.7,2.205-2.308,1.03l-19.611-43.967A1.3,1.3,0,0,1,1003.761,89.907Z" transform="translate(-777.681 -19.428)" fill="#41146c"/>
          <path id="Path_968" data-name="Path 968" d="M1138.173,530.329c.65.061.728.246.9.455a1.215,1.215,0,0,1-.1,1.717l-17.892,17.238c-.716.64-.89.434-1.316.275a1.306,1.306,0,0,1-.438-2.1l17.892-17.239A1.055,1.055,0,0,1,1138.173,530.329Z" transform="translate(-817.314 -169.142)" fill="#41146c"/>
          <path id="Path_969" data-name="Path 969" d="M1066.075,570.109c1.774.139,4.728,1.953,7.333,3.574a43.887,43.887,0,0,1,7.729,6.139,1.638,1.638,0,0,1,.36,1.082c-.165,1.114-1.274,1.545-2.7.165a41.322,41.322,0,0,0-13.249-8.522s-.852-.509-.793-1.273C1064.81,570.617,1065.082,570.1,1066.075,570.109Z" transform="translate(-798.882 -182.666)" fill="#41146c"/>
          <path id="Path_970" data-name="Path 970" d="M1048.2,689.722h21.782v15.842H961.068V689.722h63.366" transform="translate(-763.635 -223.326)" fill="#7f77bf" fill-rule="evenodd"/>
          <path id="Path_971" data-name="Path 971" d="M1069.177,686.8c1.229.459,1.335.683,1.422,1.9v16.376c-.147,2.057-.888,2.02-2.108,2.106H959.177c-.869-.062-.9-.178-1.141-.335a1.854,1.854,0,0,1-.968-1.772V688.7c.063-.816.178-.842.335-1.071a1.879,1.879,0,0,1,1.772-.91h63.364c2.16.145,2.776,3.774,0,3.96H961.688v11.881h104.95V690.682h-18.851c-2-.143-2.762-3.763,0-3.96h20.832A4.074,4.074,0,0,1,1069.177,686.8Z" transform="translate(-762.275 -222.306)" fill="#41146c"/>
          <rect id="Rectangle_638" data-name="Rectangle 638" width="11.881" height="38.284" transform="translate(292.483 426.132)" fill="rgba(0,0,0,0.25)" style="mix-blend-mode: overlay;isolation: isolate"/>
          <rect id="Rectangle_639" data-name="Rectangle 639" width="11.881" height="11.881" transform="translate(292.483 468.376)" fill="rgba(0,0,0,0.25)" style="mix-blend-mode: overlay;isolation: isolate"/>
          <path id="Path_972" data-name="Path 972" d="M1109.144,601.557c-.108-4.356-2.636-11.94-3.335-13.554a57.5,57.5,0,0,0-8.337-13.984c-5.378-6.616-13.931-11.618-13.931-11.618s14.14,8.764,14.253,39.156Z" transform="translate(-805.267 -180.045)" style="mix-blend-mode: overlay;isolation: isolate"/>
          <path id="Path_973" data-name="Path 973" d="M1184.005,509.942c1.434,0,11.389-4.4,15.49-14.343s2.009-17.929-3.443-25.817-16.494-9.753-16.494-9.753,16.655,10.933,15.777,26.534a32.5,32.5,0,0,1-11.331,23.379" transform="translate(-837.907 -145.246)" fill="rgba(0,0,0,0.25)" style="mix-blend-mode: overlay;isolation: isolate"/>
          <path id="Path_974" data-name="Path 974" d="M1106.709,590.4c.431-1.29-3.141-17.857-15.114-30.423a56.894,56.894,0,0,0-26.766-15.6l10.363-7.153s35.336,14.467,39.263,45.143Z" transform="translate(-798.907 -171.487)" fill="rgba(0,0,0,0.25)" style="mix-blend-mode: overlay;isolation: isolate"/>
        </g>
        <g id="Line" transform="translate(0 488.447)">
          <path id="Path_975" data-name="Path 975" d="M1234.068,714.718l28.383-.008" transform="translate(-485.819 -712.559)" fill="#ebe9f2"/>
          <path id="Path_976" data-name="Path 976" d="M1261.044,711.716c1.367.149,1.321.488,1.62,1.071a2.053,2.053,0,0,1-1.763,2.892l-26.749.008c-2.069-.075-2.86-3.863,0-3.968l26.749-.008Z" transform="translate(-485.215 -711.539)" fill="#41146c"/>
          <path id="Path_977" data-name="Path 977" d="M853.136,711.451l.843.253a2.6,2.6,0,0,1,1,1.024l.161.792-.16.792-.457.672-.683.449-.806.157-689.313.179-.807-.157a2.77,2.77,0,0,1-1.141-1.119l-.16-.792.16-.793.456-.671.683-.449.807-.158Z" transform="translate(-121.253 -711.451)" fill="#41146c"/>
          <path id="Path_978" data-name="Path 978" d="M127.64,711.727a1.527,1.527,0,0,1,1.334.651,2.046,2.046,0,0,1-1.471,3.3H102.426a1.629,1.629,0,0,1-1.56-.761,2.007,2.007,0,0,1,1.56-3.2H127.5Z" transform="translate(-100.47 -711.543)" fill="#41146c"/>
          <path id="Path_979" data-name="Path 979" d="M290.466,714.722h.034l-.009.017C290.483,714.731,290.475,714.731,290.466,714.722Z" transform="translate(-165.056 -712.563)" fill="#d6d5eb"/>
          <path id="Path_980" data-name="Path 980" d="M289.437,711.785a2.115,2.115,0,1,1-1.088,3.935s-1.453-1.28-.9-2.629A2.183,2.183,0,0,1,289.437,711.785Zm-1.881,1.177,1.853,3,1.292-3.706Zm.627,2.651c.063.046.257.195-.036-.03l-.026-.019C288.142,715.582,288.163,715.6,288.183,715.613Zm2.243-3.558a2.062,2.062,0,0,1,.186.114l.032.023S290.4,712.042,290.426,712.055Z" transform="translate(-163.988 -711.565)" fill="#41146c"/>
        </g>
      </g>
    </g>
  </g>
</svg>
