<svg xmlns="http://www.w3.org/2000/svg" width="17.5" height="13.944" viewBox="0 0 17.5 13.944">
  <g id="Group_5023" data-name="Group 5023" transform="translate(-67.509 -979.322)">
    <g id="Rectangle_933" data-name="Rectangle 933">
      <path id="Path_3572" data-name="Path 3572" d="M85.009,993.266h-17.5v-11.18h17.5Zm-16-1.5h14.5v-8.18h-14.5Z" fill="#737b88"/>
    </g>
    <g id="Line_131" data-name="Line 131">
      <path id="Path_3573" data-name="Path 3573" d="M80.426,993.266a.75.75,0,0,1-.75-.75v-9.68a.75.75,0,0,1,1.5,0v9.68A.75.75,0,0,1,80.426,993.266Z" fill="#737b88"/>
    </g>
    <g id="Line_132" data-name="Line 132">
      <path id="Path_3574" data-name="Path 3574" d="M72.092,993.266a.75.75,0,0,1-.75-.75v-9.68a.75.75,0,0,1,1.5,0v9.68A.75.75,0,0,1,72.092,993.266Z" fill="#737b88"/>
    </g>
    <g id="Rectangle_934" data-name="Rectangle 934">
      <path id="Path_3575" data-name="Path 3575" d="M80,983.586H72.517v-4.264H80Zm-5.985-1.5H78.5v-1.264H74.017Z" fill="#737b88"/>
    </g>
  </g>
</svg>
