<svg xmlns="http://www.w3.org/2000/svg" viewBox="0 0 32 42"><defs><style>.cls-1{fill:#ff8018;}.cls-2{opacity:0.25;}.cls-3{fill:#fff;}</style></defs><g id="Layer_2" data-name="Layer 2"><g id="Layer_1-2" data-name="Layer 1"><g id="doc"><g id="Path_2708" data-name="Path 2708"><path class="cls-1" d="M0,2.56A2.48,2.48,0,0,1,2.59,0H21.41L32,9V39.44A2.48,2.48,0,0,1,29.41,42H2.59A2.48,2.48,0,0,1,0,39.44H0Z"/></g><g id="Path_2709" data-name="Path 2709" class="cls-2"><path class="cls-3" d="M21.41,0V6.4A2.47,2.47,0,0,0,24,9h8"/></g></g><path class="cls-3" d="M10.28,32l2.65-8.48h2.3L17.88,32h-2l-.52-2H12.75l-.52,2Zm3.07-4.29-.21.78H15l-.2-.78c-.12-.42-.24-.88-.35-1.35s-.22-.94-.34-1.38H14c-.1.45-.21.91-.32,1.38S13.47,27.29,13.35,27.71Z"/><path class="cls-3" d="M18.81,32V23.52h1.91V32Z"/></g></g></svg>