<svg xmlns="http://www.w3.org/2000/svg" viewBox="0 0 32 42"><defs><style>.cls-1{fill:#e50c54;}.cls-2{opacity:0.25;}.cls-3{fill:#fff;}</style></defs><g id="Layer_2" data-name="Layer 2"><g id="Layer_1-2" data-name="Layer 1"><g id="doc"><g id="Path_2708" data-name="Path 2708"><path class="cls-1" d="M0,2.56A2.48,2.48,0,0,1,2.59,0H21.41L32,9V39.44A2.48,2.48,0,0,1,29.41,42H2.59A2.48,2.48,0,0,1,0,39.44H0Z"/></g><g id="Path_2709" data-name="Path 2709" class="cls-2"><path class="cls-3" d="M21.41,0V6.4A2.47,2.47,0,0,0,24,9h8"/></g></g><path id="Icon_material-audiotrack" data-name="Icon material-audiotrack" class="cls-3" d="M15.62,18v7.22A3.33,3.33,0,0,0,14.45,25a3.5,3.5,0,1,0,3.46,3.89h0V20.33h3.11V18Z"/></g></g></svg>