<svg xmlns="http://www.w3.org/2000/svg" viewBox="0 0 32 42"><defs><style>.cls-1{fill:#5153ff;}.cls-2{opacity:0.25;}.cls-3{fill:#fff;}</style></defs><g id="Layer_2" data-name="Layer 2"><g id="Layer_1-2" data-name="Layer 1"><g id="doc"><g id="Path_2708" data-name="Path 2708"><path class="cls-1" d="M0,2.56A2.48,2.48,0,0,1,2.59,0H21.41L32,9V39.44A2.48,2.48,0,0,1,29.41,42H2.59A2.48,2.48,0,0,1,0,39.44H0Z"/></g><g id="Path_2709" data-name="Path 2709" class="cls-2"><path class="cls-3" d="M21.41,0V6.4A2.47,2.47,0,0,0,24,9h8"/></g></g><path class="cls-3" d="M9.75,32.16a4.23,4.23,0,0,1-1.52-.28A3.55,3.55,0,0,1,7,31.05a3.89,3.89,0,0,1-.85-1.36,5.74,5.74,0,0,1,0-3.75A4.27,4.27,0,0,1,7,24.54a3.73,3.73,0,0,1,1.28-.87,3.94,3.94,0,0,1,1.53-.3,3.18,3.18,0,0,1,1.47.33,4.26,4.26,0,0,1,1.08.77l-1,1.23a3.12,3.12,0,0,0-.69-.49A1.67,1.67,0,0,0,9.85,25a1.75,1.75,0,0,0-.81.19,1.72,1.72,0,0,0-.66.54,2.59,2.59,0,0,0-.45.86,3.92,3.92,0,0,0-.16,1.14,3.27,3.27,0,0,0,.56,2,1.79,1.79,0,0,0,1.5.72,1.87,1.87,0,0,0,.92-.22,2.71,2.71,0,0,0,.73-.57l1,1.2A3.44,3.44,0,0,1,9.75,32.16Z"/><path class="cls-3" d="M16,32.16a4.87,4.87,0,0,1-1.66-.31,4.19,4.19,0,0,1-1.47-.92L14,29.62a4.22,4.22,0,0,0,1,.64,2.68,2.68,0,0,0,1.08.24,1.44,1.44,0,0,0,.89-.22.68.68,0,0,0,.3-.59.62.62,0,0,0-.09-.34.88.88,0,0,0-.25-.26,2,2,0,0,0-.39-.2l-.5-.22-1.1-.47a3.16,3.16,0,0,1-.63-.33,2.58,2.58,0,0,1-.55-.49,2.1,2.1,0,0,1-.38-.65,2.25,2.25,0,0,1-.14-.84,2.2,2.2,0,0,1,.22-1,2.31,2.31,0,0,1,.62-.81,3,3,0,0,1,1-.54,3.57,3.57,0,0,1,1.21-.19,3.91,3.91,0,0,1,1.46.28,3.53,3.53,0,0,1,1.27.84L18,25.7a3.78,3.78,0,0,0-.84-.51,2.43,2.43,0,0,0-.92-.17,1.42,1.42,0,0,0-.79.2.65.65,0,0,0-.29.57.52.52,0,0,0,.1.33.91.91,0,0,0,.27.24,2.25,2.25,0,0,0,.41.21l.51.22,1.09.44a3,3,0,0,1,1.23.86,2.18,2.18,0,0,1,.45,1.44,2.33,2.33,0,0,1-.22,1,2.48,2.48,0,0,1-.62.83,3,3,0,0,1-1,.57A4.06,4.06,0,0,1,16,32.16Z"/><path class="cls-3" d="M22.11,32l-2.56-8.48h2l1,4c.13.46.25.92.35,1.35s.21.89.34,1.36h0c.12-.47.24-.92.34-1.36s.22-.89.34-1.35l1-4H27L24.41,32Z"/></g></g></svg>