<svg xmlns="http://www.w3.org/2000/svg" viewBox="0 0 32 42"><defs><style>.cls-1{fill:#2180bc;}.cls-2{opacity:0.25;}.cls-3{fill:#fff;}</style></defs><g id="Layer_2" data-name="Layer 2"><g id="Layer_1-2" data-name="Layer 1"><g id="doc"><g id="Path_2708" data-name="Path 2708"><path class="cls-1" d="M0,2.56A2.48,2.48,0,0,1,2.59,0H21.41L32,9V39.44A2.48,2.48,0,0,1,29.41,42H2.59A2.48,2.48,0,0,1,0,39.44H0Z"/></g><g id="Path_2709" data-name="Path 2709" class="cls-2"><path class="cls-3" d="M21.41,0V6.4A2.47,2.47,0,0,0,24,9h8"/></g></g><path class="cls-3" d="M4.68,32V23.52h2.4a5.91,5.91,0,0,1,1.75.25,3.61,3.61,0,0,1,1.34.76A3.37,3.37,0,0,1,11,25.84a5.33,5.33,0,0,1,.3,1.88,5.45,5.45,0,0,1-.3,1.9,3.43,3.43,0,0,1-2.15,2.12,5.37,5.37,0,0,1-1.7.26Zm1.91-1.55H7a3.12,3.12,0,0,0,1-.14,1.93,1.93,0,0,0,.75-.46A2.15,2.15,0,0,0,9.19,29a4,4,0,0,0,.17-1.29,3.84,3.84,0,0,0-.17-1.26,2,2,0,0,0-.49-.82A1.78,1.78,0,0,0,8,25.2a3.44,3.44,0,0,0-1-.13H6.59Z"/><path class="cls-3" d="M16.38,32.16a4,4,0,0,1-1.56-.31A3.35,3.35,0,0,1,13.6,31a3.84,3.84,0,0,1-.78-1.39,6.28,6.28,0,0,1,0-3.71,3.63,3.63,0,0,1,.78-1.36,3.4,3.4,0,0,1,1.22-.85,4.37,4.37,0,0,1,3.13,0,3.49,3.49,0,0,1,1.22.85A3.9,3.9,0,0,1,20,25.88a6.25,6.25,0,0,1,0,3.7A4,4,0,0,1,19.17,31a3.44,3.44,0,0,1-1.22.88A4,4,0,0,1,16.38,32.16Zm0-1.66a1.58,1.58,0,0,0,1.38-.74,3.58,3.58,0,0,0,.51-2,3.39,3.39,0,0,0-.51-2A1.62,1.62,0,0,0,16.38,25a1.59,1.59,0,0,0-1.37.71,3.39,3.39,0,0,0-.51,2,3.58,3.58,0,0,0,.51,2A1.55,1.55,0,0,0,16.38,30.5Z"/><path class="cls-3" d="M25.37,32.16a4.23,4.23,0,0,1-1.52-.28,3.55,3.55,0,0,1-1.26-.83,3.89,3.89,0,0,1-.85-1.36,5.74,5.74,0,0,1,0-3.75,4.27,4.27,0,0,1,.87-1.4,3.73,3.73,0,0,1,1.28-.87,3.94,3.94,0,0,1,1.53-.3,3.18,3.18,0,0,1,1.47.33,4.26,4.26,0,0,1,1.08.77L27,25.7a3.12,3.12,0,0,0-.69-.49,1.67,1.67,0,0,0-.81-.19,1.87,1.87,0,0,0-1.47.73,2.59,2.59,0,0,0-.45.86,3.92,3.92,0,0,0-.16,1.14,3.27,3.27,0,0,0,.56,2,1.79,1.79,0,0,0,1.5.72,1.87,1.87,0,0,0,.92-.22,2.71,2.71,0,0,0,.73-.57l1,1.2A3.45,3.45,0,0,1,25.37,32.16Z"/></g></g></svg>