<svg xmlns="http://www.w3.org/2000/svg" width="14.762" height="19.683" viewBox="0 0 14.762 19.683">
  <g id="doc" transform="translate(-60.235)">
    <path id="Path_2708" data-name="Path 2708" d="M60.235,1.181A1.181,1.181,0,0,1,61.416,0h8.661L75,4.133V18.5a1.181,1.181,0,0,1-1.181,1.181h-12.4A1.181,1.181,0,0,1,60.235,18.5Z" transform="translate(0)" fill="#2180bc"/>
    <path id="Path_2709" data-name="Path 2709" d="M301.176,0V2.952a1.181,1.181,0,0,0,1.181,1.181h3.74" transform="translate(-231.099)" fill="#3298d8"/>
    <g id="Group_933" data-name="Group 933" transform="translate(62.394 9.52)">
      <path id="Path_2710" data-name="Path 2710" d="M114.249,240.062h-1.157V235.8h1.083c1.1,0,2.141.351,2.141,2.111C116.316,239.644,115.313,240.062,114.249,240.062Zm.074-3.525h-.209v2.787h.209c.56,0,.935-.3.935-1.415C115.258,236.771,114.858,236.537,114.323,236.537Z" transform="translate(-113.092 -235.688)" fill="#fff"/>
      <path id="Path_2711" data-name="Path 2711" d="M200.788,237.574c-1.12,0-1.711-.855-1.711-2.239,0-1.354.591-2.24,1.711-2.24s1.71.855,1.71,2.24C202.5,236.688,201.907,237.574,200.788,237.574Zm0-3.735c-.474,0-.664.449-.664,1.5s.2,1.495.664,1.495c.486,0,.664-.461.664-1.495S201.261,233.84,200.788,233.84Z" transform="translate(-195.565 -233.095)" fill="#fff"/>
      <path id="Path_2712" data-name="Path 2712" d="M293.961,234.143a1.215,1.215,0,0,0-.806-.308c-.584,0-1,.437-1,1.477,0,1.021.394,1.458.979,1.458a1.418,1.418,0,0,0,.923-.357l.461.59a2.013,2.013,0,0,1-1.452.554c-1.175,0-1.975-.781-1.975-2.246a1.991,1.991,0,0,1,1.994-2.233,2.035,2.035,0,0,1,1.378.474Z" transform="translate(-283.818 -233.078)" fill="#fff"/>
    </g>
  </g>
</svg>
