<?xml version="1.0" encoding="utf-8"?>
<!-- Generator: Adobe Illustrator 24.1.2, SVG Export Plug-In . SVG Version: 6.00 Build 0)  -->
<svg version="1.1" id="Layer_1" xmlns="http://www.w3.org/2000/svg" xmlns:xlink="http://www.w3.org/1999/xlink" x="0px" y="0px"
	 viewBox="0 0 14.8 19.7" style="enable-background:new 0 0 14.8 19.7;" xml:space="preserve">
<style type="text/css">
	.st0{fill:#295497;}
	.st1{fill:#FFFFFF;fill-opacity:0.3;}
	.st2{fill:#FFFFFF;}
</style>
<g id="doc" transform="translate(-60.235)">
	<path id="Path_2708" class="st0" d="M60.2,1.2c0-0.7,0.5-1.2,1.2-1.2h8.7L75,4.1v14.4c0,0.7-0.5,1.2-1.2,1.2H61.4
		c-0.7,0-1.2-0.5-1.2-1.2c0,0,0,0,0,0V1.2z"/>
	<path id="Path_2709" class="st1" d="M70.1,0v3c0,0.7,0.5,1.2,1.2,1.2H75"/>
</g>
<g>
	<path class="st2" d="M4,12.1c0,0.9-0.6,1.5-1.5,1.5H1.4v-2.9h1.1C3.4,10.6,4,11.2,4,12.1z M2.4,12.9c0.5,0,0.9-0.3,0.9-0.8
		c0-0.5-0.3-0.9-0.9-0.9H2.1v1.7H2.4z"/>
	<path class="st2" d="M5.8,13.5c-0.8,0-1.5-0.6-1.5-1.5s0.7-1.5,1.5-1.5c0.8,0,1.5,0.6,1.5,1.5S6.7,13.5,5.8,13.5z M5.8,12.9
		c0.5,0,0.8-0.3,0.8-0.9c0-0.5-0.3-0.9-0.8-0.9C5.3,11.2,5,11.5,5,12C5,12.6,5.3,12.9,5.8,12.9z"/>
	<path class="st2" d="M9.1,10.6c0.7,0,1.2,0.4,1.4,1H9.7c-0.1-0.3-0.3-0.4-0.6-0.4c-0.4,0-0.7,0.3-0.7,0.8s0.3,0.8,0.7,0.8
		c0.3,0,0.5-0.1,0.6-0.4h0.8c-0.2,0.6-0.7,1-1.4,1c-0.9,0-1.5-0.6-1.5-1.5S8.2,10.6,9.1,10.6z"/>
	<path class="st2" d="M12.1,12.6l-0.5,0.9h-0.8l0.9-1.5l-1-1.4h0.8l0.6,0.9l0.5-0.9h0.8l-0.9,1.5l1,1.5h-0.8L12.1,12.6z"/>
</g>
</svg>
