<svg xmlns="http://www.w3.org/2000/svg" viewBox="0 0 32 42"><defs><style>.cls-1{fill:#295497;}.cls-2{opacity:0.25;}.cls-3{fill:#fff;}</style></defs><g id="Layer_2" data-name="Layer 2"><g id="Layer_1-2" data-name="Layer 1"><g id="doc"><g id="Path_2708" data-name="Path 2708"><path class="cls-1" d="M0,2.56A2.48,2.48,0,0,1,2.59,0H21.41L32,9V39.44A2.48,2.48,0,0,1,29.41,42H2.59A2.48,2.48,0,0,1,0,39.44H0Z"/></g><g id="Path_2709" data-name="Path 2709" class="cls-2"><path class="cls-3" d="M21.41,0V6.4A2.47,2.47,0,0,0,24,9h8"/></g></g><path class="cls-3" d="M3.36,32V24.83h2A4.92,4.92,0,0,1,6.87,25,3,3,0,0,1,8,25.68a2.78,2.78,0,0,1,.72,1.11A4.41,4.41,0,0,1,9,28.38,4.61,4.61,0,0,1,8.72,30,2.8,2.8,0,0,1,8,31.11a3,3,0,0,1-1.11.67A4.29,4.29,0,0,1,5.47,32ZM5,30.69h.31a2.75,2.75,0,0,0,.84-.12,1.56,1.56,0,0,0,.64-.39,2,2,0,0,0,.41-.71,3.41,3.41,0,0,0,.15-1.09,3.32,3.32,0,0,0-.15-1.07,1.78,1.78,0,0,0-.41-.69,1.42,1.42,0,0,0-.64-.37,2.76,2.76,0,0,0-.84-.11H5Z"/><path class="cls-3" d="M13.26,32.13a3.19,3.19,0,0,1-1.33-.26,2.92,2.92,0,0,1-1-.74A3.29,3.29,0,0,1,10.24,30a5.26,5.26,0,0,1,0-3.14,3.24,3.24,0,0,1,.66-1.15,3,3,0,0,1,1-.72,3.78,3.78,0,0,1,2.65,0,3,3,0,0,1,1,.72,3.4,3.4,0,0,1,.67,1.16,5.44,5.44,0,0,1,0,3.13,3.31,3.31,0,0,1-.67,1.18,2.92,2.92,0,0,1-1,.74A3.18,3.18,0,0,1,13.26,32.13Zm0-1.39a1.33,1.33,0,0,0,1.16-.64,3,3,0,0,0,.43-1.72,2.82,2.82,0,0,0-.43-1.68,1.33,1.33,0,0,0-1.16-.61,1.35,1.35,0,0,0-1.17.61,2.82,2.82,0,0,0-.43,1.68,3,3,0,0,0,.43,1.72A1.35,1.35,0,0,0,13.26,30.74Z"/><path class="cls-3" d="M20.86,32.13a3.65,3.65,0,0,1-1.29-.23,3.09,3.09,0,0,1-1.78-1.85,4.73,4.73,0,0,1,0-3.18,3.44,3.44,0,0,1,.74-1.18A2.94,2.94,0,0,1,19.61,25a3.42,3.42,0,0,1,1.3-.25,2.7,2.7,0,0,1,1.25.28,3.31,3.31,0,0,1,.91.65l-.86,1a2.84,2.84,0,0,0-.58-.42,1.51,1.51,0,0,0-.68-.16,1.59,1.59,0,0,0-.69.16,1.56,1.56,0,0,0-.56.46,2.24,2.24,0,0,0-.38.72,3.25,3.25,0,0,0-.13,1,2.71,2.71,0,0,0,.47,1.72,1.51,1.51,0,0,0,1.26.62,1.57,1.57,0,0,0,.79-.2,2.59,2.59,0,0,0,.61-.48l.86,1A2.92,2.92,0,0,1,20.86,32.13Z"/><path class="cls-3" d="M23.45,32l2-3.68-1.87-3.49h1.81L26,26.18c.09.17.17.35.25.53l.27.63h.05c.08-.23.16-.44.23-.63l.23-.53.57-1.35h1.73l-1.86,3.56,2,3.61H27.64l-.71-1.46c-.09-.19-.18-.38-.26-.57s-.18-.39-.28-.61h0c-.08.22-.17.42-.25.61l-.24.57L25.19,32Z"/></g></g></svg>