<svg xmlns="http://www.w3.org/2000/svg" viewBox="0 0 32 42"><defs><style>.cls-1{fill:#ffa600;}.cls-2{opacity:0.25;}.cls-3{fill:#fff;}</style></defs><g id="Layer_2" data-name="Layer 2"><g id="Layer_1-2" data-name="Layer 1"><g id="doc"><g id="Path_2708" data-name="Path 2708"><path class="cls-1" d="M0,2.56A2.48,2.48,0,0,1,2.59,0H21.41L32,9V39.44A2.48,2.48,0,0,1,29.41,42H2.59A2.48,2.48,0,0,1,0,39.44H0Z"/></g><g id="Path_2709" data-name="Path 2709" class="cls-2"><path class="cls-3" d="M21.41,0V6.4A2.47,2.47,0,0,0,24,9h8"/></g></g><path class="cls-3" d="M6.06,32V23.52h5.3v1.62H8v1.7h2.88v1.6H8v1.95h3.52V32Z"/><path class="cls-3" d="M13.18,32V23.52h2.91a6.14,6.14,0,0,1,1.32.14,2.83,2.83,0,0,1,1.06.46,2.27,2.27,0,0,1,.72.84,2.8,2.8,0,0,1,.27,1.29,2.86,2.86,0,0,1-.27,1.29,2.56,2.56,0,0,1-.72.9,3,3,0,0,1-1,.52,4.83,4.83,0,0,1-1.28.17H15.09V32Zm1.91-4.39H16c1,0,1.56-.45,1.56-1.36a1,1,0,0,0-.42-.93A2.19,2.19,0,0,0,16,25h-.88Z"/><path class="cls-3" d="M23.38,32.16a4.82,4.82,0,0,1-1.65-.31,4.33,4.33,0,0,1-1.48-.92l1.09-1.31a4.43,4.43,0,0,0,1,.64,2.72,2.72,0,0,0,1.09.24,1.46,1.46,0,0,0,.89-.22.7.7,0,0,0,.29-.59.71.71,0,0,0-.08-.34.88.88,0,0,0-.25-.26,2.36,2.36,0,0,0-.39-.2l-.5-.22-1.11-.47a3.81,3.81,0,0,1-.63-.33,2.79,2.79,0,0,1-.54-.49,2.34,2.34,0,0,1-.39-.65,2.47,2.47,0,0,1-.14-.84,2.2,2.2,0,0,1,.22-1,2.47,2.47,0,0,1,.63-.81,2.84,2.84,0,0,1,.95-.54,3.63,3.63,0,0,1,1.22-.19,3.94,3.94,0,0,1,1.46.28,3.71,3.71,0,0,1,1.27.84l-1,1.21a3.72,3.72,0,0,0-.83-.51,2.51,2.51,0,0,0-.92-.17,1.4,1.4,0,0,0-.79.2.65.65,0,0,0-.29.57.52.52,0,0,0,.1.33.8.8,0,0,0,.27.24,1.74,1.74,0,0,0,.41.21l.5.22,1.1.44a2.86,2.86,0,0,1,1.22.86,2.18,2.18,0,0,1,.45,1.44,2.47,2.47,0,0,1-.21,1,2.38,2.38,0,0,1-.63.83,2.94,2.94,0,0,1-1,.57A4.08,4.08,0,0,1,23.38,32.16Z"/></g></g></svg>