<svg xmlns="http://www.w3.org/2000/svg" viewBox="0 0 32 42"><defs><style>.cls-1{fill:#2a66bc;}.cls-2{opacity:0.25;}.cls-3{fill:#fff;}</style></defs><g id="Layer_2" data-name="Layer 2"><g id="Layer_1-2" data-name="Layer 1"><g id="doc"><g id="Path_2708" data-name="Path 2708"><path class="cls-1" d="M0,2.56A2.48,2.48,0,0,1,2.59,0H21.41L32,9V39.44A2.48,2.48,0,0,1,29.41,42H2.59A2.48,2.48,0,0,1,0,39.44H0Z"/></g><g id="Path_2709" data-name="Path 2709" class="cls-2"><path class="cls-3" d="M21.41,0V6.4A2.47,2.47,0,0,0,24,9h8"/></g></g><path class="cls-3" d="M6.23,32V23.52h5.31v1.62H8.14v1.7H11v1.6H8.14v1.95h3.53V32Z"/><path class="cls-3" d="M12.5,32l2.35-4.36-2.21-4.12h2.13l.74,1.6c.1.2.19.41.29.63s.2.47.32.74h.06c.09-.27.19-.52.28-.74l.26-.63.68-1.6h2l-2.2,4.22L19.58,32H17.45l-.84-1.73c-.11-.22-.21-.45-.31-.67L16,28.88h-.05c-.1.26-.19.5-.29.72l-.28.67L14.55,32Z"/><path class="cls-3" d="M20.73,32V23.52H26v1.62H22.64v1.7h2.88v1.6H22.64v1.95h3.52V32Z"/></g></g></svg>