<?xml version="1.0" encoding="utf-8"?>
<!-- Generator: Adobe Illustrator 25.2.3, SVG Export Plug-In . SVG Version: 6.00 Build 0)  -->
<svg version="1.1" id="Layer_1" xmlns="http://www.w3.org/2000/svg" xmlns:xlink="http://www.w3.org/1999/xlink" x="0px" y="0px"
	 viewBox="0 0 30 30" style="enable-background:new 0 0 30 30;" xml:space="preserve">
<style type="text/css">
	.st0{fill:#2E0302;}
	.st1{opacity:0.2;fill:#5D5D5D;enable-background:new    ;}
	.st2{opacity:0.4;fill:#FFFFFF;}
	.st3{fill:#0086D3;}
	.st4{fill:#FFFFFF;}
	.st5{fill:#008200;}
	.st6{fill:#13569D;}
	.st7{fill:#E28D30;}
	.st8{fill:#EC3F14;}
	.st9{fill:#AFAFAF;}
	.st10{fill:#008A97;}
	.st11{fill:#00B96C;}
	.st12{fill:#572BAE;}
	.st13{fill:#E24C3F;}
	.st14{fill:#E23508;}
	.st15{fill:#071D34;}
	.st16{fill:#7F0071;}
	.st17{fill:#3549B3;}
	.st18{fill:#5B9C8F;}
	.st19{fill:#0E439C;}
	.st20{fill:#FF6D5D;}
	.st21{fill:#FB3A2F;}
	.st22{fill:#007E3A;}
	.st23{fill:#FF7300;}
	.st24{fill:#400735;}
	.st25{fill:#FF4535;}
	.st26{fill:#4167E0;}
</style>
<g>
	<g>
		<path class="st9" d="M30,25.3c0,2.6-2.1,4.7-4.7,4.7H4.7C2.1,30,0,27.9,0,25.3V6.1L6.1,0h19.2C27.9,0,30,2.1,30,4.7V25.3z"/>
		<polygon class="st1" points="0,9.4 0,6.1 3.3,6.1 		"/>
		<path class="st2" d="M0,6.1h4.1c1.1,0,2-0.9,2-2V0L0,6.1z"/>
	</g>
</g>
<g>
	<g>
		<g>
			<path class="st4" d="M23.9,12.3c-0.8-0.8-2-1.6-3.5-2.3c0.2-2-1-4-3-4.6s-4.1,0.3-5.1,2.2c-1.6-0.2-3-0.2-4.1,0
				C6.6,7.8,6,8.5,5.9,9c-0.3,1,0.5,2.2,2.2,3.4c0.5,0.4,1.1,0.7,1.8,1.1c0.3,0.9,0.7,1.7,1.4,2.4c0.7,0.8,1.6,1.3,2.6,1.6
				c1,0.3,2,0.3,3,0.1c0.9-0.2,1.8-0.7,2.5-1.3c0.7,0.1,1.4,0.1,2.1,0.1c2.1-0.1,3.4-0.6,3.7-1.6C25.2,14.3,25.1,13.4,23.9,12.3z
				 M12.8,8.5L12.8,8.5c0.6-1.9,2.5-2.9,4.4-2.3c1.9,0.6,2.9,2.5,2.3,4.4l-0.4,1.3c0,0.1-0.2,0.2-0.3,0.2c-2.2-0.1-4.4-0.7-6.3-1.9
				c-0.1-0.1-0.2-0.2-0.1-0.4L12.8,8.5L12.8,8.5z M14,16.8c-1.4-0.4-2.6-1.5-3.2-2.8c1.1,0.5,2.3,1,3.6,1.4c1.3,0.4,2.5,0.7,3.7,0.9
				C16.9,17,15.4,17.2,14,16.8z M21.3,15.7c-0.6,0-1.3,0-2.1-0.1c0,0,0,0-0.1,0c-1.4-0.2-2.9-0.5-4.5-1c-1.6-0.5-3-1.1-4.3-1.7
				c0,0,0,0-0.1,0c-0.7-0.3-1.3-0.7-1.8-1.1c-1.4-1-2.1-1.9-1.9-2.5c0.2-0.8,2-1.4,5.4-0.9l-0.4,1.3c-0.1,0.5,0.1,1,0.5,1.3
				c1,0.6,2.1,1.1,3.2,1.4c1.1,0.3,2.3,0.5,3.5,0.6c0.5,0,1-0.3,1.1-0.8l0.4-1.3c3.1,1.5,4.2,3,4,3.8C24.1,15.2,23,15.6,21.3,15.7z"
				/>
		</g>
	</g>
	<g>
		<g>
			<path class="st4" d="M10.4,15.5c-0.2-0.1-0.4-0.1-0.5,0.1L5,22c-0.1,0.2-0.1,0.4,0.1,0.5c0,0,0.1,0.1,0.1,0.1
				c0.2,0,0.3,0,0.4-0.1l4.9-6.4C10.6,15.9,10.6,15.7,10.4,15.5z"/>
		</g>
	</g>
	<g>
		<g>
			<path class="st4" d="M18.6,26.1l-0.5-8c0-0.2-0.2-0.4-0.4-0.4c-0.2,0-0.4,0.2-0.4,0.4l0.5,8c0,0.2,0.1,0.3,0.3,0.3
				c0,0,0.1,0,0.1,0C18.4,26.5,18.6,26.3,18.6,26.1z"/>
		</g>
	</g>
	<g>
		<g>
			<path class="st4" d="M13.5,18.4c-0.2-0.1-0.4,0.1-0.5,0.3l-0.9,2.9c-0.1,0.2,0.1,0.4,0.3,0.5c0.2,0.1,0.4-0.1,0.5-0.3l0.9-2.9
				C13.8,18.7,13.7,18.5,13.5,18.4z"/>
		</g>
	</g>
</g>
</svg>
