<svg xmlns="http://www.w3.org/2000/svg" viewBox="0 0 32 42">
  <defs>
    <style>.cls-1{fill:#9ca6af;}.cls-2{opacity:0.25;}.cls-3{fill:#fff;}</style>
  </defs>
  <g id="Layer_2" data-name="Layer 2">
    <g id="Layer_1-2" data-name="Layer 1">
      <g id="doc">
        <g id="Path_2708" data-name="Path 2708">
          <path class="cls-1" d="M0,2.56A2.48,2.48,0,0,1,2.59,0H21.41L32,9V39.44A2.48,2.48,0,0,1,29.41,42H2.59A2.48,2.48,0,0,1,0,39.44H0Z" />
        </g>
        <g id="Path_2709" data-name="Path 2709" class="cls-2">
          <path class="cls-3" d="M21.41,0V6.4A2.47,2.47,0,0,0,24,9h8" />
        </g>
      </g>
      <path class="cls-3" d="M11.28,32.16a4.87,4.87,0,0,1-1.64-.28,3.63,3.63,0,0,1-2.19-2.19,5,5,0,0,1-.32-1.88,5.2,5.2,0,0,1,.32-1.87,4.15,4.15,0,0,1,.89-1.4,3.89,3.89,0,0,1,1.32-.87,4.33,4.33,0,0,1,1.6-.3,3.39,3.39,0,0,1,1.59.34,4.13,4.13,0,0,1,1.08.76l-1,1.23a3.49,3.49,0,0,0-.69-.49,1.94,1.94,0,0,0-.91-.19,2.12,2.12,0,0,0-.91.19,2,2,0,0,0-.71.54,2.61,2.61,0,0,0-.46.86,3.92,3.92,0,0,0-.16,1.14,3.15,3.15,0,0,0,.59,2,2.19,2.19,0,0,0,1.79.72,2.22,2.22,0,0,0,.51-.06,1.06,1.06,0,0,0,.4-.19V28.79H11V27.23h3.09v3.9a3.5,3.5,0,0,1-1.17.73A4.21,4.21,0,0,1,11.28,32.16Z" />
      <path class="cls-3" d="M15.83,32V23.52h1.91V32Z" />
      <path class="cls-3" d="M19.74,32V23.52h5.34v1.62H21.65v2h2.94v1.61H21.65V32Z" />
    </g>
  </g>
</svg>