<?xml version="1.0" encoding="utf-8"?>
<!-- Generator: Adobe Illustrator 24.1.2, SVG Export Plug-In . SVG Version: 6.00 Build 0)  -->
<svg version="1.1" id="Layer_1" xmlns="http://www.w3.org/2000/svg" xmlns:xlink="http://www.w3.org/1999/xlink" x="0px" y="0px"
	 viewBox="0 0 14.8 19.7" style="enable-background:new 0 0 14.8 19.7;" xml:space="preserve">
<style type="text/css">
	.st0{fill:#E54D26;}
	.st1{fill:#FFFFFF;fill-opacity:0.25;}
	.st2{fill:#FFFFFF;}
</style>
<g id="doc" transform="translate(-60.235)">
	<path id="Path_2708" class="st0" d="M60.2,1.2c0-0.7,0.5-1.2,1.2-1.2h8.7L75,4.1v14.4c0,0.7-0.5,1.2-1.2,1.2H61.4
		c-0.7,0-1.2-0.5-1.2-1.2c0,0,0,0,0,0V1.2z"/>
	<path id="Path_2709" class="st1" d="M70.1,0v3c0,0.7,0.5,1.2,1.2,1.2H75"/>
</g>
<g>
	<path class="st2" d="M3.8,12.3H2.7v1.2H2v-2.9h0.7v1.1h1.1v-1.1h0.7v2.9H3.8V12.3z"/>
	<path class="st2" d="M4.9,10.6h2.2v0.6H6.4v2.3H5.7v-2.3H4.9V10.6z"/>
	<path class="st2" d="M7.5,10.6h0.8l0.8,2l0.8-2h0.8v2.9h-0.7v-1.7l-0.6,1.7H8.8l-0.7-1.7v1.7H7.5V10.6z"/>
	<path class="st2" d="M12,10.6v2.4h0.9v0.5h-1.6v-2.9H12z"/>
</g>
</svg>
