<svg xmlns="http://www.w3.org/2000/svg" viewBox="0 0 32 42"><defs><style>.cls-1{fill:#e54d26;}.cls-2{opacity:0.25;}.cls-3{fill:#fff;}</style></defs><g id="Layer_2" data-name="Layer 2"><g id="Layer_1-2" data-name="Layer 1"><g id="doc"><g id="Path_2708" data-name="Path 2708"><path class="cls-1" d="M0,2.56A2.48,2.48,0,0,1,2.59,0H21.41L32,9V39.44A2.48,2.48,0,0,1,29.41,42H2.59A2.48,2.48,0,0,1,0,39.44H0Z"/></g><g id="Path_2709" data-name="Path 2709" class="cls-2"><path class="cls-3" d="M21.41,0V6.4A2.47,2.47,0,0,0,24,9h8"/></g></g><path class="cls-3" d="M3.08,32V24.83H4.7v2.76H7.17V24.83H8.8V32H7.17V29H4.7v3Z"/><path class="cls-3" d="M11.89,32V26.19h-2V24.83h5.57v1.36h-2V32Z"/><path class="cls-3" d="M16.61,32V24.83h1.77L19.54,28l.21.65c.06.23.13.45.21.67h0c.07-.22.14-.44.2-.67s.13-.44.21-.65l1.13-3.19H23.3V32H21.83V29.37c0-.17,0-.37,0-.58s0-.43,0-.65.05-.42.07-.63,0-.4.07-.58H22l-.58,1.7-1,2.74h-.89l-1-2.74-.57-1.7h0c0,.18,0,.37.07.58s0,.42.07.63,0,.44.05.65,0,.41,0,.58V32Z"/><path class="cls-3" d="M25,32V24.83h1.62v5.81h2.84V32Z"/></g></g></svg>