<svg xmlns="http://www.w3.org/2000/svg" viewBox="0 0 32 42"><defs><style>.cls-1{fill:#999393;}.cls-2{opacity:0.25;}.cls-3{fill:#fff;}</style></defs><g id="Layer_2" data-name="Layer 2"><g id="Layer_1-2" data-name="Layer 1"><g id="doc"><g id="Path_2708" data-name="Path 2708"><path class="cls-1" d="M0,2.56A2.48,2.48,0,0,1,2.59,0H21.41L32,9V39.44A2.48,2.48,0,0,1,29.41,42H2.59A2.48,2.48,0,0,1,0,39.44H0Z"/></g><g id="Path_2709" data-name="Path 2709" class="cls-2"><path class="cls-3" d="M21.41,0V6.4A2.47,2.47,0,0,0,24,9h8"/></g></g><path class="cls-3" d="M5.32,32V23.52H7.23v6.87h3.35V32Z"/><path class="cls-3" d="M15,32.16a4,4,0,0,1-1.57-.31A3.44,3.44,0,0,1,12.24,31a4,4,0,0,1-.78-1.39,6.28,6.28,0,0,1,0-3.71,3.77,3.77,0,0,1,.78-1.36,3.49,3.49,0,0,1,1.22-.85,4.37,4.37,0,0,1,3.13,0,3.4,3.4,0,0,1,1.22.85,3.92,3.92,0,0,1,.79,1.37,6.47,6.47,0,0,1,0,3.7A4,4,0,0,1,17.81,31a3.35,3.35,0,0,1-1.22.88A4,4,0,0,1,15,32.16Zm0-1.66a1.55,1.55,0,0,0,1.37-.74,3.58,3.58,0,0,0,.51-2,3.39,3.39,0,0,0-.51-2A1.59,1.59,0,0,0,15,25a1.62,1.62,0,0,0-1.38.71,3.39,3.39,0,0,0-.51,2,3.58,3.58,0,0,0,.51,2A1.58,1.58,0,0,0,15,30.5Z"/><path class="cls-3" d="M24.22,32.16a4.81,4.81,0,0,1-1.63-.28,3.61,3.61,0,0,1-1.32-.83,3.68,3.68,0,0,1-.88-1.36,5.18,5.18,0,0,1-.32-1.88,5,5,0,0,1,.33-1.87,3.86,3.86,0,0,1,.89-1.4,3.71,3.71,0,0,1,1.32-.87,4.24,4.24,0,0,1,1.59-.3,3.39,3.39,0,0,1,1.59.34,4.13,4.13,0,0,1,1.08.76l-1,1.23a3.49,3.49,0,0,0-.69-.49,1.92,1.92,0,0,0-.91-.19,2,2,0,0,0-.9.19,1.87,1.87,0,0,0-.71.54,2.29,2.29,0,0,0-.46.86A3.6,3.6,0,0,0,22,27.75a3.15,3.15,0,0,0,.59,2,2.19,2.19,0,0,0,1.79.72,2.16,2.16,0,0,0,.51-.06,1.06,1.06,0,0,0,.4-.19V28.79h-1.4V27.23H27v3.9a3.5,3.5,0,0,1-1.17.73A4.18,4.18,0,0,1,24.22,32.16Z"/></g></g></svg>