<svg xmlns="http://www.w3.org/2000/svg" viewBox="0 0 32 42"><defs><style>.cls-1{fill:#f55656;}.cls-2{opacity:0.25;}.cls-3{fill:#fff;}</style></defs><g id="Layer_2" data-name="Layer 2"><g id="Layer_1-2" data-name="Layer 1"><g id="doc"><g id="Path_2708" data-name="Path 2708"><path class="cls-1" d="M0,2.56A2.48,2.48,0,0,1,2.59,0H21.41L32,9V39.44A2.48,2.48,0,0,1,29.41,42H2.59A2.48,2.48,0,0,1,0,39.44H0Z"/></g><g id="Path_2709" data-name="Path 2709" class="cls-2"><path class="cls-3" d="M21.41,0V6.4A2.47,2.47,0,0,0,24,9h8"/></g></g><path class="cls-3" d="M5.63,32V23.52H8.54a6.14,6.14,0,0,1,1.32.14,2.76,2.76,0,0,1,1.06.46,2.21,2.21,0,0,1,.73.84,2.93,2.93,0,0,1,.26,1.29,3,3,0,0,1-.26,1.29,2.48,2.48,0,0,1-.73.9A3,3,0,0,1,9.87,29a4.75,4.75,0,0,1-1.27.17H7.54V32Zm1.91-4.39h.94c1,0,1.56-.45,1.56-1.36a1,1,0,0,0-.42-.93A2.15,2.15,0,0,0,8.43,25H7.54Z"/><path class="cls-3" d="M13.38,32V23.52h2.39a6,6,0,0,1,1.76.25,3.69,3.69,0,0,1,1.34.76,3.37,3.37,0,0,1,.86,1.31A5.58,5.58,0,0,1,20,27.72a5.71,5.71,0,0,1-.29,1.9A3.54,3.54,0,0,1,18.88,31a3.41,3.41,0,0,1-1.31.79,5.26,5.26,0,0,1-1.69.26Zm1.91-1.55h.37a3,3,0,0,0,1-.14,1.9,1.9,0,0,0,.76-.46,2.15,2.15,0,0,0,.49-.84,4.34,4.34,0,0,0,.17-1.29,4.13,4.13,0,0,0-.17-1.26,2,2,0,0,0-.49-.82,1.75,1.75,0,0,0-.76-.44,3.32,3.32,0,0,0-1-.13h-.37Z"/><path class="cls-3" d="M21.64,32V23.52H27v1.62H23.55v2h2.94v1.61H23.55V32Z"/></g></g></svg>