<?xml version="1.0" encoding="utf-8"?>
<!-- Generator: Adobe Illustrator 24.1.2, SVG Export Plug-In . SVG Version: 6.00 Build 0)  -->
<svg version="1.1" id="Layer_1" xmlns="http://www.w3.org/2000/svg" xmlns:xlink="http://www.w3.org/1999/xlink" x="0px" y="0px"
	 viewBox="0 0 14.8 19.7" style="enable-background:new 0 0 14.8 19.7;" xml:space="preserve">
<style type="text/css">
	.st0{fill:#CC492F;}
	.st1{fill:#FFFFFF;fill-opacity:0.3;}
	.st2{fill:#FFFFFF;}
</style>
<g id="doc" transform="translate(-60.235)">
	<path id="Path_2708" class="st0" d="M60.2,1.2c0-0.7,0.5-1.2,1.2-1.2h8.7L75,4.1v14.4c0,0.7-0.5,1.2-1.2,1.2H61.4
		c-0.7,0-1.2-0.5-1.2-1.2c0,0,0,0,0,0V1.2z"/>
	<path id="Path_2709" class="st1" d="M70.1,0v3c0,0.7,0.5,1.2,1.2,1.2H75"/>
</g>
<g>
	<path class="st2" d="M4.1,12.6H3.5v1.4h-1v-4h1.6c1,0,1.5,0.6,1.5,1.3C5.5,12,5.1,12.6,4.1,12.6z M4,11.8c0.4,0,0.6-0.2,0.6-0.5
		S4.4,10.8,4,10.8H3.5v1H4z"/>
	<path class="st2" d="M7.6,12.6H7v1.4h-1v-4h1.6c1,0,1.5,0.6,1.5,1.3C9.1,12,8.6,12.6,7.6,12.6z M7.6,11.8c0.4,0,0.6-0.2,0.6-0.5
		s-0.2-0.5-0.6-0.5H7v1H7.6z"/>
	<path class="st2" d="M9.4,10.1h3.1v0.8h-1.1v3.2h-1v-3.2H9.4V10.1z"/>
</g>
</svg>
