<svg xmlns="http://www.w3.org/2000/svg" viewBox="0 0 32 42"><defs><style>.cls-1{fill:#cc492f;}.cls-2{opacity:0.25;}.cls-3{fill:#fff;}</style></defs><g id="Layer_2" data-name="Layer 2"><g id="Layer_1-2" data-name="Layer 1"><g id="doc"><g id="Path_2708" data-name="Path 2708"><path class="cls-1" d="M0,2.56A2.48,2.48,0,0,1,2.59,0H21.41L32,9V39.44A2.48,2.48,0,0,1,29.41,42H2.59A2.48,2.48,0,0,1,0,39.44H0Z"/></g><g id="Path_2709" data-name="Path 2709" class="cls-2"><path class="cls-3" d="M21.41,0V6.4A2.47,2.47,0,0,0,24,9h8"/></g></g><path class="cls-3" d="M5.77,32V23.52H8.68a6,6,0,0,1,1.31.14,2.8,2.8,0,0,1,1.07.46,2.27,2.27,0,0,1,.72.84,2.8,2.8,0,0,1,.27,1.29,2.86,2.86,0,0,1-.27,1.29,2.56,2.56,0,0,1-.72.9A3,3,0,0,1,10,29a4.83,4.83,0,0,1-1.28.17H7.68V32Zm1.91-4.39h.94c1,0,1.56-.45,1.56-1.36a1,1,0,0,0-.42-.93A2.22,2.22,0,0,0,8.56,25H7.68Z"/><path class="cls-3" d="M13.52,32V23.52h2.91a6,6,0,0,1,1.31.14,2.87,2.87,0,0,1,1.07.46,2.27,2.27,0,0,1,.72.84,2.8,2.8,0,0,1,.27,1.29,2.86,2.86,0,0,1-.27,1.29,2.56,2.56,0,0,1-.72.9,3.18,3.18,0,0,1-1.06.52,4.7,4.7,0,0,1-1.27.17H15.43V32Zm1.91-4.39h.93c1,0,1.56-.45,1.56-1.36a1,1,0,0,0-.41-.93,2.22,2.22,0,0,0-1.2-.28h-.88Z"/><path class="cls-3" d="M22.73,32V25.14H20.41V23.52H27v1.62H24.66V32Z"/></g></g></svg>