<?xml version="1.0" encoding="utf-8"?>
<!-- Generator: Adobe Illustrator 24.1.2, SVG Export Plug-In . SVG Version: 6.00 Build 0)  -->
<svg version="1.1" id="Layer_1" xmlns="http://www.w3.org/2000/svg" xmlns:xlink="http://www.w3.org/1999/xlink" x="0px" y="0px"
	 viewBox="0 0 14.8 19.7" style="enable-background:new 0 0 14.8 19.7;" xml:space="preserve">
<style type="text/css">
	.st0{fill:#30B030;}
	.st1{fill:#FFFFFF;fill-opacity:0.3;}
	.st2{fill:#FFFFFF;}
</style>
<g id="doc" transform="translate(-60.235)">
	<path id="Path_2708" class="st0" d="M60.2,1.2c0-0.7,0.5-1.2,1.2-1.2h8.7L75,4.1v14.4c0,0.7-0.5,1.2-1.2,1.2H61.4
		c-0.7,0-1.2-0.5-1.2-1.2l0,0V1.2z"/>
	<path id="Path_2709" class="st1" d="M70.1,0v3c0,0.7,0.5,1.2,1.2,1.2H75"/>
</g>
<g>
	<path class="st2" d="M2.8,12.5H2.3v1.2H1.4v-3.4h1.4c0.8,0,1.3,0.5,1.3,1.1C4,12,3.7,12.5,2.8,12.5z M2.7,11.8
		c0.3,0,0.5-0.2,0.5-0.4S3,11,2.7,11H2.3v0.9H2.7z"/>
	<path class="st2" d="M5.8,12.5H5.3v1.2H4.5v-3.4h1.4c0.8,0,1.3,0.5,1.3,1.1C7.1,12,6.7,12.5,5.8,12.5z M5.8,11.8
		c0.3,0,0.5-0.2,0.5-0.4S6.1,11,5.8,11H5.3v0.9H5.8z"/>
	<path class="st2" d="M7.4,10.3H10v0.7H9.1v2.8H8.3v-2.8H7.4V10.3z"/>
	<path class="st2" d="M11.9,12.7l-0.6,1.1h-1l1.1-1.8l-1.1-1.7h1l0.7,1l0.6-1h1L12.4,12l1.1,1.7h-1L11.9,12.7z"/>
</g>
</svg>
