<svg xmlns="http://www.w3.org/2000/svg" viewBox="0 0 32 42"><defs><style>.cls-1{fill:#cc492f;}.cls-2{opacity:0.25;}.cls-3{fill:#fff;}</style></defs><g id="Layer_2" data-name="Layer 2"><g id="Layer_1-2" data-name="Layer 1"><g id="doc"><g id="Path_2708" data-name="Path 2708"><path class="cls-1" d="M0,2.56A2.48,2.48,0,0,1,2.59,0H21.41L32,9V39.44A2.48,2.48,0,0,1,29.41,42H2.59A2.48,2.48,0,0,1,0,39.44H0Z"/></g><g id="Path_2709" data-name="Path 2709" class="cls-2"><path class="cls-3" d="M21.41,0V6.4A2.47,2.47,0,0,0,24,9h8"/></g></g><path class="cls-3" d="M4.34,32V24.83H6.8a5.67,5.67,0,0,1,1.12.11,2.62,2.62,0,0,1,.9.39,2,2,0,0,1,.61.71,2.84,2.84,0,0,1,0,2.19,2.18,2.18,0,0,1-.61.76,3,3,0,0,1-.89.44,4.2,4.2,0,0,1-1.08.14H6V32ZM6,28.28h.79q1.32,0,1.32-1.14a.87.87,0,0,0-.35-.79,1.8,1.8,0,0,0-1-.23H6Z"/><path class="cls-3" d="M10.9,32V24.83h2.46a5.49,5.49,0,0,1,1.11.11,2.46,2.46,0,0,1,.9.39A1.91,1.91,0,0,1,16,26a2.72,2.72,0,0,1,0,2.19,2.08,2.08,0,0,1-.61.76,2.75,2.75,0,0,1-.89.44,4.07,4.07,0,0,1-1.07.14h-.9V32Zm1.61-3.72h.8q1.32,0,1.32-1.14a.85.85,0,0,0-.36-.79,1.78,1.78,0,0,0-1-.23h-.75Z"/><path class="cls-3" d="M18.7,32V26.19h-2V24.83h5.56v1.36h-2V32Z"/><path class="cls-3" d="M22.47,32l2-3.68-1.87-3.49h1.8L25,26.18l.24.53c.08.19.18.4.28.63h0q.12-.35.24-.63c.08-.18.15-.36.22-.53l.58-1.35h1.72l-1.86,3.56,2,3.61h-1.8L26,30.54c-.09-.19-.18-.38-.26-.57l-.28-.61h-.05c-.08.22-.16.42-.24.61l-.24.57L24.21,32Z"/></g></g></svg>