<svg xmlns="http://www.w3.org/2000/svg" viewBox="0 0 32 42"><defs><style>.cls-1{fill:#d44c58;}.cls-2{opacity:0.25;}.cls-3{fill:#fff;}</style></defs><g id="Layer_2" data-name="Layer 2"><g id="Layer_1-2" data-name="Layer 1"><g id="doc"><g id="Path_2708" data-name="Path 2708"><path class="cls-1" d="M0,2.56A2.48,2.48,0,0,1,2.59,0H21.41L32,9V39.44A2.48,2.48,0,0,1,29.41,42H2.59A2.48,2.48,0,0,1,0,39.44H0Z"/></g><g id="Path_2709" data-name="Path 2709" class="cls-2"><path class="cls-3" d="M21.41,0V6.4A2.47,2.47,0,0,0,24,9h8"/></g></g><path class="cls-3" d="M5.4,32V23.52h3a6.35,6.35,0,0,1,1.27.13,2.92,2.92,0,0,1,1,.44,2.15,2.15,0,0,1,.71.81,2.8,2.8,0,0,1,.26,1.26,2.69,2.69,0,0,1-.41,1.54,2.51,2.51,0,0,1-1.1.91L12.13,32H10L8.36,29h-1V32Zm1.91-4.58h1a1.83,1.83,0,0,0,1.15-.31,1.17,1.17,0,0,0,.39-.95,1,1,0,0,0-.39-.87A2.26,2.26,0,0,0,8.3,25h-1Z"/><path class="cls-3" d="M12.18,32l2.66-8.48h2.3L19.79,32h-2l-.52-2H14.65l-.52,2Zm3.07-4.29-.21.78h1.81l-.19-.78c-.12-.42-.24-.88-.35-1.35L16,25h-.05c-.11.45-.21.91-.32,1.38S15.37,27.29,15.25,27.71Z"/><path class="cls-3" d="M20.71,32V23.52h3.06a6.43,6.43,0,0,1,1.27.13,3.09,3.09,0,0,1,1,.44,2.13,2.13,0,0,1,.7.81A2.8,2.8,0,0,1,27,26.16a2.69,2.69,0,0,1-.41,1.54,2.45,2.45,0,0,1-1.1.91L27.45,32H25.3L23.68,29H22.62V32Zm1.91-4.58h1a1.81,1.81,0,0,0,1.15-.31,1.14,1.14,0,0,0,.4-.95.94.94,0,0,0-.4-.87A2.23,2.23,0,0,0,23.61,25h-1Z"/></g></g></svg>