<?xml version="1.0" encoding="utf-8"?>
<!-- Generator: Adobe Illustrator 24.1.2, SVG Export Plug-In . SVG Version: 6.00 Build 0)  -->
<svg version="1.1" id="Layer_1" xmlns="http://www.w3.org/2000/svg" xmlns:xlink="http://www.w3.org/1999/xlink" x="0px" y="0px"
	 viewBox="0 0 14.8 19.7" style="enable-background:new 0 0 14.8 19.7;" xml:space="preserve">
<style type="text/css">
	.st0{fill:#D44C58;}
	.st1{fill:#FFFFFF;fill-opacity:0.25;}
	.st2{fill:#FFFFFF;}
</style>
<g id="doc" transform="translate(-60.235)">
	<path id="Path_2708" class="st0" d="M60.2,1.2c0-0.7,0.5-1.2,1.2-1.2h8.7L75,4.1v14.4c0,0.7-0.5,1.2-1.2,1.2H61.4
		c-0.7,0-1.2-0.5-1.2-1.2c0,0,0,0,0,0V1.2z"/>
	<path id="Path_2709" class="st1" d="M70.1,0v3c0,0.7,0.5,1.2,1.2,1.2H75"/>
</g>
<g>
	<path class="st2" d="M4.6,10.6c0.7,0,1.1,0.4,1.1,0.9c0,0.4-0.2,0.7-0.7,0.8l0.7,1.2H4.9l-0.6-1.1H4.1v1.1H3.4v-2.9H4.6z M4.5,11.1
		H4.1v0.7h0.4c0.3,0,0.4-0.1,0.4-0.4C4.9,11.3,4.8,11.1,4.5,11.1z"/>
	<path class="st2" d="M7.9,13H6.8l-0.2,0.5H5.9L7,10.6h0.8l1.1,2.9H8.1L7.9,13z M7.4,11.3L7,12.4h0.7L7.4,11.3z"/>
	<path class="st2" d="M10.4,10.6c0.7,0,1.1,0.4,1.1,0.9c0,0.4-0.2,0.7-0.7,0.8l0.7,1.2h-0.8l-0.6-1.1H9.9v1.1H9.2v-2.9H10.4z
		 M10.3,11.1H9.9v0.7h0.4c0.3,0,0.4-0.1,0.4-0.4C10.7,11.3,10.6,11.1,10.3,11.1z"/>
</g>
</svg>
