<svg xmlns="http://www.w3.org/2000/svg" viewBox="0 0 32 42"><defs><style>.cls-1{fill:#ad1e33;}.cls-2{opacity:0.25;}.cls-3{fill:#fff;}</style></defs><g id="Layer_2" data-name="Layer 2"><g id="Layer_1-2" data-name="Layer 1"><g id="doc"><g id="Path_2708" data-name="Path 2708"><path class="cls-1" d="M0,2.56A2.48,2.48,0,0,1,2.59,0H21.41L32,9V39.44A2.48,2.48,0,0,1,29.41,42H2.59A2.48,2.48,0,0,1,0,39.44H0Z"/></g><g id="Path_2709" data-name="Path 2709" class="cls-2"><path class="cls-3" d="M21.41,0V6.4A2.47,2.47,0,0,0,24,9h8"/></g></g><path class="cls-3" d="M6.15,32V23.52H9.21a6.43,6.43,0,0,1,1.27.13,3.09,3.09,0,0,1,1,.44,2.13,2.13,0,0,1,.7.81,2.8,2.8,0,0,1,.26,1.26,2.69,2.69,0,0,1-.41,1.54,2.45,2.45,0,0,1-1.1.91L12.89,32H10.74L9.12,29H8.06V32Zm1.91-4.58h1a1.81,1.81,0,0,0,1.15-.31,1.14,1.14,0,0,0,.4-.95.94.94,0,0,0-.4-.87A2.23,2.23,0,0,0,9.05,25h-1Z"/><path class="cls-3" d="M15.54,32V25.14H13.21V23.52h6.58v1.62H17.46V32Z"/><path class="cls-3" d="M21.12,32V23.52h5.34v1.62H23v2H26v1.61H23V32Z"/></g></g></svg>