<svg xmlns="http://www.w3.org/2000/svg" viewBox="0 0 32 42"><defs><style>.cls-1{fill:#f7454c;}.cls-2{opacity:0.25;}.cls-3{fill:#fff;}</style></defs><g id="Layer_2" data-name="Layer 2"><g id="Layer_1-2" data-name="Layer 1"><g id="doc"><g id="Path_2708" data-name="Path 2708"><path class="cls-1" d="M0,2.56A2.48,2.48,0,0,1,2.59,0H21.41L32,9V39.44A2.48,2.48,0,0,1,29.41,42H2.59A2.48,2.48,0,0,1,0,39.44H0Z"/></g><g id="Path_2709" data-name="Path 2709" class="cls-2"><path class="cls-3" d="M21.41,0V6.4A2.47,2.47,0,0,0,24,9h8"/></g></g><path class="cls-3" d="M6.31,32V25.14H4V23.52h6.58v1.62H8.23V32Z"/><path class="cls-3" d="M11.89,32V23.52H13.8V32Z"/><path class="cls-3" d="M15.8,32V23.52h5.34v1.62H17.71v2h2.94v1.61H17.71V32Z"/><path class="cls-3" d="M22.61,32V23.52H28v1.62H24.52v2h2.94v1.61H24.52V32Z"/></g></g></svg>