<?xml version="1.0" encoding="utf-8"?>
<!-- Generator: Adobe Illustrator 24.1.2, SVG Export Plug-In . SVG Version: 6.00 Build 0)  -->
<svg version="1.1" id="Layer_1" xmlns="http://www.w3.org/2000/svg" xmlns:xlink="http://www.w3.org/1999/xlink" x="0px" y="0px"
	 viewBox="0 0 14.8 19.7" style="enable-background:new 0 0 14.8 19.7;" xml:space="preserve">
<style type="text/css">
	.st0{fill:#14AAF5;}
	.st1{fill:#FFFFFF;fill-opacity:0.25;}
	.st2{display:none;}
	.st3{display:inline;fill:#FFFFFF;}
	.st4{fill:#FFFFFF;}
</style>
<g id="doc" transform="translate(-60.235)">
	<path id="Path_2708" class="st0" d="M60.2,1.2c0-0.7,0.5-1.2,1.2-1.2h8.7L75,4.1v14.4c0,0.7-0.5,1.2-1.2,1.2H61.4
		c-0.7,0-1.2-0.5-1.2-1.2c0,0,0,0,0,0V1.2z"/>
	<path id="Path_2709" class="st1" d="M70.1,0v3c0,0.7,0.5,1.2,1.2,1.2H75"/>
	<g id="Group_933" transform="translate(62.394 9.52)" class="st2">
		<path id="Path_2710" class="st3" d="M1.2,4.4H0V0.1h1.1c1.1,0,2.1,0.4,2.1,2.1C3.2,4,2.2,4.4,1.2,4.4z M1.2,0.8H1v2.8h0.2
			c0.6,0,0.9-0.3,0.9-1.4C2.2,1.1,1.8,0.8,1.2,0.8z"/>
		<path id="Path_2711" class="st3" d="M5.2,4.5c-1.1,0-1.7-0.9-1.7-2.2C3.5,0.9,4.1,0,5.2,0s1.7,0.9,1.7,2.2
			C6.9,3.6,6.3,4.5,5.2,4.5z M5.2,0.7c-0.5,0-0.7,0.4-0.7,1.5s0.2,1.5,0.7,1.5c0.5,0,0.7-0.5,0.7-1.5S5.7,0.7,5.2,0.7L5.2,0.7z"/>
		<path id="Path_2712" class="st3" d="M10.1,1.1C9.9,0.9,9.6,0.8,9.3,0.8c-0.6,0-1,0.4-1,1.5c0,1,0.4,1.5,1,1.5
			c0.3,0,0.7-0.1,0.9-0.4l0.5,0.6c-0.4,0.4-0.9,0.6-1.5,0.6c-1.2,0-2-0.8-2-2.2C7.1,1.1,7.9,0.1,9,0c0.1,0,0.2,0,0.3,0
			c0.5,0,1,0.2,1.4,0.5L10.1,1.1z"/>
	</g>
</g>
<g>
	<path class="st4" d="M2.5,9.9h2.8v0.7h-1v3H3.5v-3h-1V9.9z"/>
	<path class="st4" d="M7.3,12.5l-0.7,1.1h-1l1.2-1.9L5.6,9.9h1l0.7,1.1l0.6-1.1h1l-1.2,1.9l1.2,1.8h-1L7.3,12.5z"/>
	<path class="st4" d="M9.4,9.9h2.8v0.7h-1v3h-0.9v-3h-1V9.9z"/>
</g>
</svg>
