<svg xmlns="http://www.w3.org/2000/svg" viewBox="0 0 32 42"><defs><style>.cls-1{fill:#3d814f;}.cls-2{opacity:0.25;}.cls-3{fill:#fff;}</style></defs><g id="Layer_2" data-name="Layer 2"><g id="Layer_1-2" data-name="Layer 1"><g id="doc"><g id="Path_2708" data-name="Path 2708"><path class="cls-1" d="M0,2.56A2.48,2.48,0,0,1,2.59,0H21.41L32,9V39.44A2.48,2.48,0,0,1,29.41,42H2.59A2.48,2.48,0,0,1,0,39.44H0Z"/></g><g id="Path_2709" data-name="Path 2709" class="cls-2"><path class="cls-3" d="M21.41,0V6.4A2.47,2.47,0,0,0,24,9h8"/></g></g><path class="cls-3" d="M5.7,32l2.35-4.36L5.84,23.52H8l.74,1.6c.1.2.19.41.29.63s.2.47.33.74h.05c.09-.27.19-.52.28-.74l.26-.63.68-1.6h2l-2.2,4.22L12.78,32H10.65l-.84-1.73c-.11-.22-.21-.45-.31-.67l-.33-.72H9.12c-.1.26-.19.5-.29.72s-.19.45-.29.67L7.75,32Z"/><path class="cls-3" d="M13.93,32V23.52h1.91v6.87h3.35V32Z"/><path class="cls-3" d="M22.88,32.16a4.82,4.82,0,0,1-1.65-.31,4.23,4.23,0,0,1-1.48-.92l1.09-1.31a4.43,4.43,0,0,0,1,.64,2.72,2.72,0,0,0,1.09.24,1.48,1.48,0,0,0,.89-.22.7.7,0,0,0,.29-.59.62.62,0,0,0-.09-.34.73.73,0,0,0-.24-.26,2.36,2.36,0,0,0-.39-.2l-.5-.22-1.11-.47a3.45,3.45,0,0,1-.63-.33,2.79,2.79,0,0,1-.54-.49,2.34,2.34,0,0,1-.39-.65,2.47,2.47,0,0,1-.14-.84,2.2,2.2,0,0,1,.22-1,2.58,2.58,0,0,1,.62-.81,3,3,0,0,1,1-.54,3.61,3.61,0,0,1,1.21-.19,4,4,0,0,1,1.47.28,3.57,3.57,0,0,1,1.26.84l-1,1.21a4,4,0,0,0-.83-.51A2.52,2.52,0,0,0,23.1,25a1.39,1.39,0,0,0-.78.2.63.63,0,0,0-.29.57.58.58,0,0,0,.09.33,1,1,0,0,0,.28.24,1.74,1.74,0,0,0,.41.21l.5.22,1.09.44a3,3,0,0,1,1.23.86,2.18,2.18,0,0,1,.45,1.44,2.47,2.47,0,0,1-.21,1,2.51,2.51,0,0,1-.63.83,3,3,0,0,1-1,.57A4.08,4.08,0,0,1,22.88,32.16Z"/></g></g></svg>