<?xml version="1.0" encoding="utf-8"?>
<!-- Generator: Adobe Illustrator 24.1.2, SVG Export Plug-In . SVG Version: 6.00 Build 0)  -->
<svg version="1.1" id="Layer_1" xmlns="http://www.w3.org/2000/svg" xmlns:xlink="http://www.w3.org/1999/xlink" x="0px" y="0px"
	 viewBox="0 0 14.8 19.7" style="enable-background:new 0 0 14.8 19.7;" xml:space="preserve">
<style type="text/css">
	.st0{fill:#009F3D;}
	.st1{fill:#00C948;}
	.st2{display:none;}
	.st3{display:inline;fill:#FFFFFF;}
	.st4{fill:#FFFFFF;}
</style>
<g id="doc" transform="translate(-60.235)">
	<path id="Path_2708" class="st0" d="M60.2,1.2c0-0.7,0.5-1.2,1.2-1.2h8.7L75,4.1v14.4c0,0.7-0.5,1.2-1.2,1.2H61.4
		c-0.7,0-1.2-0.5-1.2-1.2c0,0,0,0,0,0V1.2z"/>
	<path id="Path_2709" class="st1" d="M70.1,0v3c0,0.7,0.5,1.2,1.2,1.2H75"/>
	<g id="Group_933" transform="translate(62.394 9.52)" class="st2">
		<path id="Path_2710" class="st3" d="M1.2,4.4H0V0.1h1.1c1.1,0,2.1,0.4,2.1,2.1C3.2,4,2.2,4.4,1.2,4.4z M1.2,0.8H1v2.8h0.2
			c0.6,0,0.9-0.3,0.9-1.4C2.2,1.1,1.8,0.8,1.2,0.8z"/>
		<path id="Path_2711" class="st3" d="M5.2,4.5c-1.1,0-1.7-0.9-1.7-2.2C3.5,0.9,4.1,0,5.2,0s1.7,0.9,1.7,2.2
			C6.9,3.6,6.3,4.5,5.2,4.5z M5.2,0.7c-0.5,0-0.7,0.4-0.7,1.5s0.2,1.5,0.7,1.5c0.5,0,0.7-0.5,0.7-1.5S5.7,0.7,5.2,0.7L5.2,0.7z"/>
		<path id="Path_2712" class="st3" d="M10.1,1.1C9.9,0.9,9.6,0.8,9.3,0.8c-0.6,0-1,0.4-1,1.5c0,1,0.4,1.5,1,1.5
			c0.3,0,0.7-0.1,0.9-0.4l0.5,0.6c-0.4,0.4-0.9,0.6-1.5,0.6c-1.2,0-2-0.8-2-2.2C7.1,1.1,7.9,0.1,9,0c0.1,0,0.2,0,0.3,0
			c0.5,0,1,0.2,1.4,0.5L10.1,1.1z"/>
	</g>
</g>
<g>
	<path class="st4" d="M9.1,11.4c-0.5-0.2-0.7-0.3-0.7-0.5c0-0.2,0.2-0.4,0.5-0.4c0.4,0,0.6,0.1,0.8,0.2l0.2-0.7
		C9.7,10,9.4,9.9,9,9.9c-0.9,0-1.4,0.5-1.4,1.1c0,0.5,0.4,0.9,1,1.1c0.4,0.2,0.6,0.3,0.6,0.5C9.2,12.8,9,13,8.6,13
		c-0.4,0-0.7-0.1-0.9-0.2l-0.2,0.7c0.2,0.1,0.6,0.2,1,0.2c1,0,1.5-0.5,1.5-1.1C10.1,12,9.8,11.7,9.1,11.4z"/>
	<polygon class="st4" points="5.7,9.9 4.9,9.9 4.9,13.6 7.2,13.6 7.2,12.9 5.7,12.9 	"/>
	<path class="st4" d="M4.4,9.9h-1l-0.3,0.7C3,10.8,2.9,11,2.8,11.2h0c-0.1-0.2-0.2-0.4-0.3-0.6L2.2,9.9h-1l1,1.8l-1.1,1.9h1L2.5,13
		c0.1-0.3,0.2-0.4,0.3-0.7h0C2.9,12.5,3,12.7,3.1,13l0.3,0.7v0h1l-1.1-1.9L4.4,9.9z"/>
	<path class="st4" d="M13.5,9.9h-1l-0.3,0.7C12.1,10.8,12,11,12,11.2h0c-0.1-0.2-0.2-0.4-0.3-0.6l-0.3-0.7h-1l1,1.8l-1.1,1.9h1
		l0.3-0.7c0.1-0.3,0.2-0.4,0.3-0.7h0c0.1,0.2,0.2,0.4,0.3,0.7l0.3,0.7v0h1l-1.1-1.9L13.5,9.9z"/>
</g>
</svg>
