<svg xmlns="http://www.w3.org/2000/svg" viewBox="0 0 32 42"><defs><style>.cls-1{fill:#3d814f;}.cls-2{opacity:0.25;}.cls-3{fill:#fff;}</style></defs><g id="Layer_2" data-name="Layer 2"><g id="Layer_1-2" data-name="Layer 1"><g id="doc"><g id="Path_2708" data-name="Path 2708"><path class="cls-1" d="M0,2.56A2.48,2.48,0,0,1,2.59,0H21.41L32,9V39.44A2.48,2.48,0,0,1,29.41,42H2.59A2.48,2.48,0,0,1,0,39.44H0Z"/></g><g id="Path_2709" data-name="Path 2709" class="cls-2"><path class="cls-3" d="M21.41,0V6.4A2.47,2.47,0,0,0,24,9h8"/></g></g><path class="cls-3" d="M4.17,32l2-3.68L4.29,24.83H6.1l.62,1.35.24.53.28.63h0q.12-.35.24-.63c.08-.18.15-.36.23-.53l.57-1.35H10L8.19,28.39l2,3.61H8.36l-.71-1.46c-.09-.19-.18-.38-.26-.57l-.28-.61H7.06c-.08.22-.16.42-.24.61l-.24.57L5.91,32Z"/><path class="cls-3" d="M11.13,32V24.83h1.62v5.81h2.84V32Z"/><path class="cls-3" d="M18.71,32.13a3.85,3.85,0,0,1-1.4-.26,3.68,3.68,0,0,1-1.25-.77L17,30a3.41,3.41,0,0,0,.85.54,2.23,2.23,0,0,0,.92.21,1.29,1.29,0,0,0,.75-.19.63.63,0,0,0,.25-.51.61.61,0,0,0-.07-.28.73.73,0,0,0-.21-.22,2.55,2.55,0,0,0-.33-.17l-.43-.19-.93-.39a3.14,3.14,0,0,1-.54-.29,2.55,2.55,0,0,1-.46-.41A2,2,0,0,1,16.53,26a2.06,2.06,0,0,1,.53-.68,2.48,2.48,0,0,1,.81-.46,3.09,3.09,0,0,1,1-.16,3.37,3.37,0,0,1,1.24.24,3.15,3.15,0,0,1,1.07.7l-.83,1a2.76,2.76,0,0,0-.7-.43,2,2,0,0,0-.78-.15,1.21,1.21,0,0,0-.67.17.57.57,0,0,0-.24.48.42.42,0,0,0,.08.28.67.67,0,0,0,.23.21,2.81,2.81,0,0,0,.35.18l.43.18L20,28a2.53,2.53,0,0,1,1,.73,1.87,1.87,0,0,1,.38,1.22,2,2,0,0,1-.18.85,2.13,2.13,0,0,1-.53.71,2.69,2.69,0,0,1-.85.48A3.43,3.43,0,0,1,18.71,32.13Z"/><path class="cls-3" d="M21.91,32l2-3.68L22,24.83h1.81l.62,1.35c.09.17.17.35.25.53l.27.63H25c.08-.23.16-.44.23-.63l.23-.53.57-1.35h1.73l-1.86,3.56,2,3.61H26.1l-.71-1.46c-.09-.19-.18-.38-.26-.57s-.18-.39-.28-.61h0c-.08.22-.17.42-.25.61l-.24.57L23.65,32Z"/></g></g></svg>