<svg xmlns="http://www.w3.org/2000/svg" viewBox="0 0 32 42"><defs><style>.cls-1{fill:#00b9ac;}.cls-2{opacity:0.25;}.cls-3{fill:#fff;}</style></defs><g id="Layer_2" data-name="Layer 2"><g id="Layer_1-2" data-name="Layer 1"><g id="doc"><g id="Path_2708" data-name="Path 2708"><path class="cls-1" d="M0,2.56A2.48,2.48,0,0,1,2.59,0H21.41L32,9V39.44A2.48,2.48,0,0,1,29.41,42H2.59A2.48,2.48,0,0,1,0,39.44H0Z"/></g><g id="Path_2709" data-name="Path 2709" class="cls-2"><path class="cls-3" d="M21.41,0V6.4A2.47,2.47,0,0,0,24,9h8"/></g></g><path class="cls-3" d="M4.18,32l2.35-4.36L4.32,23.52H6.45l.74,1.6c.1.2.19.41.29.63s.2.47.32.74h.06c.09-.27.19-.52.28-.74l.26-.63.68-1.6h2l-2.2,4.22L11.26,32H9.13l-.84-1.73c-.11-.22-.21-.45-.31-.67l-.33-.72H7.6c-.1.26-.19.5-.29.72L7,30.27,6.23,32Z"/><path class="cls-3" d="M12.41,32V23.52H14.5l1.36,3.77c.09.26.17.51.25.78s.16.52.25.78h.05q.14-.39.24-.78c.07-.27.15-.52.24-.78l1.34-3.77h2.08V32H18.57V28.89c0-.21,0-.43,0-.69s0-.5.07-.76.05-.5.08-.75.05-.48.08-.68h-.06l-.69,2-1.21,3.24h-1L14.6,28l-.67-2h0c0,.2,0,.43.07.68s.06.5.08.75.05.51.07.76,0,.48,0,.69V32Z"/><path class="cls-3" d="M22.31,32V23.52h1.91v6.87h3.36V32Z"/></g></g></svg>