<?xml version="1.0" encoding="utf-8"?>
<!-- Generator: Adobe Illustrator 25.2.0, SVG Export Plug-In . SVG Version: 6.00 Build 0)  -->
<svg version="1.1" id="Layer_1" xmlns="http://www.w3.org/2000/svg" xmlns:xlink="http://www.w3.org/1999/xlink" x="0px" y="0px"
	 viewBox="0 0 30 30" style="enable-background:new 0 0 30 30;" xml:space="preserve">
<style type="text/css">
	.st0{fill:#2E0302;}
	.st1{opacity:0.2;enable-background:new    ;}
	.st2{fill:#5D5D5D;}
	.st3{opacity:0.4;}
	.st4{fill:#FFFFFF;}
	.st5{fill:#F0A038;}
	.st6{fill:#008200;}
	.st7{fill:#13569D;}
	.st8{fill:#E28D30;}
	.st9{fill:#EC3F14;}
	.st10{fill:#AFAFAF;}
	.st11{fill:#008A97;}
	.st12{fill:#00B96C;}
	.st13{fill:#572BAE;}
	.st14{fill:#E24C3F;}
	.st15{fill:#E23508;}
	.st16{fill:#071D34;}
	.st17{fill:#56A4F5;}
	.st18{fill:#7F0071;}
	.st19{fill:#3549B3;}
	.st20{fill:#5B9C8F;}
	.st21{fill:#0E439C;}
	.st22{fill:#FF6D5D;}
	.st23{fill:#FB3A2F;}
	.st24{fill:#007E3A;}
	.st25{fill:#FF7300;}
	.st26{fill:#400735;}
	.st27{fill:#ED6BEF;}
	.st28{fill:#0086D3;}
</style>
<g>
	<g>
		<path class="st18" d="M30,25.3c0,2.6-2.1,4.7-4.7,4.7H4.7C2.1,30,0,27.9,0,25.3V6.1L6.1,0h19.2C27.9,0,30,2.1,30,4.7V25.3z"/>
	</g>
	<g class="st1">
		<polygon class="st2" points="0,9.4 0,6.1 3.3,6.1 		"/>
	</g>
	<g class="st3">
		<path class="st4" d="M0,6.1h4.1c1.1,0,2-0.9,2-2V0L0,6.1z"/>
	</g>
</g>
<g>
	<path class="st4" d="M7.5,18.3l4-4.8H7.6v-1.3h5.6v1.3l-3.9,4.7h4.1l-0.2,1.3H7.5V18.3z"/>
	<path class="st4" d="M14.4,13.1v-1.4h1.5v1.4H14.4z M14.4,14h1.5v5.5h-1.5V14z"/>
	<path class="st4" d="M17.3,21.6v-6.2c0-0.4,0-0.9,0-1.3h1.5c0,0.1,0.1,0.5,0.1,0.7c0.2-0.4,0.7-0.8,1.6-0.8c1.2,0,2.2,1,2.2,2.7
		c0,1.9-1.1,3-2.4,3c-0.8,0-1.2-0.3-1.4-0.6v2.6H17.3z M19.9,15.1c-0.9,0-1.2,0.6-1.2,1.7c0,1,0.3,1.7,1.1,1.7
		c0.8,0,1.2-0.6,1.2-1.7C21,15.6,20.6,15.1,19.9,15.1z"/>
</g>
</svg>
