<?xml version="1.0" encoding="utf-8"?>
<!-- Generator: Adobe Illustrator 24.1.2, SVG Export Plug-In . SVG Version: 6.00 Build 0)  -->
<svg version="1.1" id="Layer_1" xmlns="http://www.w3.org/2000/svg" xmlns:xlink="http://www.w3.org/1999/xlink" x="0px" y="0px"
	 viewBox="0 0 14.8 19.7" style="enable-background:new 0 0 14.8 19.7;" xml:space="preserve">
<style type="text/css">
	.st0{fill:#FDC33B;}
	.st1{fill:#FFFFFF;fill-opacity:0.25;}
	.st2{fill:#FFFFFF;}
</style>
<g id="doc" transform="translate(-60.235)">
	<path id="Path_2708" class="st0" d="M60.2,1.2c0-0.7,0.5-1.2,1.2-1.2h8.7L75,4.1v14.4c0,0.7-0.5,1.2-1.2,1.2H61.4
		c-0.7,0-1.2-0.5-1.2-1.2l0,0V1.2z"/>
	<path id="Path_2709" class="st1" d="M70.1,0v3c0,0.7,0.5,1.2,1.2,1.2H75"/>
</g>
<g>
	<path class="st2" d="M6.5,11.1l-1.2,1.7h1.2v0.6h-2v-0.5l1.2-1.7H4.5v-0.6h2V11.1z"/>
	<path class="st2" d="M7,10.6h0.7v2.8H7V10.6z"/>
	<path class="st2" d="M9.3,12.4H8.9v1H8.2v-2.8h1.1c0.7,0,1,0.4,1,0.9C10.4,11.9,10,12.4,9.3,12.4z M9.3,11.8c0.3,0,0.4-0.1,0.4-0.4
		s-0.1-0.4-0.4-0.4H8.9v0.7H9.3z"/>
</g>
</svg>
