<svg xmlns="http://www.w3.org/2000/svg" viewBox="0 0 32 42"><defs><style>.cls-1{fill:#fdc33b;}.cls-2{opacity:0.25;}.cls-3{fill:#fff;}</style></defs><g id="Layer_2" data-name="Layer 2"><g id="Layer_1-2" data-name="Layer 1"><g id="doc"><g id="Path_2708" data-name="Path 2708"><path class="cls-1" d="M0,2.56A2.48,2.48,0,0,1,2.59,0H21.41L32,9V39.44A2.48,2.48,0,0,1,29.41,42H2.59A2.48,2.48,0,0,1,0,39.44H0Z"/></g><g id="Path_2709" data-name="Path 2709" class="cls-2"><path class="cls-3" d="M21.41,0V6.4A2.47,2.47,0,0,0,24,9h8"/></g></g><path class="cls-3" d="M7.16,32V30.84l3.74-5.7H7.51V23.52h5.75v1.16L9.51,30.39H13.3V32Z"/><path class="cls-3" d="M14.73,32V23.52h1.91V32Z"/><path class="cls-3" d="M18.64,32V23.52h2.91a6,6,0,0,1,1.31.14,2.8,2.8,0,0,1,1.07.46,2.27,2.27,0,0,1,.72.84,2.8,2.8,0,0,1,.27,1.29,2.86,2.86,0,0,1-.27,1.29,2.56,2.56,0,0,1-.72.9,3,3,0,0,1-1.05.52,4.83,4.83,0,0,1-1.28.17H20.55V32Zm1.91-4.39h.94c1,0,1.56-.45,1.56-1.36a1,1,0,0,0-.42-.93,2.22,2.22,0,0,0-1.2-.28h-.88Z"/></g></g></svg>