<?xml version="1.0" encoding="utf-8"?>
<!-- Generator: Adobe Illustrator 25.2.0, SVG Export Plug-In . SVG Version: 6.00 Build 0)  -->
<svg version="1.1" id="Layer_1" xmlns="http://www.w3.org/2000/svg" xmlns:xlink="http://www.w3.org/1999/xlink" x="0px" y="0px"
	 viewBox="0 0 30 30" style="enable-background:new 0 0 30 30;" xml:space="preserve">
<style type="text/css">
	.st0{fill:#2E0302;}
	.st1{opacity:0.2;enable-background:new    ;}
	.st2{fill:#5D5D5D;}
	.st3{opacity:0.4;}
	.st4{fill:#FFFFFF;}
	.st5{fill:#F0A038;}
	.st6{fill:#008200;}
	.st7{fill:#13569D;}
	.st8{fill:#E28D30;}
	.st9{fill:#EC3F14;}
	.st10{fill:#AFAFAF;}
	.st11{fill:#008A97;}
	.st12{fill:#00B96C;}
	.st13{fill:#572BAE;}
	.st14{fill:#E24C3F;}
	.st15{fill:#E23508;}
	.st16{fill:#071D34;}
	.st17{fill:#56A4F5;}
	.st18{fill:#7F0071;}
	.st19{fill:#3549B3;}
	.st20{fill:#5B9C8F;}
	.st21{fill:#0E439C;}
	.st22{fill:#FF6D5D;}
	.st23{fill:#FB3A2F;}
	.st24{fill:#007E3A;}
	.st25{fill:#FF7300;}
	.st26{fill:#400735;}
	.st27{fill:#ED6BEF;}
	.st28{fill:#0086D3;}
</style>
<g>
	<g>
		<path class="st18" d="M30,25.3c0,2.6-2.1,4.7-4.7,4.7H4.7C2.1,30,0,27.9,0,25.3V6.1L6.1,0h19.2C27.9,0,30,2.1,30,4.7V25.3z"/>
	</g>
	<g class="st1">
		<polygon class="st2" points="0,9.4 0,6.1 3.3,6.1 		"/>
	</g>
	<g class="st3">
		<path class="st4" d="M0,6.1h4.1c1.1,0,2-0.9,2-2V0L0,6.1z"/>
	</g>
</g>
<g>
	<path class="st4" d="M8.5,16.5v2.9H7v-7.3h3.2c1.6,0,2.4,0.9,2.4,2c0,1-0.5,1.5-1.1,1.7c0.4,0.1,0.9,0.5,0.9,1.8v0.4
		c0,0.5,0,1,0.1,1.4h-1.5C11,19.1,11,18.6,11,17.8v-0.1c0-0.8-0.2-1.2-1.4-1.2H8.5z M8.5,15.3h1.3c0.9,0,1.2-0.3,1.2-0.9
		c0-0.6-0.4-0.9-1.2-0.9H8.5V15.3z"/>
	<path class="st4" d="M18.4,18c0,0.5,0,1.3,0.1,1.4H17c0-0.1-0.1-0.4-0.1-0.5c-0.2,0.3-0.6,0.7-1.5,0.7c-1.3,0-1.9-0.9-1.9-1.7
		c0-1.2,1-1.8,2.6-1.8h0.8v-0.3c0-0.4-0.1-0.8-0.8-0.8c-0.6,0-0.8,0.3-0.8,0.7h-1.4c0.1-1,0.7-1.8,2.3-1.8c1.5,0,2.3,0.6,2.3,1.9V18
		z M16.9,17h-0.6c-0.9,0-1.3,0.3-1.3,0.8c0,0.4,0.2,0.7,0.8,0.7c1,0,1.1-0.7,1.1-1.4V17z"/>
	<path class="st4" d="M19.7,15.5c0-0.6,0-1,0-1.5h1.5c0,0.1,0,0.7,0,1c0.2-0.6,0.8-1.1,1.8-1.1v1.4c-1.1,0-1.8,0.3-1.8,1.8v2.4h-1.5
		V15.5z"/>
</g>
</svg>
